<svg xmlns="http://www.w3.org/2000/svg" width="1em" height="1em" viewBox="0 0 26 26"><path fill="black" stroke-width="1" d="M7.969.156a1 1 0 0 0-.438.188c-3.21 2.107-5.343 5.724-5.343 9.844c0 6.171 4.767 11.243 10.812 11.75v1.187c-2.013.231-3.469 1.063-3.469 1.063a.943.943 0 0 0 .469 1.75h8a.943.943 0 0 0 .469-1.75s-1.456-.832-3.469-1.063v-1.156a11.8 11.8 0 0 0 5.469-1.907a1 1 0 1 0-1.094-1.656A9.7 9.7 0 0 1 14.187 20a1 1 0 0 0-.374 0a9.81 9.81 0 0 1-9.626-9.813C4.188 6.753 5.96 3.75 8.625 2A1 1 0 0 0 7.969.156M14 1.188a8.7 8.7 0 0 0-4.406 1.187c-.129.058-.253.14-.375.219a3 3 0 0 0-.438.344C6.616 4.546 5.187 7.107 5.187 10c0 1.713.492 3.3 1.344 4.656a.8.8 0 0 0 .125.188c1.582 2.377 4.287 3.969 7.344 3.969a8.7 8.7 0 0 0 4.781-1.407c.046-.029.082-.062.125-.093c2.345-1.588 3.907-4.281 3.907-7.313a8.7 8.7 0 0 0-1.282-4.563a.8.8 0 0 0-.218-.343c-.009-.012-.024-.02-.032-.032L21.22 5C19.623 2.714 16.986 1.187 14 1.187zm0 1.625a7.3 7.3 0 0 1 1.906.25l-1.094.718c-.36-.28-.73-.534-1.093-.75c-.117-.069-.226-.125-.344-.187A8 8 0 0 1 14 2.813m-3.094.906c.537-.01 1.218.192 2 .656c.149.088.318.207.469.313l-3.938 2.53c-.033-.18-.075-.36-.093-.53c-.157-1.448.216-2.387.781-2.75c.008-.005.024.004.031 0c.208-.127.441-.214.75-.22zm6.75.125h.032a7.1 7.1 0 0 1 1.906 1.625l-2 1.281c-.489-.684-.989-1.327-1.532-1.875zm-3 1.937a14.3 14.3 0 0 1 1.563 1.844l-5.282 3.406a14.3 14.3 0 0 1-1.03-2.187zm-6.906.657q.01.202.031.406c.045.413.148.844.25 1.281l-1.125.719a7.1 7.1 0 0 1 .844-2.406m12.688.375c.36.732.625 1.524.718 2.375l-.062.062l-1.594 1.031c-.27-.719-.615-1.46-1.031-2.187zm-3.344 2.156a14 14 0 0 1 1.031 2.187l-4.781 3.063a14.3 14.3 0 0 1-1.563-1.844zm-8.594.75c.274.723.642 1.457 1.063 2.187l-2 1.281a7.1 7.1 0 0 1-.72-2.406L8.5 9.72zm12.594 1.437a7.1 7.1 0 0 1-.844 2.406c-.008-.145-.015-.29-.031-.437c-.044-.402-.12-.826-.219-1.25zm-2.532 1.625c.032.175.076.366.094.531c.157 1.448-.216 2.356-.781 2.72c-.565.363-1.53.336-2.781-.407c-.149-.088-.318-.207-.469-.313zm-8.156.469a15 15 0 0 0 1.563 1.875l-1.656 1.063a7.2 7.2 0 0 1-1.907-1.625zm2.813 2.969c.349.269.71.51 1.062.718c.138.082.267.147.406.22a8 8 0 0 1-.687.03a7.4 7.4 0 0 1-1.906-.25z"/></svg>