<svg xmlns="http://www.w3.org/2000/svg" class="icon" viewBox="0 0 1024 1024"><path d="M120 160H72c-4.4 0-8 3.6-8 8v688c0 4.4 3.6 8 8 8h48c4.4 0 8-3.6 8-8V168c0-4.4-3.6-8-8-8m833 0h-48c-4.4 0-8 3.6-8 8v688c0 4.4 3.6 8 8 8h48c4.4 0 8-3.6 8-8V168c0-4.4-3.6-8-8-8M200 736h112c4.4 0 8-3.6 8-8V168c0-4.4-3.6-8-8-8H200c-4.4 0-8 3.6-8 8v560c0 4.4 3.6 8 8 8m321 0h48c4.4 0 8-3.6 8-8V168c0-4.4-3.6-8-8-8h-48c-4.4 0-8 3.6-8 8v560c0 4.4 3.6 8 8 8m126 0h178c4.4 0 8-3.6 8-8V168c0-4.4-3.6-8-8-8H647c-4.4 0-8 3.6-8 8v560c0 4.4 3.6 8 8 8m-255 0h48c4.4 0 8-3.6 8-8V168c0-4.4-3.6-8-8-8h-48c-4.4 0-8 3.6-8 8v560c0 4.4 3.6 8 8 8m-79 64H201c-4.4 0-8 3.6-8 8v48c0 4.4 3.6 8 8 8h112c4.4 0 8-3.6 8-8v-48c0-4.4-3.6-8-8-8m257 0h-48c-4.4 0-8 3.6-8 8v48c0 4.4 3.6 8 8 8h48c4.4 0 8-3.6 8-8v-48c0-4.4-3.6-8-8-8m256 0H648c-4.4 0-8 3.6-8 8v48c0 4.4 3.6 8 8 8h178c4.4 0 8-3.6 8-8v-48c0-4.4-3.6-8-8-8m-385 0h-48c-4.4 0-8 3.6-8 8v48c0 4.4 3.6 8 8 8h48c4.4 0 8-3.6 8-8v-48c0-4.4-3.6-8-8-8"/></svg>