<svg xmlns="http://www.w3.org/2000/svg" class="icon" viewBox="0 0 1024 1024"><path d="M880 112H144c-17.7 0-32 14.3-32 32v736c0 17.7 14.3 32 32 32h736c17.7 0 32-14.3 32-32V144c0-17.7-14.3-32-32-32m-40 728H184V184h656zM484 366h56c4.4 0 8-3.6 8-8v-56c0-4.4-3.6-8-8-8h-56c-4.4 0-8 3.6-8 8v56c0 4.4 3.6 8 8 8M302 548h56c4.4 0 8-3.6 8-8v-56c0-4.4-3.6-8-8-8h-56c-4.4 0-8 3.6-8 8v56c0 4.4 3.6 8 8 8m364 0h56c4.4 0 8-3.6 8-8v-56c0-4.4-3.6-8-8-8h-56c-4.4 0-8 3.6-8 8v56c0 4.4 3.6 8 8 8m-182 0h56c4.4 0 8-3.6 8-8v-56c0-4.4-3.6-8-8-8h-56c-4.4 0-8 3.6-8 8v56c0 4.4 3.6 8 8 8m0 182h56c4.4 0 8-3.6 8-8v-56c0-4.4-3.6-8-8-8h-56c-4.4 0-8 3.6-8 8v56c0 4.4 3.6 8 8 8"/></svg>