<svg xmlns="http://www.w3.org/2000/svg" class="icon" viewBox="0 0 1024 1024"><path d="M872 808H152c-4.4 0-8 3.6-8 8v56c0 4.4 3.6 8 8 8h720c4.4 0 8-3.6 8-8v-56c0-4.4-3.6-8-8-8m-720-94h56c4.4 0 8-3.6 8-8v-56c0-4.4-3.6-8-8-8h-56c-4.4 0-8 3.6-8 8v56c0 4.4 3.6 8 8 8m0-498h56c4.4 0 8-3.6 8-8v-56c0-4.4-3.6-8-8-8h-56c-4.4 0-8 3.6-8 8v56c0 4.4 3.6 8 8 8m0 332h56c4.4 0 8-3.6 8-8v-56c0-4.4-3.6-8-8-8h-56c-4.4 0-8 3.6-8 8v56c0 4.4 3.6 8 8 8m0-166h56c4.4 0 8-3.6 8-8v-56c0-4.4-3.6-8-8-8h-56c-4.4 0-8 3.6-8 8v56c0 4.4 3.6 8 8 8m166 166h56c4.4 0 8-3.6 8-8v-56c0-4.4-3.6-8-8-8h-56c-4.4 0-8 3.6-8 8v56c0 4.4 3.6 8 8 8m0-332h56c4.4 0 8-3.6 8-8v-56c0-4.4-3.6-8-8-8h-56c-4.4 0-8 3.6-8 8v56c0 4.4 3.6 8 8 8m332 0h56c4.4 0 8-3.6 8-8v-56c0-4.4-3.6-8-8-8h-56c-4.4 0-8 3.6-8 8v56c0 4.4 3.6 8 8 8m0 332h56c4.4 0 8-3.6 8-8v-56c0-4.4-3.6-8-8-8h-56c-4.4 0-8 3.6-8 8v56c0 4.4 3.6 8 8 8m222-72h-56c-4.4 0-8 3.6-8 8v56c0 4.4 3.6 8 8 8h56c4.4 0 8-3.6 8-8v-56c0-4.4-3.6-8-8-8m-388 72h56c4.4 0 8-3.6 8-8v-56c0-4.4-3.6-8-8-8h-56c-4.4 0-8 3.6-8 8v56c0 4.4 3.6 8 8 8m388-404h-56c-4.4 0-8 3.6-8 8v56c0 4.4 3.6 8 8 8h56c4.4 0 8-3.6 8-8v-56c0-4.4-3.6-8-8-8m-388 72h56c4.4 0 8-3.6 8-8v-56c0-4.4-3.6-8-8-8h-56c-4.4 0-8 3.6-8 8v56c0 4.4 3.6 8 8 8m388 426h-56c-4.4 0-8 3.6-8 8v56c0 4.4 3.6 8 8 8h56c4.4 0 8-3.6 8-8v-56c0-4.4-3.6-8-8-8m-388 72h56c4.4 0 8-3.6 8-8v-56c0-4.4-3.6-8-8-8h-56c-4.4 0-8 3.6-8 8v56c0 4.4 3.6 8 8 8m388-404h-56c-4.4 0-8 3.6-8 8v56c0 4.4 3.6 8 8 8h56c4.4 0 8-3.6 8-8v-56c0-4.4-3.6-8-8-8m-388 72h56c4.4 0 8-3.6 8-8v-56c0-4.4-3.6-8-8-8h-56c-4.4 0-8 3.6-8 8v56c0 4.4 3.6 8 8 8"/></svg>