<svg xmlns="http://www.w3.org/2000/svg" fill="currentColor" viewBox="0 0 1024 1024"><g fill-opacity=".88"><path d="M101.283 662q-15.979 0-26.63-9.89Q63.999 642.217 64 627.793q0-14.836 10.96-24.315t27.347-9.479q16.593 0 27.143 9.582T140 627.794q0 15.042-10.755 24.624Q118.491 662 101.283 662M458 657h-66.969L269.624 471.648q-10.682-16.252-14.79-24.48h-.822q1.643 15.633 1.643 47.726V657H193V362h71.488l116.888 179.592q8.012 12.138 14.79 24.07h.822q-1.643-10.287-1.643-40.527V362H458zM702 657H525V362h170.208v54.104h-103.73v65.624h96.527v53.898h-96.527v67.476H702zM960 416.104h-83.953V657h-66.505V416.104H726V362h234z"/></g></svg>