<svg xmlns="http://www.w3.org/2000/svg" class="icon" viewBox="0 0 1024 1024"><path d="M688 312v-48c0-4.4-3.6-8-8-8H296c-4.4 0-8 3.6-8 8v48c0 4.4 3.6 8 8 8h384c4.4 0 8-3.6 8-8m-392 88c-4.4 0-8 3.6-8 8v48c0 4.4 3.6 8 8 8h184c4.4 0 8-3.6 8-8v-48c0-4.4-3.6-8-8-8zm376 116c-119.3 0-216 96.7-216 216s96.7 216 216 216 216-96.7 216-216-96.7-216-216-216m107.5 323.5C750.8 868.2 712.6 884 672 884s-78.8-15.8-107.5-44.5S520 772.6 520 732s15.8-78.8 44.5-107.5S631.4 580 672 580s78.8 15.8 107.5 44.5S824 691.4 824 732s-15.8 78.8-44.5 107.5M640 812a32 32 0 1 0 64 0 32 32 0 1 0-64 0m12-64h40c4.4 0 8-3.6 8-8V628c0-4.4-3.6-8-8-8h-40c-4.4 0-8 3.6-8 8v112c0 4.4 3.6 8 8 8M440 852H208V148h560v344c0 4.4 3.6 8 8 8h56c4.4 0 8-3.6 8-8V108c0-17.7-14.3-32-32-32H168c-17.7 0-32 14.3-32 32v784c0 17.7 14.3 32 32 32h272c4.4 0 8-3.6 8-8v-56c0-4.4-3.6-8-8-8"/></svg>