<svg xmlns="http://www.w3.org/2000/svg" fill="currentColor" viewBox="0 0 1024 1024"><path d="M416 176H255.545v425.615c0 105.313-36.166 134.718-99.104 134.718-29.494 0-56.055-5.05-76.718-12.144L63 848.784C92.484 858.924 137.73 865 173.126 865 317.631 865 416 797.16 416 602.658zm349.49-16C610.26 160 512 248.126 512 364.609c0 100.313 75.67 163.12 185.696 203.629 79.577 28.358 111.03 53.695 111.03 95.218 0 45.579-36.358 74.96-105.13 74.96-63.868 0-121.849-21.311-161.146-42.573v-.042L512 822.427C549.361 843.735 619.12 865 694.741 865 876.52 865 961 767.753 961 653.293c0-97.243-54.036-160.035-170.937-204.627-86.47-34.432-122.813-53.669-122.813-97.227 0-34.45 31.446-65.834 96.3-65.834 63.834 0 107.728 21.445 133.307 34.632l38.336-128.187C895.103 174.461 841.109 160 765.49 160"/></svg>