<svg xmlns="http://www.w3.org/2000/svg" fill="currentColor" viewBox="0 0 1024 1024"><path d="M394.68 756.99s-34.325 19.95 24.343 26.6c71.1 8.05 107.351 7 185.632-7.874 0 0 20.665 12.949 49.385 24.149-175.475 75.074-397.184-4.375-259.36-42.875m-21.366-98.173s-38.352 28.35 20.315 34.475c75.83 7.875 135.897 8.4 239.571-11.55 0 0 14.36 14.525 36.952 22.4-212.427 62.123-448.846 5.075-296.838-45.325m180.73-166.422c43.256 49.699-11.384 94.498-11.384 94.498s109.804-56.7 59.368-127.573c-47.11-66.15-83.185-99.049 112.255-212.273.175 0-306.819 76.65-160.24 245.348M786.26 829.439s25.393 20.825-27.846 37.1c-101.397 30.625-421.7 39.9-510.664 1.225-32.048-13.825 28.02-33.25 46.934-37.275 19.613-4.2 30.997-3.5 30.997-3.5-35.551-25.025-229.94 49.175-98.771 70.35 357.605 58.1 652.165-26.075 559.35-67.9M411.142 557.144S248.1 595.818 353.35 609.818c44.482 5.95 133.095 4.55 215.58-2.275 67.423-5.6 135.196-17.85 135.196-17.85s-23.818 10.15-40.98 21.875c-165.493 43.575-485.096 23.275-393.156-21.175 77.93-37.45 141.151-33.25 141.151-33.25M703.6 720.416c168.296-87.324 90.365-171.322 36.077-159.948-13.31 2.8-19.264 5.25-19.264 5.25s4.903-7.7 14.36-11.025c107.351-37.8 190.01 111.299-34.675 170.273 0-.175 2.627-2.45 3.502-4.55M602.028 64s93.166 93.1-88.438 236.246c-145.53 114.8-33.274 180.424 0 255.148-84.936-76.65-147.28-144.024-105.425-206.848C469.634 256.672 639.68 211.873 602.028 64m-174.25 893.188c161.466 10.325 409.443-5.775 415.222-82.075 0 0-11.208 28.875-133.445 51.975-137.824 25.9-307.87 22.925-408.567 6.3 0-.175 20.665 16.975 126.79 23.8"/></svg>