<svg xmlns="http://www.w3.org/2000/svg" viewBox="0 0 1024 1024"><path d="M512 1024c-69.1 0-136.2-13.5-199.3-40.2C251.7 958 197 921 150 874S66 772.3 40.2 711.3C13.5 648.2 0 581.1 0 512c0-19.9 16.1-36 36-36s36 16.1 36 36c0 59.4 11.6 117 34.6 171.3 22.2 52.4 53.9 99.5 94.3 139.9s87.5 72.2 139.9 94.3C395 940.4 452.6 952 512 952s117-11.6 171.3-34.6c52.4-22.2 99.5-53.9 139.9-94.3s72.2-87.5 94.3-139.9C940.4 629 952 571.4 952 512s-11.6-117-34.6-171.3a440.5 440.5 0 0 0-94.3-139.9 437.7 437.7 0 0 0-139.9-94.3C629 83.6 571.4 72 512 72c-19.9 0-36-16.1-36-36s16.1-36 36-36c69.1 0 136.2 13.5 199.3 40.2C772.3 66 827 103 874 150s83.9 101.8 109.7 162.7c26.7 63.1 40.2 130.2 40.2 199.3s-13.5 136.2-40.2 199.3C958 772.3 921 827 874 874s-101.8 83.9-162.7 109.7c-63.1 26.8-130.2 40.3-199.3 40.3"/></svg>