<svg xmlns="http://www.w3.org/2000/svg" width="200" height="200" class="icon" viewBox="0 0 1024 1024"><path d="M624 672c0 26.5 21.5 48 48 48s48-21.5 48-48-21.5-48-48-48h-48zm96-320c0-26.5-21.5-48-48-48s-48 21.5-48 48v48h48c26.5 0 48-21.5 48-48"/><path d="M928 64H96c-17.7 0-32 14.3-32 32v832c0 17.7 14.3 32 32 32h832c17.7 0 32-14.3 32-32V96c0-17.7-14.3-32-32-32M672 560c61.9 0 112 50.1 112 112s-50.1 112-112 112-112-50.1-112-112v-48h-96v48c0 61.9-50.1 112-112 112s-112-50.1-112-112 50.1-112 112-112h48v-96h-48c-61.9 0-112-50.1-112-112s50.1-112 112-112 112 50.1 112 112v48h96v-48c0-61.9 50.1-112 112-112s112 50.1 112 112-50.1 112-112 112h-48v96z"/><path d="M464 464h96v96h-96zM352 304c-26.5 0-48 21.5-48 48s21.5 48 48 48h48v-48c0-26.5-21.5-48-48-48m-48 368c0 26.5 21.5 48 48 48s48-21.5 48-48v-48h-48c-26.5 0-48 21.5-48 48"/></svg>