<svg xmlns="http://www.w3.org/2000/svg" fill="currentColor" viewBox="0 0 1024 1024"><path d="M475.609 112c-74.042 0-139.727 42.382-172.929 104.575v237.284l92.265 56.484 3.386-235.699 188.997-127.45C555.12 124.695 516.577 112 475.608 112m202.902 62.248c-13.17 0-26.054 1.758-38.8 4.359L453.2 304.363l-1.37 96.146 186.584-125.253 231.22 137.284c3.08-13.888 4.863-28.051 4.863-42.327 0-108.044-87.93-195.965-195.986-195.965m-431.168 91.75C167.343 290.696 109 365.216 109 453.21c0 27.924 5.906 54.829 16.788 79.36l245.487 139.769 90.571-56.124-214.503-131.376zm392.872 74.676-72.702 48.848 203.984 128.062 25.795 235.41C867.422 723.115 916 653.971 916 573.095c0-27.555-5.855-54.129-16.572-78.53zM517.22 423.275l-66.362 44.56-1.045 76.117 64.704 39.662 69.532-43.048-1.837-76.477zm121.194 76.117 5.872 248.343-201.282 119.164C477.72 895.635 521.631 912 567.837 912c79.224 0 147.798-46.522 178.621-114.986L719.402 550.22zm-52.852 105.295L372.428 736.676 169.56 621.15c-3.357 14.46-5.224 29.262-5.224 44.164 0 102.935 79.847 187.408 180.819 195.173l243.036-143.876z"/></svg>