<svg xmlns="http://www.w3.org/2000/svg" fill="currentColor" viewBox="0 0 1024 1024"><path d="M464 144c8.837 0 16 7.163 16 16v304c0 8.836-7.163 16-16 16H160c-8.837 0-16-7.164-16-16V160c0-8.837 7.163-16 16-16zm-52 68H212v200h200zm493.333 87.686c6.248 6.248 6.248 16.379 0 22.627l-181.02 181.02c-6.248 6.248-16.378 6.248-22.627 0l-181.019-181.02c-6.248-6.248-6.248-16.379 0-22.627l181.02-181.02c6.248-6.248 16.378-6.248 22.627 0zm-84.853 11.313L713 203.52 605.52 311 713 418.48zM464 544c8.837 0 16 7.164 16 16v304c0 8.837-7.163 16-16 16H160c-8.837 0-16-7.163-16-16V560c0-8.836 7.163-16 16-16zm-52 68H212v200h200zm452-68c8.837 0 16 7.164 16 16v304c0 8.837-7.163 16-16 16H560c-8.837 0-16-7.163-16-16V560c0-8.836 7.163-16 16-16zm-52 68H612v200h200z"/></svg>