<svg xmlns="http://www.w3.org/2000/svg" class="icon" viewBox="0 0 1024 1024"><path d="M396 140h-56c-4.4 0-8 3.6-8 8v56c0 4.4 3.6 8 8 8h56c4.4 0 8-3.6 8-8v-56c0-4.4-3.6-8-8-8m-44 684h-56c-4.4 0-8 3.6-8 8v56c0 4.4 3.6 8 8 8h56c4.4 0 8-3.6 8-8v-56c0-4.4-3.6-8-8-8m524-204h-56c-4.4 0-8 3.6-8 8v56c0 4.4 3.6 8 8 8h56c4.4 0 8-3.6 8-8v-56c0-4.4-3.6-8-8-8M192 344h-56c-4.4 0-8 3.6-8 8v56c0 4.4 3.6 8 8 8h56c4.4 0 8-3.6 8-8v-56c0-4.4-3.6-8-8-8m0 160h-56c-4.4 0-8 3.6-8 8v56c0 4.4 3.6 8 8 8h56c4.4 0 8-3.6 8-8v-56c0-4.4-3.6-8-8-8m0 160h-56c-4.4 0-8 3.6-8 8v56c0 4.4 3.6 8 8 8h56c4.4 0 8-3.6 8-8v-56c0-4.4-3.6-8-8-8m0 160h-56c-4.4 0-8 3.6-8 8v56c0 4.4 3.6 8 8 8h56c4.4 0 8-3.6 8-8v-56c0-4.4-3.6-8-8-8m320 0h-56c-4.4 0-8 3.6-8 8v56c0 4.4 3.6 8 8 8h56c4.4 0 8-3.6 8-8v-56c0-4.4-3.6-8-8-8m160 0h-56c-4.4 0-8 3.6-8 8v56c0 4.4 3.6 8 8 8h56c4.4 0 8-3.6 8-8v-56c0-4.4-3.6-8-8-8m140-284c0 4.4 3.6 8 8 8h56c4.4 0 8-3.6 8-8V370c0-127-103-230-230-230H484c-4.4 0-8 3.6-8 8v56c0 4.4 3.6 8 8 8h170c87.3 0 158 70.7 158 158zM236 96H92c-4.4 0-8 3.6-8 8v144c0 4.4 3.6 8 8 8h144c4.4 0 8-3.6 8-8V104c0-4.4-3.6-8-8-8m-48 101.6c0 1.3-1.1 2.4-2.4 2.4h-43.2c-1.3 0-2.4-1.1-2.4-2.4v-43.2c0-1.3 1.1-2.4 2.4-2.4h43.2c1.3 0 2.4 1.1 2.4 2.4zM920 780H776c-4.4 0-8 3.6-8 8v144c0 4.4 3.6 8 8 8h144c4.4 0 8-3.6 8-8V788c0-4.4-3.6-8-8-8m-48 101.6c0 1.3-1.1 2.4-2.4 2.4h-43.2c-1.3 0-2.4-1.1-2.4-2.4v-43.2c0-1.3 1.1-2.4 2.4-2.4h43.2c1.3 0 2.4 1.1 2.4 2.4z"/></svg>