<svg xmlns="http://www.w3.org/2000/svg" width="200" height="200" class="icon" viewBox="0 0 1024 1024"><path d="M852 64H172c-17.7 0-32 14.3-32 32v660c0 17.7 14.3 32 32 32h680c17.7 0 32-14.3 32-32V96c0-17.7-14.3-32-32-32M300 328c0-33.1 26.9-60 60-60s60 26.9 60 60-26.9 60-60 60-60-26.9-60-60m372 248c0 4.4-3.6 8-8 8H360c-4.4 0-8-3.6-8-8v-60c0-4.4 3.6-8 8-8h304c4.4 0 8 3.6 8 8zm-8-188c-33.1 0-60-26.9-60-60s26.9-60 60-60 60 26.9 60 60-26.9 60-60 60m135 476H225c-13.8 0-25 14.3-25 32v56c0 4.4 2.8 8 6.2 8h611.5c3.4 0 6.2-3.6 6.2-8v-56c.1-17.7-11.1-32-24.9-32"/></svg>