<svg xmlns="http://www.w3.org/2000/svg" width="200" height="200" class="icon" viewBox="0 0 1024 1024"><path fill="#333" d="M512 64C264.6 64 64 264.6 64 512s200.6 448 448 448 448-200.6 448-448S759.4 64 512 64M361.5 580.2c0 27.8-22.5 50.4-50.3 50.4-13.3 0-26.1-5.3-35.6-14.8-9.4-9.5-14.7-22.3-14.7-35.6 0-27.8 22.5-50.4 50.3-50.4h50.3zm134 134.4c0 27.8-22.5 50.4-50.3 50.4s-50.3-22.6-50.3-50.4V580.2c0-27.8 22.5-50.4 50.3-50.4 13.3 0 26.1 5.3 35.6 14.8s14.7 22.3 14.7 35.6zm-50.2-218.4h-134c-27.8 0-50.3-22.6-50.3-50.4s22.5-50.4 50.3-50.4h134c27.8 0 50.3 22.6 50.3 50.4-.1 27.9-22.6 50.4-50.3 50.4m0-134.4c-13.3 0-26.1-5.3-35.6-14.8S395 324.8 395 311.4c0-27.8 22.5-50.4 50.3-50.4s50.3 22.6 50.3 50.4v50.4zm83.7-50.4c0-27.8 22.5-50.4 50.3-50.4s50.3 22.6 50.3 50.4v134.4c0 27.8-22.5 50.4-50.3 50.4S529 473.6 529 445.8zM579.3 765c-27.8 0-50.3-22.6-50.3-50.4v-50.4h50.3c27.8 0 50.3 22.6 50.3 50.4S607.1 765 579.3 765m134-134.4h-134c-13.3 0-26.1-5.3-35.6-14.8S529 593.6 529 580.2c0-27.8 22.5-50.4 50.3-50.4h134c27.8 0 50.3 22.6 50.3 50.4s-22.5 50.4-50.3 50.4m0-134.4H663v-50.4c0-27.8 22.5-50.4 50.3-50.4s50.3 22.6 50.3 50.4-22.5 50.4-50.3 50.4"/></svg>