<svg xmlns="http://www.w3.org/2000/svg" fill="currentColor" viewBox="0 0 1024 1024"><path d="M721.417 695.167q0-18.667-17.5-29.75-112.584-67.084-260.75-67.084-77.584 0-167.417 19.834-24.5 5.25-24.5 30.333 0 11.667 7.875 20.125t20.708 8.458q2.918 0 21.584-4.666 77-15.75 141.75-15.75 131.833 0 231.583 60.083 11.084 6.417 19.25 6.417 11.084 0 19.25-7.875t8.167-20.125m56-125.417q0-23.334-20.417-35.583-138.25-82.25-319.667-82.25-89.25 0-176.75 24.5-28 7.583-28 37.333 0 14.583 10.209 24.792 10.209 10.208 24.791 10.208 4.084 0 21.584-4.667 71.167-19.25 146.416-19.25 162.75 0 284.667 72.334 14 7.583 22.167 7.583 14.583 0 24.791-10.208t10.209-24.792m63-144.667q0-27.416-23.334-40.833-73.5-42.584-170.916-64.458-97.418-21.875-200.084-21.875-118.999 0-212.333 27.416-13.416 4.084-22.458 14.875T202.25 368.5q0 18.084 11.958 30.333 11.959 12.25 30.042 12.25 6.417 0 23.333-4.666 77.584-21.584 179.084-21.584 92.75 0 180.541 19.834Q715 424.5 775.083 460.083q12.25 7 23.334 7 16.916 0 29.458-11.958t12.542-30.042M960 512q0 121.917-60.083 224.875-60.084 102.958-163.042 163.042Q633.917 960 512 960t-224.875-60.083-163.042-163.042Q64 633.917 64 512t60.083-224.875q60.084-102.958 163.042-163.042Q390.083 64 512 64t224.875 60.083q102.958 60.084 163.042 163.042Q960 390.083 960 512"/></svg>