<svg xmlns="http://www.w3.org/2000/svg" fill="currentColor" viewBox="0 0 1024 1024"><path d="M548 818v126c0 8.837-7.163 16-16 16h-40c-8.837 0-16-7.163-16-16V818q23.768 2.464 36 2.464T548 818m205.251-115.66 89.096 89.095c6.248 6.248 6.248 16.38 0 22.627l-28.285 28.285c-6.248 6.248-16.379 6.248-22.627 0L702.34 753.25q18.548-15.064 27.198-23.713 8.649-8.65 23.713-27.198m-482.502 0q15.064 18.548 23.713 27.198 8.65 8.649 27.198 23.713l-89.095 89.096c-6.248 6.248-16.38 6.248-22.627 0l-28.285-28.285c-6.248-6.248-6.248-16.379 0-22.627zM512 278c129.235 0 234 104.765 234 234S641.235 746 512 746 278 641.235 278 512s104.765-234 234-234m0 72c-89.47 0-162 72.53-162 162s72.53 162 162 162 162-72.53 162-162-72.53-162-162-162M206 476q-2.464 23.768-2.464 36T206 548H80c-8.837 0-16-7.163-16-16v-40c0-8.837 7.163-16 16-16zm738 0c8.837 0 16 7.163 16 16v40c0 8.837-7.163 16-16 16H818q2.464-23.768 2.464-36T818 476ZM814.062 180.653l28.285 28.285c6.248 6.248 6.248 16.379 0 22.627L753.25 320.66q-15.064-18.548-23.713-27.198-8.65-8.649-27.198-23.713l89.095-89.096c6.248-6.248 16.38-6.248 22.627 0m-581.497 0 89.095 89.096q-18.548 15.064-27.198 23.713-8.649 8.65-23.713 27.198l-89.096-89.095c-6.248-6.248-6.248-16.38 0-22.627l28.285-28.285c6.248-6.248 16.379-6.248 22.627 0M532 64c8.837 0 16 7.163 16 16v126q-23.768-2.464-36-2.464T476 206V80c0-8.837 7.163-16 16-16z"/></svg>