<svg xmlns="http://www.w3.org/2000/svg" width="200" height="200" class="icon" viewBox="0 0 1024 1024"><path d="M140 188h584v164h76V144c0-17.7-14.3-32-32-32H96c-17.7 0-32 14.3-32 32v736c0 17.7 14.3 32 32 32h544v-76H140z"/><path d="M414.3 256h-60.6c-3.4 0-6.4 2.2-7.6 5.4L219 629.4c-.3.8-.4 1.7-.4 2.6 0 4.4 3.6 8 8 8h55.1c3.4 0 6.4-2.2 7.6-5.4L322 540h196.2L422 261.4c-1.3-3.2-4.3-5.4-7.7-5.4m12.4 228h-85.5L384 360.2zM936 528H800v-93c0-4.4-3.6-8-8-8h-56c-4.4 0-8 3.6-8 8v93H592c-13.3 0-24 10.7-24 24v176c0 13.3 10.7 24 24 24h136v152c0 4.4 3.6 8 8 8h56c4.4 0 8-3.6 8-8V752h136c13.3 0 24-10.7 24-24V552c0-13.3-10.7-24-24-24M728 680h-88v-80h88zm160 0h-88v-80h88z"/></svg>