<svg xmlns="http://www.w3.org/2000/svg" width="200" height="200" class="icon" viewBox="0 0 1024 1024"><path d="M736 550H288c-8.8 0-16 7.2-16 16v176c0 8.8 7.2 16 16 16h448c8.8 0 16-7.2 16-16V566c0-8.8-7.2-16-16-16m-56 136H344v-64h336zm208 130c-39.8 0-72 32.2-72 72s32.2 72 72 72 72-32.2 72-72-32.2-72-72-72m0 96c-13.3 0-24-10.7-24-24s10.7-24 24-24 24 10.7 24 24-10.7 24-24 24M736 266H288c-8.8 0-16 7.2-16 16v176c0 8.8 7.2 16 16 16h448c8.8 0 16-7.2 16-16V282c0-8.8-7.2-16-16-16m-56 136H344v-64h336zm208-194c39.8 0 72-32.2 72-72s-32.2-72-72-72-72 32.2-72 72 32.2 72 72 72m0-96c13.3 0 24 10.7 24 24s-10.7 24-24 24-24-10.7-24-24 10.7-24 24-24M136 64c-39.8 0-72 32.2-72 72s32.2 72 72 72 72-32.2 72-72-32.2-72-72-72m0 96c-13.3 0-24-10.7-24-24s10.7-24 24-24 24 10.7 24 24-10.7 24-24 24m0 656c-39.8 0-72 32.2-72 72s32.2 72 72 72 72-32.2 72-72-32.2-72-72-72m0 96c-13.3 0-24-10.7-24-24s10.7-24 24-24 24 10.7 24 24-10.7 24-24 24"/></svg>