<svg xmlns="http://www.w3.org/2000/svg" width="1em" height="1em" viewBox="0 0 24 24"><path fill="none" stroke="white" stroke-linejoin="round" stroke-miterlimit="10" stroke-width="1.5" d="M12 17.025c-.142 0-.341.072-.588.208a7 7 0 0 0-.835.56c-.614.464-1.317 1.085-1.983 1.706a62 62 0 0 0-2.455 2.43l-.04.041l-.013.014a.05.05 0 0 1-.055.012A.05.05 0 0 1 6 21.95V4.438A2.43 2.43 0 0 1 8.43 2h7.14A2.43 2.43 0 0 1 18 4.438V21.95a.05.05 0 0 1-.085.034h-.001l-.013-.014l-.04-.041l-.151-.158a67 67 0 0 0-2.304-2.272c-.666-.621-1.37-1.242-1.983-1.707a7 7 0 0 0-.835-.56c-.247-.135-.446-.207-.588-.207Z" clip-rule="evenodd"/></svg>