<svg xmlns="http://www.w3.org/2000/svg" width="1em" height="1em" viewBox="0 0 56 56"><path fill="white" d="m48.777 9.977l1.688-1.735c.82-.82.82-1.969.023-2.742l-.54-.562c-.725-.727-1.874-.633-2.647.117L45.59 6.742ZM21.801 34.352l4.57-1.993l20.696-20.671l-3.212-3.165l-20.671 20.672l-2.11 4.407c-.187.398.281.937.727.75m-9.727 17.437H39.59c4.218 0 6.656-2.437 6.656-7.266V18.437l-3.773 3.774v22.125c0 2.437-1.313 3.68-2.93 3.68H12.144c-2.343 0-3.656-1.243-3.656-3.68V17.734c0-2.437 1.313-3.703 3.656-3.703h20.274l3.773-3.773H12.074c-4.875 0-7.36 2.437-7.36 7.265v27c0 4.852 2.485 7.266 7.36 7.266"/></svg>