<svg fill-opacity="1" stroke-opacity="1" xmlns="http://www.w3.org/2000/svg" width="48" height="48" fill="none" viewBox="0 0 48 48"><path stroke="#000" stroke-linecap="round" stroke-width="2" d="M42 35h-8M31 42h-4"/><path stroke="#000" stroke-linecap="round" stroke-linejoin="round" stroke-width="2" d="m14 22-6-5H4s5.486 10 8 10h32l-6-5z"/><path stroke="#000" stroke-linecap="round" stroke-linejoin="round" stroke-width="2" d="m30 22-11.34-8H16l3 8M30 27 17.2 39H14l4.267-12M32 11c0 1-3 2-3 2h10s2.886 0 3.745-2.286C43.63 8.36 42.045 5 39.022 5S36 8 36 8s-1.855-.571-3 0-1 2-1 3"/></svg>