<svg fill-opacity="1" stroke-opacity="1" xmlns="http://www.w3.org/2000/svg" width="48" height="48" fill="none" viewBox="0 0 48 48"><path stroke="#000" stroke-width="2" d="M39 6H9a3 3 0 0 0-3 3v30a3 3 0 0 0 3 3h30a3 3 0 0 0 3-3V9a3 3 0 0 0-3-3Z"/><path stroke="#000" stroke-linecap="round" stroke-linejoin="round" stroke-width="2" d="M14 15v18"/><path stroke="#000" stroke-linecap="round" stroke-linejoin="round" stroke-width="2" d="M16 25c3 0 7-.8 7-5s-4-5-7-5h-2v10z" clip-rule="evenodd"/><path stroke="#000" stroke-linecap="round" stroke-linejoin="round" stroke-width="2" d="M34 21.025c-1 0-6-.498-6 2.987s6 2.49 6 5.976-6 2.987-6 2.987"/></svg>