<svg fill-opacity="1" stroke-opacity="1" xmlns="http://www.w3.org/2000/svg" width="48" height="48" fill="none" viewBox="0 0 48 48"><path stroke="#000" stroke-linecap="round" stroke-linejoin="round" stroke-width="2" d="M10 18c0-7.732 6.268-14 14-14s14 6.268 14 14v12c0 7.732-6.268 14-14 14s-14-6.268-14-14zM10 17h28M22 11h4"/><path stroke="#000" stroke-linecap="round" stroke-linejoin="round" stroke-width="2" d="M10 26s5.4-.6 7 1 1 3.369 1 3.369c3 0 6 .158 6 3.631 0 2.5-4 4-6.5 2.369C17.5 38.5 17 40 14 40M38 23s-3.5-2-5-1-1 3-1 3c-1.5-1-4 0-4 2.5s2.5 3.5 5 2.5c1 3 3.5 3 5 2"/><path stroke="#000" stroke-linecap="round" stroke-linejoin="round" stroke-width="2" d="M25 44c7.18 0 13-5.82 13-13V18c0-7.732-6.268-14-14-14v0M23 44c-7.18 0-13-5.82-13-13V18c0-7.732 6.268-14 14-14v0"/></svg>