<svg fill-opacity="1" stroke-opacity="1" xmlns="http://www.w3.org/2000/svg" width="48" height="48" fill="none" viewBox="0 0 48 48"><path fill="#000" d="M24 0c13.255 0 24 10.745 24 24S37.255 48 24 48 0 37.255 0 24 10.745 0 24 0m0 4.364C13.155 4.364 4.364 13.155 4.364 24S13.155 43.636 24 43.636c6.738 0 12.683-3.393 16.22-8.565a64 64 0 0 1-6.683-2.402q-1.855-.78-5.541-2.459C25.056 33.173 20.769 36 16.174 36c-3.188-.016-8.538-1.627-8.538-6.654s4.956-6.224 8.172-6.224q2.919 0 10.33 3.222l.077.03q1.989-2.434 2.73-5.653l.1-.464h-12.87v-2.32h5.857v-2.9h-8.201v-1.74h8.201l.001-3.479h4.687v3.48h9.374v1.74H26.72v2.899h7.486q-.165 1.086-.371 1.973l-.084.347q-.517 1.868-2.325 5.442c-.32.632-.782 1.364-1.366 2.139q2.766 1.024 5.6 1.99 3.67 1.249 6.345 2.02A19.6 19.6 0 0 0 43.636 24c0-10.845-8.791-19.636-19.636-19.636m-13.685 24.18c0 3.198 6.69 4.472 12.11 1.106q.915-.57 1.71-1.213l-.018-.008-.427-.262q-5.074-3.087-7.882-3.348c-1.719-.159-5.493.527-5.493 3.725m18.73-8.287h2.209z"/></svg>