<svg fill-opacity="1" stroke-opacity="1" xmlns="http://www.w3.org/2000/svg" width="48" height="48" fill="none" viewBox="0 0 48 48"><path stroke="#000" stroke-linejoin="round" stroke-width="2" d="M10 35H6a2 2 0 0 1-2-2V11a2 2 0 0 1 2-2h25a2 2 0 0 1 2 2v6.899a3 3 0 0 0 1.975 2.82l7.05 2.563A3 3 0 0 1 44 26.102V33a2 2 0 0 1-2 2h-4M18 35h12"/><path stroke="#000" stroke-linecap="round" stroke-linejoin="round" stroke-width="2" d="M12 19h8M16 15v8"/><circle cx="14" cy="35" r="4" stroke="#000" stroke-width="2"/><circle cx="34" cy="35" r="4" stroke="#000" stroke-width="2"/></svg>