<svg fill-opacity="1" stroke-opacity="1" xmlns="http://www.w3.org/2000/svg" width="48" height="48" fill="none" viewBox="0 0 48 48"><path stroke="#000" stroke-linejoin="round" stroke-width="2" d="M24 41.996q20 .154 20-3.275c0-3.428-15.586-20.718-20-20.718S4 35.65 4 38.722q0 3.07 20 3.274Z" clip-rule="evenodd"/><path stroke="#000" stroke-linecap="round" stroke-width="2" d="m21.06 29.661-3.62 4.34"/><path fill="#000" d="M24.5 11a2.5 2.5 0 1 0 0-5 2.5 2.5 0 0 0 0 5M34 16a2 2 0 1 0 0-4 2 2 0 0 0 0 4M12 21a2 2 0 1 0 0-4 2 2 0 0 0 0 4M17.5 15a1.5 1.5 0 1 0 0-3 1.5 1.5 0 0 0 0 3"/></svg>