<svg fill-opacity="1" stroke-opacity="1" xmlns="http://www.w3.org/2000/svg" width="48" height="48" fill="none" viewBox="0 0 48 48"><path fill="#000" d="M23.911 11.318c.082-2.232.71-4.192 1.866-5.83 1.163-1.647 3.086-2.817 5.717-3.48l.055.243v.424c0 .961-.233 2.064-.693 3.276-.483 1.174-1.237 2.28-2.238 3.277-.936.879-1.803 1.46-2.569 1.723-.252.076-.599.15-1.018.217q-.558.087-1.12.15"/><path stroke="#000" stroke-linejoin="round" stroke-width="2" d="M24.35 14.629c-2.972 0-5.036-2.63-7.969-2.63-2.932 0-8.973 2.696-8.973 12 0 9.306 5.365 15.3 5.965 16 .6.701 1.987 2.5 4.137 2.5s4.503-1.709 6.84-1.709 5.279 1.71 7.2 1.71c1.92 0 2.71-.783 4.016-2.134s3.8-5.47 4.67-7.944c-1.433-.854-5.234-3.17-5.234-8.422q0-5.251 3.838-8.725Q36.322 12 33 12c-3.323 0-5.677 2.629-8.65 2.629Z"/></svg>