<svg fill-opacity="1" stroke-opacity="1" xmlns="http://www.w3.org/2000/svg" width="48" height="48" fill="none" viewBox="0 0 48 48"><path stroke="#000" stroke-linecap="round" stroke-linejoin="round" stroke-width="2" d="M24 40.833a11.96 11.96 0 0 0 8 3.056c6.627 0 12-5.373 12-12 0-5.301-3.437-9.8-8.204-11.387"/><path stroke="#000" stroke-linecap="round" stroke-linejoin="round" stroke-width="2" d="M27.171 27.5c.535 1.359.829 2.84.829 4.39 0 6.627-5.373 12-12 12-6.628 0-12-5.373-12-12 0-5.316 3.455-9.824 8.242-11.4"/><path stroke="#000" stroke-linecap="round" stroke-linejoin="round" stroke-width="2" d="M24 27.89c6.627 0 12-5.373 12-12 0-6.628-5.373-12-12-12s-12 5.372-12 12c0 6.627 5.373 12 12 12"/></svg>