<svg fill-opacity="1" stroke-opacity="1" xmlns="http://www.w3.org/2000/svg" width="48" height="48" fill="none" viewBox="0 0 48 48"><g stroke="#000" stroke-linecap="round" stroke-linejoin="round" stroke-width="2" clip-path="url(#a)"><path d="m40.85 43.92-1.574-.314c-2.35-.47-3.42-3.607-2.673-5.884 1.954-5.96.522-13.61-.27-16.913-.246-1.024-1.058-1.794-2.08-2.05l-2.263-.565a3 3 0 0 1-2.183-2.183l-.565-2.262c-.256-1.023-1.025-1.834-2.05-2.08-3.302-.792-10.954-2.225-16.912-.27-2.277.747-5.414-.324-5.884-2.674L4.08 7.151M6 11l32 32M12 36 43 5"/></g><defs><clipPath id="a"><path fill="#000" d="M0 0h48v48H0z"/></clipPath></defs></svg>