<svg fill-opacity="1" stroke-opacity="1" xmlns="http://www.w3.org/2000/svg" width="48" height="48" fill="none" viewBox="0 0 48 48"><path stroke="#000" stroke-linecap="round" stroke-linejoin="round" stroke-width="2" d="M41 4H7a3 3 0 0 0-3 3v34a3 3 0 0 0 3 3h34a3 3 0 0 0 3-3V7a3 3 0 0 0-3-3M10 14h8M10 14h8M11 37l6-6M14 18v-8M17 37l-6-6M30 14h8M30 31h8M30 37h8"/><path stroke="#000" stroke-linecap="round" stroke-width="2" d="M24 4v40M4 24h40"/><path stroke="#000" stroke-linecap="round" stroke-linejoin="round" stroke-width="2" d="M30 4H18M30 44H18M4 28v-8M44 28v-8"/></svg>