<svg fill-opacity="1" stroke-opacity="1" xmlns="http://www.w3.org/2000/svg" width="48" height="48" fill="none" viewBox="0 0 48 48"><path stroke="#000" stroke-linecap="round" stroke-linejoin="round" stroke-width="2" d="M44 24c0-11.046-8.954-20-20-20S4 12.954 4 24s8.954 20 20 20v0c4.989 0 9.55-1.827 13.054-4.847"/><path stroke="#000" stroke-linejoin="round" stroke-width="2" d="M24 32a8 8 0 1 0 0-16 8 8 0 0 0 0 16Z"/><path stroke="#000" stroke-linecap="round" stroke-linejoin="round" stroke-width="2" d="M32 24a6 6 0 0 0 6 6v0a6 6 0 0 0 6-6M32 25v-9"/></svg>