<svg fill-opacity="1" stroke-opacity="1" xmlns="http://www.w3.org/2000/svg" width="48" height="48" fill="none" viewBox="0 0 48 48"><path stroke="#000" stroke-linecap="round" stroke-linejoin="round" stroke-width="2" d="M7 32c3 5 8 8 13 9s10.808.144 15-3c6-4.5 8-12 8-17s-2-10.5-3-12-3-2-3-2"/><path stroke="#000" stroke-linecap="round" stroke-linejoin="round" stroke-width="2" d="M21 13c-4.355 1.604-9 0-13 3-4.696 3.523-6 9-3 14 2.352 3.92 6 6 12 6s9.764-1.765 14-6c6-6 8-15.5 8-19s-2.5-5.5-6-5-6.427 4.947-12 7"/><path stroke="#000" stroke-linecap="round" stroke-linejoin="round" stroke-width="2" d="M21.945 20.117c-1.223.48-2.527 0-3.65.898-1.32 1.054-1.686 2.693-.843 4.19.66 1.172 1.685 1.795 3.37 1.795s2.742-.528 3.931-1.796C26.438 23.41 27 20.566 27 19.52s-.702-1.646-1.685-1.496-1.805 1.48-3.37 2.094"/></svg>