<svg fill-opacity="1" stroke-opacity="1" xmlns="http://www.w3.org/2000/svg" width="48" height="48" fill="none" viewBox="0 0 48 48"><path stroke="#000" stroke-linejoin="round" stroke-width="2" d="M24 44c9.941 0 18-8.059 18-18S33.941 8 24 8 6 16.059 6 26s8.059 18 18 18Z"/><path stroke="#000" stroke-linecap="round" stroke-linejoin="round" stroke-width="2" d="M24 8c-.25-1-2-4-6-4M24 8c.083-1 .6-3.2 2-4M31 33s-2 4-7 4-7-4-7-4"/><path stroke="#000" stroke-linecap="round" stroke-linejoin="round" stroke-width="2" d="M31 33s1.5-4-1-4-3 7-3 7M33 21h-4M17 19v4M4 24v4M44 24v4"/></svg>