<svg fill-opacity="1" stroke-opacity="1" xmlns="http://www.w3.org/2000/svg" width="48" height="48" fill="none" viewBox="0 0 48 48"><path stroke="#000" stroke-linecap="round" stroke-width="2" d="M43 26v6a2 2 0 0 1-2 2H7a2 2 0 0 1-2-2V12a2 2 0 0 1 2-2h9"/><path stroke="#000" stroke-linecap="round" stroke-linejoin="round" stroke-width="2" d="M4 40h40"/><circle cx="30" cy="17" r="9" stroke="#000" stroke-width="2"/><path stroke="#000" stroke-linecap="round" stroke-linejoin="round" stroke-width="2" d="M19 18v-2M41 18v-2M30 8c-.167-1-1.2-3.2-4-4M30 8c.083-1 .6-3.2 2-4"/><circle cx="33" cy="16" r="2" fill="#000"/><circle cx="27" cy="16" r="2" fill="#000"/></svg>