<svg fill-opacity="1" stroke-opacity="1" xmlns="http://www.w3.org/2000/svg" width="48" height="48" fill="none" viewBox="0 0 48 48"><path stroke="#000" stroke-linejoin="round" stroke-width="2" d="M34 4H14c-2 1-5 5-5 15 0 12.5 5 25 8 25 2 0 2-2.5 2-2.5V24c0-5 8-4.5 8 0v11c0 8 7 11 9 9s-2-4-2-7c0-5 4-9 4-22 0-5-2.333-9-4-11Z"/><path stroke="#000" stroke-linecap="round" stroke-linejoin="round" stroke-width="2" d="M10 12h27"/><path stroke="#000" stroke-linejoin="round" stroke-width="2" d="M10.803 8c-.732 1.696-1.338 3.981-1.624 7M38 15c0-2.228-.464-4.258-1.125-6"/></svg>