<svg fill-opacity="1" stroke-opacity="1" xmlns="http://www.w3.org/2000/svg" width="48" height="48" fill="none" viewBox="0 0 48 48"><circle cx="24" cy="10" r="5" stroke="#000" stroke-width="2"/><path stroke="#000" stroke-linecap="round" stroke-linejoin="round" stroke-width="2" d="M24 21C14 21 11 6 11 6L6 8l3 16.5c1.167.667 5.5 3 8 6.5s2 7 7.5 7 6-4.5 7.5-7 5.667-6 7-6.5L42 8l-5-2s-3 15-13 15"/><path stroke="#000" stroke-linecap="round" stroke-linejoin="round" stroke-width="2" d="M34 29s7 4 7 13h-5c0-6-5-9-5-9M15 29s-7 4-7 13h5c0-6 5-9 5-9"/></svg>