<svg fill-opacity="1" stroke-opacity="1" xmlns="http://www.w3.org/2000/svg" width="48" height="48" fill="none" viewBox="0 0 48 48"><path stroke="#000" stroke-width="2" d="M24 43.6c8.432 0 15.56-6.68 17.894-14.35C42.418 27.526 46 27.526 46 23.8s-3.616-3.94-4.201-5.752C39.372 10.535 32.32 4 24 4 15.675 4 8.62 10.54 6.197 18.06 5.615 19.87 2 20.01 2 23.8s3.592 3.79 4.135 5.542C8.497 36.964 15.602 43.6 24 43.6Z" clip-rule="evenodd"/><path stroke="#000" stroke-linecap="round" stroke-width="2" d="M41.799 18.048C39.372 10.535 32.32 4 24 4"/><path fill="#000" stroke="#000" d="M19.1 21.6c0 .826-.224 1.552-.56 2.056-.339.508-.751.744-1.14.744s-.8-.236-1.14-.744c-.336-.504-.56-1.23-.56-2.056s.224-1.552.56-2.056c.34-.508.752-.744 1.14-.744.389 0 .801.236 1.14.744.336.504.56 1.23.56 2.056ZM32.3 21.6c0 .826-.224 1.552-.56 2.056-.339.508-.752.744-1.14.744s-.801-.236-1.14-.744c-.336-.504-.56-1.23-.56-2.056s.224-1.552.56-2.056c.339-.508.752-.744 1.14-.744s.801.236 1.14.744c.336.504.56 1.23.56 2.056Z"/><path fill="#000" fill-rule="evenodd" d="M18.498 31.75q2.896 1.95 5.511 1.95 2.613 0 5.18-1.945" clip-rule="evenodd"/><path stroke="#000" stroke-linecap="round" stroke-width="2" d="M18.498 31.75q2.896 1.95 5.511 1.95 2.613 0 5.18-1.945M31.728 6.2q.402 2.901-1.769 4.239t-7.055 1.254"/></svg>