<svg fill-opacity="1" stroke-opacity="1" xmlns="http://www.w3.org/2000/svg" width="48" height="48" fill="none" viewBox="0 0 48 48"><path stroke="#000" stroke-linecap="round" stroke-linejoin="round" stroke-width="2" d="M9.948 28.807C13.869 37.681 21.933 41.19 28 44c2.632 1.22 3.328-3.717 2.277-6.69-.884-2.502-2.651-5.305-2.651-5.305h7.106a3.5 3.5 0 1 0 0-7.001h1.767a3.5 3.5 0 1 0 0-7.001h-3.535a3.5 3.5 0 0 0 0-7.002h-2.652a3.5 3.5 0 0 0 .003-7H19.67c-3.094 0-7.071 1.802-9.723 6.803-2.542 4.794-2.652 12.002 0 18.003"/></svg>