<svg fill-opacity="1" stroke-opacity="1" xmlns="http://www.w3.org/2000/svg" width="48" height="48" fill="none" viewBox="0 0 48 48"><path stroke="#000" stroke-linecap="round" stroke-linejoin="round" stroke-miterlimit="2" stroke-width="2" d="M19.5 44c2.49 0 4.5-2.01 4.5-4.5V19h-4l-5 20.5c0 2.49 2.01 4.5 4.5 4.5"/><path stroke="#000" stroke-linecap="round" stroke-linejoin="round" stroke-miterlimit="2" stroke-width="2" d="M20 19h-4L6.68 37.9c-1.11 2.61.48 5.74 3.3 6.07A4.494 4.494 0 0 0 15 39.5M28.5 44c-2.49 0-4.5-2.01-4.5-4.5V19h4l5 20.5c0 2.49-2.01 4.5-4.5 4.5"/><path stroke="#000" stroke-linecap="round" stroke-linejoin="round" stroke-miterlimit="2" stroke-width="2" d="M28 19h4l9.32 18.9c1.11 2.61-.48 5.74-3.3 6.07A4.494 4.494 0 0 1 33 39.5M16.06 13c-.04-.33-.06-.66-.06-1 0-4.42 3.58-8 8-8s8 3.58 8 8c0 .34-.02.67-.06 1z"/></svg>