<svg fill-opacity="1" stroke-opacity="1" xmlns="http://www.w3.org/2000/svg" width="48" height="48" fill="none" viewBox="0 0 48 48"><path stroke="#000" stroke-linecap="round" stroke-linejoin="round" stroke-width="2" d="m35.912 6.456 5.37 19A2 2 0 0 1 39.355 28H27.875c-.704 0-1.224.654-1.066 1.34l.5 2.164c.458 1.985.605 4.03.436 6.06l-.092 1.103A5.02 5.02 0 0 1 26.2 41.8a4.1 4.1 0 0 1-2.896 1.2h-.24a1.81 1.81 0 0 1-1.58-.93l-2.659-4.785a12.96 12.96 0 0 0-5.124-5.084l-6.659-3.633A2 2 0 0 1 6 26.814V7a2 2 0 0 1 2-2h25.987a2 2 0 0 1 1.924 1.456"/></svg>