<svg fill-opacity="1" stroke-opacity="1" xmlns="http://www.w3.org/2000/svg" width="48" height="48" fill="none" viewBox="0 0 48 48"><path stroke="#000" stroke-linecap="round" stroke-linejoin="round" stroke-width="2" d="M4.18 26.834A2 2 0 0 0 6.175 29H10a2 2 0 0 0 2-2V7a2 2 0 0 0-2-2H7.84a2 2 0 0 0-1.993 1.834zM18 26.626c0 .835.52 1.583 1.275 1.94 1.649.777 4.458 2.34 5.725 4.454 1.633 2.723 1.941 7.644 1.991 8.771.007.158.003.316.024.472.271 1.953 4.04-.328 5.485-2.74.785-1.308.885-3.027.803-4.37-.089-1.435-.51-2.823-.923-4.201l-.88-2.937h10.857a2 2 0 0 0 1.925-2.543l-5.37-19.016A2 2 0 0 0 36.986 5H20a2 2 0 0 0-2 2z"/></svg>