<svg fill-opacity="1" stroke-opacity="1" xmlns="http://www.w3.org/2000/svg" width="48" height="48" fill="none" viewBox="0 0 48 48"><path stroke="#000" stroke-linecap="round" stroke-linejoin="round" stroke-width="2" d="M36 26V14a2 2 0 0 0-2-2H10a2 2 0 0 0-2 2v24a2 2 0 0 0 2 2h17M16 12v28M28 12v17M28 12V6a2 2 0 0 0-2-2h-8a2 2 0 0 0-2 2v6"/><path stroke="#000" stroke-width="2" d="M35 44a9 9 0 1 0 0-18 9 9 0 0 0 0 18Z"/><path stroke="#000" stroke-linecap="round" stroke-linejoin="round" stroke-width="2" d="M34 32v4h4"/><path stroke="#000" stroke-linecap="round" stroke-width="2" d="M13 40v4"/></svg>