<svg fill-opacity="1" stroke-opacity="1" xmlns="http://www.w3.org/2000/svg" width="48" height="48" fill="none" viewBox="0 0 48 48"><path stroke="#000" stroke-linecap="round" stroke-linejoin="round" stroke-width="2" d="m16 22-6-10-6 10"/><path stroke="#000" stroke-linecap="round" stroke-linejoin="round" stroke-width="2" d="M10 28a6 6 0 0 0 6-6H4a6 6 0 0 0 6 6" clip-rule="evenodd"/><path stroke="#000" stroke-linecap="round" stroke-linejoin="round" stroke-width="2" d="m44 22-6-10-6 10"/><path stroke="#000" stroke-linecap="round" stroke-linejoin="round" stroke-width="2" d="M38 28a6 6 0 0 0 6-6H32a6 6 0 0 0 6 6" clip-rule="evenodd"/><path stroke="#000" stroke-linecap="round" stroke-linejoin="round" stroke-width="2" d="M24 6v36M10 12h28M10 12h28M38 42H10"/></svg>