<svg fill-opacity="1" stroke-opacity="1" xmlns="http://www.w3.org/2000/svg" width="48" height="48" fill="none" viewBox="0 0 48 48"><g stroke="#000" stroke-linecap="round" stroke-linejoin="round" stroke-width="2" clip-path="url(#a)"><path d="M16 32c-2.8-.933-6.035-3.173-7.476-5.425a1.7 1.7 0 0 1-.245-1.043l.245-3.75c.053-.81 1.01-1.24 1.671-.77C12.33 22.529 16.228 25 19 25c7 0 13-2.5 16-8"/><path d="M26 43c10-2 19.242-12.485 16.867-23.059L41.999 16V8l-6-1c0 12.941-3 23-16 25-5.976.92-11.705-.386-16.129-2.922L5 36c2 5 11 9 21 7"/></g><defs><clipPath id="a"><path fill="#000" d="M0 0h48v48H0z"/></clipPath></defs></svg>