<svg fill-opacity="1" stroke-opacity="1" xmlns="http://www.w3.org/2000/svg" width="48" height="48" fill="none" viewBox="0 0 48 48"><path stroke="#000" stroke-linejoin="round" stroke-width="2" d="M30 4a6 6 0 0 1-12 0h-3c-1.105 0-2.002.894-2.032 1.998C12.9 8.57 12.683 12.951 12 15c-.761 2.283-3.839 5.146-5.266 6.383-.46.398-.734.97-.734 1.578V42a2 2 0 0 0 2 2h32a2 2 0 0 0 2-2V22.961c0-.607-.275-1.18-.734-1.578C39.84 20.146 36.761 17.283 36 15c-.683-2.049-.9-6.43-.968-9.002C35.002 4.894 34.105 4 33 4z"/><path stroke="#000" stroke-linejoin="round" stroke-width="2" d="M27 24h6v12h-6z"/><path stroke="#000" stroke-linecap="round" stroke-linejoin="round" stroke-width="2" d="M15 24h6v12h-6M21 30h-6"/></svg>