<svg fill-opacity="1" stroke-opacity="1" xmlns="http://www.w3.org/2000/svg" width="48" height="48" fill="none" viewBox="0 0 48 48"><path stroke="#000" stroke-linecap="round" stroke-linejoin="round" stroke-width="2" d="m21.619 8.986.476 2.463h3.81l.476-2.463c.476 1.642 1.429 5.223 1.429 6.405 1.746-.164 5.143-1.38 4.762-4.927 0-.493-.382-1.676-1.905-2.464 4.285.986 12.952 5.716 13.333 16.754-2.857-1.807-8.762-3.154-9.524 5.913-1.746-2.957-5.809-7.293-8.095-.986C25.587 32.473 24 38.846 24 42c0-3.154-1.587-9.527-2.381-12.319-2.286-6.307-6.35-1.97-8.095.986-.762-9.067-6.667-7.72-9.524-5.913C4.381 13.716 13.048 8.986 17.333 8c-1.523.788-1.905 1.971-1.905 2.464-.38 3.548 3.016 4.763 4.762 4.927 0-1.182.953-4.763 1.429-6.405"/></svg>