<svg fill-opacity="1" stroke-opacity="1" xmlns="http://www.w3.org/2000/svg" width="48" height="48" fill="none" viewBox="0 0 48 48"><rect width="36" height="20" x="14" y="44" stroke="#000" stroke-linecap="round" stroke-linejoin="round" stroke-width="2" rx="2" transform="rotate(-90 14 44)"/><path fill="#000" d="M20 6V4a2 2 0 0 1 2-2h4a2 2 0 0 1 2 2v2z"/><path stroke="#000" stroke-linecap="round" stroke-linejoin="round" stroke-width="2" d="M24 30v-3c2.21 0 4-2.015 4-4.5S26.21 18 24 18s-4 2.015-4 4.5"/><path fill="#000" stroke="#000" d="M26 35.5a2 2 0 1 1-4 0 2 2 0 0 1 4 0Z"/></svg>