<svg fill-opacity="1" stroke-opacity="1" xmlns="http://www.w3.org/2000/svg" width="48" height="48" fill="none" viewBox="0 0 48 48"><path stroke="#000" stroke-linecap="round" stroke-linejoin="round" stroke-width="2" d="M14.34 21.412 24 24l9.66 2.588 9.659 2.589C45.657 20.45 41.848 11.526 34.546 7a20 20 0 0 0-5.37-2.318A20 20 0 0 0 22.5 4.05c-8.237.62-15.56 6.342-17.818 14.773z"/><path stroke="#000" stroke-linecap="round" stroke-linejoin="round" stroke-width="2" d="M29.176 4.681s-5.64 3.665-8.866 7.977-4.037 9.271-4.037 9.271M29.177 4.681s3.052 5.995 3.69 11.342-1.14 10.048-1.14 10.048"/><path stroke="#000" stroke-linecap="round" stroke-linejoin="round" stroke-width="2" d="m4.682 18.824 9.659 2.588L24 24l9.658 2.588 9.66 2.589M4 44h40M24 24l-5.5 20M22.5 4.051a20 20 0 0 1 6.676.63 20 20 0 0 1 5.37 2.32"/></svg>