<svg fill-opacity="1" stroke-opacity="1" xmlns="http://www.w3.org/2000/svg" width="48" height="48" fill="none" viewBox="0 0 48 48"><path stroke="#000" stroke-width="2" d="M30 28.696C30 35 27.314 44 24 44s-6-9-6-15.304C18 24.998 20.686 22 24 22s6 2.998 6 6.696Z"/><path stroke="#000" stroke-width="2" d="M11.478 17C13.988 17 20 19.239 20 22s-6.012 5-8.522 5S6 24.761 6 22s2.968-5 5.478-5ZM36.522 17C34.012 17 28 19.239 28 22s6.012 5 8.522 5S42 24.761 42 22s-2.968-5-5.478-5Z"/><rect width="10" height="13" x="19" y="9" stroke="#000" stroke-width="2" rx="5"/><path stroke="#000" stroke-linecap="round" stroke-width="2" d="M28 10a6 6 0 0 1 6-6M21 10c0-3.314-3.134-6-7-6"/></svg>