<svg fill-opacity="1" stroke-opacity="1" xmlns="http://www.w3.org/2000/svg" width="48" height="48" fill="none" viewBox="0 0 48 48"><path stroke="#000" stroke-linejoin="round" stroke-width="2" d="M16 37.241C16 39.172 16.857 44 28 44s12-4.828 12-6.759V16H16z"/><path stroke="#000" stroke-linecap="round" stroke-linejoin="round" stroke-width="2" d="M25 23v14M31 23v14"/><path stroke="#000" stroke-linejoin="round" stroke-width="2" d="M15.998 16s-1.999-4.5 1-7S23 8 23 8s1-4 5-4C32 4 33 8 33 8S36.5 6.5 39 9s.999 7 .999 7M16 19H6s1 10 2 13c.998 3 8 2 8 2"/></svg>