<svg fill-opacity="1" stroke-opacity="1" xmlns="http://www.w3.org/2000/svg" width="48" height="48" fill="none" viewBox="0 0 48 48"><path stroke="#000" stroke-linecap="round" stroke-linejoin="round" stroke-width="2" d="M25.5 19H33a2 2 0 0 1 2 2v23H13V21a2 2 0 0 1 2-2h2.5"/><path stroke="#000" stroke-linecap="round" stroke-linejoin="round" stroke-width="2" d="M17 8h-2.5a5.5 5.5 0 1 0 0 11H19v10.5a2.5 2.5 0 0 0 5 0V19h9.5a5.5 5.5 0 1 0 0-11H29s-1-4-6-4-6 4-6 4"/><path stroke="#000" stroke-linecap="round" stroke-width="2" d="M35 21h5a2 2 0 0 1 2 2v5a4 4 0 0 1-4 4h-3"/></svg>