<svg fill-opacity="1" stroke-opacity="1" xmlns="http://www.w3.org/2000/svg" width="48" height="48" fill="none" viewBox="0 0 48 48"><path stroke="#000" stroke-linecap="round" stroke-linejoin="round" stroke-width="2" d="m10.565 30.364-6.364 6.364 7.071 7.071 6.364-6.364M21.879 19.05l14.85-14.849 7.07 7.071-14.849 14.85"/><path stroke="#000" stroke-linecap="round" stroke-linejoin="round" stroke-width="2" d="M9.859 29.657a2 2 0 0 1 0-2.829l8.485-8.485a2 2 0 0 1 2.828 0l8.485 8.485a2 2 0 0 1 0 2.829l-8.485 8.485a2 2 0 0 1-2.828 0zM25.415 22.586l-7.071 7.07M31.779 9.15l7.07 7.072M26.828 14.1l7.071 7.072M15.515 21.172 26.83 32.485"/></svg>