<svg fill-opacity="1" stroke-opacity="1" xmlns="http://www.w3.org/2000/svg" width="48" height="48" fill="none" viewBox="0 0 48 48"><path stroke="#000" stroke-width="2" d="M24 44c11.046 0 20-8.954 20-20S35.046 4 24 4 4 12.954 4 24s8.954 20 20 20Z"/><path stroke="#000" stroke-linecap="round" stroke-linejoin="round" stroke-width="2" d="M6.68 34 24 24m0-20v20zm17.32 30L24 24z"/><path stroke="#000" stroke-width="2" d="M18 4.916A20 20 0 0 1 24 4c2.09 0 4.106.32 6 .916M4.63 29a19.9 19.9 0 0 0 2.045 5 20 20 0 0 0 3.042 4m33.653-9a19.9 19.9 0 0 1-2.046 5 20 20 0 0 1-3.041 4"/></svg>