<svg fill-opacity="1" stroke-opacity="1" xmlns="http://www.w3.org/2000/svg" width="48" height="48" fill="none" viewBox="0 0 48 48"><circle cx="24" cy="24" r="20" stroke="#000" stroke-linecap="round" stroke-linejoin="round" stroke-width="2"/><path d="M20 16h7a4 4 0 0 1 0 8h-7z"/><path stroke="#000" stroke-linecap="round" stroke-linejoin="round" stroke-width="2" d="M20 16v8h7a4 4 0 0 0 4-4v0a4 4 0 0 0-4-4h-2m-5 0h-4m4 0v-4m0 4h5m0 0v-4"/><path d="M20 24h9a4 4 0 0 1 0 8h-9z"/><path stroke="#000" stroke-linecap="round" stroke-linejoin="round" stroke-width="2" d="M20 32v-8h9a4 4 0 0 1 4 4v0a4 4 0 0 1-4 4h-4m-5 0v4m0-4h-4 9m-5 0h5m0 0v4"/></svg>