<svg fill-opacity="1" stroke-opacity="1" xmlns="http://www.w3.org/2000/svg" width="48" height="48" fill="none" viewBox="0 0 48 48"><path stroke="#000" stroke-linecap="round" stroke-linejoin="round" stroke-width="2" d="M21 24.713V5.935a1.935 1.935 0 0 0-3.828-.405l-4.114 19.199q-.058.271-.188.516l-7.316 13.82C4.85 40.395 5.814 42 7.322 42h8.084a2 2 0 0 0 1.95-1.554l3.124-13.672.44-1.499a2 2 0 0 0 .08-.562M13 25l7 3M27 24.713V5.935a1.935 1.935 0 0 1 3.828-.405l4.114 19.199q.058.271.188.516l7.316 13.82c.705 1.331-.26 2.935-1.768 2.935h-8.084a2 2 0 0 1-1.95-1.554L27.52 26.774l-.44-1.499a2 2 0 0 1-.08-.562M35 25l-7 3"/></svg>