<svg fill-opacity="1" stroke-opacity="1" xmlns="http://www.w3.org/2000/svg" width="48" height="48" fill="none" viewBox="0 0 48 48"><path stroke="#000" stroke-linecap="round" stroke-linejoin="round" stroke-width="2" d="M23.266 6.008c7.734.451 7.955 8.363 7.019 11.615 9.358-2.974 12.946 1.24 13.57 3.717 1.122 5.947-4.524 7.744-7.487 7.899 5.989 7.433 3.12 11.15.936 12.08-6.738 1.858-10.606-2.943-11.698-5.576-2.995 6.319-8.11 6.66-10.294 6.04-6.364-1.858-3.587-8.518-1.404-11.615-8.984-1.487-10.294-5.885-9.826-7.898 1.497-7.434 9.358-6.195 13.101-4.647-1.497-9.664 3.432-11.77 6.083-11.615M25 26l-4 5M19 25l6 1M24 19l1 7M31 24l-6 2M25 26l5 4"/></svg>