<svg fill-opacity="1" stroke-opacity="1" xmlns="http://www.w3.org/2000/svg" width="48" height="48" fill="none" viewBox="0 0 48 48"><rect width="38" height="8" x="5" y="6" stroke="#000" stroke-linejoin="round" stroke-width="2" rx="2"/><path stroke="#000" stroke-linejoin="round" stroke-width="2" d="M8 14v26a2 2 0 0 0 2 2h28a2 2 0 0 0 2-2V14"/><path stroke="#000" stroke-linecap="round" stroke-linejoin="round" stroke-width="2" d="M31 29.067C31 32.896 27.866 36 24 36s-7-3.104-7-6.933c0-3.83 2.692-5.334 3.77-9.067 4.307 1.867 4.307 7.467 4.307 7.467s1.077-3.2 4.308-4C29.654 26.4 31 27.432 31 29.067"/></svg>