<svg fill-opacity="1" stroke-opacity="1" xmlns="http://www.w3.org/2000/svg" width="48" height="48" fill="none" viewBox="0 0 48 48"><path stroke="#000" stroke-linejoin="round" stroke-width="2" d="M43.523 17.315c0-4.243-3.536-4.243-6.01-6.718-2.475-2.475-2.475-6.01-6.718-6.01-2.829 0-5.303 3.182-5.303 5.303s.707 3.536 2.121 4.95L14.885 27.568c-1.414-1.414-2.828-2.122-4.95-2.122-2.121 0-5.303 2.475-5.303 5.304-.354 4.596 3.89 4.596 6.01 6.717 2.122 2.122 2.122 6.364 6.718 6.01 2.828 0 5.303-3.181 5.303-5.303s-.707-3.535-2.121-4.95L33.27 20.498c1.414 1.414 2.828 2.121 4.95 2.121 2.12 0 5.303-2.475 5.303-5.303Z"/></svg>