<svg fill-opacity="1" stroke-opacity="1" xmlns="http://www.w3.org/2000/svg" width="48" height="48" fill="none" viewBox="0 0 49 48"><path stroke="#000" stroke-linecap="round" stroke-linejoin="round" stroke-width="2" d="M13.777 20h4s7 7.28 7 14-6 10-6 10h-6s-6-3.28-6-10 7-14 7-14M15.777 4c2.084 0 5 1.52 5 6s-3.333 10-3.333 10h-3.333s-3.334-5.52-3.334-10 2.917-6 5-6M31.777 20h4s7 7.28 7 14-6 10-6 10h-6s-6-3.28-6-10 7-14 7-14M33.777 4c2.084 0 5 1.52 5 6s-3.333 10-3.333 10h-3.333s-3.334-5.52-3.334-10 2.917-6 5-6"/></svg>