<svg fill-opacity="1" stroke-opacity="1" xmlns="http://www.w3.org/2000/svg" width="48" height="48" fill="none" viewBox="0 0 48 48"><path stroke="#000" stroke-linecap="round" stroke-linejoin="round" stroke-width="2" d="M15 21.56a9.82 9.82 0 0 1 4.767-8.42.48.48 0 0 0 .233-.411V4h8v8.729c0 .168.088.324.233.41A9.82 9.82 0 0 1 33 21.56V42a2 2 0 0 1-2 2H17a2 2 0 0 1-2-2z"/><path stroke="#000" stroke-linecap="round" stroke-width="2" d="M20 10h8"/><path stroke="#000" stroke-linecap="round" stroke-linejoin="round" stroke-width="2" d="M33 23h-9v15h9M33 40V21M20 12V8M28 12V8"/></svg>