<svg fill-opacity="1" stroke-opacity="1" xmlns="http://www.w3.org/2000/svg" width="48" height="48" fill="none" viewBox="0 0 48 48"><path stroke="#000" stroke-linecap="round" stroke-linejoin="round" stroke-width="2" d="M19.036 44q-1.47-4.793-4.435-7.147c-2.965-2.353-7.676-.89-9.416-3.318s1.219-6.892 2.257-9.526-3.98-3.565-3.394-4.313q.585-.748 7.609-4.316Q13.652 4 26.398 4C39.144 4 44 14.806 44 21.68c0 6.872-5.88 14.276-14.256 15.873q-1.123 1.636 3.24 6.447"/><path stroke="#000" stroke-linejoin="round" stroke-width="2" d="M19.5 14.5q-.981 3.801.583 5.339 1.563 1.537 5.328 2.01-.855 4.903 2.083 4.6 2.937-.302 3.53-2.44 4.59 1.29 4.976-2.16c.385-3.45-1.475-6.201-2.238-6.201s-2.738-.093-2.738-1.148-2.308-1.65-4.391-1.65-.83-1.405-3.69-.85q-2.86.555-3.443 2.5Z" clip-rule="evenodd"/><path stroke="#000" stroke-linecap="round" stroke-width="2" d="M30.5 25.5c-1.017.631-2.412 1.68-3 2.5-1.469 2.05-2.66 3.298-2.92 4.608"/></svg>