<svg fill-opacity="1" stroke-opacity="1" xmlns="http://www.w3.org/2000/svg" width="48" height="48" fill="none" viewBox="0 0 48 48"><path stroke="#000" stroke-linecap="round" stroke-linejoin="round" stroke-width="2" d="M7 27a8 8 0 0 1 8-8h18a8 8 0 0 1 8 8v8a4 4 0 0 1-4 4H11a4 4 0 0 1-4-4zM34 19v-7c5 0 5-7 0-7H14c-5 0-5 7 0 7v7M22 11l-2 2M28 11l-2 2"/><circle cx="24" cy="29" r="4" stroke="#000" stroke-width="2"/><path stroke="#000" stroke-linecap="round" stroke-linejoin="round" stroke-width="2" d="M15 39v4M33 39v4"/></svg>