<svg fill-opacity="1" stroke-opacity="1" xmlns="http://www.w3.org/2000/svg" width="48" height="48" fill="none" viewBox="0 0 48 48"><path stroke="#000" stroke-linecap="round" stroke-linejoin="round" stroke-width="2" d="M4 32.083c0-1.202.266-2.395.971-3.368C7.045 25.85 12.671 20 24 20s16.955 5.851 19.029 8.715c.705.973.971 2.166.971 3.368A7.917 7.917 0 0 1 36.083 40H11.917A7.917 7.917 0 0 1 4 32.083"/><path stroke="#000" stroke-linecap="round" stroke-width="2" d="M12 9v4M14 22v4M36 9v4M34 22v4M24 7v6M24 20v8M40 25.443C36.906 22.78 31.808 20 24 20s-12.906 2.779-16 5.443"/></svg>