<svg fill-opacity="1" stroke-opacity="1" xmlns="http://www.w3.org/2000/svg" width="48" height="48" fill="none" viewBox="0 0 48 48"><path stroke="#000" stroke-linejoin="round" stroke-width="2" d="M41 18H19a1 1 0 0 0-1 1v22a1 1 0 0 0 1 1h22a1 1 0 0 0 1-1V19a1 1 0 0 0-1-1Z"/><path stroke="#000" stroke-linecap="round" stroke-linejoin="round" stroke-width="2" d="M9.97 6H6v4.034M9.997 30H6v-3.988M26.002 6H30v4.015M16.028 6h3.98M6 16v4M30 16v2.007"/><path stroke="#000" stroke-linecap="round" stroke-width="2" d="M15.992 30H18"/></svg>