<svg fill-opacity="1" stroke-opacity="1" xmlns="http://www.w3.org/2000/svg" width="48" height="48" fill="none" viewBox="0 0 48 48"><path stroke="#000" stroke-linejoin="round" stroke-width="2" d="M24 28.63a4.54 4.54 0 0 0 4.546-4.532A4.54 4.54 0 0 0 24 19.567a4.54 4.54 0 0 0-4.545 4.53A4.54 4.54 0 0 0 24 28.63Z"/><path stroke="#000" stroke-linecap="round" stroke-linejoin="round" stroke-width="2" d="M16 15c-5.333 4.97-5.333 13.03 0 18M32 33c5.333-4.97 5.333-13.03 0-18M9.858 10c-7.81 7.786-7.81 20.41 0 28.196M38.142 38.196c7.81-7.786 7.81-20.41 0-28.196"/></svg>