<svg fill-opacity="1" stroke-opacity="1" xmlns="http://www.w3.org/2000/svg" width="48" height="48" fill="none" viewBox="0 0 48 48"><path stroke="#000" stroke-linecap="round" stroke-linejoin="round" stroke-width="2" d="M42 18v22a2 2 0 0 1-2 2H8a2 2 0 0 1-2-2V18"/><path stroke="#000" stroke-linejoin="round" stroke-width="2" d="M6 8a2 2 0 0 1 2-2h32a2 2 0 0 1 2 2v10H6z"/><path fill="#000" fill-rule="evenodd" d="M12 14a2 2 0 1 0 0-4 2 2 0 0 0 0 4M18 14a2 2 0 1 0 0-4 2 2 0 0 0 0 4M24 14a2 2 0 1 0 0-4 2 2 0 0 0 0 4" clip-rule="evenodd"/></svg>