<svg fill-opacity="1" stroke-opacity="1" xmlns="http://www.w3.org/2000/svg" width="48" height="48" fill="none" viewBox="0 0 48 48"><path stroke="#000" stroke-linejoin="round" stroke-width="2" d="M24 42c12 0 14-10.468 14-14V14H10v14c0 3.45 2 14 14 14Z"/><path stroke="#000" stroke-linecap="round" stroke-linejoin="round" stroke-width="2" d="m4 8 6 6M44 8l-6 6M4 27h6M44 27h-6M7 44l6-6M41 44l-6-6M24 42V14M14.92 39.04C17.002 40.784 19.924 42 24 42c4.111 0 7.049-1.229 9.134-2.986"/><path stroke="#000" stroke-linejoin="round" stroke-width="2" d="M32 12.333C32 7.731 28.418 4 24 4s-8 3.731-8 8.333V14h16z"/></svg>