<svg fill-opacity="1" stroke-opacity="1" xmlns="http://www.w3.org/2000/svg" width="48" height="48" fill="none" viewBox="0 0 48 48"><path stroke="#000" stroke-linejoin="round" stroke-width="2" d="M6.012 34.005V8.036a2 2 0 0 1 2-2H40a2 2 0 0 1 2 2v25.969a3 3 0 0 1-3 3h-1.995V38a4 4 0 1 1-8 0v-.995h-9.997v.997a3.998 3.998 0 0 1-7.997 0v-.997H9.012a3 3 0 0 1-3-3Z"/><path stroke="#000" stroke-linecap="round" stroke-linejoin="round" stroke-width="2" d="M42 23H6M34 13H14v10h20zM14 30h2M32 30h2"/></svg>