<svg fill-opacity="1" stroke-opacity="1" xmlns="http://www.w3.org/2000/svg" width="48" height="48" fill="none" viewBox="0 0 48 48"><path stroke="#000" stroke-linecap="round" stroke-linejoin="round" stroke-width="2" d="M5 12c3.664-4.294 14.081 6.82 19 13 4.92-6.18 15.337-17.294 19-13 .679.65 1.443 2.877-1 6-.678.976-1.814 3.706-1 8 0 1.139-1.115 2.952-6 1 2.375 1.627 6.85 6.096 4 10-2.714 3.416-9.035 7.457-13-2l-2-4-2 4c-3.964 9.457-10.286 5.416-13 2-2.85-3.904 1.626-8.373 4-10-4.885 1.952-6 .139-6-1 .814-4.294-.321-7.024-1-8-2.442-3.123-1.678-5.35-1-6"/><path stroke="#000" stroke-linecap="round" stroke-linejoin="round" stroke-width="2" d="M24.032 23C23.534 17.864 28.913 7 33 7"/><path stroke="#000" stroke-linecap="round" stroke-linejoin="round" stroke-width="2" d="M23.968 23C24.466 17.864 19.087 7 15 7"/></svg>