<svg fill-opacity="1" stroke-opacity="1" xmlns="http://www.w3.org/2000/svg" width="48" height="48" fill="none" viewBox="0 0 48 48"><path stroke="#000" stroke-linecap="round" stroke-width="2" d="m35 26.614-19.854-19.3a2.93 2.93 0 0 0-4.259.188 3.334 3.334 0 0 0 .18 4.544l10.024 9.93"/><path stroke="#000" stroke-linecap="round" stroke-linejoin="round" stroke-width="2" d="M21.09 21.976 10.178 11.155a3.486 3.486 0 0 0-4.735-.161 3.03 3.03 0 0 0-.18 4.417l10.993 11.203"/><path stroke="#000" stroke-linecap="round" stroke-width="2" d="M16.255 26.614 10 20.5a3.3 3.3 0 0 0-4.633-.08 3.233 3.233 0 0 0-.093 4.588c9.23 9.536 14.02 14.04 15.817 15.545C24 42.99 29.735 44 32.73 42c2.995-2 5.702-4.846 6.987-7.671q1.147-2.525 4.458-15.561a3.305 3.305 0 0 0-2.46-4.034 3.5 3.5 0 0 0-4.166 2.493L35 26.614M31.716 12.666a19.6 19.6 0 0 0-8.752-7.187M5.194 33.776a19.6 19.6 0 0 0 8.364 7.635"/></svg>