<svg fill-opacity="1" stroke-opacity="1" xmlns="http://www.w3.org/2000/svg" width="48" height="48" fill="none" viewBox="0 0 48 48"><path stroke="#000" stroke-linecap="round" stroke-linejoin="round" stroke-width="2" d="M24 44c11.046 0 20-8.954 20-20S35.046 4 24 4 4 12.954 4 24s8.954 20 20 20M26.122 21.879l-4.243 4.243"/><path stroke="#000" stroke-linecap="round" stroke-linejoin="round" stroke-width="2" d="m32.485 26.829 1.414-1.415a4 4 0 0 0 0-5.657L28.242 14.1a4 4 0 0 0-5.656 0l-1.415 1.415M26.828 32.485 25.414 33.9a4 4 0 0 1-5.657 0L14.1 28.243a4 4 0 0 1 0-5.657l1.415-1.414"/></svg>