<svg fill-opacity="1" stroke-opacity="1" xmlns="http://www.w3.org/2000/svg" width="48" height="48" fill="none" viewBox="0 0 48 48"><path stroke="#000" stroke-linejoin="round" stroke-width="2" d="M13.28 42a2 2 0 0 1-1.816-1.162l-5.077-11a2 2 0 0 1 0-1.676l5.077-11A2 2 0 0 1 13.28 16h21.44a2 2 0 0 1 1.816 1.162l5.077 11a2 2 0 0 1 0 1.676l-5.077 11A2 2 0 0 1 34.72 42z"/><path stroke="#000" stroke-linecap="round" stroke-linejoin="round" stroke-width="2" d="M9 23h9v10H8M39 23H25v9h15M38 4s-9.5 3.5-17.436 4.394S8 9 8 9M26 8v8l-9-7"/><path stroke="#000" stroke-linecap="round" stroke-linejoin="round" stroke-width="2" d="m10.615 19-4.228 9.162a2 2 0 0 0 0 1.676L9 35.5M37.385 19l4.228 9.162a2 2 0 0 1 0 1.676L39 35.5"/></svg>