<svg fill-opacity="1" stroke-opacity="1" xmlns="http://www.w3.org/2000/svg" width="48" height="48" fill="none" viewBox="0 0 48 48"><path stroke="#000" stroke-linecap="round" stroke-linejoin="round" stroke-width="2" d="M24 12v5M8 27v13a2 2 0 0 0 2 2h28a2 2 0 0 0 2-2V27M4 21.97A4.97 4.97 0 0 1 8.97 17h30.06A4.97 4.97 0 0 1 44 21.97v.278a4.56 4.56 0 0 1-2.864 4.231 3.04 3.04 0 0 1-2.544-.132l-.342-.18a3.4 3.4 0 0 0-3.167 0 3.4 3.4 0 0 1-3.166 0 3.4 3.4 0 0 0-3.167 0 3.4 3.4 0 0 1-3.167 0 3.4 3.4 0 0 0-3.166 0 3.4 3.4 0 0 1-3.167 0 3.4 3.4 0 0 0-3.167 0 3.4 3.4 0 0 1-3.166 0 3.4 3.4 0 0 0-3.167 0l-.342.18a3.04 3.04 0 0 1-2.543.132A4.56 4.56 0 0 1 4 22.25z"/><path stroke="#000" stroke-width="2" d="M27 8c-.8-4-3-4-3-4s-2.2 0-3 4c-1 5 7 5 6 0Z"/></svg>