<svg fill-opacity="1" stroke-opacity="1" xmlns="http://www.w3.org/2000/svg" width="48" height="48" fill="none" viewBox="0 0 48 48"><path stroke="#000" stroke-linecap="round" stroke-linejoin="round" stroke-width="2" d="M40 17.9 31.058 8 9 17.9V30h31z"/><path stroke="#000" stroke-linecap="round" stroke-linejoin="round" stroke-width="2" d="M9 18h17.386c.063 0 .114.051.114.114v3.511a2.875 2.875 0 0 0 2.875 2.875v0a2.875 2.875 0 0 0 2.875-2.875v-3.511c0-.063.051-.114.114-.114H40"/><path stroke="#000" stroke-width="2" d="M9.5 23.957q-.903.451-1.678.956C5.418 26.481 4 28.412 4 30.5c0 5.247 8.954 9.5 20 9.5s20-4.253 20-9.5c0-2.14-1.488-4.113-4-5.701"/></svg>