<svg fill-opacity="1" stroke-opacity="1" xmlns="http://www.w3.org/2000/svg" width="48" height="48" fill="none" viewBox="0 0 48 48"><path stroke="#000" stroke-width="2" d="m6 25 5.171 15.628A2 2 0 0 0 13.07 42h21.86a2 2 0 0 0 1.899-1.372L42 25"/><path stroke="#000" stroke-linecap="round" stroke-linejoin="round" stroke-width="2" d="M11.407 25.123h-5.09a.31.31 0 0 1-.313-.318C6.164 17.783 11.634 11.885 19 10h10c7.077 2.036 12.823 7.958 12.996 14.806a.31.31 0 0 1-.312.317h-5.091a9.56 9.56 0 0 0-6.297 2.366 9.56 9.56 0 0 1-12.592 0 9.56 9.56 0 0 0-6.297-2.366M19.1 10a5 5 0 1 1 9.8 0"/></svg>