<svg fill-opacity="1" stroke-opacity="1" xmlns="http://www.w3.org/2000/svg" width="48" height="48" fill="none" viewBox="0 0 48 48"><path fill="#000" fill-rule="evenodd" d="M13.5 32a2.5 2.5 0 1 0 0-5 2.5 2.5 0 0 0 0 5M34.5 32a2.5 2.5 0 1 0 0-5 2.5 2.5 0 0 0 0 5" clip-rule="evenodd"/><path stroke="#000" stroke-linejoin="round" stroke-width="2" d="M7 37a3 3 0 0 1-3-3v-9.29a6 6 0 0 1 3.319-5.368l.682-.34 2.31-9.91A4 4 0 0 1 14.205 6h19.688a4 4 0 0 1 3.904 3.128l2.205 9.874.68.34A6 6 0 0 1 44 24.708V34a3 3 0 0 1-3 3h-1.997v1A4.001 4.001 0 0 1 31 38v-1H17v1a4 4 0 1 1-8 0v-1z"/><path stroke="#000" stroke-linejoin="round" stroke-width="2" d="M14 22h20l-1.652-7.434A2 2 0 0 0 30.396 13H17.604a2 2 0 0 0-1.952 1.566z"/></svg>