<svg fill-opacity="1" stroke-opacity="1" xmlns="http://www.w3.org/2000/svg" width="48" height="48" fill="none" viewBox="0 0 48 48"><path stroke="#000" stroke-linecap="round" stroke-width="2" d="M42 26c0 8.837-8.059 16-18 16S6 34.837 6 26m9-13.86c2.648-1.36 5.721-2.14 9-2.14s6.352.78 9 2.14"/><path stroke="#000" stroke-linecap="round" stroke-linejoin="round" stroke-width="2" d="M6 26V8.488c0-1.731 2.05-2.645 3.337-1.487L15 12.093M42 26V8.488c0-1.731-2.05-2.645-3.337-1.487L33 12.093"/><circle cx="30" cy="22" r="2" fill="#000"/><circle cx="18" cy="22" r="2" fill="#000"/><circle cx="24" cy="28" r="2" fill="#000"/><path stroke="#000" stroke-linecap="round" stroke-linejoin="round" stroke-width="2" d="M16 30 4 31M19 35 7 41M32 30l12 1M29 35l12 6"/></svg>