<svg fill-opacity="1" stroke-opacity="1" xmlns="http://www.w3.org/2000/svg" width="48" height="48" fill="none" viewBox="0 0 48 48"><path stroke="#000" stroke-width="2" d="M11.465 19.923C10.682 12.481 16.517 6 24 6c7.482 0 13.317 6.481 12.534 13.923l-1.488 14.132a11.108 11.108 0 0 1-22.093 0z"/><path stroke="#000" stroke-linecap="round" stroke-linejoin="round" stroke-width="2" d="M14 31c3.492-3.125 11.428-7.17 20 0"/><circle cx="19" cy="18" r="2" fill="#000"/><circle cx="21" cy="34" r="2" fill="#000"/><circle cx="29" cy="18" r="2" fill="#000"/><circle cx="27" cy="34" r="2" fill="#000"/><path stroke="#000" stroke-linecap="round" stroke-linejoin="round" stroke-width="2" d="M33 7.913c2.167-2 7.392-5.608 10-3s0 5-2 5.5c-2.5.625-4.2 2.3-5 3.5M15.096 7.913c-2.166-2-7.392-5.608-10-3s0 5 2 5.5c2.5.625 4.2 2.3 5 3.5"/><path stroke="#000" stroke-width="2" d="m12 25 1 9.5M36 25l-1 9.5"/></svg>