<svg fill-opacity="1" stroke-opacity="1" xmlns="http://www.w3.org/2000/svg" width="48" height="48" fill="none"
     viewBox="0 0 48 48">
    <path fill="#000" fill-rule="evenodd"
          d="M19.278 12.14q2.855.51 5.414 1.45a10.17 10.17 0 0 0-7.638 3.513l-.198.235c-2.84 3.468-3.03 8.441-.572 12.112l-.062-.113c2.528 4.643 6.83 8.717 11.277 10.027 3.58 1.055 6.932 1.335 10.019.835l.027-.018a20.7 20.7 0 0 1-12.714 4.385h-.116l-.431-.006a20.75 20.75 0 0 1-14.576-6.446l-.33-.353C5.809 33.839 4.017 28.845 4 23.846v-.133l.006-.455a20.8 20.8 0 0 1 2.99-10.272l-.068.02c4.503-1.247 8.619-1.533 12.35-.866m10.539 20.493c1.546-.736 3.409-.38 4.632.843l5.011 5.01-.34.331-.082.079c-3.39.913-7.147.767-11.27-.447-2.979-.878-5.535-3.03-7.817-5.679l-.05-.027a10.21 10.21 0 0 0 9.724-.013zM24.754 3l.444.005a20.7 20.7 0 0 1 14.248 6.081l-4.997 4.997-.157.148c-1.274 1.15-3.15 1.424-4.667.597l-.261-.137-.15-.075q-4.385-2.453-9.768-3.416-5.355-.956-11.67.597c.576-.82 1.221-1.607 1.932-2.352l.326-.335A20.7 20.7 0 0 1 24.75 3zM41.549 17.325l-7.89 4.556-.215.148s-.676.452-.601 1.41c.065.837.661 1.19.661 1.19l8.23 4.748s.646.348 1.447-.086c.896-.484.835-1.431.835-1.431v-9.11l.001-.027v-.025a1.6 1.6 0 0 0-.65-1.257 1.63 1.63 0 0 0-.983-.336c-.487 0-.835.22-.835.22"
          clip-rule="evenodd"/>
</svg>