<svg fill-opacity="1" stroke-opacity="1" xmlns="http://www.w3.org/2000/svg" width="48" height="48" fill="none" viewBox="0 0 48 48"><path stroke="#000" stroke-linecap="round" stroke-width="2" d="M28.417 21.847q-.176 3.88 1.973 5.438c2.148 1.56 7.447 1.742 11.644-5.438 4.197-7.181.126-11.082-1.42-11.732q-1.547-.65-3.11-.488M31.014 28.006q-1.83 2.121-.402 5.094c1.428 2.974 5.087 2.439 6.916 4.916q1.828 2.477 1.385 4.984"/><path stroke="#000" stroke-width="2" d="M8.504 23.64c2.26 3.02 7.662 3.415 13.996.99 2.564-.981 5.282-2.425 8.005-4.343 2.053-1.447 3.54-2.923 4.587-4.367 3.771-5.204 1.824-9.998 0-11.514-1.976-1.642-5.77-2.317-12.592.627a49 49 0 0 0-3.965 1.947c-2.798 1.523-5.101 3.243-6.873 5.02-4.162 4.175-5.385 8.662-3.158 11.64Z" clip-rule="evenodd"/><path stroke="#000" stroke-linecap="round" stroke-width="2" d="M16.245 8.84q.659 4.424 3.697 7.736c2.025 2.209 4.446 3.619 8.058 4.924M9.981 25q-8.737 8.476-4.71 12.835c4.028 4.359 7.817-1.208 12.896-1.208q5.078 0 7.833 6.373"/><path stroke="#000" stroke-linecap="round" stroke-width="2" d="M35.092 15.92c-1.047 1.444-2.534 2.92-4.587 4.367-2.723 1.918-5.44 3.362-8.005 4.344M22.5 5.033a49 49 0 0 0-3.966 1.947c-2.797 1.523-5.1 3.243-6.872 5.02"/></svg>