<svg fill-opacity="1" stroke-opacity="1" xmlns="http://www.w3.org/2000/svg" width="48" height="48" fill="none" viewBox="0 0 48 48"><path stroke="#000" stroke-linecap="round" stroke-linejoin="round" stroke-width="2" d="M26 36H6a2 2 0 0 1-2-2V8a2 2 0 0 1 2-2h36a2 2 0 0 1 2 2v26a2 2 0 0 1-2 2h-8M12 14h24M12 21h6M12 28h4"/><path stroke="#000" stroke-width="2" d="M30 33a6 6 0 1 0 0-12 6 6 0 0 0 0 12Z"/><path stroke="#000" stroke-linecap="round" stroke-linejoin="round" stroke-width="2" d="m30 40 4 2V31.472S32.86 33 30 33s-4-1.5-4-1.5V42z"/></svg>