<svg fill-opacity="1" stroke-opacity="1" xmlns="http://www.w3.org/2000/svg" width="48" height="48" fill="none" viewBox="0 0 48 48"><path stroke="#000" stroke-linejoin="round" stroke-width="2" d="M24 44a19.94 19.94 0 0 0 14.142-5.858A19.94 19.94 0 0 0 44 24a19.94 19.94 0 0 0-5.858-14.142A19.94 19.94 0 0 0 24 4 19.94 19.94 0 0 0 9.858 9.858 19.94 19.94 0 0 0 4 24a19.94 19.94 0 0 0 5.858 14.142A19.94 19.94 0 0 0 24 44Z"/><path stroke="#000" stroke-linecap="round" stroke-linejoin="round" stroke-width="2" d="m16 24 6 6 12-12"/></svg>