<svg fill-opacity="1" stroke-opacity="1" xmlns="http://www.w3.org/2000/svg" width="48" height="48" fill="none" viewBox="0 0 48 48"><path stroke="#000" stroke-linecap="round" stroke-linejoin="round" stroke-width="2" d="M17 4H7a3 3 0 0 0-3 3v34a3 3 0 0 0 3 3h34a3 3 0 0 0 3-3V7a3 3 0 0 0-3-3H17M23 17h21M4 17h9M35 31h9M6 31h19M17 21v23M31 4v23M31 35v9M17 4v9"/><path stroke="#000" stroke-linecap="round" stroke-linejoin="round" stroke-width="2" d="M35 31a4 4 0 1 1-8 0 4 4 0 0 1 8 0M21 17a4 4 0 1 1-8 0 4 4 0 0 1 8 0"/></svg>