<svg fill-opacity="1" stroke-opacity="1" xmlns="http://www.w3.org/2000/svg" width="48" height="48" fill="none" viewBox="0 0 48 48"><path stroke="#000" stroke-linecap="round" stroke-linejoin="round" stroke-width="2" d="M43 20c0-2.172-18.108-11.888-22.866-14.404a1.97 1.97 0 0 0-2.149.201L5 16"/><path stroke="#000" stroke-linecap="round" stroke-linejoin="round" stroke-width="2" d="M5 17.652c0-1.329 1.269-2.298 2.555-1.964 6.407 1.662 23.305 5.645 32.606 4.07 1.395-.235 2.839.779 2.839 2.193v16.151a2 2 0 0 1-1.895 1.998l-34 1.79A2 2 0 0 1 5 39.891z"/><circle cx="12" cy="25" r="2" fill="#000"/><circle cx="25" cy="27" r="2" fill="#000"/><circle cx="34" cy="32" r="2" fill="#000"/><circle cx="18" cy="32" r="2" fill="#000" stroke="#000" stroke-width="2"/></svg>