<svg fill-opacity="1" stroke-opacity="1" xmlns="http://www.w3.org/2000/svg" width="48" height="48" fill="none" viewBox="0 0 48 48"><path stroke="#000" stroke-linecap="round" stroke-width="2" d="M16.997 3.5v5.149c0 1.75-.964 2.425-4.595 3.358-3.63.932-4.706 1.482-5.554 3.093Q6 16.71 6 20.072V37.5"/><path stroke="#000" stroke-linecap="round" stroke-linejoin="round" stroke-width="2" d="M34.942 21.509q.356 4.314-1.463 7.537t-6.422 3.926M13.059 21.509q-.359 4.314 1.469 7.537 1.827 3.222 6.474 3.926"/><path stroke="#000" stroke-linecap="round" stroke-width="2" d="M13 43.512q2-2.333 2-5.072v-8.364M35 43.512q-2-2.333-2-5.072v-8.364M31 3.5v5.149c0 1.75.964 2.425 4.595 3.358 3.63.932 4.706 1.482 5.554 3.093q.848 1.61.848 4.972V37.5"/></svg>