<svg fill-opacity="1" stroke-opacity="1" xmlns="http://www.w3.org/2000/svg" width="48" height="48" fill="none" viewBox="0 0 48 48"><path stroke="#000" stroke-linecap="round" stroke-linejoin="round" stroke-width="2" d="M35.979 15.5a10.7 10.7 0 0 0-1.71-1.275l-1.466-.88a13.3 13.3 0 0 0-4.412-1.668l-.524-.096a27.1 27.1 0 0 1-8.051-2.855 2.792 2.792 0 1 0-2.965 3.396A22.8 22.8 0 0 1 21 17.647"/><path stroke="#000" stroke-linecap="round" stroke-linejoin="round" stroke-width="2" d="M11.307 25.02C11.045 25.3 8 28.65 8 32c0 3.5 1.558 5 3 6s3.72 2 5.61 2S28.5 41 33 40s5-2 7-4c1.081-1.081 1.882-2.602 2.39-3.77a22.5 22.5 0 0 0 1.175-3.502c.36-1.436.723-3.498.435-5.228-.5-3-2-5-7-7.5-4.604-2.302-8.647-1.212-9.258-1.025l-.161.054c-.8.283-7.265 2.596-10.01 4.471-2.802 1.914-5.962 5.202-6.228 5.481z"/><path stroke="#000" stroke-linecap="round" stroke-linejoin="round" stroke-width="2" d="M6.103 20.01a2.792 2.792 0 1 1 2.965-3.396 27.1 27.1 0 0 0 8.051 2.854l.524.097c1.559.287 3.053.852 4.412 1.668l1.466.879a10.7 10.7 0 0 1 2.602 2.197l.406.472a6.6 6.6 0 0 1 1.532 5.17l-.028.211a5.95 5.95 0 0 1-1.637 3.367l-.462.473a6.67 6.67 0 0 1-5.875 1.924 8.34 8.34 0 0 1-4.425-2.23l-.739-.714a9.3 9.3 0 0 1-1.532-1.935l-2.172-3.652-.634-1.27a22.8 22.8 0 0 0-4.454-6.116"/></svg>