<svg fill-opacity="1" stroke-opacity="1" xmlns="http://www.w3.org/2000/svg" width="48" height="48" fill="none" viewBox="0 0 48 48"><g stroke="#000" stroke-width="2" clip-path="url(#a)"><path d="M21.168 16.594c1.648-5.607 8.323-7.928 13.093-4.552 4.126 2.918 4.818 8.766 1.488 12.567l-3.13 3.574a48.8 48.8 0 0 1-19.203 13.4l-3.558 1.369a2.339 2.339 0 0 1-2.294-4.014l2.78-2.208a25.8 25.8 0 0 0 8.705-12.927z"/><path d="M29.842 10.684a4.931 4.931 0 1 1 7.768 5.39"/><path stroke-linecap="round" d="m42 4-4 4"/></g><defs><clipPath id="a"><path fill="#000" d="M0 0h48v48H0z"/></clipPath></defs></svg>