<svg fill-opacity="1" stroke-opacity="1" xmlns="http://www.w3.org/2000/svg" width="48" height="48" fill="none" viewBox="0 0 48 48"><path stroke="#000" stroke-linejoin="round" stroke-width="2" d="M24 42c9.389 0 17-7.611 17-17S33.389 8 24 8 7 15.611 7 25s7.611 17 17 17Z"/><path stroke="#000" stroke-linecap="round" stroke-linejoin="round" stroke-width="2" d="m33 21-2 1-2-1M19 21l-2 1-2-1M24 38v6M24 8c-.25-1-2-4-6-4M24 8c.083-1 .6-3.2 2-4M31.975 40c0-6 0-9-7.975-9-8 0-7.976 3-7.976 9M5 23v4M43 23v4"/></svg>