<svg fill-opacity="1" stroke-opacity="1" xmlns="http://www.w3.org/2000/svg" width="48" height="48" fill="none" viewBox="0 0 48 48"><path stroke="#000" stroke-linejoin="round" stroke-width="2" d="M15 12h18s3.363 3.011 6 4c1.864.7 5 1 5 1s-1.816.649-3 1c-1.544.458-4 1-4 1H11s-2.456-.542-4-1c-1.184-.351-3-1-3-1s3.136-.3 5-1c2.637-.989 6-4 6-4Z"/><path stroke="#000" stroke-linecap="round" stroke-linejoin="round" stroke-width="2" d="m18 12 6-8 6 8z"/><path stroke="#000" stroke-linecap="round" stroke-width="2" d="M11 19v19M37 19v19"/><path stroke="#000" stroke-linejoin="round" stroke-width="2" d="M6 38h36v6H6z"/></svg>