<svg fill-opacity="1" stroke-opacity="1" xmlns="http://www.w3.org/2000/svg" width="48" height="48" fill="none" viewBox="0 0 48 48"><path stroke="#000" stroke-linejoin="round" stroke-width="2" d="M40 12a4 4 0 1 0 0-8 4 4 0 0 0 0 8ZM40 44a4 4 0 1 0 0-8 4 4 0 0 0 0 8ZM8 12a4 4 0 1 0 0-8 4 4 0 0 0 0 8ZM8 44a4 4 0 1 0 0-8 4 4 0 0 0 0 8Z"/><path stroke="#000" stroke-linecap="round" stroke-linejoin="round" stroke-width="2" d="M20 8h8"/><path d="M32 16 16 32z" clip-rule="evenodd"/><path stroke="#000" stroke-linecap="round" stroke-linejoin="round" stroke-width="2" d="M32 16 16 32M40 20v8"/></svg>