<svg fill-opacity="1" stroke-opacity="1" xmlns="http://www.w3.org/2000/svg" width="48" height="48" fill="none" viewBox="0 0 48 48"><path stroke="#000" stroke-linecap="round" stroke-linejoin="round" stroke-width="2" d="M24 12a4 4 0 1 0 0-8 4 4 0 0 0 0 8M24 28a4 4 0 1 0 0-8 4 4 0 0 0 0 8M34.393 18a4 4 0 1 0 6.928-4 4 4 0 0 0-6.928 4M34.393 30a4 4 0 1 0 6.928 4 4 4 0 0 0-6.928-4M24 36a4 4 0 1 0 0 8 4 4 0 0 0 0-8M13.608 30a4 4 0 1 0-6.928 4 4 4 0 0 0 6.928-4M13.608 18a4 4 0 1 0-6.928-4 4 4 0 0 0 6.928 4" clip-rule="evenodd"/></svg>