<svg fill-opacity="1" stroke-opacity="1" xmlns="http://www.w3.org/2000/svg" width="48" height="48" fill="none" viewBox="0 0 48 48"><path stroke="#000" stroke-linecap="round" stroke-linejoin="round" stroke-width="2" d="M24 10a3 3 0 1 0 0-6 3 3 0 0 0 0 6M24 44a3 3 0 1 0 0-6 3 3 0 0 0 0 6M7 27a3 3 0 1 0 0-6 3 3 0 0 0 0 6M41 27a3 3 0 1 0 0-6 3 3 0 0 0 0 6" clip-rule="evenodd"/><path stroke="#000" stroke-linecap="round" stroke-linejoin="round" stroke-width="2" d="M24.197 15.744a8.99 8.99 0 0 0 7.438-3.931 14.5 14.5 0 0 1 4.686 4.498A9 9 0 0 0 32 24a9 9 0 0 0 4.527 7.811 14.5 14.5 0 0 1-4.426 4.532 9 9 0 0 0-7.905-4.694c-3.4 0-6.36 1.885-7.89 4.668a14.5 14.5 0 0 1-4.494-4.683 8.99 8.99 0 0 0 3.93-7.438 8.99 8.99 0 0 0-3.907-7.422 14.5 14.5 0 0 1 4.94-4.938 8.99 8.99 0 0 0 7.42 3.907"/></svg>