<svg fill-opacity="1" stroke-opacity="1" xmlns="http://www.w3.org/2000/svg" width="48" height="48" fill="none" viewBox="0 0 48 48"><path stroke="#000" stroke-linejoin="round" stroke-width="2" d="M15 11h17s5.048 2.966 7 4c1.091.578 5 1 5 1s-1.816.649-3 1c-1.544.458-4 1-4 1H11s-2.456-.542-4-1c-1.184-.351-3-1-3-1s3.909-.422 5-1c1.952-1.034 6-4 6-4Z"/><path stroke="#000" stroke-linecap="round" stroke-linejoin="round" stroke-width="2" d="m17 11 7-7 6 7z"/><path stroke="#000" stroke-width="2" d="M35 18v6M12 18v6"/><path stroke="#000" stroke-linejoin="round" stroke-width="2" d="m4 44 2-20h36l2 20z"/><path stroke="#000" stroke-width="2" d="M20 38a4 4 0 0 1 8 0v6h-8z"/></svg>