<svg fill-opacity="1" stroke-opacity="1" xmlns="http://www.w3.org/2000/svg" width="48" height="48" fill="none" viewBox="0 0 48 48"><path stroke="#000" stroke-linecap="round" stroke-linejoin="round" stroke-width="2" d="M15 26V15a3 3 0 1 1 6 0v11"/><path stroke="#000" stroke-linecap="round" stroke-linejoin="round" stroke-width="2" d="M39 25v6.5C39 37.851 33.851 43 27.5 43h-1C20.149 43 15 37.851 15 31.5V25"/><path stroke="#000" stroke-linecap="round" stroke-linejoin="round" stroke-width="2" d="M21 29v-5a3 3 0 1 1 6 0v5M27 29v-5a3 3 0 1 1 6 0v5M33 29v-5a3 3 0 1 1 6 0v5"/><path stroke="#000" stroke-linecap="round" stroke-width="2" d="M28 15a9.967 9.967 0 0 0-1.959-5.945A9.99 9.99 0 0 0 18 5a9.99 9.99 0 0 0-8.042 4.055A9.97 9.97 0 0 0 8 15"/></svg>