<svg fill-opacity="1" stroke-opacity="1" xmlns="http://www.w3.org/2000/svg" width="48" height="48" fill="none" viewBox="0 0 48 48"><path stroke="#000" stroke-linecap="round" stroke-linejoin="round" stroke-width="2" d="M44 18.965c-6.775-6.42-15.881-8.96-24.5-7.617M38 25.799a19.7 19.7 0 0 0-9.5-5.284M10 25.799a19.8 19.8 0 0 1 4.36-3.299M16 32.314a11.26 11.26 0 0 1 5-2.91"/><path fill="#000" fill-rule="evenodd" d="M24 40a2.5 2.5 0 1 0 0-5 2.5 2.5 0 0 0 0 5" clip-rule="evenodd"/><path stroke="#000" stroke-linecap="round" stroke-linejoin="round" stroke-width="2" d="M40 40 8 8M4 18.965a29 29 0 0 1 3.5-2.84"/></svg>