<svg fill-opacity="1" stroke-opacity="1" xmlns="http://www.w3.org/2000/svg" width="48" height="48" fill="none" viewBox="0 0 48 48"><path d="M27 4H15c-3.771 0-5.657 0-6.828 1.172S7 8.229 7 12v32h28v-7s7 0 7-6v-8c0-6-7-6-7-6v-5c0-3.771 0-5.657-1.172-6.828S30.771 4 27 4"/><path stroke="#000" stroke-linecap="round" stroke-linejoin="round" stroke-width="2" d="M35 27V17m0 0v-5c0-3.771 0-5.657-1.172-6.828S30.771 4 27 4H15c-3.771 0-5.657 0-6.828 1.172S7 8.229 7 12v32h28v-7s7 0 7-6v-8c0-6-7-6-7-6M14 22V4M21 22V4M28 22V4M12 4h18"/></svg>