<svg fill-opacity="1" stroke-opacity="1" xmlns="http://www.w3.org/2000/svg" width="48" height="48" fill="none" viewBox="0 0 48 48"><path stroke="#000" stroke-linecap="round" stroke-linejoin="round" stroke-width="2" d="M18 4H8c-1.886 0-2.828 0-3.414.586S4 6.114 4 8v32c0 1.886 0 2.828.586 3.414S6.114 44 8 44h4l4-4 4 4h20c1.886 0 2.828 0 3.414-.586S44 41.886 44 40v-7.525c0-4.992 0-7.488-1.48-9.183-1.48-1.696-3.953-2.033-8.899-2.707l-1.242-.17c-4.946-.674-7.42-1.011-8.9-2.707C22 16.013 22 13.518 22 8.525V8c0-1.886 0-2.828-.586-3.414S19.886 4 18 4M44 34H4M4 11.5h18"/><circle cx="15" cy="23" r="3" stroke="#000" stroke-linecap="round" stroke-linejoin="round" stroke-width="2"/></svg>