<svg fill-opacity="1" stroke-opacity="1" xmlns="http://www.w3.org/2000/svg" width="48" height="48" fill="none" viewBox="0 0 48 48"><path stroke="#000" stroke-linejoin="round" stroke-width="2" d="M44 29H4v13h40z"/><path fill="#000" d="M35.5 38a2.5 2.5 0 1 0 0-5 2.5 2.5 0 0 0 0 5"/><path stroke="#000" stroke-linejoin="round" stroke-width="2" d="M4 29 9.038 4.999H39.02l4.98 24"/><path stroke="#000" stroke-linecap="round" stroke-linejoin="round" stroke-width="2" d="M19.006 16.026c-2.143 0-4.006 1.486-4.006 3.487C15 22 17.095 23 19.697 23h1.28M29.007 16.026c2.097 0 3.993.973 3.993 3.487C33 22 30.89 23 28.288 23h-1.3M29.007 16.026C29.007 13.042 27.023 11 24 11s-4.994 1.993-4.994 5.026"/><path stroke="#000" stroke-width="2" d="M20 23h8"/></svg>