<svg fill-opacity="1" stroke-opacity="1" xmlns="http://www.w3.org/2000/svg" width="48" height="48" fill="none" viewBox="0 0 48 48"><path stroke="#000" stroke-linecap="round" stroke-linejoin="round" stroke-width="2" d="M9.455 30.994A13.95 13.95 0 0 1 4 19.885C4 12.217 10.105 6 17.636 6c6.297 0 11.598 4.346 13.166 10.253a8.9 8.9 0 0 1 4.107-.996c5.02 0 9.091 4.144 9.091 9.257 0 3.795-2.244 7.058-5.455 8.486"/><path stroke="#000" stroke-linejoin="round" stroke-width="2" d="M27.216 30.123a3.82 3.82 0 1 0 4.66 4.661Q32 35.374 32 36a6 6 0 1 1-4.784-5.877Z"/><path stroke="#000" stroke-linecap="round" stroke-linejoin="round" stroke-width="2" d="M22.243 15.757a6 6 0 0 0-8.485 8.485"/></svg>