<svg fill-opacity="1" stroke-opacity="1" xmlns="http://www.w3.org/2000/svg" width="48" height="48" fill="none" viewBox="0 0 48 48"><path stroke="#000" stroke-linejoin="round" stroke-width="2" d="M37 16a5 5 0 1 0 0-10 5 5 0 0 0 0 10ZM11 42a5 5 0 1 0 0-10 5 5 0 0 0 0 10Z"/><path stroke="#000" stroke-linecap="round" stroke-linejoin="round" stroke-width="2" d="M37 16v19.504A6.496 6.496 0 0 1 30.504 42v0a6.496 6.496 0 0 1-6.496-6.496v-23A6.504 6.504 0 0 0 17.504 6v0A6.504 6.504 0 0 0 11 12.504V32"/></svg>