<svg fill-opacity="1" stroke-opacity="1" xmlns="http://www.w3.org/2000/svg" width="48" height="48" fill="none" viewBox="0 0 48 48"><path stroke="#000" stroke-linecap="round" stroke-linejoin="round" stroke-width="2" d="m36 37-2.79 6.4a1 1 0 0 1-.918.6H15.707a1 1 0 0 1-.916-.6L12 37M12 11l2.79-6.4a1 1 0 0 1 .918-.6h16.585a1 1 0 0 1 .916.6L36 11"/><path stroke="#000" stroke-width="2" d="M12 12a2 2 0 0 1 2-2h20a2 2 0 0 1 2 2v24a2 2 0 0 1-2 2H14a2 2 0 0 1-2-2z"/><path stroke="#000" stroke-linecap="round" stroke-linejoin="round" stroke-width="2" d="m13 22.5 6.396-1.01a8.93 8.93 0 0 0 5.218-2.815v0a8.94 8.94 0 0 1 7.168-2.907L35.5 16M12.5 32.5l5.553-.252a9.54 9.54 0 0 0 7.998-5.067v0a9.54 9.54 0 0 1 5.974-4.754L35.5 21.5M36 12v20M12 16v20"/></svg>