<svg fill-opacity="1" stroke-opacity="1" xmlns="http://www.w3.org/2000/svg" width="48" height="48" fill="none" viewBox="0 0 48 48"><path stroke="#000" stroke-linecap="round" stroke-linejoin="round" stroke-width="2" d="M21 9H11a3 3 0 0 0-3 3v21h32V23"/><path stroke="#000" stroke-linejoin="round" stroke-width="2" d="M4 33h40v2a6 6 0 0 1-6 6H10a6 6 0 0 1-6-6z"/><path stroke="#000" stroke-linecap="round" stroke-linejoin="round" stroke-width="2" d="M32.3 7C30.478 7 29 8.435 29 10.205c0 3.204 3.9 6.117 6 6.795 2.1-.678 6-3.59 6-6.795C41 8.435 39.523 7 37.7 7A3.33 3.33 0 0 0 35 8.362 3.33 3.33 0 0 0 32.3 7"/></svg>