<svg fill-opacity="1" stroke-opacity="1" xmlns="http://www.w3.org/2000/svg" width="48" height="48" fill="none" viewBox="0 0 48 48"><path fill="#000" d="M44 21a2 2 0 1 0-4 0zM23 8a2 2 0 1 0 0-4zm16 32H9v4h30zM8 39V9H4v30zm32-18v18h4V21zM9 8h14V4H9zm0 32a1 1 0 0 1-1-1H4a5 5 0 0 0 5 5zm30 4a5 5 0 0 0 5-5h-4a1 1 0 0 1-1 1zM8 9a1 1 0 0 1 1-1V4a5 5 0 0 0-5 5z"/><path stroke="#000" stroke-linecap="round" stroke-linejoin="round" stroke-width="2" d="m6 35 10.693-9.802a2 2 0 0 1 2.653-.044L32 36M28 31l4.773-4.773a2 2 0 0 1 2.615-.186L42 31M33.3 6C31.478 6 30 7.435 30 9.205c0 3.204 3.9 6.117 6 6.795 2.1-.678 6-3.59 6-6.795C42 7.435 40.523 6 38.7 6A3.33 3.33 0 0 0 36 7.362 3.33 3.33 0 0 0 33.3 6"/></svg>