<svg fill-opacity="1" stroke-opacity="1" xmlns="http://www.w3.org/2000/svg" width="48" height="48" fill="none" viewBox="0 0 48 48"><path stroke="#000" stroke-linejoin="round" stroke-width="2" d="M24 40.944A11.96 11.96 0 0 0 32 44c6.627 0 12-5.373 12-12 0-5.591-3.824-10.29-9-11.622"/><path stroke="#000" stroke-linejoin="round" stroke-width="2" d="M13 20.378C7.824 21.71 4 26.408 4 32c0 6.627 5.373 12 12 12s12-5.373 12-12c0-1.55-.294-3.03-.828-4.39"/><path stroke="#000" stroke-linejoin="round" stroke-width="2" d="M24 28c6.627 0 12-5.373 12-12S30.627 4 24 4 12 9.373 12 16s5.373 12 12 12Z"/></svg>