<svg fill-opacity="1" stroke-opacity="1" xmlns="http://www.w3.org/2000/svg" width="48" height="48" fill="none" viewBox="0 0 48 48"><path stroke="#000" stroke-width="2" d="M10 6a2 2 0 0 1 2-2h24a2 2 0 0 1 2 2v36a2 2 0 0 1-2 2H12a2 2 0 0 1-2-2z"/><path stroke="#000" stroke-linecap="round" stroke-linejoin="round" stroke-width="2" d="M17 12h14"/><circle cx="17" cy="21" r="2" fill="#000"/><circle cx="17" cy="27" r="2" fill="#000"/><circle cx="17" cy="33" r="2" fill="#000"/><circle cx="24" cy="21" r="2" fill="#000"/><circle cx="24" cy="27" r="2" fill="#000"/><circle cx="24" cy="33" r="2" fill="#000"/><circle cx="31" cy="21" r="2" fill="#000"/><circle cx="31" cy="27" r="2" fill="#000"/><circle cx="31" cy="33" r="2" fill="#000"/></svg>