<svg fill-opacity="1" stroke-opacity="1" xmlns="http://www.w3.org/2000/svg" width="48" height="48" fill="none" viewBox="0 0 48 48"><path d="m39.828 21.786-17.86 17.86c-3.414 3.414-9.03 3.332-12.545-.182-3.515-3.515-3.597-9.132-.182-12.546L27.1 9.058" clip-rule="evenodd"/><path stroke="#000" stroke-linecap="round" stroke-width="2" d="m39.828 21.786-17.86 17.86c-3.414 3.414-9.03 3.332-12.545-.182-3.515-3.515-3.597-9.132-.182-12.546L27.1 9.058M8.734 27.424l26.144-.688"/><path fill="#000" d="M29.393 20.907a2 2 0 1 0-2.828-2.829 2 2 0 0 0 2.828 2.829M23.736 23.736a2 2 0 1 0-2.828-2.829 2 2 0 0 0 2.828 2.828"/><path stroke="#000" stroke-linecap="round" stroke-width="2" d="m23.565 5.522 19.798 19.8"/></svg>