<svg fill-opacity="1" stroke-opacity="1" xmlns="http://www.w3.org/2000/svg" width="48" height="48" fill="none" viewBox="0 0 48 48"><path stroke="#000" stroke-width="2" d="M24 44c9.389 0 17-7.611 17-17s-7.611-17-17-17S7 17.611 7 27s7.611 17 17 17Z"/><path stroke="#000" stroke-linecap="round" stroke-linejoin="round" stroke-width="2" d="M19 4h10M20 27l4-7 4 7-4 7zM7 27h4M37 27h4M24 10v4M24 40v4M17.5 42.713A16.95 16.95 0 0 0 24 44c2.302 0 4.498-.458 6.5-1.287M8.287 20.5A17 17 0 0 0 7 27c0 2.302.458 4.498 1.287 6.5M39.713 20.5A16.95 16.95 0 0 1 41 27c0 2.302-.458 4.498-1.287 6.5M17.008 11.5A16.9 16.9 0 0 1 24 10c2.492 0 4.86.536 6.992 1.5"/></svg>