<svg fill-opacity="1" stroke-opacity="1" xmlns="http://www.w3.org/2000/svg" width="48" height="48" fill="none" viewBox="0 0 48 48"><path stroke="#000" stroke-linecap="round" stroke-linejoin="round" stroke-width="2" d="M28.367 36H24l-9-4.96-10.991 4.042 3.002 5.944 7.072-2.953Q24.008 44 26.165 44T44 36"/><path stroke="#000" stroke-linejoin="round" stroke-width="2" d="M28.992 26.988v-4.67c1.1-.457 2.543-1.125 3.372-1.954a9 9 0 1 0-12.728 0c.829.829 2.264 1.497 3.364 1.953q.009.503 0 4.67z" clip-rule="evenodd"/><path stroke="#000" stroke-linecap="round" stroke-width="2" d="m12 21 1-1M40 21l-1-1M15 5l-1-1M37 5l1-1M41 12h-1M12 12h-1"/></svg>