<svg fill-opacity="1" stroke-opacity="1" xmlns="http://www.w3.org/2000/svg" width="48" height="48" fill="none" viewBox="0 0 48 48"><path stroke="#000" stroke-linecap="round" stroke-width="2" d="M10.858 9.858A19.94 19.94 0 0 0 5 24a19.94 19.94 0 0 0 5.858 14.142M39.142 38.142A19.94 19.94 0 0 0 45 24a19.94 19.94 0 0 0-5.858-14.142M34.9 33.9A13.96 13.96 0 0 0 39 24c0-3.866-1.567-7.366-4.1-9.9M15.1 14.1A13.96 13.96 0 0 0 11 24c0 3.866 1.567 7.366 4.1 9.9"/><path stroke="#000" stroke-linejoin="round" stroke-width="2" d="M28.182 20C30.29 20 32 21.612 32 23.6c0 2.588-2.546 4.8-3.818 6Q26.908 30.8 25 32q-1.909-1.2-3.182-2.4C20.545 28.4 18 26.188 18 23.6c0-1.988 1.71-3.6 3.818-3.6 1.328 0 2.498.64 3.182 1.61.684-.97 1.854-1.61 3.182-1.61Z"/></svg>