<svg fill-opacity="1" stroke-opacity="1" xmlns="http://www.w3.org/2000/svg" width="48" height="48" fill="none" viewBox="0 0 48 48"><path stroke="#000" stroke-linecap="round" stroke-linejoin="round" stroke-width="2" d="M8 12a4 4 0 1 0 0-8 4 4 0 0 0 0 8M10 42a6 6 0 1 0 0-12 6 6 0 0 0 0 12M38 44a6 6 0 1 0 0-12 6 6 0 0 0 0 12M22 28a8 8 0 1 0 0-16 8 8 0 0 0 0 16M34 12a4 4 0 1 0 0-8 4 4 0 0 0 0 8" clip-rule="evenodd"/><path stroke="#000" stroke-linecap="round" stroke-linejoin="round" stroke-width="2" d="m11 11 4 4M30 12l-2 2M34 33.5 28 26M14 31l4-4"/></svg>