<svg fill-opacity="1" stroke-opacity="1" xmlns="http://www.w3.org/2000/svg" width="48" height="48" fill="none" viewBox="0 0 48 48"><path stroke="#000" stroke-linejoin="round" stroke-width="2" d="M43 4H5c-.552 0-1 .488-1 1.09v9.82c0 .602.448 1.09 1 1.09h38c.552 0 1-.488 1-1.09V5.09C44 4.489 43.552 4 43 4ZM43 32H5c-.552 0-1 .488-1 1.09v9.82c0 .602.448 1.09 1 1.09h38c.552 0 1-.488 1-1.09v-9.82c0-.602-.448-1.09-1-1.09Z"/><path stroke="#000" stroke-linecap="round" stroke-linejoin="round" stroke-width="2" d="M14 16v8.008l20 .01V32M18 38h12M18 10h12"/></svg>