<svg fill-opacity="1" stroke-opacity="1" xmlns="http://www.w3.org/2000/svg" width="48" height="48" fill="none" viewBox="0 0 48 48"><path stroke="#000" stroke-linejoin="round" stroke-width="2" d="M8 14a2 2 0 0 1 2-2h28a2 2 0 0 1 2 2v16a2 2 0 0 1-2 2H10a2 2 0 0 1-2-2z"/><path stroke="#000" stroke-linecap="round" stroke-linejoin="round" stroke-width="2" d="M16 12v20M32 12v20M28 12h8M12 12h8M12 32h8M28 32h8M4 38h40"/><path stroke="#000" stroke-linecap="round" stroke-width="2" d="M18 38v2M12 38v2M6 38v2M24 38v2M30 38v2M36 38v2M42 38v2"/><path stroke="#000" stroke-linecap="round" stroke-linejoin="round" stroke-width="2" d="M30 12V6H18v6"/></svg>