<svg fill-opacity="1" stroke-opacity="1" xmlns="http://www.w3.org/2000/svg" width="48" height="48" fill="none" viewBox="0 0 48 48"><path stroke="#000" stroke-width="2" d="M12 9.927V7a3 3 0 0 1 3-3h26a3 3 0 0 1 3 3v26a3 3 0 0 1-3 3h-2.983"/><rect width="34" height="34" x="4" y="10" stroke="#000" stroke-linejoin="round" stroke-width="2" rx="3"/><path stroke="#000" stroke-linecap="round" stroke-linejoin="round" stroke-width="2" d="m18.44 23.11 5.292-5.51c1.451-1.451 3.837-1.42 5.328.072s1.523 3.877.072 5.328l-1.91 2.023M13.466 28.747c-.51.51-1.565 1.53-1.565 1.53-1.452 1.451-1.492 4.038 0 5.53 1.49 1.49 3.876 1.523 5.328.071l5.164-4.688"/><path stroke="#000" stroke-linecap="round" stroke-linejoin="round" stroke-width="2" d="M18.663 28.328a3.86 3.86 0 0 1-1.131-2.473A3.67 3.67 0 0 1 18.592 23M22.321 25.861c1.491 1.491 1.523 3.877.072 5.329"/></svg>