<svg fill-opacity="1" stroke-opacity="1" xmlns="http://www.w3.org/2000/svg" width="48" height="48" fill="none" viewBox="0 0 48 48"><path stroke="#000" stroke-linecap="round" stroke-linejoin="round" stroke-width="2" d="M13 12.432v-4.62A2.813 2.813 0 0 1 15.813 5h24.374A2.813 2.813 0 0 1 43 7.813v24.375A2.813 2.813 0 0 1 40.188 35h-4.672"/><path stroke="#000" stroke-linejoin="round" stroke-width="2" d="M32.188 13H7.811A2.813 2.813 0 0 0 5 15.813v24.374A2.813 2.813 0 0 0 7.813 43h24.375A2.813 2.813 0 0 0 35 40.188V15.811A2.813 2.813 0 0 0 32.188 13Z"/></svg>