<svg fill-opacity="1" stroke-opacity="1" xmlns="http://www.w3.org/2000/svg" width="48" height="48" fill="none" viewBox="0 0 48 48"><path stroke="#000" stroke-linecap="round" stroke-linejoin="round" stroke-width="2" d="M7.635 35.5A20.1 20.1 0 0 0 13 40.706M27.868 43.626A20 20 0 0 1 24 44c-1.324 0-2.617-.129-3.869-.374M43.55 28.243c.294-1.368.45-2.787.45-4.243 0-1.425-.15-2.816-.433-4.157M40.365 12.5A20.1 20.1 0 0 0 35 7.294M20.155 4.37A20 20 0 0 1 24 4c1.315 0 2.6.127 3.845.37M7.635 12.5A20.1 20.1 0 0 1 13 7.294M40.5 35.294a20.1 20.1 0 0 1-5.365 5.206M16 24H4M10 38l8.343-8.343M24 32v12M38 38l-8.343-8.343M32 24h12M38 10l-8.343 8.343M24 16V4M10 10l8.343 8.343M4.433 19.843A20 20 0 0 0 4 24c0 1.425.15 2.816.433 4.157M24 32a8 8 0 1 0 0-16 8 8 0 0 0 0 16"/></svg>