<svg fill-opacity="1" stroke-opacity="1" xmlns="http://www.w3.org/2000/svg" width="48" height="48" fill="none" viewBox="0 0 48 48"><g stroke="#000" stroke-linejoin="round" stroke-width="2" clip-path="url(#a)"><path d="m16.1 25.829 22.627-19.8s2.12-2.12 4.242 0c2.121 2.122 0 4.243 0 4.243L23.17 32.9z"/><path stroke-linecap="round" d="m22.464 20.879 5.657 5.657"/><path d="m5.493 30.778 10.607-4.95L23.17 32.9l-4.95 10.606s-4.95.707-9.192-3.535c-4.243-4.243-3.536-9.193-3.536-9.193Z"/><path stroke-linecap="round" d="m6.908 36.435 4.95-2.121M12.565 42.092l1.415-2.828"/><path d="m18.93 23.354 2.828-2.475 2.828-2.475M30.596 24.414l-2.475 2.828-2.475 2.829"/></g><defs><clipPath id="a"><path fill="#000" d="M0 0h48v48H0z"/></clipPath></defs></svg>