<svg fill-opacity="1" stroke-opacity="1" xmlns="http://www.w3.org/2000/svg" width="48" height="48" fill="none" viewBox="0 0 48 48"><path stroke="#000" stroke-linecap="round" stroke-linejoin="round" stroke-width="2" d="M5 17C5 12 6 2 17 6c.946 3.782-2 11-12 11M43 17c0-5-1-15-12-11-.946 3.782 2 11 12 11"/><rect width="32" height="20" x="8" y="22" stroke="#000" stroke-linecap="round" stroke-linejoin="round" stroke-width="2" rx="10"/><path stroke="#000" stroke-linecap="round" stroke-linejoin="round" stroke-width="2" d="M27 22v-4M21 22v-4M43 17c1 3 1 9-3 12M5 17c-1 3 0 8 3 12M30 42h14l-4-9M18 42H4l4-9"/></svg>