<svg fill-opacity="1" stroke-opacity="1" xmlns="http://www.w3.org/2000/svg" width="48" height="48" fill="none" viewBox="0 0 48 48"><g stroke="#000" stroke-width="2" clip-path="url(#a)"><path stroke-linecap="round" stroke-linejoin="round" d="M7 29s-.044 3.748 1.456 8.248c.873 2.616 1.914 4.219 3.223 5.003 1.677 1.005 3.397-.98 4.379-2.67.962-1.657 2.375-3.353 3.49-4.581M33 7.911c2.623.44 5.532 1.006 6.626 1.508 1.426.654 2.86 1.986 3.431 3.411.531 1.324-.847 2.34-2.093 3.034-1.405.783-2.869 2.01-4.065 3.136"/><path stroke-linecap="round" stroke-linejoin="round" d="M24.202 29.776 21.7 31.513a2.97 2.97 0 0 0-1.036 1.27v0a2.97 2.97 0 0 1-3.886 1.566L8.803 30.98a2.96 2.96 0 0 1-1.61-3.792l.45-1.169a11.1 11.1 0 0 1 4.576-5.486v0M30.72 24.508l1.39-1.504.912-.987c.315-.341.699-.612 1.125-.795v0a3.305 3.305 0 0 0 1.812-4.146l-2.852-8.01a2.797 2.797 0 0 0-3.259-1.789l-1.218.279A10.8 10.8 0 0 0 22.114 12v0"/><path d="M13.41 23.079a3.817 3.817 0 0 1-1.017-5.12 19 19 0 0 1 6.154-6.136 3.8 3.8 0 0 1 5.036.954l5.932 7.909a4 4 0 0 1-.913 5.682l-.24.167c-.301.21-.572.46-.804.743l-.684.832a4 4 0 0 1-5.416.716z"/></g><defs><clipPath id="a"><path fill="#000" d="M0 0h48v48H0z"/></clipPath></defs></svg>