<svg fill-opacity="1" stroke-opacity="1" xmlns="http://www.w3.org/2000/svg" width="48" height="48" fill="none" viewBox="0 0 48 48"><path stroke="#000" stroke-linejoin="round" stroke-width="2" d="M24 12a4 4 0 1 0 0-8 4 4 0 0 0 0 8ZM24 44a4 4 0 1 0 0-8 4 4 0 0 0 0 8ZM8 28a4 4 0 1 0 0-8 4 4 0 0 0 0 8ZM40 28a4 4 0 1 0 0-8 4 4 0 0 0 0 8Z"/><path stroke="#000" stroke-linecap="round" stroke-linejoin="round" stroke-width="2" d="M12 24h24M24 12v24M37.305 15.11a16.1 16.1 0 0 0-4.415-4.415m-17.78 0a16.1 16.1 0 0 0-4.415 4.416zM10.696 32.89a16.1 16.1 0 0 0 4.416 4.415zm22.195 4.415a16.1 16.1 0 0 0 4.415-4.415z"/></svg>