<svg fill-opacity="1" stroke-opacity="1" xmlns="http://www.w3.org/2000/svg" width="48" height="48" fill="none" viewBox="0 0 48 48"><path stroke="#000" stroke-linejoin="round" stroke-width="2" d="m38 42 3.39-9.325a2 2 0 0 0-.984-2.472l-15.512-7.756a2 2 0 0 0-1.788 0L7.594 30.203a2 2 0 0 0-.985 2.472L10 42"/><path stroke="#000" stroke-linecap="round" stroke-linejoin="round" stroke-width="2" d="M35 14H13a2 2 0 0 0-2 2v12l12.162-5.613a2 2 0 0 1 1.676 0L37 28V16a2 2 0 0 0-2-2M29 14V6a2 2 0 0 0-2-2h-6a2 2 0 0 0-2 2v8"/><path stroke="#000" stroke-linecap="round" stroke-width="2" d="M24 32v8"/><path stroke="#000" stroke-linecap="round" stroke-linejoin="round" stroke-width="2" d="M4 44c4 0 4-2 7-2s3 2 6 2 3.5-2 7-2 4 2 7 2 3-2 6-2 3 2 7 2"/></svg>