<svg fill-opacity="1" stroke-opacity="1" xmlns="http://www.w3.org/2000/svg" width="48" height="48" fill="none" viewBox="0 0 48 48"><path fill="#000" fill-rule="evenodd" d="M8.609 36.987C5.32 33.378 3.32 28.614 3.32 23.39c0-11.264 9.297-20.395 20.765-20.395S44.85 12.127 44.85 23.39c0 7.965-4.65 14.86-11.427 18.218a30 30 0 0 1-13.898 3.387c-6.152 0-11.868-1.839-16.608-4.987 0 0 3.179-.347 5.69-3.022zm25.23-3.502c5.373-5.371 5.373-14.08 0-19.453a13.7 13.7 0 0 0-8.96-4.007c-.098-2.447 1.219-4.099 1.225-4.107h-.001l.001-.001a19.7 19.7 0 0 0-10.228 5.439 19.7 19.7 0 0 0-4.755 7.641q.207-.55.463-1.084-.293.75-.533 1.532c-1.573 4.776-.463 10.242 3.335 14.04 5.372 5.372 14.082 5.372 19.454 0" clip-rule="evenodd"/><path fill="#000" fill-rule="evenodd" d="M17.13 22.345v2.847a2.057 2.057 0 1 0 4.114 0v-2.847a2.057 2.057 0 1 0-4.114 0M27.313 22.345v2.847a2.057 2.057 0 0 0 4.114 0v-2.847a2.057 2.057 0 0 0-4.114 0" clip-rule="evenodd"/></svg>