<svg fill-opacity="1" stroke-opacity="1" xmlns="http://www.w3.org/2000/svg" width="48" height="48" fill="none" viewBox="0 0 48 48"><path stroke="#000" stroke-linecap="round" stroke-linejoin="round" stroke-width="2" d="m20 15 4 4 4-4"/><path stroke="#000" stroke-linecap="round" stroke-linejoin="round" stroke-width="2" d="M24 19V8a4 4 0 0 1 4-4h12a4 4 0 0 1 4 4v11M28 33l-4-4-4 4"/><path stroke="#000" stroke-linecap="round" stroke-linejoin="round" stroke-width="2" d="M24 29v11a4 4 0 0 1-4 4H8a4 4 0 0 1-4-4V29M33 20l-4 4 4 4"/><path stroke="#000" stroke-linecap="round" stroke-linejoin="round" stroke-width="2" d="M29 24h11a4 4 0 0 1 4 4v12a4 4 0 0 1-4 4H29M15 28l4-4-4-4"/><path stroke="#000" stroke-linecap="round" stroke-linejoin="round" stroke-width="2" d="M19 24H8a4 4 0 0 1-4-4V8a4 4 0 0 1 4-4h11"/></svg>