<svg fill-opacity="1" stroke-opacity="1" xmlns="http://www.w3.org/2000/svg" width="48" height="48" fill="none" viewBox="0 0 48 48"><path stroke="#000" stroke-linecap="round" stroke-linejoin="round" stroke-width="2" d="M13 35H7v6M41 41h-6v-6M35 13h6V7M7 7h6v6"/><path stroke="#000" stroke-linecap="round" stroke-linejoin="round" stroke-width="2" d="M13 7.294C7.578 10.871 4 17.018 4 24q.001 1.53.223 3M27 43.777A20 20 0 0 1 24 44c-6.982 0-13.129-3.578-16.706-9M43.777 21q.222 1.47.223 3c0 6.982-3.578 13.129-9 16.706M21 4.224A20 20 0 0 1 24 4c6.982 0 13.129 3.578 16.706 9"/></svg>