<svg fill-opacity="1" stroke-opacity="1" xmlns="http://www.w3.org/2000/svg" width="48" height="48" fill="none" viewBox="0 0 48 48"><path stroke="#000" stroke-linecap="round" stroke-linejoin="round" stroke-width="2" d="M5 10v28a2 2 0 0 0 2 2h11l-3-11 7-2-1-7 8-4-2-3 3-5H7a2 2 0 0 0-2 2M43 38V10a2 2 0 0 0-2-2h-3l-4 6 3 5-9 4 1 8-7 2 2 7h17a2 2 0 0 0 2-2"/><path stroke="#000" stroke-linecap="round" stroke-linejoin="round" stroke-width="2" d="M14.5 18a1.5 1.5 0 1 0 0-3 1.5 1.5 0 0 0 0 3" clip-rule="evenodd"/></svg>