<svg fill-opacity="1" stroke-opacity="1" xmlns="http://www.w3.org/2000/svg" width="48" height="48" fill="none" viewBox="0 0 48 48"><path stroke="#000" stroke-linecap="round" stroke-linejoin="round" stroke-width="2" d="M24 44c11.046 0 20-8.954 20-20a19.94 19.94 0 0 0-5.845-14.13A19.94 19.94 0 0 0 24 4 19.94 19.94 0 0 0 9.845 9.87 19.94 19.94 0 0 0 4 24c0 11.046 8.954 20 20 20M4 24h4M9.845 9.87l3.13 3.13M24 4v4M44 24h-4M38.155 9.87 35.025 13M24 20v12"/><path stroke="#000" stroke-linecap="round" stroke-linejoin="round" stroke-width="2" d="M39.852 36.196C36.195 40.942 30.455 44 24 44s-12.195-3.058-15.852-7.804A31.85 31.85 0 0 1 24 32a31.85 31.85 0 0 1 15.852 4.196"/></svg>