<svg fill-opacity="1" stroke-opacity="1" xmlns="http://www.w3.org/2000/svg" width="48" height="48" fill="none" viewBox="0 0 48 48"><path stroke="#000" stroke-linecap="round" stroke-linejoin="round" stroke-width="2" d="M10.77 33.5C6.62 34.6 4 36.208 4 38c0 3.314 8.954 6 20 6s20-2.686 20-6c0-1.792-2.619-3.4-6.77-4.5"/><ellipse cx="24" cy="11" stroke="#000" stroke-linecap="round" stroke-linejoin="round" stroke-width="2" rx="20" ry="6"/><path stroke="#000" stroke-linecap="round" stroke-linejoin="round" stroke-width="2" d="M10.77 24.5C6.62 25.6 4 27.208 4 29c0 3.314 8.954 6 20 6s20-2.686 20-6c0-1.792-2.619-3.4-6.77-4.5"/><path stroke="#000" stroke-linecap="round" stroke-linejoin="round" stroke-width="2" d="M10.77 15.5C6.62 16.6 4 18.208 4 20c0 3.314 8.954 6 20 6s20-2.686 20-6c0-1.792-2.619-3.4-6.77-4.5"/><path stroke="#000" stroke-linecap="round" stroke-linejoin="round" stroke-width="2" d="M10.77 24.5C6.62 25.6 4 27.208 4 29c0 3.314 8.954 6 20 6s20-2.686 20-6c0-1.792-2.619-3.4-6.77-4.5-3.526.933-8.158 1.5-13.23 1.5s-9.703-.567-13.23-1.5"/></svg>