<svg fill-opacity="1" stroke-opacity="1" xmlns="http://www.w3.org/2000/svg" width="48" height="48" fill="none" viewBox="0 0 48 48"><path stroke="#000" stroke-linecap="round" stroke-linejoin="round" stroke-width="2" d="M24 36v-6M20 40H6M28 40h14M28 40a4 4 0 1 1-8 0 4 4 0 0 1 8 0M37 17c0 7.18-5.82 13-13 13s-13-5.82-13-13m26 0c0-7.18-5.82-13-13-13S11 9.82 11 17m26 0H11"/><path stroke="#000" stroke-linecap="round" stroke-linejoin="round" stroke-width="2" d="M29 17c0 7.18-2.239 13-5 13s-5-5.82-5-13 2.239-13 5-13 5 5.82 5 13M37 17H11"/></svg>