<svg fill-opacity="1" stroke-opacity="1" xmlns="http://www.w3.org/2000/svg" width="48" height="48" fill="none" viewBox="0 0 48 48"><path stroke="#000" stroke-linecap="round" stroke-linejoin="round" stroke-width="2" d="M22 8v12c0 2.21-4.03 4-9 4s-9-1.79-9-4V8"/><path stroke="#000" stroke-linecap="round" stroke-linejoin="round" stroke-width="2" d="M22 14c0 2.21-4.03 4-9 4s-9-1.79-9-4M22 8c0 2.21-4.03 4-9 4s-9-1.79-9-4 4.03-4 9-4 9 1.79 9 4M32 6h6a4 4 0 0 1 4 4v6M16 42h-6a4 4 0 0 1-4-4v-6M35 38v6M41 44H29M44 38V26H26v12z"/></svg>