<svg fill-opacity="1" stroke-opacity="1" xmlns="http://www.w3.org/2000/svg" width="48" height="48" fill="none" viewBox="0 0 48 48"><path stroke="#000" stroke-linecap="round" stroke-linejoin="round" stroke-width="2" d="M24 36v-6M20 40H6M28 40h14M28 40a4 4 0 1 1-8 0 4 4 0 0 1 8 0M39 9v16c0 2.761-6.716 5-15 5S9 27.761 9 25V9"/><path stroke="#000" stroke-linecap="round" stroke-linejoin="round" stroke-width="2" d="M39 17c0 2.761-6.716 5-15 5S9 19.761 9 17"/><path d="M39 9c0 2.761-6.716 5-15 5S9 11.761 9 9s6.716-5 15-5 15 2.239 15 5"/><path d="M39 9c0 2.761-6.716 5-15 5S9 11.761 9 9s6.716-5 15-5 15 2.239 15 5"/><path stroke="#000" stroke-linecap="round" stroke-linejoin="round" stroke-width="2" d="M39 9c0 2.761-6.716 5-15 5S9 11.761 9 9s6.716-5 15-5 15 2.239 15 5"/><path stroke="#000" stroke-linecap="round" stroke-linejoin="round" stroke-width="2" d="M39 9c0 2.761-6.716 5-15 5S9 11.761 9 9s6.716-5 15-5 15 2.239 15 5"/></svg>