<svg fill-opacity="1" stroke-opacity="1" xmlns="http://www.w3.org/2000/svg" width="48" height="48" fill="none" viewBox="0 0 48 48"><path stroke="#000" stroke-linecap="round" stroke-width="2" d="M21 34.993v5.978c0 .569-.423 1.029-.944 1.029H4.944C4.423 42 4 41.54 4 40.971V7.03C4 6.46 4.423 6 4.944 6h15.112c.521 0 .944.46.944 1.029v5.978M27 13.007V7.03C27 6.46 27.423 6 27.944 6h15.112c.521 0 .944.46.944 1.029V40.97c0 .569-.423 1.029-.944 1.029H27.944c-.521 0-.944-.46-.944-1.029v-5.978"/><path fill="#000" d="M12.5 38a2 2 0 1 0 0-4 2 2 0 0 0 0 4M35.5 38a2 2 0 1 0 0-4 2 2 0 0 0 0 4"/><path stroke="#000" stroke-linecap="round" stroke-width="2" d="M16 23.5h16"/><path stroke="#000" stroke-linecap="round" stroke-linejoin="round" stroke-width="2" d="m27.223 28.273 1.591-1.591 3.182-3.182-3.182-3.182-1.59-1.591"/></svg>