<svg fill-opacity="1" stroke-opacity="1" xmlns="http://www.w3.org/2000/svg" width="48" height="48" fill="none" viewBox="0 0 48 48"><path stroke="#000" stroke-width="2" d="M36 27c0 7.217-5.373 17-12 17s-12-9.783-12-17c0-7.216 1.5-11 12-11s12 3.784 12 11Z"/><ellipse stroke="#000" stroke-width="2" rx="5" ry="3.5" transform="rotate(135 15.875 16.827)scale(-1 1)"/><ellipse cx="9" cy="17.5" stroke="#000" stroke-width="2" rx="5" ry="3.5" transform="rotate(45 9 17.5)"/><path stroke="#000" stroke-linecap="round" stroke-width="2" d="M12 4c0 6.627 5.373 12 12 12s12-5.373 12-12"/><path stroke="#000" stroke-linecap="round" stroke-width="2" d="M18 7c0 4.97 2.686 9 6 9s6-4.03 6-9"/><circle cx="20" cy="26" r="2" fill="#000"/><circle cx="24" cy="34" r="2" fill="#000"/><circle cx="28" cy="26" r="2" fill="#000"/></svg>