<svg fill-opacity="1" stroke-opacity="1" xmlns="http://www.w3.org/2000/svg" width="48" height="48" fill="none" viewBox="0 0 48 48"><g clip-path="url(#a)"><rect width="36" height="36" x="6" y="6" stroke="#000" stroke-width="2" rx="3"/><path fill="#000" d="m23.293 10.565-3.243 3.242c-.63.63-.183 1.708.707 1.708h6.486c.89 0 1.337-1.078.707-1.708l-3.243-3.242a1 1 0 0 0-1.414 0M10.565 24.707l3.242 3.243c.63.63 1.708.183 1.708-.707v-6.486c0-.89-1.078-1.337-1.708-.707l-3.242 3.243a1 1 0 0 0 0 1.414M24.707 37.435l3.243-3.242c.63-.63.183-1.708-.707-1.708h-6.486c-.89 0-1.337 1.078-.707 1.708l3.243 3.242a1 1 0 0 0 1.414 0M37.435 23.293l-3.242-3.243c-.63-.63-1.708-.183-1.708.707v6.486c0 .89 1.078 1.337 1.708.707l3.242-3.243a1 1 0 0 0 0-1.414"/></g><defs><clipPath id="a"><path fill="#000" d="M0 0h48v48H0z"/></clipPath></defs></svg>