<svg fill-opacity="1" stroke-opacity="1" xmlns="http://www.w3.org/2000/svg" width="48" height="48" fill="none" viewBox="0 0 48 48"><path stroke="#000" stroke-linecap="round" stroke-linejoin="round" stroke-miterlimit="2" stroke-width="2" d="m4 40 2.5 1.351c1.6.865 3.4.865 5 0 1.6-.864 3.4-.864 5 0 1.6.865 3.4.865 5 0 1.6-.864 3.4-.864 5 0 1.6.865 3.4.865 5 0 1.6-.864 3.4-.864 5 0 1.6.865 3.4.865 5 0L44 40M14 11V4M31 11V4M21 8V4M38 8V4"/><path stroke="#000" stroke-linecap="round" stroke-linejoin="round" stroke-width="2" d="M12 6h8M29 6h8"/><rect width="8" height="24" x="10" y="11" stroke="#000" stroke-linecap="round" stroke-linejoin="round" stroke-width="2" rx="4"/><rect width="8" height="24" x="27" y="11" stroke="#000" stroke-linecap="round" stroke-linejoin="round" stroke-width="2" rx="4"/><path stroke="#000" stroke-linecap="round" stroke-linejoin="round" stroke-width="2" d="M27 15a4 4 0 0 1 8 0v4h-8zM10 15a4 4 0 0 1 8 0v4h-8z"/></svg>