<svg fill-opacity="1" stroke-opacity="1" xmlns="http://www.w3.org/2000/svg" width="48" height="48" fill="none" viewBox="0 0 48 48"><path stroke="#000" stroke-linecap="round" stroke-linejoin="round" stroke-width="2" d="M40 27V6a2 2 0 0 0-2-2H10a2 2 0 0 0-2 2v36a2 2 0 0 0 2 2h11M17 12h14M17 20h14M17 28h6"/><path d="M37 37c0 1.38-.56 2.63-1.465 3.535A5 5 0 1 1 37 37"/><path stroke="#000" stroke-linecap="round" stroke-linejoin="round" stroke-width="2" d="m39 44-3.465-3.465m0 0a5 5 0 1 0-7.071-7.07 5 5 0 0 0 7.072 7.07"/></svg>