<svg fill-opacity="1" stroke-opacity="1" xmlns="http://www.w3.org/2000/svg" width="48" height="48" fill="none" viewBox="0 0 48 48"><path stroke="#000" stroke-linecap="round" stroke-linejoin="round" stroke-width="2" d="M38 4H10a2 2 0 0 0-2 2v36a2 2 0 0 0 2 2h28a2 2 0 0 0 2-2V6a2 2 0 0 0-2-2"/><path d="M28 16c0 1.38-.56 2.63-1.465 3.535A5 5 0 1 1 28 16"/><path stroke="#000" stroke-linecap="round" stroke-linejoin="round" stroke-width="2" d="m30 23-3.465-3.465m0 0a5 5 0 1 0-7.071-7.07 5 5 0 0 0 7.072 7.07M17 30h14M17 36h7"/></svg>