<svg fill-opacity="1" stroke-opacity="1" xmlns="http://www.w3.org/2000/svg" width="48" height="48" fill="none" viewBox="0 0 48 48"><path stroke="#000" stroke-linecap="round" stroke-linejoin="round" stroke-width="2" d="m17 10-2-5c-2.167.833-6.8 5.8-6 13M31 10l2-5c2.167.833 6.8 5.8 6 13"/><path stroke="#000" stroke-width="2" d="M42 28.5C42 38.165 33.941 43 24 43S6 38.165 6 28.5 14.059 9 24 9s18 9.835 18 19.5Z"/><circle cx="20" cy="17" r="2" fill="#000"/><circle cx="28" cy="17" r="2" fill="#000"/><path stroke="#000" stroke-linecap="round" stroke-linejoin="round" stroke-width="2" d="M24 26c0 1.657.5 5.5-3 5.5a3 3 0 0 1-3-3"/><path stroke="#000" stroke-linecap="round" stroke-linejoin="round" stroke-width="2" d="M24.025 26c0 1.657-.5 5.5 3 5.5a3 3 0 0 0 3-3"/><path stroke="#000" stroke-linejoin="round" stroke-width="2" d="M26 25.75c0 .69-2 1.75-2 1.75s-2-1.06-2-1.75.5-1.25 2-1.25 2 .56 2 1.25Z"/></svg>