<svg fill-opacity="1" stroke-opacity="1" xmlns="http://www.w3.org/2000/svg" width="48" height="48" fill="none" viewBox="0 0 48 48"><path stroke="#000" stroke-linecap="round" stroke-linejoin="round" stroke-width="2" d="M4 43h40"/><path stroke="#000" stroke-width="2" d="M5 24s9-1 19-1 19 1 19 1M6 18s9.053-4 18-4 18 4 18 4M5 30s9 2 19 2 19-2 19-2"/><path stroke="#000" stroke-width="2" d="M24 6C12.954 6 4 14.954 4 26c0 7.809 3.475 13.706 10 17h20c6.525-3.294 10-9.191 10-17 0-11.046-8.954-20-20-20Z"/><path stroke="#000" stroke-width="2" d="M24 6c-3.866 0-7 8.954-7 20 0 7.177 1.012 13.472 3 17h8c1.988-3.528 3-9.823 3-17 0-11.046-3.134-20-7-20Z"/></svg>