<svg fill-opacity="1" stroke-opacity="1" xmlns="http://www.w3.org/2000/svg" width="48" height="48" fill="none" viewBox="0 0 48 48"><path fill="#000" fill-rule="evenodd" d="M38.16 33.56c-4.316-1.52-8.95-2.315-13.718-2.315-5.06 0-9.967.895-14.502 2.6.399 1.102.92 2.156 1.557 3.142L6.455 40.24A21.7 21.7 0 0 1 3 28.45C3 16.619 12.385 7 24 7s21 9.62 21 21.449a21.7 21.7 0 0 1-3.753 12.24l-4.959-3.378a15.6 15.6 0 0 0 1.873-3.751m.44-8.676C37.034 18.062 31.08 13 24 13c-7.172 0-13.188 5.192-14.657 12.15-.237 1.33.123 2.486 1.11 2.182a47.5 47.5 0 0 1 13.989-2.087c4.657 0 9.212.665 13.532 1.949.854.253.981-.817.641-2.226a1 1 0 0 1-.016-.084" clip-rule="evenodd"/></svg>