<svg fill-opacity="1" stroke-opacity="1" xmlns="http://www.w3.org/2000/svg" width="48" height="48" fill="none" viewBox="0 0 48 48"><g stroke="#000" stroke-linecap="round" stroke-width="2" clip-path="url(#a)"><path d="m34.021 42.494 3.74-3.74a6 6 0 0 0 0-8.485v0a6 6 0 0 0-8.485 0L27.045 32.5M17.075 25.5l6.544-6.544a6 6 0 0 0 0-8.486v0a6 6 0 0 0-8.485 0l-7.071 7.071M17.075 25.5 8.77 33.806a6 6 0 0 0 0 8.485v0a6 6 0 0 0 8.485 0l9.766-9.766"/><path stroke-linejoin="round" d="M13 12V4M38 30l5-5"/></g><defs><clipPath id="a"><path fill="#000" d="M0 0h48v48H0z"/></clipPath></defs></svg>