<svg fill-opacity="1" stroke-opacity="1" xmlns="http://www.w3.org/2000/svg" width="48" height="48" fill="none" viewBox="0 0 48 48"><path stroke="#000" stroke-linecap="round" stroke-linejoin="round" stroke-width="2" d="M44 24a19.94 19.94 0 0 1-5.889 14.173A19.94 19.94 0 0 1 24 44C12.954 44 4 35.046 4 24a19.93 19.93 0 0 1 5.5-13.775A19.94 19.94 0 0 1 24 4a19.94 19.94 0 0 1 14.111 5.827A19.94 19.94 0 0 1 44 24"/><path stroke="#000" stroke-linecap="round" stroke-linejoin="round" stroke-width="2" d="M44 24c-2.918 0-10.968-1.1-18.173 2.063C18 29.5 12.333 34.832 9.863 38.147"/><path stroke="#000" stroke-linecap="round" stroke-linejoin="round" stroke-width="2" d="M16.5 5.454C19.63 8.343 26.46 15.698 29 23s3.48 16.28 4.06 18.835"/><path stroke="#000" stroke-linecap="round" stroke-linejoin="round" stroke-width="2" d="M4.154 21.5c3.778.228 13.779.433 20.179-2.3s11.907-7.76 13.796-9.355M5.5 31.613a20.08 20.08 0 0 0 9 9.991"/><path stroke="#000" stroke-linecap="round" stroke-linejoin="round" stroke-width="2" d="M4 24a19.93 19.93 0 0 1 5.5-13.775M24 4a19.94 19.94 0 0 0-14.5 6.225M32 5.664a20 20 0 0 1 6.111 4.163A19.94 19.94 0 0 1 44 24c0 2.462-.445 4.821-1.26 7M24 44a19.94 19.94 0 0 0 14.111-5.827"/></svg>