<svg fill-opacity="1" stroke-opacity="1" xmlns="http://www.w3.org/2000/svg" width="48" height="48" fill="none" viewBox="0 0 48 48"><path stroke="#000" stroke-linecap="round" stroke-width="2" d="M10 16h28"/><path stroke="#000" stroke-width="2" d="M14.153 18.143A2 2 0 0 1 16.148 16h15.704a2 2 0 0 1 1.995 2.142l-1.714 24A2 2 0 0 1 30.138 44H17.862a2 2 0 0 1-1.995-1.858z"/><path stroke="#000" stroke-linecap="round" stroke-width="2" d="M24 10V6a2 2 0 0 1 2-2h3"/><path stroke="#000" stroke-width="2" d="M14.722 11.671A2 2 0 0 1 16.694 10h14.612a2 2 0 0 1 1.973 1.671L34 16H14z"/></svg>