<svg fill-opacity="1" stroke-opacity="1" xmlns="http://www.w3.org/2000/svg" width="48" height="48" fill="none" viewBox="0 0 48 48"><path stroke="#000" stroke-linecap="round" stroke-width="2" d="M24 43a15.95 15.95 0 0 0 11.314-4.686A15.95 15.95 0 0 0 40 27a15.95 15.95 0 0 0-4.686-11.314A15.95 15.95 0 0 0 24 11a15.95 15.95 0 0 0-11.314 4.686A15.95 15.95 0 0 0 8 27a15.95 15.95 0 0 0 4.686 11.314A15.95 15.95 0 0 0 24 43Z" clip-rule="evenodd"/><path stroke="#000" stroke-linecap="round" stroke-width="2" d="M39.557 11.444A21.93 21.93 0 0 0 24 5a21.93 21.93 0 0 0-15.556 6.444"/></svg>