<svg fill-opacity="1" stroke-opacity="1" xmlns="http://www.w3.org/2000/svg" width="48" height="48" fill="none" viewBox="0 0 48 48"><path stroke="#000" stroke-linecap="round" stroke-width="2" d="M24 37a15.95 15.95 0 0 0 11.314-4.686A15.95 15.95 0 0 0 40 21a15.95 15.95 0 0 0-4.686-11.314A15.95 15.95 0 0 0 24 5a15.95 15.95 0 0 0-11.314 4.686A15.95 15.95 0 0 0 8 21a15.95 15.95 0 0 0 4.686 11.314A15.95 15.95 0 0 0 24 37Z" clip-rule="evenodd"/><path stroke="#000" stroke-linecap="round" stroke-width="2" d="M39.556 36.556A21.93 21.93 0 0 1 24 43a21.93 21.93 0 0 1-15.557-6.444"/></svg>