<svg fill-opacity="1" stroke-opacity="1" xmlns="http://www.w3.org/2000/svg" width="48" height="48" fill="none" viewBox="0 0 48 48"><path stroke="#000" stroke-linecap="round" stroke-width="2" d="M21 40a15.95 15.95 0 0 0 11.314-4.686A15.95 15.95 0 0 0 37 24a15.95 15.95 0 0 0-4.686-11.314A15.95 15.95 0 0 0 21 8a15.95 15.95 0 0 0-11.314 4.686A15.95 15.95 0 0 0 5 24a15.95 15.95 0 0 0 4.686 11.314A15.95 15.95 0 0 0 21 40Z" clip-rule="evenodd"/><path stroke="#000" stroke-linecap="round" stroke-width="2" d="M36.557 39.556A21.93 21.93 0 0 0 43 24a21.93 21.93 0 0 0-6.443-15.556"/></svg>