<svg fill-opacity="1" stroke-opacity="1" xmlns="http://www.w3.org/2000/svg" width="48" height="48" fill="none" viewBox="0 0 48 48"><path stroke="#000" stroke-linecap="round" stroke-linejoin="round" stroke-width="2" d="M12 8c-3.052 4.517-5.987 5.81-8 5 .543 1.833 4.443 4.375 6.927 5.838 1.07.63 1.383 2.065.638 3.059C10.202 23.717 8.315 26.289 8 27 .954 39.79 16.482 44.648 24 44c22.144-1.908 21.355-19.197 18-26-8.052 13.994-20.481 5.915-20 3s3.792-2.335 5-7C29.013 4.768 16.374.399 12 8"/><path stroke="#000" stroke-linecap="round" stroke-linejoin="round" stroke-width="2" d="M19 31c2.5 3.5 10 7 16 2"/><circle cx="17" cy="12" r="2" fill="#000"/></svg>