<svg fill-opacity="1" stroke-opacity="1" xmlns="http://www.w3.org/2000/svg" width="48" height="48" fill="none" viewBox="0 0 48 48"><path stroke="#000" stroke-linejoin="round" stroke-width="2" d="M14 13.6c0-1.436-1.343-2.6-3-2.6s-3 1.164-3 2.6v20.8c0 1.436 1.343 2.6 3 2.6s3-1.164 3-2.6zM40 13.6c0-1.436-1.343-2.6-3-2.6s-3 1.164-3 2.6v20.8c0 1.436 1.343 2.6 3 2.6s3-1.164 3-2.6zM8 18.667C8 17.194 6.657 16 5 16s-3 1.194-3 2.667v10.666C2 30.806 3.343 32 5 32s3-1.194 3-2.667zM46 18.667C46 17.194 44.657 16 43 16s-3 1.194-3 2.667v10.666C40 30.806 41.343 32 43 32s3-1.194 3-2.667zM14 27h20v-6H14z"/></svg>