<svg fill-opacity="1" stroke-opacity="1" xmlns="http://www.w3.org/2000/svg" width="48" height="48" fill="none" viewBox="0 0 48 48"><path stroke="#000" stroke-linecap="round" stroke-linejoin="round" stroke-width="2" d="M24 44c11.046 0 20-8.954 20-20S35.046 4 24 4 4 12.954 4 24s8.954 20 20 20" clip-rule="evenodd"/><path stroke="#000" stroke-linecap="round" stroke-linejoin="round" stroke-width="2" d="M4 24h40"/><path stroke="#000" stroke-linecap="round" stroke-linejoin="round" stroke-width="2" d="M24 44c4.418 0 8-8.954 8-20S28.418 4 24 4s-8 8.954-8 20 3.582 20 8 20" clip-rule="evenodd"/><path stroke="#000" stroke-linecap="round" stroke-linejoin="round" stroke-width="2" d="M9.858 10.142A19.94 19.94 0 0 0 24 16a19.94 19.94 0 0 0 14.142-5.858M38.142 37.858A19.94 19.94 0 0 0 24 32a19.94 19.94 0 0 0-14.142 5.858"/></svg>