<svg fill-opacity="1" stroke-opacity="1" xmlns="http://www.w3.org/2000/svg" width="48" height="48" fill="none" viewBox="0 0 48 48"><path d="M43 9v30h-9v-8h9V17h-9V9zM5 17V9h9v8zv14h9v8H5V17"/><path stroke="#000" stroke-linecap="round" stroke-linejoin="round" stroke-width="2" d="M43 17V9h-9m9 8v14m0-14h-9M5 17V9h9m-9 8v14m0-14h9M5 31v8h9m-9-8h9m29 0v8h-9m9-8h-9m0-22v8m0-8h-4m4 30v-8m0 8h-4M14 9v8m0-8h4m-4 30v-8m0 8h4m-4-22h4m16 0h-4m4 14h-4m-16 0h4"/><path stroke="#000" stroke-linecap="round" stroke-width="2" d="M24 7v4M24 17v4M24 27v4M24 37v4"/></svg>