<svg fill-opacity="1" stroke-opacity="1" xmlns="http://www.w3.org/2000/svg" width="48" height="48" fill="none" viewBox="0 0 48 48"><path stroke="#000" stroke-width="2" d="m35 18-3.88 12.612c-.08.259-.155.514-.248.768-.548 1.498-2.99 7.04-9.871 9.62C13 44 4.999 40 5 32.077S13 25 17 22s8-9 8-9"/><path stroke="#000" stroke-linecap="round" stroke-linejoin="round" stroke-width="2" d="M39.255 24.488S40.372 19.176 40 16c-.505-4.327-2.5-7.5-5-9s-7.748-2.5-12 0c-4.253 2.5-6.033 5.845-6.033 5.845l8.206-.767a1 1 0 0 1 1.055.72l1.497 5.24a1 1 0 0 0 1.236.688l5.282-1.51a1 1 0 0 1 1.145.468zM36 8l6-2"/></svg>