<svg fill-opacity="1" stroke-opacity="1" xmlns="http://www.w3.org/2000/svg" width="48" height="48" fill="none" viewBox="0 0 48 48"><g stroke="#000" stroke-linecap="round" stroke-linejoin="round" stroke-width="2" clip-path="url(#a)"><path d="M9.439 42h3.184a2 2 0 0 0 1.868-1.286l2.2-5.753.025-5.526q0-.175.032-.348L20.152 10.3a2 2 0 0 0-1.968-2.357h-7.321a2 2 0 0 0-2 2.056l.523 18.871-1.77 3.33a2 2 0 0 0 .269 2.266l.561.633-.963 4.48A2 2 0 0 0 9.438 42M16.717 29.26l-7.331-.39M38.578 42h-3.18a2 2 0 0 1-1.878-1.313l-2.093-5.726-.025-5.526q0-.176-.032-.348L27.965 10.3a2 2 0 0 1 1.968-2.357h7.322a2 2 0 0 1 2 2.055l-.523 18.872 1.771 3.33a2 2 0 0 1-.27 2.266l-.561.633.87 4.523A2 2 0 0 1 38.578 42M31.4 29.26l7.331-.39"/></g><defs><clipPath id="a"><path fill="#000" d="M0 0h48v48H0z"/></clipPath></defs></svg>