<svg fill-opacity="1" stroke-opacity="1" xmlns="http://www.w3.org/2000/svg" width="48" height="48" fill="none" viewBox="0 0 48 48"><path stroke="#000" stroke-linejoin="round" stroke-width="2" d="M23.147 44C31.293 44 40 43.01 40 30.18q0-9.324-4.474-15.18-4.18 7-6.196 7c-2.016 0 0-6.09-2.331-10.709Q24.668 6.671 18.729 4q.825 6.655-.357 9.655c-1.184 3-11.22 8.255-10.314 17.28S15 44 23.147 44Z" clip-rule="evenodd"/><path stroke="#000" stroke-linejoin="round" stroke-width="2" d="M21.708 24.008Q16 29.196 16.843 33.611c.483 2.534 2.406 3.765 3.854 4.163 1.123.307 3.067.48 4.803-1.067 1.84-1.639 1.107-3.968-1.56-6.85q-1.689-1.823-2.232-5.849Z"/></svg>