<svg fill-opacity="1" stroke-opacity="1" xmlns="http://www.w3.org/2000/svg" width="48" height="48" fill="none" viewBox="0 0 48 48"><path d="M16 10a5 5 0 1 1-10 0 5 5 0 0 1 10 0"/><path stroke="#000" stroke-linecap="round" stroke-linejoin="round" stroke-width="2" d="M16 10a5 5 0 1 1-10 0 5 5 0 0 1 10 0m0 0h11m0 0-4-4m4 4-4 4"/><path d="M32 38a5 5 0 1 0 10 0 5 5 0 0 0-10 0"/><path stroke="#000" stroke-linecap="round" stroke-linejoin="round" stroke-width="2" d="M32 38a5 5 0 1 0 10 0 5 5 0 0 0-10 0m0 0H21m0 0 4-4m-4 4 4 4"/><path d="M33 11a5 5 0 1 0 10 0 5 5 0 0 0-10 0"/><path stroke="#000" stroke-linecap="round" stroke-linejoin="round" stroke-width="2" d="M38 16a5 5 0 1 1 0-10 5 5 0 0 1 0 10m0 0v11m0 0 4-4m-4 4-4-4"/><path d="M5 37a5 5 0 1 1 10 0 5 5 0 0 1-10 0"/><path stroke="#000" stroke-linecap="round" stroke-linejoin="round" stroke-width="2" d="M10 32a5 5 0 1 0 0 10 5 5 0 0 0 0-10m0 0V21m0 0 4 4m-4-4-4 4"/></svg>