<svg fill-opacity="1" stroke-opacity="1" xmlns="http://www.w3.org/2000/svg" width="48" height="48" fill="none" viewBox="0 0 48 48"><path stroke="#000" stroke-linejoin="round" stroke-width="2" d="M10.064 24.059c3.287-1.074 3.465-5.093 7.797-5.942 3.465-.679 5.547 1.709 6.064 4.244.433 2.122-.866 7.639-7.797 7.639C7.465 30 4.578 24.483 4 22.361c.866.849 3.465 2.546 6.064 1.697Z"/><path stroke="#000" stroke-linejoin="round" stroke-width="2" d="M37.936 24.059c-3.288-1.074-3.465-5.093-7.797-5.942-3.465-.679-5.547 1.709-6.064 4.244-.433 2.122.866 7.639 7.797 7.639 8.663 0 11.55-5.517 12.128-7.639-.866.849-3.465 2.546-6.064 1.697Z"/></svg>