<svg fill-opacity="1" stroke-opacity="1" xmlns="http://www.w3.org/2000/svg" width="48" height="48" fill="none" viewBox="0 0 48 48"><path stroke="#000" stroke-linejoin="round" stroke-width="2" d="M16 24c5.523 0 10-4.477 10-10S21.523 4 16 4 6 8.477 6 14s4.477 10 10 10Z"/><path stroke="#000" stroke-linecap="round" stroke-linejoin="round" stroke-width="2" d="M26 15.202q.021.021 14.126 17.764a1 1 0 0 1-.062 1.346l-4.084 4.084a1 1 0 0 1-1.346.062L17.822 24M26.47 24.47l2.829 2.829"/><path stroke="#000" stroke-linecap="round" stroke-linejoin="round" stroke-width="2" d="M17 44.086q2.876-3.747 6.99-3.747c4.116 0 8.973 5.17 13.116 4.459 4.144-.712 5.33-4.798 2.78-7.06"/></svg>