<svg fill-opacity="1" stroke-opacity="1" xmlns="http://www.w3.org/2000/svg" width="48" height="48" fill="none" viewBox="0 0 48 48"><path fill="#000" d="M44 23.994a2 2 0 0 0-4 0zm-20-16a2 2 0 1 0 0-4zm15 32H9v4h30zm-31-1v-30H4v30zm32-15v15h4v-15zm-31-16h15v-4H9zm0 32a1 1 0 0 1-1-1H4a5 5 0 0 0 5 5zm30 4a5 5 0 0 0 5-5h-4a1 1 0 0 1-1 1zm-31-35a1 1 0 0 1 1-1v-4a5 5 0 0 0-5 5z"/><path stroke="#000" stroke-linecap="round" stroke-linejoin="round" stroke-width="2" d="m6 35 10.693-9.802a2 2 0 0 1 2.653-.044L32 36M28 31l4.773-4.773a2 2 0 0 1 2.615-.186L42 31M33 7l8 8M41 7l-8 8"/></svg>