<svg fill-opacity="1" stroke-opacity="1" xmlns="http://www.w3.org/2000/svg" width="48" height="48" fill="none" viewBox="0 0 48 48"><path stroke="#000" stroke-linecap="round" stroke-linejoin="round" stroke-width="2" d="M8 31v11a2 2 0 0 0 2 2h28a2 2 0 0 0 2-2V31"/><path stroke="#000" stroke-linejoin="round" stroke-width="2" d="M38 14H10a2 2 0 0 0-2 2v6a2 2 0 0 0 2 2h28a2 2 0 0 0 2-2v-6a2 2 0 0 0-2-2Z"/><path stroke="#000" stroke-linecap="round" stroke-linejoin="round" stroke-width="2" d="M16 4v4M24 4v4M32 4v4M16 34h16"/></svg>