<svg fill-opacity="1" stroke-opacity="1" xmlns="http://www.w3.org/2000/svg" width="48" height="48" fill="none" viewBox="0 0 48 48"><rect width="36" height="36" x="6" y="6" stroke="#000" stroke-width="2" rx="3"/><path fill="#000" d="M35 12h-4.586c-.89 0-1.337 1.077-.707 1.707l4.586 4.586c.63.63 1.707.184 1.707-.707V13a1 1 0 0 0-1-1M12 13v4.586c0 .89 1.077 1.337 1.707.707l4.586-4.586c.63-.63.184-1.707-.707-1.707H13a1 1 0 0 0-1 1M13 36h4.586c.89 0 1.337-1.077.707-1.707l-4.586-4.586c-.63-.63-1.707-.184-1.707.707V35a1 1 0 0 0 1 1M36 35v-4.586c0-.89-1.077-1.337-1.707-.707l-4.586 4.586c-.63.63-.184 1.707.707 1.707H35a1 1 0 0 0 1-1"/></svg>