<svg fill-opacity="1" stroke-opacity="1" xmlns="http://www.w3.org/2000/svg" width="48" height="48" fill="none" viewBox="0 0 48 48"><path stroke="#000" stroke-width="2" d="M39 6H9a3 3 0 0 0-3 3v30a3 3 0 0 0 3 3h30a3 3 0 0 0 3-3V9a3 3 0 0 0-3-3Z"/><path stroke="#000" stroke-linecap="round" stroke-linejoin="round" stroke-width="2" d="M27 12v4c2.667.833 9 3 9 10s-6 10-12 10-12-3-12-10c0-8 9.667-12.833 15-14"/><ellipse cx="29" cy="26" fill="#000" rx="3" ry="4"/><ellipse cx="19" cy="26" fill="#000" rx="3" ry="4"/></svg>