<svg fill-opacity="1" stroke-opacity="1" xmlns="http://www.w3.org/2000/svg" width="48" height="48" fill="none" viewBox="0 0 48 48"><path stroke="#000" stroke-linecap="round" stroke-linejoin="round" stroke-width="2" d="M33 5h8a2 2 0 0 1 2 2v8m0 18v8a2 2 0 0 1-2 2h-8m-18 0H7a2 2 0 0 1-2-2v-8m0-18V7a2 2 0 0 1 2-2h8"/><path stroke="#000" stroke-width="2" d="M24 38c6.627 0 12-6.268 12-14s-5.373-14-12-14-12 6.268-12 14 5.373 14 12 14Z"/><path stroke="#000" stroke-linecap="round" stroke-width="2" d="M6 24h36M20.07 30.106q1.9 1.406 3.93 1.406 2.028-.001 4.038-1.406"/></svg>