<svg fill-opacity="1" stroke-opacity="1" xmlns="http://www.w3.org/2000/svg" width="48" height="48" fill="none" viewBox="0 0 48 48"><path stroke="#000" stroke-linejoin="round" stroke-width="2" d="M10 15.114a3 3 0 0 1 1.991-2.825l11-3.929a3 3 0 0 1 2.018 0l11 3.929A3 3 0 0 1 38 15.114v16.49c0 .885-.39 1.725-1.092 2.264C34.468 35.742 28.434 40 24 40s-10.467-4.257-12.908-6.132A2.84 2.84 0 0 1 10 31.604z"/><path stroke="#000" stroke-linecap="round" stroke-width="2" d="M10 28c-3.314 0-6-3.11-6-6.947S6.686 16 10 16M38 28c3.314 0 6-3.11 6-6.947S41.314 16 38 16"/><path stroke="#000" stroke-linecap="round" stroke-linejoin="round" stroke-width="2" d="m16 25 8-4 8 4M19 31l5-2 5 2"/></svg>