<svg fill-opacity="1" stroke-opacity="1" xmlns="http://www.w3.org/2000/svg" width="48" height="48" fill="none" viewBox="0 0 48 48"><path stroke="#000" stroke-linecap="round" stroke-linejoin="round" stroke-width="2" d="M23.142 15.858 11.828 27.172a4 4 0 0 0 0 5.656l9.9 9.9a4 4 0 0 0 5.657 0l9.9-9.9a4 4 0 0 0 0-5.656L25.97 15.858a2 2 0 0 0-2.829 0M25 13.84s4.554-5.11 6.373-7.266 3.768-1.878 5.392-.476 1.668 3.616 0 5.677S30.556 19 30.556 19M25 13.839s-4.554-5.11-6.373-7.266-3.767-1.878-5.392-.476c-1.625 1.403-1.668 3.617 0 5.677C14.903 13.836 19.444 19 19.444 19"/></svg>