<svg fill-opacity="1" stroke-opacity="1" xmlns="http://www.w3.org/2000/svg" width="48" height="48" fill="none" viewBox="0 0 48 48"><path fill="#000" fill-rule="evenodd" d="M7.854 24.12A30.6 30.6 0 0 1 2 12.989a36.7 36.7 0 0 0 8.512 8.3c5.421-5.09 12.69-8.205 20.681-8.208 5.24.001 9.897 2.469 12.902 6.312q.254.303.471.633a7.36 7.36 0 0 1 1.207 3.478 35.97 35.97 0 0 0-14.568-3.064c-3.749 0-7.36.571-10.76 1.631a36 36 0 0 0-5.14 2.05q.251.122.507.243a36 36 0 0 0 4.633 1.805 36.1 36.1 0 0 0 11.722 1.618 36.1 36.1 0 0 0 9.79-1.616 36 36 0 0 0 3.81-1.43 7.3 7.3 0 0 1-1.684 4.121c-3.003 3.837-7.656 6.3-12.88 6.3-8.001-.002-15.273-3.118-20.695-8.21a36.7 36.7 0 0 0-8.507 8.299 30.65 30.65 0 0 1 5.853-11.13" clip-rule="evenodd"/><path fill="#000" fill-rule="evenodd" d="M32.597 27.382c1.53-.464 2.658-1.243 2.658-3.138 0-1.897-1.128-2.962-2.658-3.428l-.032-.01a3.2 3.2 0 0 0-.888-.128 29 29 0 0 1 .98.017c3.324.102 6.484.737 9.572 1.729 1.28.451 2.332.78 3.544 1.385v.397c0 .232 0 .107-.027.341-1.324.553-2.237.875-3.516 1.327-3.074.865-6.248 1.528-9.572 1.63q-.02.002-.038.002-.472.015-.945.014c.307 0 .605-.045.89-.127z" clip-rule="evenodd"/></svg>