<svg fill-opacity="1" stroke-opacity="1" xmlns="http://www.w3.org/2000/svg" width="48" height="48" fill="none" viewBox="0 0 48 48"><path stroke="#000" stroke-linecap="round" stroke-width="2" d="m9 44 15-22M39 44 24 22"/><path stroke="#000" stroke-width="2" d="M9.132 24A15 15 0 0 1 9 22a14.95 14.95 0 0 1 1.5-6.546M11.156 29.753A15.02 15.02 0 0 0 21 36.7M27 36.7a15.02 15.02 0 0 0 9.911-7.06M38.868 24q.131-.982.132-2a14.94 14.94 0 0 0-1.5-6.546M27 7.3a14.96 14.96 0 0 1 7 3.52M21 7.3a14.96 14.96 0 0 0-7.614 4.101"/><circle cx="10" cy="27" r="3" stroke="#000" stroke-width="2"/><circle cx="24" cy="37" r="3" stroke="#000" stroke-width="2"/><circle cx="24" cy="7" r="3" stroke="#000" stroke-width="2"/><circle cx="12" cy="13" r="3" stroke="#000" stroke-width="2"/><circle cx="36" cy="13" r="3" stroke="#000" stroke-width="2"/><circle cx="38" cy="27" r="3" stroke="#000" stroke-width="2"/><circle cx="24" cy="22" r="4" fill="#000"/><path stroke="#000" stroke-linecap="round" stroke-linejoin="round" stroke-width="2" d="M6 44h8M34 44h8"/></svg>