<svg fill-opacity="1" stroke-opacity="1" xmlns="http://www.w3.org/2000/svg" width="48" height="48" fill="none" viewBox="0 0 48 48"><rect width="36" height="36" x="6" y="6" stroke="#000" stroke-linejoin="round" stroke-width="2" rx="3"/><path stroke="#000" stroke-linejoin="round" stroke-width="2" d="M18 18a3 3 0 0 1 3-3h3v6h-3a3 3 0 0 1-3-3ZM18 24a3 3 0 0 1 3-3h3v6h-3a3 3 0 0 1-3-3ZM18 30a3 3 0 0 1 3-3h3v3a3 3 0 1 1-6 0ZM24 15h3a3 3 0 1 1 0 6h-3z"/><path stroke="#000" stroke-linejoin="round" stroke-width="2" d="M24 24a3 3 0 1 1 6 0 3 3 0 0 1-6 0Z"/></svg>