<svg fill-opacity="1" stroke-opacity="1" xmlns="http://www.w3.org/2000/svg" width="48" height="48" fill="none" viewBox="0 0 48 48"><path stroke="#000" stroke-linecap="round" stroke-linejoin="round" stroke-width="2" d="M40 23v-9L31 4H10a2 2 0 0 0-2 2v36a2 2 0 0 0 2 2h12"/><path stroke="#000" stroke-linecap="round" stroke-linejoin="round" stroke-width="2" d="M25 30a8.6 8.6 0 0 0 1.255 2.517C27.783 34.63 30.235 36 33 36s5.217-1.37 6.745-3.483A8.6 8.6 0 0 0 41 30M30.522 36.068l-1.036 3.864M35.486 36.068l1.036 3.864M39.354 34.354l2.828 2.828M24 37.01l2.828-2.828M30 4v10h10"/></svg>