<svg fill-opacity="1" stroke-opacity="1" xmlns="http://www.w3.org/2000/svg" width="48" height="48" fill="none" viewBox="0 0 48 48"><path stroke="#000" stroke-linecap="round" stroke-linejoin="round" stroke-width="2" d="M10 38v6h28v-6M38 20v-6L30 4H10v16"/><path stroke="#000" stroke-linecap="round" stroke-linejoin="round" stroke-width="2" d="M28 4v10h10"/><rect width="40" height="18" x="4" y="20" stroke="#000" stroke-linejoin="round" stroke-width="2" rx="2"/><path stroke="#000" stroke-linecap="round" stroke-width="2" d="M21 25v8M10 25v8"/><path stroke="#000" stroke-linecap="round" stroke-linejoin="round" stroke-width="2" d="M32 33v-8h5M32 30h5M10 25h3.5a2.5 2.5 0 0 1 2.5 2.5v0a2.5 2.5 0 0 1-2.5 2.5H10M21 25h2a4 4 0 0 1 4 4v0a4 4 0 0 1-4 4h-2"/><path stroke="#000" stroke-linecap="round" stroke-width="2" d="M16 12h4"/></svg>