<svg fill-opacity="1" stroke-opacity="1" xmlns="http://www.w3.org/2000/svg" width="48" height="48" fill="none" viewBox="0 0 48 48"><path stroke="#000" stroke-linecap="round" stroke-linejoin="round" stroke-width="2" d="M10 38v6h28v-6M38 20v-6L30 4H10v16"/><path stroke="#000" stroke-linecap="round" stroke-linejoin="round" stroke-width="2" d="M28 4v10h10"/><path stroke="#000" stroke-linecap="round" stroke-width="2" d="M16 12h4"/><rect width="40" height="18" x="4" y="20" stroke="#000" stroke-linejoin="round" stroke-width="2" rx="2"/><path stroke="#000" stroke-linecap="round" stroke-width="2" d="M10 25v8"/><path stroke="#000" stroke-linecap="round" stroke-linejoin="round" stroke-width="2" d="M10 25h2a4 4 0 0 1 4 4v0a4 4 0 0 1-4 4h-2"/><ellipse cx="24" cy="29" stroke="#000" stroke-linecap="round" stroke-linejoin="round" stroke-width="2" rx="3" ry="4"/><path stroke="#000" stroke-linecap="round" stroke-linejoin="round" stroke-width="2" d="M38 25h-2a4 4 0 0 0-4 4v0a4 4 0 0 0 4 4h2"/></svg>