<svg fill-opacity="1" stroke-opacity="1" xmlns="http://www.w3.org/2000/svg" width="48" height="48" fill="none" viewBox="0 0 48 48"><path stroke="#000" stroke-linecap="round" stroke-linejoin="round" stroke-width="2" d="M10 44h28a2 2 0 0 0 2-2V14H30V4H10a2 2 0 0 0-2 2v36a2 2 0 0 0 2 2M30 4l10 10"/><path stroke="#000" stroke-linecap="round" stroke-linejoin="round" stroke-width="2" d="M16 23a8.6 8.6 0 0 0 1.255 2.517C18.783 27.63 21.235 29 24 29s5.217-1.37 6.745-3.483A8.6 8.6 0 0 0 32 23M21.522 29.068l-1.036 3.864M26.486 29.068l1.036 3.864M30.354 27.354l2.828 2.828M15 30.01l2.828-2.828"/></svg>