<svg fill-opacity="1" stroke-opacity="1" xmlns="http://www.w3.org/2000/svg" width="48" height="48" fill="none" viewBox="0 0 48 48"><path stroke="#000" stroke-linecap="round" stroke-linejoin="round" stroke-width="2" d="M40 23v-9L31 4H10a2 2 0 0 0-2 2v36a2 2 0 0 0 2 2h12"/><path stroke="#000" stroke-linejoin="round" stroke-width="2" d="M33 41c4.97 0 9-6 9-6s-4.03-6-9-6-9 6-9 6 4.03 6 9 6Z"/><path fill="#000" d="M33 37a2 2 0 1 0 0-4 2 2 0 0 0 0 4"/><path stroke="#000" stroke-linecap="round" stroke-linejoin="round" stroke-width="2" d="M30 4v10h10"/></svg>