<svg fill-opacity="1" stroke-opacity="1" xmlns="http://www.w3.org/2000/svg" width="48" height="48" fill="none" viewBox="0 0 48 48"><path stroke="#000" stroke-linecap="round" stroke-linejoin="round" stroke-width="2" d="M40 23v-9L31 4H10a2 2 0 0 0-2 2v36a2 2 0 0 0 2 2h12"/><path stroke="#000" stroke-linecap="round" stroke-linejoin="round" stroke-width="2" d="M30.85 30C28.724 30 27 32.009 27 34.486c0 4.487 4.55 8.565 7 9.514 2.45-.949 7-5.027 7-9.514C41 32.01 39.276 30 37.15 30c-1.302 0-2.453.753-3.15 1.906C33.303 30.753 32.152 30 30.85 30M30 4v10h10"/></svg>