<svg fill-opacity="1" stroke-opacity="1" xmlns="http://www.w3.org/2000/svg" width="48" height="48" fill="none" viewBox="0 0 48 48"><path stroke="#000" stroke-linecap="round" stroke-linejoin="round" stroke-width="2" d="M25 41h13v-7M25 7h13v7M25 34.243V44l-15-5.381V34M25 13.973V4L10 9.381v4.592"/><rect width="40" height="20" x="4" y="14" stroke="#000" stroke-linecap="round" stroke-linejoin="round" stroke-width="2" rx="2"/><path stroke="#000" stroke-linecap="round" stroke-width="2" d="M10 19v10M21 19v10"/><path stroke="#000" stroke-linecap="round" stroke-linejoin="round" stroke-width="2" d="M35 20v8M32 20h6M10 19h3a3 3 0 0 1 3 3v0a3 3 0 0 1-3 3h-3M21 19h3a3 3 0 0 1 3 3v0a3 3 0 0 1-3 3h-3"/></svg>