<svg fill-opacity="1" stroke-opacity="1" xmlns="http://www.w3.org/2000/svg" width="48" height="48" fill="none" viewBox="0 0 48 48"><path fill="#000" stroke="#000" stroke-linecap="round" stroke-width="2" d="M24.489 8.398c-.243-.04-.215-.398.031-.398H39.5a.5.5 0 0 1 .5.5v14.98c0 .246-.359.274-.398.031l-1.966-12.317a1 1 0 0 0-.83-.83zM6.489 26.398c-.243-.04-.215-.398.032-.398H21.5a.5.5 0 0 1 .5.5v14.98c0 .246-.359.274-.398.031l-1.966-12.317a1 1 0 0 0-.83-.83zM15.489 17.398c-.243-.04-.215-.398.031-.398H30.5a.5.5 0 0 1 .5.5v14.98c0 .246-.359.274-.398.031L28.75 20.91a2 2 0 0 0-1.66-1.66z"/></svg>