<svg fill-opacity="1" stroke-opacity="1" xmlns="http://www.w3.org/2000/svg" width="48" height="48" fill="none" viewBox="0 0 48 48"><path stroke="#000" stroke-linejoin="round" stroke-width="2" d="M24 44c8.235 0 15-6.526 15-14.902 0-2.056-.105-4.26-1.245-7.686s-1.369-3.868-2.574-5.984c-.515 4.317-3.27 6.117-3.97 6.655 0-.56-1.666-6.747-4.193-10.45C24.537 8 21.163 5.617 19.185 4c0 3.07-.863 7.634-2.1 9.96-1.236 2.325-1.468 2.41-3.013 4.14s-2.253 2.265-3.545 4.365S9 27.362 9 29.418C9 37.794 15.765 44 24 44Z"/></svg>