<svg fill-opacity="1" stroke-opacity="1" xmlns="http://www.w3.org/2000/svg" width="48" height="48" fill="none" viewBox="0 0 48 48"><path stroke="#000" stroke-linejoin="round" stroke-width="2" d="m6 42 8.674-24.736L31 34.038z"/><path stroke="#000" stroke-linecap="round" stroke-linejoin="round" stroke-width="2" d="m23 19 5-5q4-4 1-7M29 25l5-5q5-5 10 0"/><path fill="#000" d="M20 7a2 2 0 1 0 0-4 2 2 0 0 0 0 4M42 6a2 2 0 1 0 0-4 2 2 0 0 0 0 4M42 29a2 2 0 1 0 0-4 2 2 0 0 0 0 4M39 38a2 2 0 1 0 0-4 2 2 0 0 0 0 4"/></svg>