<svg fill-opacity="1" stroke-opacity="1" xmlns="http://www.w3.org/2000/svg" width="48" height="48" fill="none" viewBox="0 0 48 48"><path stroke="#000" stroke-linecap="round" stroke-linejoin="round" stroke-width="2" d="M24.68 20.037c-1.115-.299-4.415-1.357-9.51 2.055-3.031 2.03-4.306 5.148-4.736 7.438-.204 1.089.72 1.967 1.82 1.836.796-.094 1.68-.241 2.348-.467 1.97-.667 1.712-1.93 2.717-3.453s3.533-2.04 5.612-.885c2.08 1.154 2.747 3.125 2.299 4.797s-1.453 3.194-3.981 3.71c-2.528.518-3.343-.895-5.98-2.199-1.374-.68-3.167.202-4.25.899a1.514 1.514 0 0 0-.609 1.822c.175.463.415 1.005.729 1.548.816 1.413 4.378 5.95 8.985 6.588s9.404-1.66 12.12-5.114c2.717-3.452 2.797-8.209.907-12.299"/><path stroke="#000" stroke-linecap="round" stroke-linejoin="round" stroke-width="2" d="m33.046 26.42-4.77-22.264c-.106-.5-.575-.845-1.069-.715-1.161.307-2.636 1.077-2.705 2.87-.09 2.305.364 20.038.97 23.256"/></svg>