<svg fill-opacity="1" stroke-opacity="1" xmlns="http://www.w3.org/2000/svg" width="48" height="48" fill="none" viewBox="0 0 48 48"><path stroke="#000" stroke-linecap="round" stroke-linejoin="round" stroke-width="2" d="M41 33c1.657 0 3-3.582 3-8s-1.343-8-3-8-3 3.582-3 8 1.343 8 3 8M7 33c1.657 0 3-3.582 3-8s-1.343-8-3-8-3 3.582-3 8 1.343 8 3 8M24 44c3.314 0 6-8.954 6-20S27.314 4 24 4s-6 8.954-6 20 2.686 20 6 20M34 40c2.21 0 4-7.163 4-16S36.21 8 34 8s-4 7.163-4 16 1.79 16 4 16M14 40c2.21 0 4-7.163 4-16S16.21 8 14 8s-4 7.163-4 16 1.79 16 4 16"/></svg>