<svg fill-opacity="1" stroke-opacity="1" xmlns="http://www.w3.org/2000/svg" width="48" height="48" fill="none" viewBox="0 0 48 48"><path stroke="#000" stroke-linejoin="round" stroke-width="2" d="M38.986 23c-.313 10.709-5.866 16.522-13.984 20-4.393-1.881-8.034-4.447-10.502-8.101M39 19v-8.744L25.007 5 11 10.256v11.773c0 2.587.294 4.9.848 6.971"/><path stroke="#000" stroke-linecap="round" stroke-linejoin="round" stroke-width="2" d="M9.268 30.632c-1.373-1.257-2.99-3.877-3.587-4.027 0 0-1.798 4.434-1.68 7.395.117 2.96 2.896 4.635 5.824 3.22S44 20 44 20l-9-2z"/><path stroke="#000" stroke-linecap="round" stroke-linejoin="round" stroke-width="2" d="m28 21-9-3-2 1 3 6"/></svg>