<svg fill-opacity="1" stroke-opacity="1" xmlns="http://www.w3.org/2000/svg" width="48" height="48" fill="none" viewBox="0 0 48 48"><path stroke="#000" stroke-linecap="round" stroke-linejoin="round" stroke-width="2" d="M26 21c-2-.5-4.753-1.638-8.83 1.092-3.03 2.03-4.305 5.148-4.735 7.438-.205 1.089.72 1.967 1.82 1.836.796-.094 1.68-.24 2.347-.467 1.97-.667 1.712-1.93 2.717-3.453s3.533-2.04 5.613-.885c2.08 1.154 2.746 3.125 2.298 4.797s-1.453 3.194-3.98 3.711-3.344-.896-5.981-2.2c-1.374-.68-3.166.202-4.249.899a1.514 1.514 0 0 0-.61 1.822c.175.463.415 1.005.729 1.548.816 1.413 4.378 5.951 8.985 6.588s9.404-1.66 12.12-5.114c2.718-3.452 2.798-8.209.907-12.299"/><path stroke="#000" stroke-linecap="round" stroke-linejoin="round" stroke-width="2" d="M35.046 26.42 32.001 14l-9.293-9.293c-.39-.39-1.02-.384-1.335.07-.753 1.085-1.751 3.154-.372 5.223.487.731 4 5 4 5s2.097 12.574 2.472 14.567"/></svg>