<svg fill-opacity="1" stroke-opacity="1" xmlns="http://www.w3.org/2000/svg" width="48" height="48" fill="none" viewBox="0 0 48 48"><path stroke="#000" stroke-linejoin="round" stroke-width="2" d="M24 40c11.046 0 20-7.163 20-16S35.046 8 24 8 4 15.163 4 24s8.954 16 20 16Z"/><path stroke="#000" stroke-linejoin="round" stroke-width="2" d="M24 28c5.523 0 10-2.686 10-6s-4.477-6-10-6-10 2.686-10 6 4.477 6 10 6Z"/><path stroke="#000" stroke-linecap="round" stroke-linejoin="round" stroke-width="2" d="M24 16V8M32 18s2.625-4 7-4M16 18s-2-4-7-4M18 27s-6 2-7 9M30 27s6.5 2 7 9"/></svg>