<svg fill-opacity="1" stroke-opacity="1" xmlns="http://www.w3.org/2000/svg" width="48" height="48" fill="none" viewBox="0 0 48 48"><path stroke="#000" stroke-linecap="round" stroke-linejoin="round" stroke-width="2" d="M16 6H8a2 2 0 0 0-2 2v8M16 42H8a2 2 0 0 1-2-2v-8M32 42h8a2 2 0 0 0 2-2v-8M32 6h8a2 2 0 0 1 2 2v8"/><path stroke="#000" stroke-linecap="round" stroke-linejoin="round" stroke-miterlimit="10" stroke-width="2" d="M24 31a7 7 0 1 0 0-14 7 7 0 0 0 0 14M24 17v-4M24 35v-4M35 24h-4M17 24h-4"/><path fill="#000" d="M24 26a2 2 0 1 0 0-4 2 2 0 0 0 0 4"/></svg>