<svg fill-opacity="1" stroke-opacity="1" xmlns="http://www.w3.org/2000/svg" width="48" height="48" fill="none" viewBox="0 0 48 48"><path stroke="#000" stroke-linecap="round" stroke-linejoin="round" stroke-width="2" d="M43 23v-9a2 2 0 0 0-2-2H24l-5-6H7a2 2 0 0 0-2 2v32a2 2 0 0 0 2 2h15"/><circle cx="35" cy="35" r="4" stroke="#000" stroke-width="2"/><path stroke="#000" stroke-linecap="round" stroke-linejoin="round" stroke-width="2" d="M35 28v3M35 39v3M39.828 30l-2.121 2.121M31.828 38l-2.121 2.121M30 30l2.121 2.121M38 38l2.121 2.121M28 35h3M39 35h3"/></svg>