<svg fill-opacity="1" stroke-opacity="1" xmlns="http://www.w3.org/2000/svg" width="48" height="48" fill="none" viewBox="0 0 48 48"><path stroke="#000" stroke-linecap="round" stroke-linejoin="round" stroke-width="2" d="M7 6a2 2 0 0 1 2-2h30a2 2 0 0 1 2 2v36a2 2 0 0 1-2 2H9a2 2 0 0 1-2-2zM16 29h4M16 35h10"/><path stroke="#000" stroke-linecap="round" stroke-linejoin="round" stroke-width="2" d="M8 5s3.765 13 16 13S40 5 40 5"/><circle cx="24" cy="18" r="4" stroke="#000" stroke-linecap="round" stroke-linejoin="round" stroke-width="2"/><path stroke="#000" stroke-linecap="round" stroke-linejoin="round" stroke-width="2" d="M15 4H9a2 2 0 0 0-2 2v6M33 4h6a2 2 0 0 1 2 2v6"/></svg>