<svg fill-opacity="1" stroke-opacity="1" xmlns="http://www.w3.org/2000/svg" width="48" height="48" fill="none" viewBox="0 0 48 48"><path stroke="#000" stroke-linejoin="round" stroke-width="2" d="M5 6a1 1 0 0 1 1-1h10a1 1 0 0 1 1 1v36a1 1 0 0 1-1 1H6a1 1 0 0 1-1-1z"/><circle cx="11" cy="35" r="2" fill="#000"/><path stroke="#000" stroke-linecap="round" stroke-linejoin="round" stroke-width="2" d="M11 11v14M23.978 9.756l10.06-2.515a1 1 0 0 1 1.21.72l7.5 29.063a1 1 0 0 1-.725 1.22l-10.06 2.515a1 1 0 0 1-1.211-.72l-7.5-29.063a1 1 0 0 1 .726-1.22"/><circle cx="35" cy="32" r="2" fill="#000"/><path stroke="#000" stroke-linecap="round" stroke-linejoin="round" stroke-width="2" d="m31 16 2.5 10"/></svg>