<svg fill-opacity="1" stroke-opacity="1" xmlns="http://www.w3.org/2000/svg" width="48" height="48" fill="none" viewBox="0 0 48 48"><path stroke="#000" stroke-linejoin="round" stroke-width="2" d="M5 8a2 2 0 0 1 2-2h12l5 6h17a2 2 0 0 1 2 2v26a2 2 0 0 1-2 2H7a2 2 0 0 1-2-2z"/><circle cx="24" cy="28" r="4" stroke="#000" stroke-width="2"/><path stroke="#000" stroke-linecap="round" stroke-linejoin="round" stroke-width="2" d="M24 21v3M24 32v3M28.828 23l-2.121 2.121M20.828 31l-2.121 2.121M19 23l2.121 2.121M27 31l2.121 2.121M17 28h3M28 28h3"/></svg>