<svg fill-opacity="1" stroke-opacity="1" xmlns="http://www.w3.org/2000/svg" width="48" height="48" fill="none" viewBox="0 0 48 48"><path stroke="#000" stroke-linecap="round" stroke-linejoin="round" stroke-width="2" d="M25.745 44h-.896c-5.21 0-10.07-2.626-12.925-6.984l-2.195-3.35a5.63 5.63 0 0 1 1.072-7.382l2.288-1.936c.26-.22.411-.545.411-.887V7.25a3.25 3.25 0 0 1 6.5 0v-1a3.25 3.25 0 0 1 6.5 0v1a3.25 3.25 0 0 1 6.5 0v4a3.25 3.25 0 0 1 6.5 0v19.058c0 2.73-.838 5.417-2.38 7.671C34.556 41.726 30.285 44 25.745 44"/></svg>