<svg fill-opacity="1" stroke-opacity="1" xmlns="http://www.w3.org/2000/svg" width="48" height="48" fill="none" viewBox="0 0 48 48"><path stroke="#000" stroke-linecap="round" stroke-linejoin="round" stroke-width="2" d="M10 16a6 6 0 1 0 0-12 6 6 0 0 0 0 12"/><path stroke="#000" stroke-linecap="round" stroke-linejoin="round" stroke-width="2" d="M6.283 14.71A19.9 19.9 0 0 0 4.4 20M14.71 6.283A19.9 19.9 0 0 1 20 4.4M38 16a6 6 0 1 0 0-12 6 6 0 0 0 0 12"/><path stroke="#000" stroke-linecap="round" stroke-linejoin="round" stroke-width="2" d="M33.29 6.283A19.9 19.9 0 0 0 28 4.4M41.716 14.71A19.9 19.9 0 0 1 43.6 20M38 44a6 6 0 1 0 0-12 6 6 0 0 0 0 12"/><path stroke="#000" stroke-linecap="round" stroke-linejoin="round" stroke-width="2" d="M41.716 33.29A19.9 19.9 0 0 0 43.6 28M33.29 41.716A19.9 19.9 0 0 1 28 43.6M10 44a6 6 0 1 0 0-12 6 6 0 0 0 0 12"/><path stroke="#000" stroke-linecap="round" stroke-linejoin="round" stroke-width="2" d="M14.71 41.716A19.9 19.9 0 0 0 20 43.6M6.283 33.29A19.9 19.9 0 0 1 4.4 28M24 30V18m-6 6h12z"/></svg>