<svg fill-opacity="1" stroke-opacity="1" xmlns="http://www.w3.org/2000/svg" width="48" height="48" fill="none" viewBox="0 0 48 48"><path stroke="#000" stroke-linecap="round" stroke-linejoin="round" stroke-width="2" d="M44 4S33.59 2.201 30 8c-2.672 4.317 1 9 1 9M44 4 31 17M44 4s1.799 10.41-4 14c-4.317 2.672-9-1-9-1m0 0-3 3M31 31l-3-3m16 16s-10.41 1.799-14-4c-2.672-4.317 1-9 1-9zm0 0s1.799-10.41-4-14c-4.317-2.672-9 1-9 1zm0 0L31 31zM17.264 17l3 3m-16-16s10.41-1.799 14 4c2.672 4.317-1 9-1 9zm0 0s-1.8 10.41 4 14c4.316 2.672 9-1 9-1zm0 0 13 13zM17.264 31l3-3m-16 16s10.41 1.799 14-4c2.672-4.317-1-9-1-9zm0 0s-1.8-10.41 4-14c4.316-2.672 9 1 9 1zm0 0 13-13z"/></svg>