<svg fill-opacity="1" stroke-opacity="1" xmlns="http://www.w3.org/2000/svg" width="48" height="48" fill="none" viewBox="0 0 48 48"><path stroke="#000" stroke-linecap="round" stroke-linejoin="round" stroke-width="2" d="M21 22V12a2 2 0 0 0-2-2h-3a2 2 0 0 0-2 2v9M35 21v-7a2 2 0 0 0-2-2h-3a2 2 0 0 0-2 2v8M28 22V6a2 2 0 0 0-2-2h-3a2 2 0 0 0-2 2v16"/><path stroke="#000" stroke-linecap="round" stroke-linejoin="round" stroke-width="2" d="M7 18s7 5 17 5 17-5 17-5l-4.818 26H11.818z"/><ellipse cx="24" cy="33" stroke="#000" stroke-width="2" rx="6" ry="3"/></svg>