<svg fill-opacity="1" stroke-opacity="1" xmlns="http://www.w3.org/2000/svg" width="48" height="48" fill="none" viewBox="0 0 48 48"><path stroke="#000" stroke-linecap="round" stroke-linejoin="round" stroke-width="2" d="M11 12v12l13-5 13 5V12zM19 7v5h10V7a3 3 0 0 0-3-3h-4a3 3 0 0 0-3 3"/><path stroke="#000" stroke-linecap="round" stroke-linejoin="round" stroke-width="2" d="M12 44 6 26l18-7 18 7-6 18"/><path stroke="#000" stroke-linecap="round" stroke-linejoin="round" stroke-width="2" d="M4 42s4.663 2 8 2c5 0 7-2 12-2s7 2 12 2c3.337 0 8-2 8-2M24 19v23"/></svg>