<svg fill-opacity="1" stroke-opacity="1" xmlns="http://www.w3.org/2000/svg" width="48" height="48" fill="none" viewBox="0 0 48 48"><path stroke="#000" stroke-linecap="round" stroke-linejoin="round" stroke-width="2" d="M19 32c-4 0-13 .13-13-9.059 0-1.749.594-5.244 3.865-7.328a2.73 2.73 0 0 0 1.235-1.897C11.6 10.226 14.11 4 22 4c2.293 0 5.988.3 8.384 3.93.416.631 1.096 1.059 1.838 1.204C35.79 9.83 42.058 13.276 42 20c.06 2.17-.443 5.346-4.506 7.37-.846.421-1.379 1.313-1.546 2.243C35.497 32.117 33.277 35.375 27 36"/><path stroke="#000" stroke-linecap="round" stroke-linejoin="round" stroke-width="2" d="M16 44c7.093-12.93 2.956-18.653 0-20l14-2c-6.72 9.339-3.422 18.558-.933 22z"/></svg>