<svg fill-opacity="1" stroke-opacity="1" xmlns="http://www.w3.org/2000/svg" width="48" height="48" fill="none" viewBox="0 0 48 48"><ellipse cx="14" cy="10" stroke="#000" stroke-linecap="round" stroke-linejoin="round" stroke-width="2" rx="10" ry="5"/><path stroke="#000" stroke-linecap="round" stroke-linejoin="round" stroke-width="2" d="M4 10v7c0 2.761 4.477 5 10 5s10-2.239 10-5v-7"/><path stroke="#000" stroke-linecap="round" stroke-linejoin="round" stroke-width="2" d="M4 17v7c0 2.761 4.477 5 10 5s10-2.239 10-5v-7"/><path stroke="#000" stroke-linecap="round" stroke-linejoin="round" stroke-width="2" d="M4 24v7c0 2.761 4.477 5 10 5s10-2.239 10-5v-7"/><path stroke="#000" stroke-linecap="round" stroke-linejoin="round" stroke-width="2" d="M4 31v7c0 2.761 4.477 5 10 5s10-2.239 10-5v-7"/><ellipse cx="34" cy="24" stroke="#000" stroke-linecap="round" stroke-linejoin="round" stroke-width="2" rx="10" ry="5"/><path stroke="#000" stroke-linecap="round" stroke-linejoin="round" stroke-width="2" d="M24 24v7c0 2.761 4.477 5 10 5s10-2.239 10-5v-7"/><path stroke="#000" stroke-linecap="round" stroke-linejoin="round" stroke-width="2" d="M24 31v7c0 2.761 4.477 5 10 5s10-2.239 10-5v-7"/></svg>