<svg fill-opacity="1" stroke-opacity="1" xmlns="http://www.w3.org/2000/svg" width="48" height="48" fill="none" viewBox="0 0 48 48"><path stroke="#000" stroke-linecap="round" stroke-linejoin="round" stroke-width="2" d="M19 30v3a7 7 0 0 1-7 7v0a7 7 0 0 1-7-7V19M29 30v3a7 7 0 0 0 7 7v0a7 7 0 0 0 7-7V19"/><rect width="38" height="22" x="5" y="8" stroke="#000" stroke-width="2" rx="11"/><path stroke="#000" stroke-linecap="round" stroke-linejoin="round" stroke-width="2" d="M21 19h-8M17 15v8"/><rect width="4" height="4" x="32" y="15" fill="#000" rx="2"/><rect width="4" height="4" x="28" y="20" fill="#000" rx="2"/></svg>