<svg fill-opacity="1" stroke-opacity="1" xmlns="http://www.w3.org/2000/svg" width="48" height="48" fill="none" viewBox="0 0 48 48"><path stroke="#000" stroke-linecap="round" stroke-linejoin="round" stroke-width="2" d="M11.075 37.08c-3.386 1.46-5.039 3.444-5.71 4.83-.266.548.181 1.09.79 1.09h21.232c.742 0 1.212-.776.779-1.38-1.75-2.438-4.384-3.977-5.777-4.552a.9.9 0 0 0-.357-.068h-10.57a1 1 0 0 0-.387.08"/><path stroke="#000" stroke-linejoin="round" stroke-width="2" d="m14.732 18.856 5-8.66 8.66 5-5 8.66z"/><path fill="#000" d="m27.392 16.928 1-1.732a2 2 0 0 0-2.732.732zm-3 5.196-1.732-1a2 2 0 0 0 .732 2.732zm2-3.464 12.99 7.5 2-3.464-12.99-7.5zm11.99 9.232-12.99-7.5-2 3.464 12.99 7.5zm-12.258-4.768 3-5.196-3.464-2-3 5.196zm13.625 4.402a1 1 0 0 1-1.367.366l-2 3.464a5 5 0 0 0 6.83-1.83zm-.367-1.366a1 1 0 0 1 .367 1.366l3.464 2a5 5 0 0 0-1.83-6.83z"/><rect width="14" height="6" x="21" y="4" stroke="#000" stroke-linejoin="round" stroke-width="2" rx="3" transform="rotate(30 21 4)"/><rect width="14" height="6" x="13" y="17.856" stroke="#000" stroke-linejoin="round" stroke-width="2" rx="3" transform="rotate(30 13 17.856)"/></svg>