<svg fill-opacity="1" stroke-opacity="1" xmlns="http://www.w3.org/2000/svg" width="48" height="48" fill="none" viewBox="0 0 48 48"><path stroke="#000" stroke-linejoin="round" stroke-width="2" d="M24 44c1.336 0 2.364-3.75 3.626-4 1.3-.257 2.833 2.979 4.03 2.483 1.217-.505.75-3.616 1.831-4.34 1.091-.73 3.73.924 4.655 0 .925-.925-1.478-4.052-.748-5.143.725-1.082 4.584-.127 5.089-1.344.496-1.197-3.304-3.543-3.047-4.843C39.686 25.55 44 25.336 44 24c0-1.335-3.75-2.64-4-3.903-.257-1.3 2.979-2.556 2.483-3.752-.505-1.218-4.364-.263-5.089-1.345-.73-1.09 1.673-4.217.748-5.142S34.091 10.95 33 10.22c-1.082-.724-.127-4.196-1.345-4.701C30.46 5.022 28.3 7.905 27 7.648 25.738 7.397 25.336 4 24 4s-1.88 3.398-3.142 3.647c-1.3.258-3.317-2.625-4.513-2.13-1.218.506-.263 3.617-1.345 4.341-1.09.73-4.217-.925-5.142 0s1.667 4.052.937 5.142c-.725 1.082-4.773.127-5.278 1.345C5.021 17.54 8.257 19.24 8 20.54c-.25 1.262-4 2.125-4 3.46 0 1.336 4.097 1.927 4.347 3.19.257 1.3-3.326 3.27-2.83 4.466.505 1.217 4.29.262 5.014 1.344.73 1.09-1.598 4.218-.673 5.142s4.051-1.287 5.142-.557c1.082.725.127 4.393 1.345 4.898 1.196.496 3.212-2.74 4.513-2.483 1.262.25 1.806 4 3.142 4Z" clip-rule="evenodd"/><path stroke="#000" stroke-linejoin="round" stroke-width="2" d="M29 29a4 4 0 1 0 0-8 4 4 0 0 0 0 8Z"/><path fill="#000" d="M16.5 26a2.5 2.5 0 1 0 0-5 2.5 2.5 0 0 0 0 5"/></svg>