<svg fill-opacity="1" stroke-opacity="1" xmlns="http://www.w3.org/2000/svg" width="48" height="48" fill="none" viewBox="0 0 48 48"><path stroke="#000" stroke-linecap="round" stroke-linejoin="round" stroke-width="2" d="M6 9a3 3 0 0 1 3-3h30a3 3 0 0 1 3 3v30a3 3 0 0 1-3 3H9a3 3 0 0 1-3-3V9M4 24h40M24 44V4M6 30V18M42 30V18M30 42H18M30 6H18"/><path stroke="#000" stroke-linecap="round" stroke-linejoin="round" stroke-width="2" d="M24 24s7.897-3.546 9.099-4.747a3.077 3.077 0 1 0-4.352-4.352C27.546 16.103 24 24 24 24m0 0s-7.897-3.546-9.099-4.747m9.1 4.747s-3.547-7.897-4.748-9.099M24 24s7.897 3.546 9.099 4.747M24 24s3.546 7.897 4.747 9.099M24 23.999s-7.897 3.547-9.099 4.748a3.077 3.077 0 1 0 4.352 4.352c1.201-1.202 4.747-9.1 4.747-9.1"/></svg>