<svg fill-opacity="1" stroke-opacity="1" xmlns="http://www.w3.org/2000/svg" width="48" height="48" fill="none" viewBox="0 0 48 48"><path stroke="#000" stroke-linecap="round" stroke-width="2" d="M29.344 30.477c2.404-.5 4.585-1.366 6.28-2.638C38.52 25.668 40 22.314 40 19c0-2.324-.881-4.494-2.407-6.332-.85-1.024 1.636-8.667-.573-7.638-2.21 1.03-5.45 3.308-7.147 2.805A20.7 20.7 0 0 0 24 7c-1.8 0-3.532.223-5.147.634C16.505 8.232 14.259 6 12 5.03c-2.26-.97-1.026 6.934-1.697 7.765C8.84 14.605 8 16.73 8 19c0 3.314 1.79 6.668 4.686 8.84 1.93 1.446 4.348 2.368 7.054 2.822M19.74 30.662q-1.738 1.913-1.738 3.632v8.717M29.345 30.477q1.646 2.16 1.646 3.88v8.654M6 31.216q1.349.165 2 1.24c.652 1.074 3.074 5.062 5.825 5.062h4.177"/></svg>