<svg fill-opacity="1" stroke-opacity="1" xmlns="http://www.w3.org/2000/svg" width="48" height="48" fill="none" viewBox="0 0 48 48"><path fill="#000" fill-rule="evenodd" d="M24 4C12.954 4 4 12.954 4 24s8.954 20 20 20 20-8.954 20-20S35.046 4 24 4M0 24C0 10.745 10.745 0 24 0s24 10.745 24 24-10.745 24-24 24S0 37.255 0 24" clip-rule="evenodd"/><path fill="#000" fill-rule="evenodd" d="M19.183 45.472q-.29-.375 0-6.674-3.107.108-3.927-.431c-.819-.539-1.64-2.2-2.367-3.371s-2.343-1.356-2.995-1.618c-.652-.261-.816-1.328 1.797-.522 2.613.807 2.74 3.005 3.565 3.518.825.514 2.796.29 3.689-.122s.827-1.944.987-2.551c.201-.567-.509-.693-.524-.697-.873 0-5.454-.997-6.713-5.433-1.258-4.437.363-7.337 1.228-8.583q.864-1.248-.153-5.314Q17.466 13.2 19.473 16c.002.01 1.756-1.043 4.527-1.043s3.755.858 4.514 1.043 1.366-3.266 6.053-2.326c-.979 1.923-1.798 4.326-1.173 5.314.626.987 3.08 4.127 1.573 8.583q-1.509 4.455-5.929 5.433-.506.162-.506.522c0 .36.456.399 1.114 2.086q.66 1.686.096 9.635-1.427.363-2.22.488c-.937.147-1.955.23-2.955.261-1 .032-1.347.029-2.73-.1a20 20 0 0 1-2.654-.424" clip-rule="evenodd"/></svg>