<svg fill-opacity="1" stroke-opacity="1" xmlns="http://www.w3.org/2000/svg" width="48" height="48" fill="none" viewBox="0 0 48 48"><path stroke="#000" stroke-linecap="round" stroke-linejoin="round" stroke-width="2" d="M33 44H13M23 28v16M35 16c0 1.675-.357 3.284-1 4.75C32.148 24.97 27.92 28 23 28a12 12 0 0 1-10.79-6.742A11.95 11.95 0 0 1 11 16c0-2.373.533-4.613 1.21-6.5C13.387 6.217 15 4 15 4h16s1.815 2.496 3 6.112c.574 1.752 1 3.767 1 5.888"/><path stroke="#000" stroke-linecap="round" stroke-linejoin="round" stroke-width="2" d="M35 16s-7 3-12 0-12 0-12 0"/><path stroke="#000" stroke-linecap="round" stroke-linejoin="round" stroke-width="2" d="M34 10.112c.574 1.752 1 3.767 1 5.888 0 1.675-.357 3.284-1 4.75M12.21 9.5C11.533 11.387 11 13.627 11 16c0 1.886.435 3.67 1.21 5.258"/></svg>