<svg fill-opacity="1" stroke-opacity="1" xmlns="http://www.w3.org/2000/svg" width="48" height="48" fill="none" viewBox="0 0 48 48"><path d="M36 32a11.97 11.97 0 0 0-4-8.944A11.96 11.96 0 0 0 24 20a11.96 11.96 0 0 0-8 3.056A11.97 11.97 0 0 0 12 32c0 6.627 5.373 12 12 12s12-5.373 12-12"/><path d="M16 4h16v19.056A11.96 11.96 0 0 0 24 20a11.96 11.96 0 0 0-8 3.056V4"/><path stroke="#000" stroke-linecap="round" stroke-linejoin="round" stroke-width="2" d="M16 4h16M16 4H8v10l8 6m0-16v16M32 4h8v10l-8 6m0-16v16m-16 3.056A11.96 11.96 0 0 1 24 20c3.073 0 5.877 1.155 8 3.056m-16 0A11.97 11.97 0 0 0 12 32c0 6.627 5.373 12 12 12s12-5.373 12-12a11.97 11.97 0 0 0-4-8.944m-16 0V20m16 3.056V20"/><path stroke="#000" stroke-linecap="round" stroke-linejoin="round" stroke-width="2" d="M32 4h8v10l-8 6M16 4H8v10l8 6M36 32a11.97 11.97 0 0 0-4-8.944A11.96 11.96 0 0 0 24 20a11.96 11.96 0 0 0-8 3.056A11.97 11.97 0 0 0 12 32c0 6.627 5.373 12 12 12s12-5.373 12-12"/><path stroke="#000" stroke-linecap="round" stroke-linejoin="round" stroke-width="2" d="M16 4h16v19.056A11.96 11.96 0 0 0 24 20a11.96 11.96 0 0 0-8 3.056V4M24 37V27l-2 1m2 9h2m-2 0h-2"/></svg>