<svg fill-opacity="1" stroke-opacity="1" xmlns="http://www.w3.org/2000/svg" width="48" height="48" fill="none" viewBox="0 0 48 48"><path stroke="#000" stroke-linecap="round" stroke-linejoin="round" stroke-width="2" d="M44 4H31l-4 10.3A15.02 15.02 0 0 1 37.27 22zM17 4H4l6.73 18A15.02 15.02 0 0 1 21 14.3z"/><path stroke="#000" stroke-linecap="round" stroke-linejoin="round" stroke-width="2" d="M39 29c0 8.284-6.716 15-15 15S9 37.284 9 29c0-2.528.625-4.91 1.73-7A15.02 15.02 0 0 1 21 14.3c.97-.197 1.973-.3 3-.3s2.03.103 3 .3A15.02 15.02 0 0 1 37.27 22 14.94 14.94 0 0 1 39 29"/><path stroke="#000" stroke-linecap="round" stroke-linejoin="round" stroke-width="2" d="M24 35V22l-3 1m3 12h4m-4 0h-4"/></svg>