<svg fill-opacity="1" stroke-opacity="1" xmlns="http://www.w3.org/2000/svg" width="48" height="48" fill="none" viewBox="0 0 48 48"><path stroke="#000" stroke-linecap="round" stroke-linejoin="round" stroke-width="2" d="M4.189 22.173A2 2 0 0 1 6.181 20H10a2 2 0 0 1 2 2v19a2 2 0 0 1-2 2H7.834a2 2 0 0 1-1.993-1.827zM18 21.375c0-.836.52-1.584 1.275-1.94 1.649-.778 4.458-2.341 5.725-4.454 1.633-2.724 1.941-7.645 1.991-8.772.007-.158.003-.316.024-.472.271-1.953 4.04.328 5.485 2.74.785 1.308.885 3.027.803 4.37-.089 1.436-.51 2.823-.923 4.201l-.88 2.937h10.857a2 2 0 0 1 1.925 2.543l-5.37 19.016A2 2 0 0 1 36.986 43H20a2 2 0 0 1-2-2z"/></svg>