<svg fill-opacity="1" stroke-opacity="1" xmlns="http://www.w3.org/2000/svg" width="48" height="48" fill="none" viewBox="0 0 48 48"><path d="m34.5 7-5 7.5c-1-.532-3-1.5-5.5-1.5-6 0-11 5-11 10.5S17 35 24 35c5.6 0 9.5-4 9.5-7H24v-7h20c.5 7.5-1.71 11.9-4.5 15.5C35.324 41.888 29.171 44 24 44 14 44 4 36 4 23.5 4 11.5 14.724 4 23 4s11.5 3 11.5 3"/><path fill="#000" d="m29.5 14.5-.939 1.766a2 2 0 0 0 2.603-.657zm5-7.5 1.664 1.11a2 2 0 0 0-.302-2.574zM44 21l1.996-.133A2 2 0 0 0 44 19zm-20 0v-2a2 2 0 0 0-2 2zm0 7h-2a2 2 0 0 0 2 2zm9.5 0h2a2 2 0 0 0-2-2zm6 8.5-1.58-1.225zm-8.336-20.89 5-7.5-3.328-2.22-5 7.5zM34.5 7a150 150 0 0 0 1.36-1.466l-.001-.002-.014-.012-.082-.072a8.657 8.657 0 0 0-.804-.592 14 14 0 0 0-2.35-1.208C30.518 2.796 27.385 2 23 2v4c3.89 0 6.508.704 8.099 1.352a10 10 0 0 1 1.676.855 5 5 0 0 1 .385.278l-.002-.002-.008-.007-.006-.006-.003-.003-.002-.001c0-.001-.002-.002 1.361-1.466M23 2c-4.693 0-9.91 2.101-13.948 5.77C4.978 11.47 2 16.86 2 23.5h4c0-5.361 2.384-9.72 5.741-12.77C15.134 7.65 19.417 6 23 6zM2 23.5C2 37.2 12.993 46 24 46v-4c-8.993 0-18-7.2-18-18.5zM44 21v-2H24v4h20zm-22 0v7h4v-7zm2 9h9.5v-4H24zm7.5-2c0 .698-.522 1.933-1.919 3.08C28.248 32.174 26.317 33 24 33v4c3.283 0 6.102-1.173 8.119-2.829 1.953-1.602 3.381-3.868 3.381-6.17zM24 33c-5.617 0-9-4.804-9-9.5h-4C11 29.804 15.617 37 24 37zm-9-9.5c0-4.336 4.044-8.5 9-8.5v-4c-7.044 0-13 5.836-13 12.5zm9-8.5c2 0 3.645.779 4.561 1.266l1.878-3.532C29.355 12.158 26.999 11 24 11zm0 31c5.672 0 12.46-2.312 17.08-8.275l-3.16-2.45C34.188 40.089 28.67 42 24 42zm17.08-8.275c3.038-3.919 5.453-8.79 4.916-16.858l-3.992.266c.463 6.933-1.543 10.862-4.085 14.142z"/></svg>