<svg fill-opacity="1" stroke-opacity="1" xmlns="http://www.w3.org/2000/svg" width="48" height="48" fill="none" viewBox="0 0 48 48"><path stroke="#000" stroke-linecap="round" stroke-linejoin="round" stroke-width="2" d="m24 24 10-10c0-5.523-4.477-10-10-10S14 8.477 14 14z" clip-rule="evenodd"/><path stroke="#000" stroke-linecap="round" stroke-linejoin="round" stroke-width="2" d="m14 34 10-10-10-10C8.477 14 4 18.477 4 24s4.477 10 10 10M34 34c5.523 0 10-4.477 10-10s-4.477-10-10-10L24 24z" clip-rule="evenodd"/><path stroke="#000" stroke-linecap="round" stroke-linejoin="round" stroke-width="2" d="M24 44c5.523 0 10-4.477 10-10L24 24 14 34c0 5.523 4.477 10 10 10" clip-rule="evenodd"/></svg>