<svg fill-opacity="1" stroke-opacity="1" xmlns="http://www.w3.org/2000/svg" width="48" height="48" fill="none" viewBox="0 0 48 48"><path stroke="#000" stroke-linecap="round" stroke-linejoin="round" stroke-width="2" d="M42.336 16C39.249 8.936 32.2 4 24 4S8.75 8.936 5.664 16"/><path stroke="#000" stroke-linecap="round" stroke-linejoin="round" stroke-width="2" d="M24 14a19.94 19.94 0 0 0-6 14.283q0 .75.055 1.488A19.94 19.94 0 0 1 24 44a19.94 19.94 0 0 1 5.945-14.23q.055-.736.055-1.487A19.94 19.94 0 0 0 24 14"/><path stroke="#000" stroke-linecap="round" stroke-linejoin="round" stroke-width="2" d="M4 24c0 11.046 8.954 20 20 20a19.94 19.94 0 0 0-5.945-14.23A19.94 19.94 0 0 0 4 24"/><path stroke="#000" stroke-linecap="round" stroke-linejoin="round" stroke-width="2" d="M44 24c0 11.046-8.954 20-20 20a19.94 19.94 0 0 1 5.945-14.23A19.94 19.94 0 0 1 44 24"/></svg>