<svg fill-opacity="1" stroke-opacity="1" xmlns="http://www.w3.org/2000/svg" width="48" height="48" fill="none" viewBox="0 0 48 48"><path stroke="#000" stroke-width="2" d="M11 12.138c0-.079.059-.146.137-.156L32.082 9.28C37.342 8.6 42 12.697 42 18s-4.659 9.399-9.918 8.72l-20.945-2.702a.16.16 0 0 1-.137-.156z"/><path stroke="#000" stroke-linecap="round" stroke-linejoin="round" stroke-width="2" d="M11 12 4 8v20l7-4"/><path stroke="#000" stroke-width="2" d="m38 25-6.694 15.898A5.07 5.07 0 0 1 26.634 44c-3.625 0-6.078-3.695-4.672-7.036L27 25"/><circle cx="35" cy="18" r="9" stroke="#000" stroke-width="2"/></svg>