<svg fill-opacity="1" stroke-opacity="1" xmlns="http://www.w3.org/2000/svg" width="48" height="48" fill="none" viewBox="0 0 48 48"><path stroke="#000" stroke-linecap="round" stroke-linejoin="round" stroke-width="2" d="m19.193 21.544 2.319 18.552a3.473 3.473 0 0 1-6.892.862l-2.374-18.989"/><path stroke="#000" stroke-linecap="round" stroke-linejoin="round" stroke-width="2" d="M13 4a9 9 0 0 0 0 18c1.578 0 3.74-.175 6.193-.456l12.403-2.022L44 17.5v-9L28.5 6.25zM37 8.2v9.6M44 17.5l-12.403 2.022M44 8.5 28.5 6.25"/><path stroke="#000" stroke-linecap="round" stroke-linejoin="round" stroke-width="2" d="M16 13a3 3 0 1 1-6 0 3 3 0 0 1 6 0"/></svg>