<svg fill-opacity="1" stroke-opacity="1" xmlns="http://www.w3.org/2000/svg" width="48" height="48" fill="none" viewBox="0 0 48 48"><g stroke="#000" stroke-linecap="round" stroke-linejoin="round" stroke-width="2" clip-path="url(#a)"><path d="M38.848 5.339c-6.964 1.228-14.584 6.88-17.534 14.58-3.225 8.417-4.097 9.338-8.03 11.468C9.502 33.435 4.6 35.072 4.6 35.072"/><path d="M9.638 33.107c4.22-2.54 9.708.083 12.165 1.804 2.457 1.72 4.956 1.64 6.39-.409s.656-4.424-1.801-6.144c-1.639-1.147-7.127-3.77-5.078-8.44"/><path d="M43.189 9.6c-10.323 2.538-14.42 5.773-18.435 17.61M20.984 34.337c-.778 1.693-2.295 5.718-2.131 8.274"/></g><defs><clipPath id="a"><path fill="#000" d="M0 0h48v48H0z"/></clipPath></defs></svg>