<svg fill-opacity="1" stroke-opacity="1" xmlns="http://www.w3.org/2000/svg" width="48" height="48" fill="none" viewBox="0 0 48 48"><path stroke="#000" stroke-linecap="round" stroke-linejoin="round" stroke-width="2" d="M24 28a4 4 0 1 0 0-8 4 4 0 0 0 0 8M17.364 14a12.05 12.05 0 0 0-3.453 3.5M12.198 26.18a12.1 12.1 0 0 1 0-4.36M17.364 34a12.05 12.05 0 0 1-3.453-3.5M26.36 35.768a12.1 12.1 0 0 1-4.72 0M30.636 34a12.1 12.1 0 0 0 3.453-3.5M35.803 26.18a12.1 12.1 0 0 0 0-4.36M30.636 14a12.1 12.1 0 0 1 3.453 3.5M21.64 12.232a12.1 12.1 0 0 1 4.72 0M44 24a20.2 20.2 0 0 0-.4-4M4 24a20.2 20.2 0 0 1 .4-4m34.246 17.62a20 20 0 0 1-2.796 2.493M9.354 37.62a20 20 0 0 0 2.796 2.493m3.562-34.32a20 20 0 0 0-3.562 2.094m20.138-2.094a20 20 0 0 1 3.562 2.094m-9.603-3.762a20.2 20.2 0 0 0-4.494 0m4.494 39.75a20 20 0 0 0 4.253-.955m-8.747.955a20 20 0 0 1-4.253-.955M8.155 11.794a20 20 0 0 0-1.908 2.986m33.598-2.985a20 20 0 0 1 1.908 2.985M6.247 33.22a20 20 0 0 1-1.378-3.372m36.884 3.372a20 20 0 0 0 1.378-3.372"/></svg>