<svg fill-opacity="1" stroke-opacity="1" xmlns="http://www.w3.org/2000/svg" width="48" height="48" fill="none" viewBox="0 0 48 48"><path stroke="#000" stroke-linecap="round" stroke-linejoin="round" stroke-width="2" d="M40 22v-1c0-8.837-7.163-16-16-16S8 12.163 8 21v1M8 34s-2 5 2 7 24 2 28 0 2-7 2-7"/><rect width="38" height="14" x="5" y="21" stroke="#000" stroke-linecap="round" stroke-linejoin="round" stroke-width="2" rx="7"/><path stroke="#000" stroke-linecap="round" stroke-linejoin="round" stroke-width="2" d="m11 29 1.592-.796A6 6 0 0 1 17.5 28l.424.17A4.98 4.98 0 0 0 22 28v0a4.98 4.98 0 0 1 4.076-.17l.96.384c1.249.5 2.653.442 3.857-.16v0a4.71 4.71 0 0 1 4.214 0L37 29"/><circle cx="17" cy="15.05" r="2.5" fill="#000"/><circle cx="23.75" cy="12.3" r="2.5" fill="#000"/></svg>