<svg fill-opacity="1" stroke-opacity="1" xmlns="http://www.w3.org/2000/svg" width="48" height="48" fill="none" viewBox="0 0 48 48"><path stroke="#000" stroke-linecap="round" stroke-width="2" d="M9.583 27.182Q7.009 28.94 7.009 33c0 4.06 4.991 11 9.492 11h11.515c4.405 0 7.08-3.85 7.08-6.94V24.6a3.253 3.253 0 0 0-3.243-3.253 3.235 3.235 0 0 0-3.245 3.226v.11"/><path stroke="#000" stroke-linecap="round" stroke-width="2" d="M10.981 29.445V7.662a3.217 3.217 0 0 1 6.435 0v15.986"/><path stroke="#000" stroke-linecap="round" stroke-linejoin="round" stroke-width="2" d="M17.416 24v-4.192a2.804 2.804 0 0 1 5.608 0v4.62"/><path stroke="#000" stroke-linecap="round" stroke-linejoin="round" stroke-width="2" d="M23 24.658v-2.85a2.804 2.804 0 0 1 5.608 0v3.195"/><path stroke="#000" stroke-linecap="round" stroke-width="2" d="M11 8h30"/><path stroke="#000" stroke-linecap="round" stroke-linejoin="round" stroke-width="2" d="m36 12.5 1.667-1.5L41 8l-3.333-3L36 3.5"/></svg>