<svg fill-opacity="1" stroke-opacity="1" xmlns="http://www.w3.org/2000/svg" width="48" height="48" fill="none" viewBox="0 0 48 48"><path stroke="#000" stroke-linecap="round" stroke-linejoin="round" stroke-width="2" d="M4 16a2 2 0 0 1 2-2h36a2 2 0 0 1 2 2v8.646c0 .818-.502 1.556-1.18 2.014-1.219.825-3.026 2.49-3.622 5.352C38.973 33.093 38.105 34 37 34H11c-1.105 0-1.973-.907-2.198-1.988-.596-2.863-2.403-4.527-3.623-5.352C4.502 26.202 4 25.464 4 24.646zM14 28h20M14 28v-3M21 28v-3M27 28v-3M34 28v-3M11 20h2M19 20h2M27 20h2M35 20h2"/></svg>