<svg fill-opacity="1" stroke-opacity="1" xmlns="http://www.w3.org/2000/svg" width="48" height="48" fill="none" viewBox="0 0 48 48"><path stroke="#000" stroke-linecap="round" stroke-linejoin="round" stroke-width="2" d="M21 16h-6v9a3 3 0 1 0 6 0z"/><path stroke="#000" stroke-linecap="round" stroke-linejoin="round" stroke-width="2" d="M18 28v10h-6M21 16V4H10.5C8 4 5 6 5 10s3.5 6 6 6zM27 22V10h10.5c2.5 0 5.5 2 5.5 6s-3.5 6-6 6zM33 22h-6v9a3 3 0 1 0 6 0z"/><path stroke="#000" stroke-linecap="round" stroke-linejoin="round" stroke-width="2" d="M30 34v10h6"/></svg>