<svg fill-opacity="1" stroke-opacity="1" xmlns="http://www.w3.org/2000/svg" width="48" height="48" fill="none" viewBox="0 0 48 48"><path d="M4 28a2 2 0 0 1 2-2h4v12H6a2 2 0 0 1-2-2zM38 26h4a2 2 0 0 1 2 2v8a2 2 0 0 1-2 2h-4z"/><path stroke="#000" stroke-linecap="round" stroke-linejoin="round" stroke-width="2" d="M10 36V24c0-7.732 6.268-14 14-14s14 6.268 14 14v12M10 26H6a2 2 0 0 0-2 2v8a2 2 0 0 0 2 2h4zm28 0h4a2 2 0 0 1 2 2v8a2 2 0 0 1-2 2h-4z"/><path stroke="#000" stroke-linecap="round" stroke-linejoin="round" stroke-width="2" d="M16 32h4l2-6 4 12 2-6h4"/></svg>