<svg fill-opacity="1" stroke-opacity="1" xmlns="http://www.w3.org/2000/svg" width="48" height="48" fill="none" viewBox="0 0 48 48"><path stroke="#000" stroke-linecap="round" stroke-linejoin="round" stroke-width="2" d="M42 30v-5.538C42 14.266 33.941 6 24 6S6 14.266 6 24.462V30"/><path stroke="#000" stroke-linejoin="round" stroke-width="2" d="M34 32a4 4 0 0 1 4-4h4v14h-4a4 4 0 0 1-4-4z"/><path fill="#000" d="M42 32h2a2 2 0 0 1 2 2v2a2 2 0 0 1-2 2h-2zM6 32H4a2 2 0 0 0-2 2v2a2 2 0 0 0 2 2h2z"/><path stroke="#000" stroke-linejoin="round" stroke-width="2" d="M6 28h4a4 4 0 0 1 4 4v6a4 4 0 0 1-4 4H6z"/></svg>