<svg fill-opacity="1" stroke-opacity="1" xmlns="http://www.w3.org/2000/svg" width="48" height="48" fill="none" viewBox="0 0 48 48"><path stroke="#000" stroke-width="2" d="M39 6H9a3 3 0 0 0-3 3v30a3 3 0 0 0 3 3h30a3 3 0 0 0 3-3V9a3 3 0 0 0-3-3Z"/><path stroke="#000" stroke-linecap="round" stroke-linejoin="round" stroke-width="2" d="M27.3 12c-1.823 0-3.3 1.435-3.3 3.204 0 3.205 3.9 6.118 6 6.796 2.1-.678 6-3.59 6-6.796C36 13.435 34.523 12 32.7 12a3.33 3.33 0 0 0-2.7 1.362A3.33 3.33 0 0 0 27.3 12"/></svg>