<svg fill-opacity="1" stroke-opacity="1" xmlns="http://www.w3.org/2000/svg" width="48" height="48" fill="none" viewBox="0 0 48 48"><path stroke="#000" stroke-linecap="round" stroke-linejoin="round" stroke-width="2" d="M14.54 20.019q-2.532-3.113-4.754-1.337C7.563 20.458 6.925 26.65 8.713 32.11s5.267 12.893 12.289 12.893S29.684 37.522 32.548 33c2.865-4.522 4.38-8.885 1.573-14.318"/><path stroke="#000" stroke-linecap="round" stroke-width="2" d="M11 18.037A643 643 0 0 0 7 12c-1.446-2.145 2.251-4.918 4-3.032q1.749 1.887 4.647 5.557"/><path stroke="#000" stroke-linecap="round" stroke-linejoin="round" stroke-width="2" d="M15.024 25.64q-.727-9.096 1.182-11.845c1.91-2.75 5.457-3.792 8.798-3.792q2.983 0 5.448 2.541"/><path stroke="#000" stroke-width="2" d="M41 12.613c.586 2.036-.37 3.897-3.316 4.318s-5.153 1.902-6.745 3.148-4.44 5.026-5.003 6.923-3.776.153-4.639-.605c-.863-.757-1.712-2.416 0-4.151s1.341-2.081 1.341-3.84c0-1.76 9.362-7.58 14.635-8.112 1.172-.068 3.142.282 3.727 2.319Z" clip-rule="evenodd"/><path stroke="#000" stroke-linecap="round" stroke-width="2" d="M23.008 4v5.263M20.307 10.718q-4.527-5.69-7.3-6.35M17.004 7.029l.99-4.067M35.613 10.718q-.483 1.656 0 3.106.484 1.45 2.071 3.107"/></svg>