<svg fill-opacity="1" stroke-opacity="1" xmlns="http://www.w3.org/2000/svg" width="48" height="48" fill="none" viewBox="0 0 48 48"><path stroke="#000" stroke-linecap="round" stroke-linejoin="round" stroke-width="2" d="M4 19.885C4 12.217 10.105 6 17.636 6c6.297 0 11.598 4.346 13.166 10.253a8.9 8.9 0 0 1 4.107-.996c5.02 0 9.091 4.144 9.091 9.257 0 3.642-2.066 6.793-5.07 8.304-.25.126-.53.182-.81.182H15M15 33h-3a4 4 0 0 0-4 4v0a4 4 0 0 0 4 4h3"/><path stroke="#000" stroke-linecap="round" stroke-linejoin="round" stroke-width="2" d="M22 18h-3a4 4 0 0 0-4 4v0a4 4 0 0 0 4 4h3M19 26h13"/></svg>