<svg fill-opacity="1" stroke-opacity="1" xmlns="http://www.w3.org/2000/svg" width="48" height="48" fill="none" viewBox="0 0 48 48"><path stroke="#000" stroke-linecap="round" stroke-linejoin="round" stroke-miterlimit="2" stroke-width="2" d="M42.34 32c1.07-2.45 1.66-5.16 1.66-8 0-11.05-8.95-20-20-20S4 12.95 4 24h20l.01 8c0 3.87 3.13 7 7 7s7-3.13 7-7z"/><path fill="#000" d="M31 34c1.1 0 2-.9 2-2s-.9-2-2-2-2 .9-2 2 .9 2 2 2"/><path stroke="#000" stroke-linecap="round" stroke-linejoin="round" stroke-miterlimit="2" stroke-width="2" d="M24 32 6 36c2.23 3.17 4.45 6.37 8 8l12-7"/></svg>