<svg fill-opacity="1" stroke-opacity="1" xmlns="http://www.w3.org/2000/svg" width="48" height="48" fill="none" viewBox="0 0 48 48"><path stroke="#000" stroke-linecap="round" stroke-linejoin="round" stroke-width="2" d="M9 20v10a8 8 0 0 0 8 8h14a8 8 0 0 0 8-8V20M34 38v4M14 38v4M20 44h8"/><path stroke="#000" stroke-linejoin="round" stroke-width="2" d="M9 16.36C9 13 15 4 24 4s15 9 15 12.36V20H9z"/><path fill="#000" stroke="#000" d="M20.5 32a1.5 1.5 0 1 1-3 0 1.5 1.5 0 0 1 3 0ZM30.5 32a1.5 1.5 0 1 1-3 0 1.5 1.5 0 0 1 3 0Z"/><path stroke="#000" stroke-linecap="round" stroke-linejoin="round" stroke-width="2" d="M22 11h4"/></svg>