<svg fill-opacity="1" stroke-opacity="1" xmlns="http://www.w3.org/2000/svg" width="48" height="48" fill="none" viewBox="0 0 48 48"><rect width="34" height="18" x="7" y="25" stroke="#000" stroke-linejoin="round" stroke-width="2" rx="6"/><circle cx="17" cy="34" r="3" stroke="#000" stroke-width="2"/><circle cx="31" cy="34" r="3" stroke="#000" stroke-width="2"/><path stroke="#000" stroke-linejoin="round" stroke-width="2" d="M11 19a6 6 0 0 1 6-6h14a6 6 0 0 1 6 6v6H11z"/><circle cx="20" cy="19" r="2" fill="#000"/><circle cx="28" cy="19" r="2" fill="#000"/><path stroke="#000" stroke-linejoin="round" stroke-width="2" d="M18 5a3 3 0 0 1 3 3v5h-6V8a3 3 0 0 1 3-3ZM30 5a3 3 0 0 1 3 3v5h-6V8a3 3 0 0 1 3-3Z"/></svg>