<svg fill-opacity="1" stroke-opacity="1" xmlns="http://www.w3.org/2000/svg" width="48" height="48" fill="none" viewBox="0 0 48 48"><path stroke="#000" stroke-linecap="round" stroke-linejoin="round" stroke-miterlimit="2" stroke-width="2" d="m36 4-5.77 27.41c-.2.93-1.01 1.59-1.96 1.59H9c-1.66 0-3 1.34-3 3v1.55c0 3.48 2.95 6.23 6.43 5.98l17.06-1.22a5.996 5.996 0 0 0 5.44-4.75L42 4zM15 16c4.418 0 8-1.343 8-3s-3.582-3-8-3-8 1.343-8 3 3.582 3 8 3"/><path stroke="#000" stroke-linecap="round" stroke-linejoin="round" stroke-miterlimit="2" stroke-width="2" d="M23 13v6c0 1.66-3.58 3-8 3s-8-1.34-8-3v-6"/></svg>