<svg fill-opacity="1" stroke-opacity="1" xmlns="http://www.w3.org/2000/svg" width="48" height="48" fill="none" viewBox="0 0 48 48"><path stroke="#000" stroke-linecap="round" stroke-width="2" d="m4.46 12.84 17.775-3.778a2 2 0 0 1 1.506.28l8.098 5.259a2 2 0 0 0 1.505.279l4.081-.868a2 2 0 0 1 2.372 1.54l.624 2.935a2 2 0 0 1-1.54 2.372l-7.015 1.491a2 2 0 0 1-1.506-.279l-8.098-5.259a2 2 0 0 0-1.506-.279l-3.102.66M43.54 33.16l-17.775 3.777a2 2 0 0 1-1.506-.279l-8.098-5.26a2 2 0 0 0-1.506-.278l-4.08.867a2 2 0 0 1-2.372-1.54l-.624-2.935a2 2 0 0 1 1.54-2.372l7.015-1.49a2 2 0 0 1 1.506.278l8.098 5.26a2 2 0 0 0 1.506.279l3.102-.66"/></svg>