<svg fill-opacity="1" stroke-opacity="1" xmlns="http://www.w3.org/2000/svg" width="48" height="48" fill="none" viewBox="0 0 48 48"><rect width="11" height="5" x="4.929" y="13.224" stroke="#000" stroke-width="2" rx="2" transform="rotate(-46.025 4.929 13.224)"/><rect width="11" height="5" x="19.321" y="27.111" stroke="#000" stroke-width="2" rx="2" transform="rotate(-46.025 19.321 27.11)"/><rect width="17" height="5" x="6.443" y="18.855" stroke="#000" stroke-width="2" rx="2" transform="rotate(-46.025 6.443 18.855)"/><rect width="17" height="5" x="13.641" y="25.798" stroke="#000" stroke-width="2" rx="2" transform="rotate(-46.025 13.64 25.798)"/><rect width="25" height="5" x="7.265" y="25.205" stroke="#000" stroke-width="2" rx="2" transform="rotate(-46.025 7.265 25.205)"/><path stroke="#000" stroke-linecap="round" stroke-linejoin="round" stroke-width="2" d="m25.003 28.424 4.166-4.318 14.407 13.9-4.166 4.318z"/><path stroke="#000" stroke-linejoin="round" stroke-width="2" d="M21 40.25c0 2.071-1.79 3.75-4 3.75s-4-1.679-4-3.75S17 34 17 34s4 4.179 4 6.25Z"/></svg>