<svg fill-opacity="1" stroke-opacity="1" xmlns="http://www.w3.org/2000/svg" width="48" height="48" fill="none" viewBox="0 0 48 48"><path stroke="#000" stroke-width="2" d="m14.613 4.843-4.69 4.689a3.316 3.316 0 1 0 4.69 4.689l4.689-4.69a3.316 3.316 0 0 0-4.69-4.688ZM24.773 13.44l-6.252 6.252a3.316 3.316 0 1 0 4.69 4.69l6.252-6.253a3.316 3.316 0 1 0-4.69-4.69Z"/><path stroke="#000" stroke-width="2" d="m28.68 18.91 13.77 13.77c1.028 1.028.811 2.91-.483 4.206-1.295 1.295-3.178 1.511-4.206.484L23.991 23.6M22.428 6.406 11.487 17.347a3.316 3.316 0 1 0 4.69 4.69l10.94-10.942a3.316 3.316 0 1 0-4.689-4.69Z"/><path stroke="#000" stroke-linecap="round" stroke-width="2" d="M13.854 23.142q2.136 6.656-.71 9.834c-2.847 3.179-2.405 11.166 4.026 11.166s8.32-7.987 2.872-10.79"/></svg>