<svg fill-opacity="1" stroke-opacity="1" xmlns="http://www.w3.org/2000/svg" width="48" height="48" fill="none" viewBox="0 0 48 48"><path stroke="#000" stroke-linecap="round" stroke-linejoin="round" stroke-width="2" d="M18 4C13 4 4 8 4 18.298V25M35 30v14M18.014 22c.486 1.5 1.986 4.5 6.382 3.738C26.98 25.427 33.082 26.14 36 31c1.5 2.5 5.447 2.496 8-3.86"/><path stroke="#000" stroke-linecap="round" stroke-linejoin="round" stroke-width="2" d="m26 16-2-2.5s-1.617-1.755-3-2.5c-1.383-.744-4-1.5-7 0-1.297.815-4 2-4 6.943V44"/><path stroke="#000" stroke-linecap="round" stroke-width="2" d="M27 44v-3a5 5 0 0 0-5-5v0a5 5 0 0 0-5 5v3"/></svg>