<svg fill-opacity="1" stroke-opacity="1" xmlns="http://www.w3.org/2000/svg" width="48" height="48" fill="none" viewBox="0 0 48 48"><path stroke="#000" stroke-linejoin="round" stroke-width="2" d="M4 8a2 2 0 0 1 2-2h20a2 2 0 0 1 2 2v34H6a2 2 0 0 1-2-2z"/><path stroke="#000" stroke-linejoin="round" stroke-width="2" d="M21 42v-9a3 3 0 0 0-3-3h-4a3 3 0 0 0-3 3v9M28 24h14a2 2 0 0 1 2 2v14a2 2 0 0 1-2 2H28z"/><path stroke="#000" stroke-linecap="round" stroke-linejoin="round" stroke-width="2" d="M12 18h8M34 30h4M34 36h4M16 14v8M7 42h18"/></svg>