<svg fill-opacity="1" stroke-opacity="1" xmlns="http://www.w3.org/2000/svg" width="48" height="48" fill="none" viewBox="0 0 48 48"><path stroke="#000" stroke-linejoin="round" stroke-width="2" d="M11 26v18h26V26L24 13z"/><path fill="#000" d="M3.586 21.586a2 2 0 1 0 2.828 2.828zM24 4l1.414-1.414a2 2 0 0 0-2.828 0zm17.586 20.414a2 2 0 1 0 2.828-2.828zm-35.172 0 19-19-2.828-2.828-19 19zm16.172-19 19 19 2.828-2.828-19-19z"/><path stroke="#000" stroke-linecap="round" stroke-linejoin="round" stroke-width="2" d="M19 31h10M24 26v10"/></svg>