<svg fill-opacity="1" stroke-opacity="1" xmlns="http://www.w3.org/2000/svg" width="48" height="48" fill="none" viewBox="0 0 48 48"><path stroke="#000" stroke-linecap="round" stroke-linejoin="round" stroke-width="2" d="M4 4h40"/><rect width="32" height="40" x="8" y="4" stroke="#000" stroke-linejoin="round" stroke-width="2" rx="2"/><path stroke="#000" stroke-linecap="round" stroke-linejoin="round" stroke-width="2" d="M20 32h8v12h-8z"/><path stroke="#000" stroke-linecap="round" stroke-width="2" d="M15 12h2M15 18h2M23 12h2M23 18h2M31 12h2M31 18h2"/><path stroke="#000" stroke-linecap="round" stroke-linejoin="round" stroke-width="2" d="M4 44h40M28 32h2c.552 0 1.01-.452.904-.994C30.352 28.166 27.471 26 24 26s-6.352 2.165-6.904 5.006c-.106.542.352.994.904.994h2"/></svg>