<svg fill-opacity="1" stroke-opacity="1" xmlns="http://www.w3.org/2000/svg" width="48" height="48" fill="none" viewBox="0 0 48 48"><path fill="#000" d="M35.393 16.04c-3.284-.697-5.573-3.582-5.622-6.916h-5.075v20.448c-.1 2.338-2.04 4.18-4.378 4.13s-4.18-1.99-4.18-4.329c.05-2.338 1.941-4.229 4.28-4.229.447 0 .845.05 1.243.2v-5.225c-.398-.05-.846-.05-1.244-.05h-.199c-5.174.15-9.253 4.379-9.154 9.553s4.329 9.254 9.503 9.204 9.303-4.279 9.303-9.403V19.025a12.13 12.13 0 0 0 7.115 2.288V16.19c-.597 0-1.095-.05-1.592-.15"/><path fill="#000" d="M33.95 44h-19.9C8.478 44 4 39.473 4 33.95v-19.9C4 8.478 8.478 4 14.05 4h19.9C39.473 4 44 8.478 44 14.05v19.9C44 39.473 39.473 44 33.95 44M14.1 4.448c-5.324 0-9.652 4.328-9.652 9.652v19.75c0 5.324 4.328 9.652 9.652 9.652h19.75c5.324 0 9.652-4.328 9.652-9.651V14.1c0-5.324-4.328-9.652-9.651-9.652z"/><path fill="#000" d="M36.139 35.741v-.448c0-.05.05-.05.05-.05.05 0 .596.498.596.498M20.42 33.204c2.04 0 3.681-1.592 3.78-3.632V27.98c-.944-.398-1.89-.746-2.885-.995-.1-.05-.199-.05-.298-.05v.299c0 2.239-.647 4.08-1.692 5.771.299.1.647.15.995.15 0 .049.05.049.1.049"/><path fill="#000" d="M36.538 35.542c-.05-.05-.199-.1-.248-.05-.1.05-.15.1-.15.2-.05 1.591-.447 3.134-1.044 4.527.05-.15-.25-.747-.299-.896-.1-.298-.199-.597-.348-.895a27 27 0 0 0-.796-1.742c-.597-1.094-1.294-2.189-2.04-3.134-.497-.647-1.045-1.194-1.642-1.741-1.094 4.229-4.875 7.413-9.452 7.462h-.1a9.9 9.9 0 0 1-5.373-1.592c-.348.299-.746.598-1.095.896a14.2 14.2 0 0 1-2.139-2.985c-.05-.1-.1-.2-.1-.299-.099.1-.198.15-.298.25a28.8 28.8 0 0 0-4.627 5.273l.348.348c.05-.05.1-.15.15-.199l1.243 1.094.796.349c-.1.05-.149.15-.248.199.149.1.298.15.447.249.1-.1.2-.15.299-.25l1.84.847 4.528.298h14.975c0 .05 0 .1-.05.15h2.04l.15-.15c0-.05.05-.05.05-.1l2.736-.248 2.736-1.144 1.84-1.394c.05.1.1.15.15.25l.348-.349a30.3 30.3 0 0 0-4.627-5.224"/><path fill="#000" d="M20.518 38.776c4.428-.05 8.16-3.184 9.055-7.363a22 22 0 0 0-3.732-2.637l-1.194-.597v1.344c-.1 2.288-1.99 4.129-4.278 4.129h-.1c-.447 0-.845-.1-1.244-.249-.945 1.393-2.189 2.687-3.582 3.88 1.443.896 3.135 1.444 4.976 1.444 0 .05.05.05.099.05m-2.19-3.582c-.049 0 0 0 0 0"/></svg>