<svg fill-opacity="1" stroke-opacity="1" xmlns="http://www.w3.org/2000/svg" width="48" height="48" fill="none" viewBox="0 0 48 48"><path stroke="#000" stroke-linecap="round" stroke-linejoin="round" stroke-width="2" d="M17 4h14l3 28H14zM21 32v9a3 3 0 0 0 3 3v0a3 3 0 0 0 3-3v-9"/><path stroke="#000" stroke-linecap="round" stroke-linejoin="round" stroke-width="2" d="M16 14a5.657 5.657 0 0 0 8 0v0a5.657 5.657 0 0 1 8 0v0M15 22a6.04 6.04 0 0 0 8.76.716L24 22.5l.24-.216A6.04 6.04 0 0 1 33 23v0"/></svg>