<svg fill-opacity="1" stroke-opacity="1" xmlns="http://www.w3.org/2000/svg" width="48" height="48" fill="none" viewBox="0 0 48 48"><g stroke="#000" stroke-linecap="round" stroke-linejoin="round" stroke-width="2" clip-path="url(#a)"><path d="m18.843 13.723 13.435 13.435L11.679 40.5l-6.045-6.045zM38.773 19.51c-1.06 1.061-1.76 1.07-2.812 1.431-.033 2.796.006 5.61-3.542 6.304L18.603 13.429s-.009-1.37 1.396-2.085c.495-.232 1.499-.123 2.097-.025 1.406-3.025 3.535-3.536 5.903-2.558 1.135-1.718 3.94-2.45 6.028-1.775 2.089.675 2.072 2.073 3.462 2.755 1.39.683 2.804-.731 2.812-1.43.008-.7-.114-2.036.828-1.794.575.156 1.038.715 1.596 3.044.31 1.308.13 3.242-.987 4.429-.686.729-2.217 1.11-2.916 1.327.066.19 1.012 3.133-.05 4.193"/><path d="M38.822 15.316c-2.813 1.43-4.901.756-6.974-1.316"/></g><defs><clipPath id="a"><path fill="#000" d="M0 0h48v48H0z"/></clipPath></defs></svg>