<svg fill-opacity="1" stroke-opacity="1" xmlns="http://www.w3.org/2000/svg" width="48" height="48" fill="none" viewBox="0 0 48 48"><path stroke="#000" stroke-linejoin="round" stroke-width="2" d="M4 6h40v22H4z"/><path stroke="#000" stroke-linecap="round" stroke-linejoin="round" stroke-width="2" d="M44 28v8H4v-8"/><path fill="#000" d="M13.09 18h-2.18a.91.91 0 0 0-.91.91v2.18c0 .503.407.91.91.91h2.18a.91.91 0 0 0 .91-.91v-2.18a.91.91 0 0 0-.91-.91M13.09 12h-2.18a.91.91 0 0 0-.91.91v2.18c0 .503.407.91.91.91h2.18a.91.91 0 0 0 .91-.91v-2.18a.91.91 0 0 0-.91-.91M21.09 18h-2.18a.91.91 0 0 0-.91.91v2.18c0 .503.407.91.91.91h2.18a.91.91 0 0 0 .91-.91v-2.18a.91.91 0 0 0-.91-.91M21.09 12h-2.18a.91.91 0 0 0-.91.91v2.18c0 .503.407.91.91.91h2.18a.91.91 0 0 0 .91-.91v-2.18a.91.91 0 0 0-.91-.91M29.09 18h-2.18a.91.91 0 0 0-.91.91v2.18c0 .503.407.91.91.91h2.18a.91.91 0 0 0 .91-.91v-2.18a.91.91 0 0 0-.91-.91M29.09 12h-2.18a.91.91 0 0 0-.91.91v2.18c0 .503.407.91.91.91h2.18a.91.91 0 0 0 .91-.91v-2.18a.91.91 0 0 0-.91-.91M37.09 12h-2.18a.91.91 0 0 0-.91.91v2.18c0 .503.407.91.91.91h2.18a.91.91 0 0 0 .91-.91v-2.18a.91.91 0 0 0-.91-.91"/><path stroke="#000" stroke-linecap="round" stroke-linejoin="round" stroke-width="2" d="M20.846 36 16 42h16l-4.846-6"/></svg>