<svg fill-opacity="1" stroke-opacity="1" xmlns="http://www.w3.org/2000/svg" width="48" height="48" fill="none" viewBox="0 0 48 48"><path stroke="#000" stroke-linecap="round" stroke-width="2" d="M12.566 26.182Q10 27.941 10 32c0 4.06 4.975 11 9.462 11h11.48C35.332 43 38 39.15 38 36.06V23.01a3 3 0 0 0-3-3h-.01A2.99 2.99 0 0 0 32 23"/><path stroke="#000" stroke-linecap="round" stroke-width="2" d="M13.981 28.445V8.005a3 3 0 0 1 3.006-2.997 3.014 3.014 0 0 1 3.006 3.015v15.569"/><path stroke="#000" stroke-linecap="round" stroke-linejoin="round" stroke-width="2" d="M19.993 23.008v-3.992a3.016 3.016 0 0 1 6.03 0v3.992"/><path stroke="#000" stroke-linecap="round" stroke-linejoin="round" stroke-width="2" d="M26 22.716v-2.713a3 3 0 0 1 6 0v3"/></svg>