<svg fill-opacity="1" stroke-opacity="1" xmlns="http://www.w3.org/2000/svg" width="48" height="48" fill="none" viewBox="0 0 48 48"><path stroke="#000" stroke-linecap="round" stroke-linejoin="round" stroke-width="2" d="M31 31h9a2 2 0 0 0 2-2V8a2 2 0 0 0-2-2H19a2 2 0 0 0-2 2v9"/><path stroke="#000" stroke-linecap="round" stroke-linejoin="round" stroke-width="2" d="M17 17H8a2 2 0 0 0-2 2v21a2 2 0 0 0 2 2h21a2 2 0 0 0 2-2v-9"/><rect width="14" height="14" x="17" y="17" stroke="#000" stroke-linecap="round" stroke-linejoin="round" stroke-width="2" rx="2"/></svg>