<svg fill-opacity="1" stroke-opacity="1" xmlns="http://www.w3.org/2000/svg" width="48" height="48" fill="none" viewBox="0 0 48 48"><path stroke="#000" stroke-width="2" d="M24 44c11.046 0 20-8.954 20-20S35.046 4 24 4 4 12.955 4 24s8.954 20 20 20Z"/><path stroke="#000" stroke-linecap="round" stroke-width="2" d="M6 30.986q3.948 1.582 5.684 0c1.736-1.584.238-6.388 2.67-7.713 2.43-1.325 6.135 4.548 9.597 2.616 3.462-1.933-.326-7.087 2.076-9.176s5.527.267 6.073-3.227-2.548-1.978-3.142-5.28q-.592-3.3 0-3.47M29.02 43.35q-2.81-2.877-2.023-5.348c.787-2.472 2.086-2.326 2.652-3.854s-1.033-3.705 2.515-5.565q3.549-1.86 9.759 4.311"/></svg>