<svg fill-opacity="1" stroke-opacity="1" xmlns="http://www.w3.org/2000/svg" width="48" height="48" fill="none" viewBox="0 0 48 48"><path stroke="#000" stroke-linejoin="round" stroke-width="2" d="M36 12H10v24h26z"/><path stroke="#000" stroke-linejoin="round" stroke-width="2" d="M27 24a4 4 0 1 0-8 0 4 4 0 0 0 8 0Z"/><path stroke="#000" stroke-linecap="round" stroke-width="2" d="M15 12q0-.11.025-.217l1.607-7A1.026 1.026 0 0 1 17.641 4h10.743c.484 0 .903.326 1.008.783l1.608 7M15 36q0 .11.025.217l1.607 7c.105.458.524.783 1.009.783h10.743c.484 0 .903-.325 1.008-.783l1.608-7M39 16v4"/></svg>