<svg fill-opacity="1" stroke-opacity="1" xmlns="http://www.w3.org/2000/svg" width="48" height="48" fill="none" viewBox="0 0 48 48"><circle cx="24" cy="24" r="20" stroke="#000" stroke-width="2"/><path stroke="#000" stroke-width="2" d="M20 24c0-6.364 2.628-8.646 4-9 1.22.177 4 2.212 4 9s-2.78 9-4 9c-1.372-.177-4-2.636-4-9Z"/><path stroke="#000" stroke-width="2" d="M20 23c-1.554-1.538-6.382-1.16-8-1-.485 1.762.352 5.492 2.293 7.414C16.72 31.817 18.661 33 24 33M28 23c1.436-1.533 5.504-1.16 7-1 .3 1.597.14 5.188-2.372 7.87C30.115 32.555 25.5 33 24 33"/></svg>