<svg fill-opacity="1" stroke-opacity="1" xmlns="http://www.w3.org/2000/svg" width="48" height="48" fill="none" viewBox="0 0 48 48"><path fill="#000" d="M36.883 44h-25.77C7.192 44 4 40.808 4 36.883v-25.77C4 7.192 7.192 4 11.113 4h25.77c3.92 0 7.113 3.192 7.113 7.113v25.77C44 40.808 40.808 44 36.883 44M11.113 4.303a6.82 6.82 0 0 0-6.81 6.81v25.77a6.82 6.82 0 0 0 6.814 6.814h25.77a6.82 6.82 0 0 0 6.815-6.814v-25.77a6.82 6.82 0 0 0-6.815-6.815H11.113z"/><path fill="#000" fill-rule="evenodd" d="m4 36.887 40-2.092V11.113L4 13.205zm20.963-18.333s.933.677 1.035.745c.667.459 1.548 1.065 2.917 1.694-1.26.386-2.709.768-4.382 1.136v2.314c3.191-.686 5.692-1.463 7.667-2.251 1.95.564 4.472 1.079 7.781 1.446v-2.314a52 52 0 0 1-4.474-.702 17.5 17.5 0 0 0 3.614-2.682v-.354h.004v-2.169h-.004l-.525.028-8.974.47-2.324-.963zm3.547-.412 7.475-.392c-.82.6-1.978 1.305-3.715 2.04-1.73-.553-2.902-1.137-3.76-1.648m-11.798-2.094 2.459-.128c-.062 4.621-.148 7.388-.82 9.557l5.095-.267v2.17l-6.107.318c-.976 1.569-2.493 3.046-4.867 5.14l-3.874.205q.215-.183.416-.358l.074-.064c2.388-2.07 4.03-3.494 5.142-4.76l-6.228.324V26.02l7.718-.405c.86-1.97.928-4.717.992-9.567m-1.81 1.419v2.42L9.43 19.39v-2.417zM9.43 21.064v2.42l5.472.499v-2.42zm21.552 5.922-6.449.338v-2.17l6.45-.337v-1.235l2.518-.128v1.23l6.48-.339v2.17l-6.48.34v4.888l-2.519.132zM21.06 28.59l-2.97.153 2.386 3.682 2.97-.153zm13.587-.712 2.966-.154 2.386 3.682-2.966.154zm-4.75.247-2.97.158-2.386 3.929 2.97-.154z" clip-rule="evenodd"/></svg>