<svg fill-opacity="1" stroke-opacity="1" xmlns="http://www.w3.org/2000/svg" width="48" height="48" fill="none" viewBox="0 0 48 48"><g stroke="#000" stroke-linecap="round" stroke-width="2" clip-path="url(#a)"><path stroke-linejoin="round" d="M24 40c8.284 0 15-6.716 15-15s-6.716-15-15-15S9 16.716 9 25s6.716 15 15 15"/><path d="M20 11c1.805 1.008 3.5 2.5 3.358 4.445-.114 1.555-1.443 1.902-1.721 3.026s1.33 2.35-1.39 4.165C18.431 23.846 12.97 26.145 9 24"/><path stroke-linejoin="round" d="M9.5 24.5C6.5 26.388 2.068 31.521 4 35c2.5 4.5 12 .69 23-8S42.23 5.606 42.23 5.606L37 7"/><path d="M26 40s.5-5 4-8 8-3 8-3"/></g><defs><clipPath id="a"><path fill="#000" d="M0 0h48v48H0z"/></clipPath></defs></svg>