<svg fill-opacity="1" stroke-opacity="1" xmlns="http://www.w3.org/2000/svg" width="48" height="48" fill="none" viewBox="0 0 48 48"><path stroke="#000" stroke-linejoin="round" stroke-width="2" d="M24 44c11.046 0 20-8.954 20-20S35.046 4 24 4 4 12.954 4 24s8.954 20 20 20Z"/><path fill="#000" fill-rule="evenodd" d="M15 19a2.5 2.5 0 1 0 0-5 2.5 2.5 0 0 0 0 5M15 27a2.5 2.5 0 1 0 0-5 2.5 2.5 0 0 0 0 5M24 19a2.5 2.5 0 1 0 0-5 2.5 2.5 0 0 0 0 5M24 27a2.5 2.5 0 1 0 0-5 2.5 2.5 0 0 0 0 5M33 19a2.5 2.5 0 1 0 0-5 2.5 2.5 0 0 0 0 5M33 27a2.5 2.5 0 1 0 0-5 2.5 2.5 0 0 0 0 5" clip-rule="evenodd"/><path stroke="#000" stroke-linecap="round" stroke-linejoin="round" stroke-width="2" d="M17 33h14"/></svg>