<svg fill-opacity="1" stroke-opacity="1" xmlns="http://www.w3.org/2000/svg" width="48" height="48" fill="none" viewBox="0 0 48 48"><path stroke="#000" stroke-linecap="round" stroke-linejoin="round" stroke-width="2" d="M14 28c3 0 12.5 1.5 12.5 5s-5.106 2.739-7.5 3c-2.073 0-7 0-7 3 0 4 20.545 5 24.5 5"/><path stroke="#000" stroke-linecap="round" stroke-linejoin="round" stroke-width="2" d="M31 15c0-4.267-4.27-11-10.195-11s-10.472 8-12.26 15.467C6.757 26.933 7.013 36 7.013 36M26 24c0-2.5 1.4-7 6-7 4 0 6.2 4.042 7 7.5s1 8.5 1 8.5"/></svg>