<svg fill-opacity="1" stroke-opacity="1" xmlns="http://www.w3.org/2000/svg" width="48" height="48" fill="none" viewBox="0 0 48 48"><path fill="#000" fill-rule="evenodd" d="M41.072 5.994 3.31 16.52l9.075 9.294 8.414.146 9.683-9.44q-.384-.787-.384-1.318c0-.794.311-1.422.796-1.868q1.244-1.145 2.994-.342zM42.102 6.728 31.578 44.49l-9.294-9.075L22.137 27l9.375-9.518a2.54 2.54 0 0 0 1.664.495c.902-.05 1.485-.596 1.759-.917a2.35 2.35 0 0 0 .567-1.649 2.57 2.57 0 0 0-.52-1.464z" clip-rule="evenodd"/></svg>