<svg fill-opacity="1" stroke-opacity="1" xmlns="http://www.w3.org/2000/svg" width="48" height="48" fill="none" viewBox="0 0 48 48"><path stroke="#000" stroke-linecap="round" stroke-linejoin="round" stroke-width="2" d="M13 8c1.5 0 4.05 0 5.014 5.061C18.99 18.18 19.33 22.848 21 24M35 40c-1.5 0-4.05.001-5.014-5.061C29.01 29.82 28.67 25.152 27 24M13 40c1.5 0 4.05.001 5.014-5.061C18.99 29.82 19.33 25.152 21 24M35 8c-1.5 0-4.05 0-5.014 5.061C29.01 18.18 28.67 22.848 27 24"/><circle r="4" fill="#000" transform="matrix(-1 0 0 1 21 24)"/><circle r="4" fill="#000" transform="matrix(-1 0 0 1 27 24)"/><path stroke="#000" stroke-linecap="round" stroke-linejoin="round" stroke-width="2" d="M21 24h-8M27 24h8M7 24H5M43 24h-2M7 8H5M43 8h-2M7 40H5M43 40h-2"/></svg>