<svg fill-opacity="1" stroke-opacity="1" xmlns="http://www.w3.org/2000/svg" width="48" height="48" fill="none" viewBox="0 0 48 48"><path d="M14 10a4 4 0 1 1-8 0 4 4 0 0 1 8 0"/><path stroke="#000" stroke-linecap="round" stroke-linejoin="round" stroke-width="2" d="M14 10a4 4 0 0 1-4 4m4-4a4 4 0 1 0-4 4m4-4h6m-10 4v6"/><path d="M14 38a4 4 0 1 0-8 0 4 4 0 0 0 8 0"/><path stroke="#000" stroke-linecap="round" stroke-linejoin="round" stroke-width="2" d="M14 38a4 4 0 0 0-4-4m4 4a4 4 0 1 1-4-4m4 4h6m-10-4v-6"/><path d="M34 38a4 4 0 1 1 8 0 4 4 0 0 1-8 0"/><path stroke="#000" stroke-linecap="round" stroke-linejoin="round" stroke-width="2" d="M34 38a4 4 0 0 1 4-4m-4 4a4 4 0 1 0 4-4m-4 4h-6m10-4v-6"/><path d="M34 10a4 4 0 1 0 8 0 4 4 0 0 0-8 0"/><path stroke="#000" stroke-linecap="round" stroke-linejoin="round" stroke-width="2" d="M34 10a4 4 0 0 0 4 4m-4-4a4 4 0 1 1 4 4m-4-4h-6m10 4v6M17 24h14M24 31V17"/></svg>