<svg fill-opacity="1" stroke-opacity="1" xmlns="http://www.w3.org/2000/svg" width="48" height="48" fill="none" viewBox="0 0 48 48"><path stroke="#000" stroke-linecap="round" stroke-linejoin="round" stroke-width="2" d="M38.142 38.142c7.81-7.81 7.81-20.474 0-28.284s-20.474-7.81-28.284 0-7.81 20.474 0 28.284 20.474 7.81 28.284 0m-5.657-22.627c4.687 4.686 4.687 12.284 0 16.97-4.686 4.687-12.284 4.687-16.97 0-4.687-4.686-4.687-12.284 0-16.97 4.686-4.687 12.284-4.687 16.97 0" clip-rule="evenodd"/><path stroke="#000" stroke-linecap="round" stroke-linejoin="round" stroke-width="2" d="m38.142 38.142-5.657-5.657M9.858 38.142l5.657-5.657M9.858 9.858l5.657 5.657M38.142 9.858l-5.657 5.657M32.485 32.485c4.687-4.686 4.687-12.284 0-16.97-4.686-4.687-12.284-4.687-16.97 0-4.687 4.686-4.687 12.284 0 16.97 4.686 4.687 12.284 4.687 16.97 0"/></svg>