<svg fill-opacity="1" stroke-opacity="1" xmlns="http://www.w3.org/2000/svg" width="48" height="48" fill="none" viewBox="0 0 48 48"><path stroke="#000" stroke-linecap="round" stroke-linejoin="round" stroke-width="2" d="M6 44h36M17 20h14"/><path stroke="#000" stroke-linejoin="round" stroke-width="2" d="M19 20h10l3 24H16z"/><path stroke="#000" stroke-linecap="round" stroke-linejoin="round" stroke-width="2" d="m19 9 2 11h6l2-11"/><path stroke="#000" stroke-linecap="round" stroke-linejoin="round" stroke-width="2" d="m32 12-3-3-5-5-5 5-3 3M37 7l3-3M11 7 8 4M37 19l3 3M11 19l-3 3M38 13h4M10 13H6M18 28h12M17 36h14"/><path stroke="#000" stroke-linejoin="round" stroke-width="2" d="m29 20 3 24M19 20l-3 24"/></svg>