<svg fill-opacity="1" stroke-opacity="1" xmlns="http://www.w3.org/2000/svg" width="48" height="48" fill="none" viewBox="0 0 48 48"><path stroke="#000" stroke-width="2" d="M30.19 4H17.81a2 2 0 0 0-1.99 1.801l-1.8 18a2 2 0 0 0 0 .398l1.8 18A2 2 0 0 0 17.81 44h12.38a2 2 0 0 0 1.99-1.801l1.8-18a2 2 0 0 0 0-.398l-1.8-18A2 2 0 0 0 30.19 4Z"/><path stroke="#000" stroke-linecap="round" stroke-width="2" d="M14 24h20M24 4v40M20 4h8M20 44h8M15 14l-.98 9.801a2 2 0 0 0 0 .398L15 34M33 14l.98 9.801q.02.199 0 .398L33 34"/></svg>