<svg fill-opacity="1" stroke-opacity="1" xmlns="http://www.w3.org/2000/svg" width="48" height="48" fill="none" viewBox="0 0 48 48"><path stroke="#000" stroke-linecap="round" stroke-linejoin="round" stroke-width="2" d="M25 19.89c-1.5-2.52-5.5-2.52-7 0-1.115 1.874-5 4.61-6 5.053C13.667 27.295 19.5 32 25 32c6.5 0 11.167-4.704 13-7.057-1-.443-3.164-2.123-5.5-5.053-2-2.508-6-2.508-7.5 0"/><path stroke="#000" stroke-linecap="round" stroke-linejoin="round" stroke-width="2" d="M12 25c3.79.755 14.296 1.811 26 0"/><path stroke="#000" stroke-linecap="round" stroke-linejoin="round" stroke-width="2" d="M44 24c0 11.046-8.954 20-20 20S4 35.046 4 24 12.954 4 24 4"/><path stroke="#000" stroke-width="2" d="m39 8.472.343 1.056h1.11l-.898.652.343 1.056-.898-.652-.898.652.343-1.056-.898-.652h1.11z"/><path stroke="#000" stroke-linecap="round" stroke-linejoin="round" stroke-width="2" d="M35 22.656c1.294 1.249 2.374 2.01 3 2.287A21 21 0 0 1 33.763 29M16.098 22c-1.543 1.374-3.442 2.652-4.098 2.943.941 1.329 3.211 3.407 6 4.965"/></svg>