<svg fill-opacity="1" stroke-opacity="1" xmlns="http://www.w3.org/2000/svg" width="48" height="48" fill="none" viewBox="0 0 48 48"><path stroke="#000" stroke-linecap="round" stroke-linejoin="round" stroke-width="2" d="M24 4v8M38.142 9.858l-5.657 5.657M44 24h-8M38.142 38.142l-5.657-5.657M24 44v-8M9.858 38.142l5.657-5.657M4 24h8M9.858 9.858l5.657 5.657M16.347 5.522l1.53 3.696M5.522 16.346l3.696 1.53M5.522 31.654l3.696-1.531M16.347 42.478l1.53-3.696M31.654 42.478l-1.531-3.696M42.478 31.654l-3.696-1.531M42.478 16.346l-3.696 1.53M31.654 5.522l-1.531 3.696"/></svg>