<svg fill-opacity="1" stroke-opacity="1" xmlns="http://www.w3.org/2000/svg" width="48" height="48" fill="none" viewBox="0 0 48 48"><path stroke="#000" stroke-linecap="round" stroke-linejoin="round" stroke-width="2" d="M24 40H7a3 3 0 0 1-3-3V11a3 3 0 0 1 3-3h34a3 3 0 0 1 3 3v12.059"/><path stroke="#000" stroke-width="2" d="M4 11a3 3 0 0 1 3-3h34a3 3 0 0 1 3 3v9H4z"/><rect width="12" height="8" x="32" y="33" stroke="#000" stroke-linejoin="round" stroke-width="2" rx="3"/><path stroke="#000" stroke-linejoin="round" stroke-width="2" d="M38 27a3 3 0 0 1 3 3v3h-6v-3a3 3 0 0 1 3-3Z"/><circle r="2" fill="#000" transform="matrix(0 -1 -1 0 10 14)"/><circle r="2" fill="#000" transform="matrix(0 -1 -1 0 16 14)"/></svg>