<svg fill-opacity="1" stroke-opacity="1" xmlns="http://www.w3.org/2000/svg" width="48" height="48" fill="none" viewBox="0 0 48 48"><path fill="#000" d="M44 26a2 2 0 1 0-4 0zM24 8a2 2 0 1 0 0-4zm15 32H9v4h30zM8 39V9H4v30zm32-13v13h4V26zM9 8h15V4H9zm0 32a1 1 0 0 1-1-1H4a5 5 0 0 0 5 5zm30 4a5 5 0 0 0 5-5h-4a1 1 0 0 1-1 1zM8 9a1 1 0 0 1 1-1V4a5 5 0 0 0-5 5z"/><path stroke="#000" stroke-linecap="round" stroke-linejoin="round" stroke-width="2" d="m6 35 10.693-9.802a2 2 0 0 1 2.653-.044L32 36M28 31l4.773-4.773a2 2 0 0 1 2.615-.186L42 31"/><rect width="12" height="8" x="30" y="12" stroke="#000" stroke-linejoin="round" stroke-width="2" rx="3"/><path d="M36 6a3 3 0 0 1 3 3v3h-6V9a3 3 0 0 1 3-3"/><path fill="#000" d="M39 12v2a2 2 0 0 0 2-2zm-6 0h-2a2 2 0 0 0 2 2zm4-3v3h4V9zm2 1h-6v4h6zm-4 2V9h-4v3zm0-3a1 1 0 0 1 1-1V4a5 5 0 0 0-5 5zm6 0a5 5 0 0 0-5-5v4a1 1 0 0 1 1 1z"/></svg>