<svg fill-opacity="1" stroke-opacity="1" xmlns="http://www.w3.org/2000/svg" width="48" height="48" fill="none" viewBox="0 0 48 48"><path stroke="#000" stroke-linecap="round" stroke-linejoin="round" stroke-width="2" d="M36.214 34.312A15.95 15.95 0 0 1 26 38c-.233 0-.467-.004-.692-.022a15.95 15.95 0 0 1-10.62-4.67 15.9 15.9 0 0 1-3.516-5.291A15.9 15.9 0 0 1 10 21.997c0-2.075.393-4.102 1.172-6.018a15.9 15.9 0 0 1 3.516-5.292 15.9 15.9 0 0 1 5.293-3.515A15.9 15.9 0 0 1 26 6c2.075 0 4.103.393 6.019 1.172a15.9 15.9 0 0 1 5.293 3.515 15.8 15.8 0 0 1 3.87 6.252c.752 2.261.99 4.709.692 7.078a16.2 16.2 0 0 1-.7 3.07c-1.025 3.02-2.364 5.066-4.96 7.225"/><path stroke="#000" stroke-linecap="round" stroke-linejoin="round" stroke-width="2" d="M22.105 19.489a3.47 3.47 0 0 1 3.703-3.216 4.1 4.1 0 0 1 2.842 1.416 4.11 4.11 0 0 1 1.007 3.01 4.95 4.95 0 0 1-1.705 3.421 4.98 4.98 0 0 1-3.628 1.211c-3.33-.234-5.855-3.132-5.621-6.464.284-4.06 3.82-7.133 7.882-6.849a8.99 8.99 0 0 1 6.194 3.086 8.97 8.97 0 0 1 2.199 6.56 11.04 11.04 0 0 1-3.8 7.61A11.02 11.02 0 0 1 23.903 32q-.393 0-.798-.025c-2.788-.192-5.427-.738-7.604-2.475A13.54 13.54 0 0 1 11 23M14 34l-8 8.485"/></svg>