<svg fill-opacity="1" stroke-opacity="1" xmlns="http://www.w3.org/2000/svg" width="48" height="48" fill="none" viewBox="0 0 48 48"><path stroke="#000" stroke-linecap="round" stroke-width="2" d="M18.244 22.263q-.439-7.433-3.523-7.698c-3.32-.284-8.41 5.144-9.92 12.772s-.764 13.092 1.211 13.46c1.975.37 4.844-1.78 6.205-1.78s6.079 1.04 6.079-.844V30.07M29.624 22.37q.422-7.538 3.53-7.805c3.32-.284 8.41 5.144 9.919 12.772s.764 13.092-1.21 13.46c-1.975.37-4.845-1.78-6.206-1.78-1.36 0-6.079 1.04-6.079-.844V30.07"/><path stroke="#000" stroke-linecap="round" stroke-width="2" d="M20.556 5v14.91q-.066 3.438-5.737 3.438M27.292 5v14.91q.065 3.438 5.736 3.438"/><path stroke="#000" stroke-linecap="round" stroke-linejoin="round" stroke-width="2" d="M15 30.07q5.932 0 9-2.818 3.09 2.819 9.029 2.818"/></svg>