<svg fill-opacity="1" stroke-opacity="1" xmlns="http://www.w3.org/2000/svg" width="48" height="48" fill="none" viewBox="0 0 48 48"><path stroke="#000" stroke-linecap="round" stroke-linejoin="round" stroke-width="2" d="M24 43c10.493 0 19-8.059 19-18h-8l-3 3-3-3H5c0 9.941 8.507 18 19 18M40.945 25c.124-.815 0-1.65 0-2.5C40.945 13.387 33.582 5 24.5 5c-3.823 0-8.338 1.309-11.131 3.504A5 5 0 0 1 14.033 11a4.986 4.986 0 0 1-6.004 4.895c-.63 1.75-.974 4.637-.974 6.605 0 .85-.124 1.685 0 2.5M6 31h10"/></svg>