<svg fill-opacity="1" stroke-opacity="1" xmlns="http://www.w3.org/2000/svg" width="48" height="48" fill="none" viewBox="0 0 48 48"><path stroke="#000" stroke-linecap="round" stroke-linejoin="round" stroke-width="2" d="M44 38V10a2 2 0 0 0-2-2H6a2 2 0 0 0-2 2v28a2 2 0 0 0 2 2h36a2 2 0 0 0 2-2"/><path stroke="#000" stroke-linecap="round" stroke-linejoin="round" stroke-width="2" d="M25 8s-5 10-4 17h6l1 15M34 40H22M30 8H18M34 16v2M14 16v2"/><path stroke="#000" stroke-linecap="round" stroke-linejoin="round" stroke-width="2" d="M13 29s4.19 3 11 3 11-3 11-3"/></svg>