<svg fill-opacity="1" stroke-opacity="1" xmlns="http://www.w3.org/2000/svg" width="48" height="48" fill="none" viewBox="0 0 48 48"><path stroke="#000" stroke-linecap="round" stroke-linejoin="round" stroke-width="2" d="M40 12v12H8M24 12v24M8 12v24"/><path stroke="#000" stroke-linecap="round" stroke-linejoin="round" stroke-width="2" d="M44 8a4 4 0 1 1-8 0 4 4 0 0 1 8 0M28 8a4 4 0 1 1-8 0 4 4 0 0 1 8 0M12 8a4 4 0 1 1-8 0 4 4 0 0 1 8 0M28 40a4 4 0 1 1-8 0 4 4 0 0 1 8 0M12 40a4 4 0 1 1-8 0 4 4 0 0 1 8 0M40 44a4 4 0 1 0 0-8 4 4 0 0 0 0 8"/></svg>