<svg fill-opacity="1" stroke-opacity="1" xmlns="http://www.w3.org/2000/svg" width="48" height="48" fill="none" viewBox="0 0 48 48"><path stroke="#000" stroke-linejoin="round" stroke-width="2" d="M39.3 6H8.7A2.7 2.7 0 0 0 6 8.7v30.6A2.7 2.7 0 0 0 8.7 42h30.6a2.7 2.7 0 0 0 2.7-2.7V8.7A2.7 2.7 0 0 0 39.3 6Z"/><path stroke="#000" stroke-linecap="round" stroke-linejoin="round" stroke-width="2" d="m36 27-7 3M21 33l-7 3"/><path stroke="#000" stroke-linejoin="round" stroke-width="2" d="M16 29q3-4.343 3-6a3 3 0 1 0-6 0q0 1.657 3 6ZM32 22q3-4.343 3-6a3 3 0 1 0-6 0q0 1.657 3 6Z"/></svg>