<svg fill-opacity="1" stroke-opacity="1" xmlns="http://www.w3.org/2000/svg" width="48" height="48" fill="none" viewBox="0 0 48 48"><path fill="#000" fill-rule="evenodd" d="m24 3 .349.003C35.726 3.189 45 12.468 45 24.074l-.003.35C44.81 35.837 35.42 45 24 45l-.349-.003C12.274 44.811 3 35.532 3 24.074 3 12.35 12.465 3 24 3m14.38 22.387-17.313 4.337q-.247.06-.49.06l-.187-.009a2 2 0 0 1-1.16-.512l-1.69 5.878-.022.13c-.21 1.517 1.56 2.757 3.399 1.82L36.9 27.996l.191-.115c1.111-.7 1.538-1.623 1.288-2.495m-20.4-12.609c-1.21-.927-3.158-.015-3.266 2.042l-.116 18.389c-.009 1.44.591 2.354 1.52 2.585l4.901-17.16.055-.165a2 2 0 0 1 1.263-1.196l-4.246-4.403zm3.082-1.498c-1.163-.612-2.175-.52-2.805.132L30.67 24.236c.484.5.656 1.19.52 1.823l5.935-1.477.135-.05c1.408-.584 1.592-2.728-.135-3.849l-15.867-9.295z" clip-rule="evenodd"/></svg>