<svg fill-opacity="1" stroke-opacity="1" xmlns="http://www.w3.org/2000/svg" width="48" height="48" fill="none" viewBox="0 0 48 48"><path stroke="#000" stroke-width="2" d="M14 14h20c5.523 0 10 4.477 10 10v3c0 7.18-5.82 13-13 13H17C9.82 40 4 34.18 4 27v-3c0-5.523 4.477-10 10-10Z" clip-rule="evenodd"/><path stroke="#000" stroke-linecap="round" stroke-width="2" d="M18 27h12M24 21v12"/><path stroke="#000" stroke-linecap="round" stroke-linejoin="round" stroke-width="2" d="M4 25.042V12.014A4.168 4.168 0 0 1 11.047 9q2.399 2.29 3.424 5M44 25.042V12.766A4.478 4.478 0 0 0 36 10a111 111 0 0 0-3 4"/></svg>