<svg fill-opacity="1" stroke-opacity="1" xmlns="http://www.w3.org/2000/svg" width="48" height="48" fill="none" viewBox="0 0 48 48"><path stroke="#000" stroke-linecap="round" stroke-width="2" d="M7.366 16.344A21.9 21.9 0 0 0 6 24c0 2.712.486 5.297 1.366 7.655m3.906 6.487c1.658 1.842 3.638 3.327 5.838 4.34a16.4 16.4 0 0 0 13.78 0c2.2-1.013 4.18-2.498 5.838-4.34m3.906-6.487A21.9 21.9 0 0 0 42 24c0-2.712-.486-5.298-1.366-7.656m-3.906-6.486C35.07 8.015 33.09 6.53 30.89 5.518A16.4 16.4 0 0 0 24 4c-4.97 0-9.47 2.238-12.728 5.858"/><path stroke="#000" stroke-width="2" d="M18 23a3 3 0 1 0 0-6 3 3 0 0 0 0 6ZM30 23a3 3 0 1 0 0-6 3 3 0 0 0 0 6ZM24 35c2.761 0 5-1.343 5-3s-2.239-3-5-3-5 1.343-5 3 2.239 3 5 3Z"/></svg>