<svg fill-opacity="1" stroke-opacity="1" xmlns="http://www.w3.org/2000/svg" width="48" height="48" fill="none" viewBox="0 0 48 48"><path stroke="#000" stroke-linecap="round" stroke-linejoin="round" stroke-width="2" d="M9 15V9.564c0-.892.087-1.215.25-1.54.164-.327.404-.583.71-.757S10.567 7 11.403 7h25.192c.836 0 1.14.093 1.445.267s.545.43.709.756.25.65.25 1.54V15"/><path stroke="#000" stroke-linejoin="round" stroke-width="2" d="M5 15h38v26H5z"/><path fill="#000" fill-rule="evenodd" d="M13 26a3 3 0 1 0 0-6 3 3 0 0 0 0 6" clip-rule="evenodd"/><path stroke="#000" stroke-linecap="round" stroke-linejoin="round" stroke-width="2" d="M5.57 40.39 15 30l5 4 6-7 16.394 13.39"/></svg>