<svg fill-opacity="1" stroke-opacity="1" xmlns="http://www.w3.org/2000/svg" width="48" height="48" fill="none" viewBox="0 0 48 48"><path stroke="#000" stroke-linecap="round" stroke-linejoin="round" stroke-width="2" d="m20.995 36-1.901-4.01 5.11-.417a3.782 3.782 0 0 0 0-7.565h-8.207C12.61 24.008 9 27.584 9 31.042s.787 5.439 1.647 7.297c.859 1.858 3.15 5.661 9.355 5.661h8.953c5.248 0 9.045-4.855 9.032-11q-.012-5.745.007-17a2.99 2.99 0 0 0-2.985-2.996h-.005a2.99 2.99 0 0 0-2.99 2.99V16q.015 7.712.015 9.051 0 4.34-4.022 2.992M25.955 24l.04-17a2.993 2.993 0 0 0-2.986-3h-.007a3 3 0 0 0-3 3v16.04"/><path stroke="#000" stroke-linecap="round" stroke-linejoin="round" stroke-width="2" d="M14.006 24V10a2.996 2.996 0 0 1 2.996-2.996h.004c1.657.003 3 1.347 3 3.005V24M26.007 20.02v-1a3 3 0 0 1 6 0v1"/></svg>