<svg fill-opacity="1" stroke-opacity="1" xmlns="http://www.w3.org/2000/svg" width="48" height="48" fill="none" viewBox="0 0 48 48"><path stroke="#000" stroke-linecap="round" stroke-linejoin="round" stroke-width="2" d="M23 42H9a2 2 0 0 1-2-2V8a2 2 0 0 1 2-2h28a2 2 0 0 1 2 2v11.5"/><path stroke="#000" stroke-linejoin="round" stroke-width="2" d="M36.636 27C39.046 27 41 28.88 41 31.2c0 3.02-2.91 5.6-4.364 7Q35.182 39.6 33 41q-2.182-1.4-3.636-2.8C27.909 36.8 25 34.22 25 31.2c0-2.32 1.954-4.2 4.364-4.2 1.517 0 2.854.746 3.636 1.878A4.4 4.4 0 0 1 36.636 27Z"/><path stroke="#000" stroke-linecap="round" stroke-width="2" d="M15 14h16"/></svg>