<svg fill-opacity="1" stroke-opacity="1" xmlns="http://www.w3.org/2000/svg" width="48" height="48" fill="none" viewBox="0 0 48 48"><path stroke="#000" stroke-linejoin="round" stroke-width="2" d="M13 7a3 3 0 0 1 3-3h16a3 3 0 1 1 0 6H16a3 3 0 0 1-3-3ZM13.1 17.12A3 3 0 0 1 15.437 16h17.124a3 3 0 0 1 2.339 1.12l4.438 5.523a3 3 0 0 1 .661 1.88V41a3 3 0 0 1-3 3H11a3 3 0 0 1-3-3V24.523a3 3 0 0 1 .661-1.88z"/><path stroke="#000" stroke-linecap="round" stroke-linejoin="round" stroke-width="2" d="M18 30h12M24 24v12"/></svg>