<svg fill-opacity="1" stroke-opacity="1" xmlns="http://www.w3.org/2000/svg" width="48" height="48" fill="none" viewBox="0 0 48 48"><path stroke="#000" stroke-linejoin="round" stroke-width="2" d="M6 9a3 3 0 0 1 3-3h21.336a3 3 0 0 1 2.122.879l3.858 3.858 4.805 4.805A3 3 0 0 1 42 17.664V39a3 3 0 0 1-3 3H9a3 3 0 0 1-3-3z"/><path stroke="#000" stroke-linejoin="round" stroke-width="2" d="M31 26H17a3 3 0 0 0-3 3v13h20V29a3 3 0 0 0-3-3Z"/><path stroke="#000" stroke-linecap="round" stroke-linejoin="round" stroke-width="2" d="M29 16H17a3 3 0 0 1-3-3V6"/></svg>