<svg fill-opacity="1" stroke-opacity="1" xmlns="http://www.w3.org/2000/svg" width="48" height="48" fill="none" viewBox="0 0 48 48"><path stroke="#000" stroke-linecap="round" stroke-width="2" d="M20 14V5a1 1 0 0 0-1-1H5a1 1 0 0 0-1 1v38a1 1 0 0 0 1 1h14a1 1 0 0 0 1-1v-9M28 34v9a1 1 0 0 0 1 1h14a1 1 0 0 0 1-1V5a1 1 0 0 0-1-1H29a1 1 0 0 0-1 1v9M28 24h16M5 24h15"/><path stroke="#000" stroke-linecap="round" stroke-linejoin="round" stroke-width="2" d="m32.749 28.818-1.592-1.59-3.181-3.183 3.182-3.182 1.59-1.59M15.375 28.818l1.591-1.59 3.182-3.183-3.182-3.182-1.591-1.59"/></svg>