<svg fill-opacity="1" stroke-opacity="1" xmlns="http://www.w3.org/2000/svg" width="48" height="48" fill="none" viewBox="0 0 48 48"><path stroke="#000" stroke-linecap="round" stroke-width="2" d="m29.003 18.373 1.105-1.105.53-.53a5.5 5.5 0 0 0 0-7.778v0a5.5 5.5 0 0 0-7.778 0L9.172 22.648a.143.143 0 0 0 0 .202l6.97 6.97a1 1 0 0 0 1.414 0l3.713-3.713 1.105-1.105"/><path stroke="#000" stroke-linecap="round" stroke-linejoin="round" stroke-width="2" d="m28.163 6.485 1.768-1.767a3.5 3.5 0 0 1 4.95 4.95l-1.768 1.767zM10.485 24.163l-4.242 4.243 4.95 4.95 4.242-4.243z"/><circle cx="26.041" cy="22.042" r="4.5" stroke="#000" stroke-width="2" transform="rotate(45 26.041 22.042)"/><path stroke="#000" stroke-linecap="round" stroke-linejoin="round" stroke-width="2" d="m6 20 12.728 12.728M10 44h32M31 22c4 0 8 4 8 10 0 6.4-5.167 9.833-8 12"/></svg>