<svg fill-opacity="1" stroke-opacity="1" xmlns="http://www.w3.org/2000/svg" width="48" height="48" fill="none" viewBox="0 0 48 48"><path d="M44 26c0 2.64-.73 5.108-2 7.215A14.1 14.1 0 0 1 37.215 38c-2.107 1.27-4.576 2-7.215 2s-5.108-.73-7.215-2C18.719 35.55 16 31.093 16 26s2.72-9.55 6.785-12c2.107-1.27 4.576-2 7.215-2s5.108.73 7.215 2A14.1 14.1 0 0 1 42 18.785c1.27 2.107 2 4.576 2 7.215"/><path d="M4 14v24h18.785C18.719 35.55 16 31.093 16 26s2.72-9.55 6.785-12z"/><path stroke="#000" stroke-linecap="round" stroke-linejoin="round" stroke-width="2" d="M37.215 14c-2.107-1.27-4.576-2-7.215-2s-5.108.73-7.215 2m14.43 0H42v4.785M37.215 14A14.1 14.1 0 0 1 42 18.785M22.785 14H4v24h18.785m0-24C18.719 16.45 16 20.907 16 26s2.72 9.55 6.785 12m14.43 0c-2.107 1.27-4.576 2-7.215 2s-5.108-.73-7.215-2m14.43 0H42v-4.785M37.215 38A14.1 14.1 0 0 0 42 33.215m0-14.43c1.27 2.107 2 4.576 2 7.215s-.73 5.108-2 7.215M8 9h9v5H8zM10 22v8M36 26a6 6 0 0 1-6 6m-6-6a6 6 0 0 1 6-6"/></svg>