<svg fill-opacity="1" stroke-opacity="1" xmlns="http://www.w3.org/2000/svg" width="48" height="48" fill="none" viewBox="0 0 48 48"><path stroke="#000" stroke-linecap="round" stroke-width="2" d="M14.972 26.975Q9.992 27.862 9.99 33c0 5.138 5.153 11 9.8 11h11.89c4.547 0 7.31-3.85 7.31-6.94V24.01a3 3 0 0 0-3-3h-.01a2.99 2.99 0 0 0-2.99 2.99"/><path stroke="#000" stroke-linecap="round" stroke-width="2" d="M14.972 30.04v-9.027a3.003 3.003 0 0 1 3.002-3.003h.003a3.01 3.01 0 0 1 3.006 3.01v4.003"/><path stroke="#000" stroke-linecap="round" stroke-linejoin="round" stroke-width="2" d="M20.983 24.008V7.015a3.016 3.016 0 0 1 6.031 0v16.993"/><path stroke="#000" stroke-linecap="round" stroke-linejoin="round" stroke-width="2" d="M26.99 23.716v-2.713a3 3 0 0 1 6 0v3"/></svg>