<svg fill-opacity="1" stroke-opacity="1" xmlns="http://www.w3.org/2000/svg" width="48" height="48" fill="none" viewBox="0 0 48 48"><path stroke="#000" stroke-linecap="round" stroke-linejoin="round" stroke-width="2" d="m20.07 9.586-4.242-4.243a2 2 0 0 0-2.828 0L7.343 11a2 2 0 0 0 0 2.829l4.243 4.242M28.929 37.414l4.242 4.243a2 2 0 0 0 2.829 0L41.657 36a2 2 0 0 0 0-2.828l-4.243-4.243"/><rect width="12" height="42" x="34.606" y="4.908" stroke="#000" stroke-linecap="round" stroke-linejoin="round" stroke-width="2" rx="2" transform="rotate(45 34.606 4.908)"/><circle cx="24" cy="24" r="2" fill="#000"/><circle cx="20" cy="28" r="2" fill="#000"/><circle cx="28" cy="20" r="2" fill="#000"/></svg>