<svg fill-opacity="1" stroke-opacity="1" xmlns="http://www.w3.org/2000/svg" width="48" height="48" fill="none" viewBox="0 0 48 48"><path stroke="#000" stroke-linecap="round" stroke-linejoin="round" stroke-width="2" d="M5 8a2 2 0 0 1 2-2h34a2 2 0 0 1 2 2v24a2 2 0 0 1-2 2H7a2 2 0 0 1-2-2z"/><path stroke="#000" stroke-linecap="round" stroke-linejoin="round" stroke-width="2" d="M5 26a2 2 0 0 1 2-2h34a2 2 0 0 1 2 2v6a2 2 0 0 1-2 2H7a2 2 0 0 1-2-2zM22 12l-4 5M28 14l-3 4"/><circle cx="24" cy="29" r="2" fill="#000"/><path stroke="#000" stroke-linecap="round" stroke-linejoin="round" stroke-width="2" d="m17 34-3 8h20l-3-8"/></svg>