<svg fill-opacity="1" stroke-opacity="1" xmlns="http://www.w3.org/2000/svg" width="48" height="48" fill="none" viewBox="0 0 48 48"><path stroke="#000" stroke-linecap="round" stroke-linejoin="round" stroke-width="2" d="M21.593 18.135c1.34-1.465 2.915-4.978-1.508-7.32-1.006-.652-1.585-2.315-2.514-5.37C13.718 3.332 5 3 4 14v30"/><path stroke="#000" stroke-linecap="round" stroke-linejoin="round" stroke-width="2" d="M17 25c4.582 1.673 11.033 5.254 15 16 1.533 3.754 8.507 4.87 11.5-1 .998-1.957.5-5.496-3.918-7.55C36.462 31 34 26 38.5 24c1.848-.603 3.93.08 5.5 3"/><path stroke="#000" stroke-linecap="round" stroke-linejoin="round" stroke-width="2" d="M29 35c-4.345-1.106-13.228-.481-14 9"/></svg>