<svg fill-opacity="1" stroke-opacity="1" xmlns="http://www.w3.org/2000/svg" width="48" height="48" fill="none" viewBox="0 0 48 48"><path stroke="#000" stroke-width="2" d="M13.2 21a10.44 10.44 0 0 1-1.2-4.861C12 9.987 17.373 5 24 5s12 4.987 12 11.139c0 1.743-.431 3.392-1.2 4.861"/><ellipse cx="24" cy="31" stroke="#000" stroke-width="2" rx="15" ry="12"/><path stroke="#000" stroke-linecap="round" stroke-width="2" d="M30.518 33.874c-3.67 3.67-9.721 3.566-13.518-.23M12 23c-3.314 0-6-2.239-6-5s2.686-5 6-5M36 23c3.314 0 6-2.239 6-5s-2.686-5-6-5"/><circle cx="20" cy="14" r="2" fill="#000"/><circle cx="28" cy="14" r="2" fill="#000"/></svg>