<svg fill-opacity="1" stroke-opacity="1" xmlns="http://www.w3.org/2000/svg" width="48" height="48" fill="none" viewBox="0 0 48 48"><path stroke="#000" stroke-linecap="round" stroke-linejoin="round" stroke-width="2" d="M9 7h12M27 7h12"/><path stroke="#000" stroke-linejoin="round" stroke-width="2" d="M19 36h-3a3 3 0 0 1-3-3v-9a8 8 0 0 1 8-8h6a8 8 0 0 1 8 8v9a3 3 0 0 1-3 3h-3"/><circle cx="24" cy="7" r="3" stroke="#000" stroke-width="2"/><path stroke="#000" stroke-linecap="round" stroke-linejoin="round" stroke-width="2" d="M29 35v1.4a1.6 1.6 0 0 1-1.6 1.6h-6.8a1.6 1.6 0 0 1-1.6-1.6V35a5 5 0 0 1 10 0"/><path stroke="#000" stroke-linejoin="round" stroke-width="2" d="M21 38v3a3 3 0 1 0 6 0v-3"/></svg>