<svg fill-opacity="1" stroke-opacity="1" xmlns="http://www.w3.org/2000/svg" width="48" height="48" fill="none" viewBox="0 0 48 48"><rect width="20" height="20" x="6" y="22" stroke="#000" stroke-linejoin="round" stroke-width="2" rx="3"/><path stroke="#000" stroke-linecap="round" stroke-linejoin="round" stroke-width="2" d="M30 6h12v12"/><circle cx="34" cy="42" r="1.5" fill="#000" stroke="#000"/><circle r="1.5" fill="#000" stroke="#000" transform="matrix(1 0 0 -1 6 14)"/><circle cx="42" cy="42" r="1.5" fill="#000" stroke="#000"/><circle r="1.5" fill="#000" stroke="#000" transform="matrix(1 0 0 -1 6 6)"/><circle cx="42" cy="34" r="1.5" fill="#000" stroke="#000"/><circle r="1.5" fill="#000" stroke="#000" transform="matrix(1 0 0 -1 14 6)"/><circle cx="42" cy="26" r="1.5" fill="#000" stroke="#000"/><circle r="1.5" fill="#000" stroke="#000" transform="matrix(1 0 0 -1 22 6)"/><path stroke="#000" stroke-linecap="round" stroke-linejoin="round" stroke-width="2" d="m6 34 6.12-4.59a3 3 0 0 1 3.7.078L25 37M42 6 30 18"/></svg>