<svg fill-opacity="1" stroke-opacity="1" xmlns="http://www.w3.org/2000/svg" width="48" height="48" fill="none" viewBox="0 0 48 48"><path stroke="#000" stroke-linejoin="round" stroke-width="2" d="M30 34.5a3.5 3.5 0 0 1 3.5-3.5H41v3.4a3.6 3.6 0 0 1-3.6 3.6h-3.9a3.5 3.5 0 0 1-3.5-3.5ZM6 38.5A3.5 3.5 0 0 1 9.5 35H16v3.4a3.6 3.6 0 0 1-3.6 3.6H9.5A3.5 3.5 0 0 1 6 38.5Z"/><path stroke="#000" stroke-linecap="round" stroke-linejoin="round" stroke-width="2" d="m16 18.044 25-5.919M16 38V10l25-6v29.692"/></svg>