<svg fill-opacity="1" stroke-opacity="1" xmlns="http://www.w3.org/2000/svg" width="48" height="48" fill="none" viewBox="0 0 48 48"><path stroke="#000" stroke-linecap="round" stroke-width="2" d="M16.988 4q.18 9.375-.97 13.01c-1.152 3.633-9.936 13.753-9.936 19.092 0 5.34 6.305 8.287 9.709 6.277M32.002 4q-.337 9.375.814 13.01c1.15 3.633 10.143 12.44 10.143 18.282s-6.512 9.097-9.917 7.087"/><path stroke="#000" stroke-linecap="round" stroke-width="2" d="M13.006 34.834q2.565-1.46 4.46 0C19.36 36.292 19.956 40 24.008 40c4.053 0 6.04-4.157 7.992-5.166q1.953-1.01 4 0M20.285 22.146c-.794.854-1.634 1.807-2.247 3.468-.465 1.259-.558 1.989-.622 2.81"/></svg>