<svg fill-opacity="1" stroke-opacity="1" xmlns="http://www.w3.org/2000/svg" width="48" height="48" fill="none" viewBox="0 0 48 48"><path stroke="#000" stroke-linecap="round" stroke-linejoin="round" stroke-width="2" d="M4.999 32.314 20.034 5.943Q21.42 3 25.04 3c3.62 0 5.977 4.987 5.977 4.987L35 8.58q-6.016.098-6.957 2.42c-.94 2.322 2.456 4.731 2.975 8.004s-1.55 8.801-6.529 11.563Q19.51 33.33 12.058 32l-6.1 11"/><path stroke="#000" stroke-linejoin="round" stroke-width="2" d="M14.942 26.978q3.87-6.975 5.087-8.956c1.219-1.982 6.246-1.385 4.44 3.563q-1.806 4.947-9.527 5.393ZM32.968 32.984q1.713-4.105 5.003-4.975t6 1.06q-1.688 3.893-5.005 4.992-3.316 1.099-5.998-1.077Z" clip-rule="evenodd"/><path stroke="#000" stroke-linejoin="round" stroke-width="2" d="M26.985 35.114q1.136 4.084 6.014 5.461 4.879 1.38 8.033-1.575-3.9-4.545-7.03-4.99-3.13-.444-7.017 1.104Z" clip-rule="evenodd"/></svg>