<svg fill-opacity="1" stroke-opacity="1" xmlns="http://www.w3.org/2000/svg" width="48" height="48" fill="none" viewBox="0 0 48 48"><path stroke="#000" stroke-linejoin="round" stroke-width="2" d="M20.5 33c1.966 0 2.79-3.538 4.5-4.247 1.772-.735 4.417 1.336 5.753 0 1.336-1.335-.306-4.302.43-6.074C31.89 20.97 35 20.466 35 18.5s-3.538-2.44-4.247-4.15c-.735-1.772 1.336-4.767 0-6.103s-4.487.735-6.26 0C22.783 7.538 22.466 4 20.5 4s-2.496 3.965-4.206 4.674c-1.772.735-4.711-1.762-6.047-.427-1.336 1.336.735 3.981 0 5.753C9.538 15.71 6 16.534 6 18.5s3.538 2.47 4.247 4.18c.735 1.771-1.336 4.738 0 6.073 1.336 1.336 4.275-.735 6.047 0 1.71.71 2.24 4.247 4.206 4.247Z" clip-rule="evenodd"/><path stroke="#000" stroke-linejoin="round" stroke-width="2" d="M20 22a4 4 0 1 0 0-8 4 4 0 0 0 0 8Z"/><path stroke="#000" stroke-linecap="round" stroke-width="2" d="M16.57 30Q14.756 40.2 18.713 42.766c3.958 2.568 6.734.561 8.183-.91s6.153-7.912 10.18-7.912c4.026 0 5.238 3.88 4.856 6q-.381 2.12-1.97 3.136"/></svg>