<svg fill-opacity="1" stroke-opacity="1" xmlns="http://www.w3.org/2000/svg" width="48" height="48" fill="none" viewBox="0 0 48 48"><path d="M31 20v7L10 39l-6-4V13l6-4 14 8-6.5 3.5L10 16v16z"/><path fill="#000" d="m31 27 .992 1.736A2 2 0 0 0 33 27zm0-7h2v-3.446l-2.992 1.71zM10 32H8a2 2 0 0 0 2.992 1.736zm0-16 1.029-1.715A2 2 0 0 0 8 16zm7.5 4.5-1.029 1.715a2 2 0 0 0 1.977.046zM24 17l.948 1.76a2 2 0 0 0 .044-3.497zM10 9l.992-1.736a2 2 0 0 0-2.101.072zm-6 4-1.11-1.664A2 2 0 0 0 2 13zm0 22H2a2 2 0 0 0 .89 1.664zm6 4-1.11 1.664a2 2 0 0 0 2.102.072zm23-12v-7h-4v7zm-2.992-8.736-21 12 1.984 3.473 21-12zM12 32V16H8v16zM8.971 17.715l7.5 4.5 2.058-3.43-7.5-4.5zm9.477 4.546 6.5-3.5-1.896-3.522-6.5 3.5zm6.544-6.997-14-8-1.984 3.472 14 8zM8.891 7.336l-6 4 2.218 3.328 6-4zM2 13v22h4V13zm.89 23.664 6 4 2.22-3.328-6-4zm8.102 4.072 21-12-1.984-3.472-21 12z"/><path d="M17 28v-7L38 9l6 4v22l-6 4-14-8 6.5-3.5L38 32V16z"/><path fill="#000" d="m17 21-.992-1.736A2 2 0 0 0 15 21zm0 7h-2v3.446l2.992-1.71zm21-12h2a2 2 0 0 0-2.992-1.736zm0 16-1.029 1.715A2 2 0 0 0 40 32zm-7.5-4.5 1.029-1.715a2 2 0 0 0-1.977-.046zM24 31l-.948-1.76a2 2 0 0 0-.044 3.497zm14 8-.992 1.736a2 2 0 0 0 2.101-.072zm6-4 1.11 1.664A2 2 0 0 0 46 35zm0-22h2a2 2 0 0 0-.89-1.664zm-6-4 1.11-1.664a2 2 0 0 0-2.102-.072zM15 21v7h4v-7zm2.992 8.737 21-12-1.984-3.473-21 12zM36 16v16h4V16zm3.029 14.285-7.5-4.5-2.058 3.43 7.5 4.5zm-9.477-4.546-6.5 3.5 1.896 3.522 6.5-3.5zm-6.544 6.997 14 8 1.984-3.472-14-8zm16.101 7.928 6-4-2.218-3.328-6 4zM46 35V13h-4v22zm-.89-23.664-6-4-2.22 3.328 6 4zm-8.102-4.072-21 12 1.984 3.473 21-12z"/></svg>