<svg fill-opacity="1" stroke-opacity="1" xmlns="http://www.w3.org/2000/svg" width="48" height="48" fill="none" viewBox="0 0 48 48"><path stroke="#000" stroke-linecap="round" stroke-linejoin="round" stroke-width="2" d="m26.829 37.172 10.343-10.343M21.172 26.829 10.829 37.172M26.829 21.172l10.343-10.343M10.829 21.172l10.343-10.343M12 8a4 4 0 1 1-8 0 4 4 0 0 1 8 0M28 8a4 4 0 1 1-8 0 4 4 0 0 1 8 0M44 8a4 4 0 1 1-8 0 4 4 0 0 1 8 0M44 24a4 4 0 1 1-8 0 4 4 0 0 1 8 0M44 40a4 4 0 1 1-8 0 4 4 0 0 1 8 0M28 40a4 4 0 1 1-8 0 4 4 0 0 1 8 0M12 40a4 4 0 1 1-8 0 4 4 0 0 1 8 0M12 24a4 4 0 1 1-8 0 4 4 0 0 1 8 0M28 24a4 4 0 1 1-8 0 4 4 0 0 1 8 0"/></svg>