<svg fill-opacity="1" stroke-opacity="1" xmlns="http://www.w3.org/2000/svg" width="48" height="48" fill="none" viewBox="0 0 48 48"><path stroke="#000" stroke-linecap="round" stroke-linejoin="round" stroke-width="2" d="M37.699 6c-.527.534-2.46 2.672-3.69 3.741-.175.535 2.109 2.672 2.636 3.207s6.85-3.207 6.324-3.741c-.422-.428-3.69-2.316-5.27-3.207M11.372 16.722a6 6 0 0 1-.03-.264 19.6 19.6 0 0 0-4.3 6.142 3.515 3.515 0 1 1-1.506 6.866c-.02 3.546 1.15 6.955 3.58 9.601 3.505 3.815 8.81 5.151 14.03 4.064 3.214-.668 6.395-2.254 9.106-4.745a20 20 0 0 0 3.39-4.051c-2.225.67-4.675-.412-5.601-2.598a3.68 3.68 0 0 0-2.577-2.155l-1.682-.381a5.97 5.97 0 0 1-4.24-3.65l-.091-.231a5.58 5.58 0 0 0-4.857-3.539 5.58 5.58 0 0 1-5.19-4.826z"/><path stroke="#000" stroke-linecap="round" stroke-linejoin="round" stroke-width="2" d="m13.154 11.658-.251.27a5.87 5.87 0 0 0-1.53 4.794l.03.233a5.58 5.58 0 0 0 5.191 4.826 5.58 5.58 0 0 1 4.857 3.54l.09.23a5.97 5.97 0 0 0 4.241 3.65l1.683.381a3.68 3.68 0 0 1 2.576 2.155c.996 2.35 3.755 3.425 6.1 2.416 2.368-1.019 4.084-3.199 4.483-5.746l.207-1.33a10 10 0 0 0 .1-2.166l-.108-1.69a17.27 17.27 0 0 0-3.504-9.38l-.252-.331a15.79 15.79 0 0 0-14.1-6.138l-1.406.138a13.3 13.3 0 0 0-8.407 4.148"/></svg>