<svg fill-opacity="1" stroke-opacity="1" xmlns="http://www.w3.org/2000/svg" width="48" height="48" fill="none" viewBox="0 0 48 48"><path stroke="#000" stroke-linejoin="round" stroke-width="2" d="M24 42h5.955q.124-4.106 1.204-4.515C38.669 34.635 44 27.434 44 19H4c0 8.251 5.103 15.323 12.357 18.294q1.137.466 1.699 4.706z" clip-rule="evenodd"/><path stroke="#000" stroke-linecap="round" stroke-width="2" d="M14.443 26.023q.54 1.78 1.427 2.942a11.3 11.3 0 0 0 2.14 2.104M32.2 8.018a16.8 16.8 0 0 0-4.047-1.613M22.05 6C14.927 6.823 9.144 12.098 7.5 19m33-.003a17.14 17.14 0 0 0-3.883-7.434"/></svg>