<svg fill-opacity="1" stroke-opacity="1" xmlns="http://www.w3.org/2000/svg" width="48" height="48" fill="none" viewBox="0 0 48 48"><path stroke="#000" stroke-linecap="round" stroke-linejoin="round" stroke-width="2" d="M7 21 4 11c1.833-1.333 9-6 20-6s18 4.667 20 6l-3 10h-7v16c0 4-3 7-7 7h-6c-4 0-7-3-7-7V21z"/><path stroke="#000" stroke-linecap="round" stroke-linejoin="round" stroke-width="2" d="M34 34s-9 0-9 10M14 34s9 0 9 10M29.811 5.5a6 6 0 1 1-11.622 0"/><path stroke="#000" stroke-linecap="round" stroke-linejoin="round" stroke-width="2" d="M36 6.99C32.81 5.883 28.784 5 24 5s-8.843.883-12.054 1.99M14 31v6M34 31v6M21 44h6"/></svg>