<svg fill-opacity="1" stroke-opacity="1" xmlns="http://www.w3.org/2000/svg" width="48" height="48" fill="none" viewBox="0 0 48 48"><path stroke="#000" stroke-linecap="round" stroke-linejoin="round" stroke-width="2" d="M7 9v15a6 6 0 0 0 6 6h22a6 6 0 0 0 6-6V9"/><path stroke="#000" stroke-linecap="round" stroke-linejoin="round" stroke-width="2" d="M7 10a6 6 0 0 1 6-6h22a6 6 0 0 1 0 12H13a6 6 0 0 1-6-6"/><circle cx="15" cy="10" r="2" fill="#000"/><circle cx="21" cy="10" r="2" fill="#000"/><circle cx="27" cy="10" r="2" fill="#000"/><circle cx="33" cy="10" r="2" fill="#000"/><path stroke="#000" stroke-linecap="round" stroke-linejoin="round" stroke-width="2" d="M19 30v14M29 30v14"/></svg>