<svg fill-opacity="1" stroke-opacity="1" xmlns="http://www.w3.org/2000/svg" width="48" height="48" fill="none" viewBox="0 0 48 48"><g stroke="#000" stroke-linecap="round" stroke-linejoin="round" stroke-width="2" clip-path="url(#a)"><path d="m30.656 21.586 4.103-4.104a6 6 0 1 0-4.243-4.243l-4.102 4.104"/><path d="M41.263 32.192 15.807 6.736l-3.889 3.89 7.778 11.313-2.828 4.243 4.596 4.596 4.243-2.828 11.667 8.131z"/><path d="M19.32 21.885a10 10 0 0 0-9.877 2.529c-3.905 3.905-3.905 10.237 0 14.142s10.237 3.905 14.142 0a10 10 0 0 0 2.53-9.877"/></g><defs><clipPath id="a"><path fill="#000" d="M0 0h48v48H0z"/></clipPath></defs></svg>