<svg fill-opacity="1" stroke-opacity="1" xmlns="http://www.w3.org/2000/svg" width="48" height="48" fill="none" viewBox="0 0 48 48"><path stroke="#000" stroke-linecap="round" stroke-linejoin="round" stroke-width="2" d="M18.333 35.813 8.62 24.933a3.8 3.8 0 1 1 5.803-4.905L16 22V8.994a3 3 0 1 1 6 0V7a3 3 0 1 1 6 0v1.83a3 3 0 1 1 6 0v3.316a3 3 0 0 1 6 0v13.682c0 2.14-.678 4.227-1.937 5.958l-2.833 3.898a.77.77 0 0 1-.621.316H18.75a.56.56 0 0 1-.417-.187"/><rect width="16" height="8" x="19" y="36" stroke="#000" stroke-linecap="round" stroke-linejoin="round" stroke-width="2" rx="1"/></svg>