<svg fill-opacity="1" stroke-opacity="1" xmlns="http://www.w3.org/2000/svg" width="48" height="48" fill="none" viewBox="0 0 48 48"><ellipse cx="24" cy="27" stroke="#000" stroke-width="2" rx="18" ry="17"/><ellipse cx="16.933" cy="24.64" stroke="#000" stroke-width="2" rx="3" ry="4" transform="rotate(15 16.933 24.64)"/><ellipse stroke="#000" stroke-width="2" rx="3" ry="4" transform="rotate(165 13.844 14.356)scale(1 -1)"/><path stroke="#000" stroke-linecap="round" stroke-width="2" d="M41 20.999c3.124-3.124 3.438-8.219.313-11.343S32.124 6.876 29 10M7 21c-3.124-3.125-3.468-8.22-.344-11.343C9.781 6.532 15.876 6.875 19 10"/><path stroke="#000" stroke-linecap="round" stroke-linejoin="round" stroke-width="2" d="M20 35c.5 1.294 2.2 3.277 5 .862 2.8 2.415 4.5.431 5-.862"/></svg>