<svg fill-opacity="1" stroke-opacity="1" xmlns="http://www.w3.org/2000/svg" width="48" height="48" fill="none" viewBox="0 0 48 48"><path fill="#000" d="m38.45 23.017-5.256-3.007a.168.168 0 0 0-.253.151v7.48c0 .14.076.254.19.33l5.257 3.007a.168.168 0 0 0 .252-.152v-7.48a.4.4 0 0 0-.19-.329M31.11 18.875l-5.256-3.008a.168.168 0 0 0-.252.152v11.638c0 .101.075.177.177.177h5.357a.173.173 0 0 0 .177-.177v-8.454a.42.42 0 0 0-.202-.328M18.678 30.942l5.256-3.007a.38.38 0 0 0 .19-.329V15.172c0-.126-.14-.214-.253-.151l-5.257 3.007a.38.38 0 0 0-.19.329V30.79c0 .139.14.215.253.151M40.106 24.268v3.411c0 .102.076.177.177.177h5.965c.177 0 .24-.24.088-.316l-5.964-3.411c-.127-.076-.266.012-.266.139M16.693 19.127 2.085 27.505c-.151.089-.088.316.089.316H16.78a.173.173 0 0 0 .177-.177V19.28c-.013-.139-.152-.215-.265-.152"/></svg>