<svg fill-opacity="1" stroke-opacity="1" xmlns="http://www.w3.org/2000/svg" width="48" height="48" fill="none" viewBox="0 0 48 48"><path stroke="#000" stroke-linejoin="round" stroke-width="2" d="M4 13h40v24H4z"/><path stroke="#000" stroke-linecap="round" stroke-linejoin="round" stroke-width="2" d="M4 21a8 8 0 0 0 8-8H4zM4 29a8 8 0 0 1 8 8H4zM44 29v8h-8a8 8 0 0 1 8-8M44 21a8 8 0 0 1-8-8h8z" clip-rule="evenodd"/><path stroke="#000" stroke-linejoin="round" stroke-width="2" d="M24 31c2.761 0 5-2.686 5-6s-2.239-6-5-6-5 2.686-5 6 2.239 6 5 6Z"/></svg>