<svg fill-opacity="1" stroke-opacity="1" xmlns="http://www.w3.org/2000/svg" width="48" height="48" fill="none" viewBox="0 0 48 48"><path stroke="#000" stroke-linecap="round" stroke-width="2" d="M13 40H9a2 2 0 0 1-2-2V6a2 2 0 0 1 2-2h20a2 2 0 0 1 2 2v4"/><rect width="34" height="28" x="13" y="44" stroke="#000" stroke-width="2" rx="2" transform="rotate(-90 13 44)"/><circle cx="27" cy="27" r="8" stroke="#000" stroke-width="2"/><path stroke="#000" stroke-linecap="round" stroke-width="2" d="M35 28s-3-.5-5 1-2.599 5.102-2 6M24 27c0 2-2 4-4 4M31 20s0 4-3 4"/></svg>