<svg fill-opacity="1" stroke-opacity="1" xmlns="http://www.w3.org/2000/svg" width="48" height="48" fill="none" viewBox="0 0 48 48"><path stroke="#000" stroke-width="2" d="M16.64 12.746a8.081 8.081 0 0 1 14.72 0l3.061 6.754 3.686 6.322a9.88 9.88 0 0 1-1.652 12.063l-1.19 1.156a8.013 8.013 0 0 1-10.634.472 1 1 0 0 0-1.262 0 8.013 8.013 0 0 1-10.634-.472l-1.19-1.156a9.88 9.88 0 0 1-1.652-12.063L13.58 19.5z"/><path stroke="#000" stroke-linecap="round" stroke-width="2" d="M21.5 4c.667.5 2.1 1.9 2.5 3.5s.167 3.333 0 4"/><circle cx="16" cy="28" r="2" fill="#000"/><circle cx="18" cy="34" r="2" fill="#000"/><circle cx="23" cy="30" r="2" fill="#000"/></svg>