<svg fill-opacity="1" stroke-opacity="1" xmlns="http://www.w3.org/2000/svg" width="48" height="48" fill="none" viewBox="0 0 48 48"><g clip-path="url(#a)"><path stroke="#000" stroke-linecap="round" stroke-linejoin="round" stroke-width="2" d="M27 12s7 7 7 16-4.445 16.223-8 16c-3.556-.223-7-7-6-16s7-16 7-16M27 12S28 7.876 31 5.938 39.89 9 39 12s-4 3-5 0 4-6.5 7-6.062S44.257 11.18 44 14c-.501 5.5-2 10-2 10"/><path stroke="#000" stroke-linecap="round" stroke-linejoin="round" stroke-width="2" d="M27 12s0 8-7 16-13.675 9.7-16 7 0-10 7-17 16-6 16-6"/><circle cx="27.243" cy="27.408" r="2.5" fill="#000"/><circle cx="26.243" cy="34.408" r="2.5" fill="#000"/></g><defs><clipPath id="a"><path fill="#000" d="M0 0h48v48H0z"/></clipPath></defs></svg>