<svg fill-opacity="1" stroke-opacity="1" xmlns="http://www.w3.org/2000/svg" width="48" height="48" fill="none" viewBox="0 0 48 48"><path stroke="#000" stroke-linecap="round" stroke-linejoin="round" stroke-width="2" d="M19 20a7 7 0 1 0 0-14 7 7 0 0 0 0 14M4 40.8V42h30v-1.2c0-4.48 0-6.72-.872-8.432a8 8 0 0 0-3.496-3.496C27.92 28 25.68 28 21.2 28h-4.4c-4.48 0-6.72 0-8.432.872a8 8 0 0 0-3.496 3.496C4 34.08 4 36.32 4 40.8"/><path d="M32 19h12z" clip-rule="evenodd"/><path stroke="#000" stroke-linecap="round" stroke-linejoin="round" stroke-width="2" d="M32 19h12"/></svg>