<svg fill-opacity="1" stroke-opacity="1" xmlns="http://www.w3.org/2000/svg" width="48" height="48" fill="none" viewBox="0 0 48 48"><path stroke="#000" stroke-linecap="round" stroke-linejoin="round" stroke-width="2" d="M24 4C12.954 4 4 12.954 4 24s8.954 20 20 20 20-8.954 20-20a19.94 19.94 0 0 0-2.358-9.43"/><path stroke="#000" stroke-linejoin="round" stroke-width="2" d="M35 10c2.21 0 4-1.343 4-3s-1.79-3-4-3-4 1.343-4 3 1.79 3 4 3ZM24 31a7 7 0 1 0 0-14 7 7 0 0 0 0 14Z"/><path stroke="#000" stroke-linecap="round" stroke-linejoin="round" stroke-width="2" d="M31 6.5V24"/></svg>