<svg fill-opacity="1" stroke-opacity="1" xmlns="http://www.w3.org/2000/svg" width="48" height="48" fill="none" viewBox="0 0 48 48"><path stroke="#000" stroke-linecap="round" stroke-width="2" d="M8 4q6.003 5.006 6.003 10.005c0 5-4.003 7.239-6.003 9.995s-2.995 5.931-2.995 10.003Q5.005 38.075 8 44M40.003 4Q34 9.006 34 14.005c0 5 4.004 7.239 6.004 9.995s2.995 5.931 2.995 10.003q0 4.072-2.995 9.997M14.004 29.183q3.783-.363 6.281 1.08c2.5 1.445 3.707 3.097 3.715 4.694q.009 1.598 0 9.043M34.004 29.183q-3.782-.363-6.281 1.08c-2.5 1.445-3.707 3.097-3.715 4.694"/></svg>