<svg fill-opacity="1" stroke-opacity="1" xmlns="http://www.w3.org/2000/svg" width="48" height="48" fill="none" viewBox="0 0 48 48"><path stroke="#000" stroke-width="2" d="M39 6H9a3 3 0 0 0-3 3v30a3 3 0 0 0 3 3h30a3 3 0 0 0 3-3V9a3 3 0 0 0-3-3Z"/><path stroke="#000" stroke-linejoin="round" stroke-width="2" d="M19.44 14c.444 0 .854.241 1.07.63l1.496 2.695c.196.353.205.78.024 1.14L21 21s.252 2.252 2 4 4 2 4 2l2.527-1.038c.36-.18.788-.17 1.141.025l2.703 1.503c.388.216.629.625.629 1.07v3.103c0 1.58-1.468 2.721-2.965 2.216-3.076-1.038-7.85-3.013-10.875-6.04-3.026-3.025-5.001-7.798-6.039-10.874-.505-1.497.636-2.965 2.216-2.965z"/></svg>