<svg fill-opacity="1" stroke-opacity="1" xmlns="http://www.w3.org/2000/svg" width="48" height="48" fill="none" viewBox="0 0 48 48"><path stroke="#000" stroke-linecap="round" stroke-linejoin="round" stroke-width="2" d="M41.78 20.607c.252-1.696.17-3.432-.25-5.102a12.94 12.94 0 0 0-3.415-6.018 12.94 12.94 0 0 0-6.018-3.416 13.1 13.1 0 0 0-5.102-.249M34.19 19.804a5.99 5.99 0 0 0-1.692-5.132 6 6 0 0 0-5.132-1.692"/><path stroke="#000" stroke-linejoin="round" stroke-width="2" d="M14.376 8.794a2 2 0 0 1 1.748 1.03l2.447 4.406a2 2 0 0 1 .04 1.866l-2.357 4.713s.683 3.512 3.541 6.37c2.859 2.858 6.358 3.53 6.358 3.53l4.713-2.357a2 2 0 0 1 1.867.041l4.419 2.457a2 2 0 0 1 1.028 1.748v5.074c0 2.583-2.4 4.45-4.848 3.623-5.028-1.696-12.832-4.927-17.78-9.873-4.946-4.947-8.176-12.752-9.873-17.78-.826-2.448 1.04-4.848 3.624-4.848z"/></svg>