<svg fill-opacity="1" stroke-opacity="1" xmlns="http://www.w3.org/2000/svg" width="48" height="48" fill="none" viewBox="0 0 48 48"><path stroke="#000" stroke-linejoin="round" stroke-width="2" d="M15.996 8.686a2 2 0 0 1 1.749 1.03l2.446 4.406a2 2 0 0 1 .04 1.865l-2.356 4.714s.683 3.511 3.541 6.37 6.358 3.53 6.358 3.53l4.713-2.357a2 2 0 0 1 1.866.04l4.42 2.458A2 2 0 0 1 39.8 32.49v5.073c0 2.584-2.4 4.45-4.848 3.624-5.028-1.697-12.833-4.927-17.78-9.874-4.946-4.947-8.177-12.751-9.873-17.78-.826-2.447 1.04-4.847 3.624-4.847z"/><path fill="#000" d="M28 7h13v13H28z" opacity=".01"/><path stroke="#000" stroke-linecap="round" stroke-linejoin="round" stroke-width="2" d="m39 9-9 9M30 9l9 9"/></svg>