<svg fill-opacity="1" stroke-opacity="1" xmlns="http://www.w3.org/2000/svg" width="48" height="48" fill="none" viewBox="0 0 48 48"><path stroke="#000" stroke-linecap="round" stroke-linejoin="round" stroke-width="2" d="M5 10a2 2 0 0 1 2-2h34a2 2 0 0 1 2 2v28a2 2 0 0 1-2 2H7a2 2 0 0 1-2-2z" clip-rule="evenodd"/><path stroke="#000" stroke-linecap="round" stroke-linejoin="round" stroke-width="2" d="M14.5 18a1.5 1.5 0 1 0 0-3 1.5 1.5 0 0 0 0 3" clip-rule="evenodd"/><path stroke="#000" stroke-linejoin="round" stroke-width="2" d="m15 24 5 4 6-7 17 13v4a2 2 0 0 1-2 2H7a2 2 0 0 1-2-2v-4z"/></svg>