<svg fill-opacity="1" stroke-opacity="1" xmlns="http://www.w3.org/2000/svg" width="48" height="48" fill="none" viewBox="0 0 48 48"><path stroke="#000" stroke-linecap="round" stroke-linejoin="round" stroke-width="2" d="M20.5 14.5C20 14 20 13.15 20 11c0-3.866 4-7 4-7s3 3.134 3 7c0 1.922 0 3-.5 3.5"/><path stroke="#000" stroke-linecap="round" stroke-linejoin="round" stroke-width="2" d="M17 17c-1.21-2.918-4.138-6.567-6-8 5.411-1.014 9.774 2.3 12 5M30 16c1.452-2.697 4.304-5.695 6-7-5.643-1.058-9.871 2.261-12 5"/><path stroke="#000" stroke-linecap="round" stroke-linejoin="round" stroke-width="2" d="M16.725 17.374A39 39 0 0 0 15 19c-4.19 4.19-4.898 11.864-4.997 15.28-.034 1.15-.026 2.322.409 3.387C10.879 38.81 11.875 40.406 14 42c4 3 16 3 20 0 2.116-1.587 3.112-3.175 3.581-4.318.441-1.074.45-2.258.415-3.419C37.896 30.838 37.184 23.183 33 19q-.9-.898-1.726-1.626c-4.258-3.767-10.291-3.767-14.55 0M32 18 11 29M16 18l21 11M35 41 11 27M37 27 13 41"/></svg>