<svg fill-opacity="1" stroke-opacity="1" xmlns="http://www.w3.org/2000/svg" width="48" height="48" fill="none" viewBox="0 0 48 48"><path stroke="#000" stroke-width="2" d="M42 4H6a2 2 0 0 0-2 2l.001 36a2 2 0 0 0 2 2h36a2 2 0 0 0 2-2V6a2 2 0 0 0-2-2Z"/><path stroke="#000" stroke-linecap="round" stroke-linejoin="round" stroke-width="2" d="M20.009 34.008H33.5v-14"/><path stroke="#000" stroke-linecap="round" stroke-linejoin="round" stroke-width="2" d="M24.5 38.5 23 37l-3-3 3-3 1.5-1.5M29 24.5l1.5-1.5 3-3 3 3 1.5 1.5"/><path stroke="#000" stroke-linecap="round" stroke-width="2" d="M14 4v40M4 14.038 44 14"/><path stroke="#000" stroke-linecap="round" stroke-linejoin="round" stroke-width="2" d="M8 4h20M8 44h20"/><path stroke="#000" stroke-linecap="round" stroke-width="2" d="M44 8v10M4 8v10"/></svg>