<svg fill-opacity="1" stroke-opacity="1" xmlns="http://www.w3.org/2000/svg" width="48" height="48" fill="none" viewBox="0 0 48 48"><path stroke="#000" stroke-miterlimit="2" stroke-width="2" d="M29 14a5 5 0 1 0 0-10 5 5 0 0 0 0 10Z"/><path fill="#000" d="M41 24a3 3 0 1 0 0-6 3 3 0 0 0 0 6"/><path stroke="#000" stroke-linecap="round" stroke-linejoin="round" stroke-miterlimit="2" stroke-width="2" d="m16 24-2.27 11.26a2 2 0 0 1-2.81 1.5L4 34M38 30 23.76 19.07c-.77-.57-1.83-.51-2.54.13l-4.84 4.43a.996.996 0 0 0 .09 1.55L26 32.15c.72.53 1.01 1.48.69 2.32L23.12 44"/></svg>