<svg fill-opacity="1" stroke-opacity="1" xmlns="http://www.w3.org/2000/svg" width="48" height="48" fill="none" viewBox="0 0 48 48"><path stroke="#000" stroke-miterlimit="2" stroke-width="2" d="M32 16a5 5 0 1 0 0-10 5 5 0 0 0 0 10Z"/><path stroke="#000" stroke-linecap="round" stroke-linejoin="round" stroke-miterlimit="2" stroke-width="2" d="m23 40 8.11-2.06c.78-.19 1.02-1.19.42-1.72L23 29l4-8-10.41-3.74c-.5-.18-.9-.54-1.13-1.02L11 8"/><path stroke="#000" stroke-linecap="round" stroke-linejoin="round" stroke-miterlimit="2" stroke-width="2" d="m23 29-6.97 8.79c-.21.25-.47.45-.77.57L5 42M27 21l9.9 2.79c.47.14.88.44 1.14.85L42 31"/><path fill="#000" d="M18 8a3 3 0 1 0 0-6 3 3 0 0 0 0 6"/></svg>