<svg fill-opacity="1" stroke-opacity="1" xmlns="http://www.w3.org/2000/svg" width="48" height="48" fill="none" viewBox="0 0 48 48"><path stroke="#000" stroke-linecap="round" stroke-linejoin="round" stroke-width="2" d="M7 16h34l-7 28H14zM20 16v28M28 16v28M33 9a4 4 0 0 0-2.646 7h5.292A4 4 0 0 0 33 9M24 9a4 4 0 0 0-2.646 7h5.292A4 4 0 0 0 24 9M15 9a4 4 0 0 0-2.646 7h5.292A4 4 0 0 0 15 9"/><path stroke="#000" stroke-linecap="round" stroke-linejoin="round" stroke-width="2" d="M22.874 9a4 4 0 1 0-7.748 0M32.874 9a4 4 0 1 0-7.748 0M16 16h16M16 44h16"/></svg>