<svg fill-opacity="1" stroke-opacity="1" xmlns="http://www.w3.org/2000/svg" width="48" height="48" fill="none" viewBox="0 0 48 48"><path stroke="#000" stroke-linecap="round" stroke-linejoin="round" stroke-width="2" d="M33.696 40.868 39 17H7l5.304 23.868c.334 1.501.5 2.252 1.049 2.692s1.317.44 2.856.44H29.79c1.539 0 2.308 0 2.856-.44.549-.44.715-1.19 1.05-2.692M27 44l1-27M19 44l-1-27M31 44H15M31 17H15M11 17s-1-3 .5-4.5 4.5-1 4.5-1 0-3 2-4 5 .5 5 .5 2-3.357 5-2.5 3 4.5 3 4.5 2.5 0 4 2 0 5 0 5"/></svg>