<svg fill-opacity="1" stroke-opacity="1" xmlns="http://www.w3.org/2000/svg" width="48" height="48" fill="none" viewBox="0 0 48 48"><path stroke="#000" stroke-linecap="round" stroke-linejoin="round" stroke-width="2" d="M33 4v7.519q10.968 6.291 9.906 16.742T33 44M13.772 4q-3.207.555-4.616 3.758C7.746 10.96 5 21.964 5 23.726s3.568 6.509 12.052 13.71c3.931 3.336 6.255 3.166 7.513.928s-.407-3.674-2.515-5.327c-3.863-3.029-8.948-7.822-8.948-9.926q0-2.104 3.95-12.824"/><path stroke="#000" stroke-linecap="round" stroke-width="2" d="M8.201 28.94a95 95 0 0 0 2.8 15M33 19.944q2.32 1.542 3 4.012.68 2.472.396 4.506"/></svg>