<svg fill-opacity="1" stroke-opacity="1" xmlns="http://www.w3.org/2000/svg" width="48" height="48" fill="none" viewBox="0 0 48 48"><path d="M6 38v-6h36v6h-6v-6H12v6z"/><path stroke="#000" stroke-linecap="round" stroke-linejoin="round" stroke-width="2" d="M42 38v-6h-6v6zM6 38v-6h6v6zM24 16H4v16h40V16h-6M10 24h8"/><path stroke="#000" stroke-linecap="round" stroke-linejoin="round" stroke-width="2" d="M31 23a7 7 0 1 0 0-14 7 7 0 0 0 0 14"/><path fill="#000" d="M31 19a3 3 0 1 0 0-6 3 3 0 0 0 0 6"/></svg>