<svg fill-opacity="1" stroke-opacity="1" xmlns="http://www.w3.org/2000/svg" width="48" height="48" fill="none" viewBox="0 0 48 48"><path stroke="#000" stroke-linejoin="round" stroke-width="2" d="M37 44a4 4 0 1 0 0-8 4 4 0 0 0 0 8ZM11 12a4 4 0 1 0 0-8 4 4 0 0 0 0 8ZM11 44a4 4 0 1 0 0-8 4 4 0 0 0 0 8Z"/><path stroke="#000" stroke-linecap="round" stroke-linejoin="round" stroke-width="2" d="M11 12v24M24 10h9a4 4 0 0 1 4 4v22"/><path stroke="#000" stroke-linecap="round" stroke-linejoin="round" stroke-width="2" d="m30 16-6-6 6-6"/></svg>