<svg fill-opacity="1" stroke-opacity="1" xmlns="http://www.w3.org/2000/svg" width="48" height="48" fill="none" viewBox="0 0 48 48"><path fill="#000" d="M1.387 27.28c1.962 9.4 11.124 15.472 20.559 13.7l-.006.004c10.992-1.795 16.14-8.437 20.323-11.761 2.225-1.767 3.39-2.8 4.53-3.396-.746.126-1.226-.101-1.87-.328-.712-.25-1.624-.502-3.315-.278-3.223.428-6.043 3.65-6.043 3.65l-1.72 1.528a17.6 17.6 0 0 1-7.234 3.323 17.66 17.66 0 0 1-12.378-1.963c-4.227-2.415-7.437-6.549-8.507-11.673-.63-3.02-.44-6.019.416-8.77-4.028 4.049-6.008 9.967-4.755 15.965"/><path fill="#000" fill-rule="evenodd" d="m21.946 40.98-.006.004c10.992-1.795 16.14-8.437 20.323-11.761 2.225-1.767 3.39-2.8 4.53-3.396-.746.126-1.226-.101-1.87-.328-.712-.25-1.624-.502-3.315-.278-3.223.428-6.043 3.65-6.043 3.65l-1.72 1.528a17.6 17.6 0 0 1-7.234 3.323 17.66 17.66 0 0 1-12.378-1.963c-4.227-2.415-7.437-6.549-8.507-11.673-.63-3.02-.44-6.019.416-8.77-4.028 4.049-6.008 9.967-4.755 15.965 1.962 9.398 11.124 15.471 20.559 13.698" clip-rule="evenodd"/><path fill="#000" fill-rule="evenodd" d="M35.75 28.586c-2.675 9.346-12.453 14.764-21.841 12.102C5.724 38.367.538 30.668 1.116 22.538A16.375 16.375 0 0 0 12.955 36.56c8.722 2.475 17.807-2.56 20.293-11.244.718-2.511.806-5.052.357-7.455a16.4 16.4 0 0 0-3.887-7.9 17.66 17.66 0 0 1 5.623 7.731 17.45 17.45 0 0 1 .408 10.895" clip-rule="evenodd"/><path fill="#000" d="m27.459 32.468.527.919.857-.353.79-.352c1.593-.795 1.518-.674 3.434-1.943s2.928-2.04 4.4-3.815l-.818-.649c-.969 1.222-2.038 2.138-3.87 3.351-1.154.765-2.93 1.714-5.32 2.842"/><path fill="#000" fill-rule="evenodd" d="M18.696 6.118c2.35 0 4.63.47 6.727 1.335-8.67 2.447-14.15 11.076-12.552 19.99q.002.007.002.013.037.202.078.403l.006.027.01.056q.037.172.077.342l.015.066q.016.07.036.144.266 1.093.665 2.127c-2.95-2.101-4.878-4.667-6.12-7.34-1.65-3.553-1.89-7.647-.607-12.8a17.6 17.6 0 0 1 8.781-4.127c.967-.16 1.93-.236 2.882-.236M5.386 17.417l.014.35a17.4 17.4 0 0 1 .063-3.218q-.124 1.477-.077 2.868" clip-rule="evenodd"/></svg>