<svg fill-opacity="1" stroke-opacity="1" xmlns="http://www.w3.org/2000/svg" width="48" height="48" fill="none" viewBox="0 0 48 48"><path fill="#000" fill-rule="evenodd" d="M18.853 9.116Q7.558 16.37 6.303 26.003C5 36 13.94 40.893 18.47 36.497s1.815-9.977-1.465-11.503-5.286-.994-4.936-3.033 5.016-7.69 9.116-10.322a.75.75 0 0 0 .114-1.02L20.285 9.3c-.44-.572-.862-.55-1.432-.185M38.679 9.116q-11.295 7.254-12.55 16.887C24.825 36 33.765 40.893 38.295 36.497s1.815-9.977-1.466-11.503-5.286-.994-4.936-3.033 5.017-7.69 9.117-10.322a.75.75 0 0 0 .113-1.02L40.11 9.3c-.44-.572-.862-.55-1.431-.185" clip-rule="evenodd"/></svg>