<svg fill-opacity="1" stroke-opacity="1" xmlns="http://www.w3.org/2000/svg" width="48" height="48" fill="none" viewBox="0 0 48 48"><path stroke="#000" stroke-linejoin="round" stroke-width="2" d="m24 3 21.874 15.893L38 45H10L2.125 18.893z"/><path stroke="#000" stroke-linecap="round" stroke-linejoin="round" stroke-width="2" d="m38 45-7-8M10 45l7-8M2 19l10 3M46 19l-10 3M24 3v10"/><path stroke="#000" stroke-linejoin="round" stroke-width="2" d="m24 13 6.007 4.57L36 22l-5 15H17l-5-15 5.993-4.43zM7.594 14.92l-5.469 3.973 1.97 6.526M8.031 38.473 10 45h7M31 45h7l1.968-6.527M40.405 14.92l5.469 3.973-1.969 6.526M29.468 6.973 24 3 18.53 6.973"/></svg>