<svg fill-opacity="1" stroke-opacity="1" xmlns="http://www.w3.org/2000/svg" width="48" height="48" fill="none" viewBox="0 0 48 48"><path stroke="#000" stroke-linecap="round" stroke-linejoin="round" stroke-width="2" d="M39 15c2.183.555 4 1.5 4 4s-3 3-5 3M26 10c0-3 1.749-5 4-5 2 0 3.048.62 4 3M31 12s.951-2.132 2.123-2.91c1.87-1.243 4.377-1.372 5.749 0a4.057 4.057 0 0 1 0 5.748C37.28 16.43 35.997 17 35.997 17"/><path stroke="#000" stroke-linecap="round" stroke-linejoin="round" stroke-width="2" d="M10 14c-5.084 5.085-6.417 12.913-3.41 19.103C6.59 33.103 5 41 6 42s8.862-.592 8.862-.592A15.96 15.96 0 0 0 21.802 43c4.334 0 8.97-1.853 12.199-5 3.184-3.184 4.607-7.298 4.607-11.764 0-4.507-1.607-8.236-4.953-11.711-3.346-3.476-7.254-5.212-11.766-5.212-4.507 0-8.704 1.503-11.888 4.687"/><path stroke="#000" stroke-linecap="round" stroke-linejoin="round" stroke-width="2" d="M5 28s5-1 7 3M18 42s1-4-1-6M21.803 43c-2.388 0-4.73-.532-6.94-1.592"/><path stroke="#000" stroke-linecap="round" stroke-linejoin="round" stroke-width="2" d="M6.59 33.103C3.582 26.913 4.915 19.085 10 14"/></svg>