<svg fill-opacity="1" stroke-opacity="1" xmlns="http://www.w3.org/2000/svg" width="48" height="48" fill="none" viewBox="0 0 48 48"><path fill="#000" d="M24.004 27a3 3 0 1 0 0-6 3 3 0 0 0 0 6"/><path stroke="#000" stroke-linejoin="round" stroke-width="2" d="M19.04 31.476A8.94 8.94 0 0 0 24 32.969a8.94 8.94 0 0 0 4.96-1.493l6.061 9.207A19.87 19.87 0 0 1 24 44c-4.073 0-7.861-1.22-11.021-3.317zm-4.024-6.992-10.98.661A20.062 20.062 0 0 1 15.053 6l4.92 9.869a9.03 9.03 0 0 0-4.958 8.615Zm13.01-8.615L32.946 6a20.06 20.06 0 0 1 11.019 19.145l-10.98-.661q.015-.27.015-.54a9.03 9.03 0 0 0-4.974-8.075Z"/></svg>