<svg fill-opacity="1" stroke-opacity="1" xmlns="http://www.w3.org/2000/svg" width="48" height="48" fill="none" viewBox="0 0 48 48"><path stroke="#000" stroke-linecap="round" stroke-linejoin="round" stroke-width="2" d="M37 23.2C37 32 24 44 24 44S11 32 11 23.2C11 15.91 16.82 10 24 10s13 5.91 13 13.2"/><path stroke="#000" stroke-linecap="round" stroke-linejoin="round" stroke-miterlimit="2" stroke-width="2" d="M24 4v6M18 5l4 5M30 5l-4 5M12 20h8M29 27h7M16 34h6"/><path stroke="#000" stroke-linecap="round" stroke-linejoin="round" stroke-width="2" d="M13.812 15A13.27 13.27 0 0 0 11 23.2c0 5.555 5.18 12.384 9 16.666"/><path stroke="#000" stroke-linecap="round" stroke-width="2" d="M37 23.2c0 2.774-1.291 5.866-3.06 8.8"/></svg>