<svg fill-opacity="1" stroke-opacity="1" xmlns="http://www.w3.org/2000/svg" width="48" height="48" fill="none" viewBox="0 0 48 48"><path stroke="#000" stroke-linejoin="round" stroke-width="2" d="M12 6a2 2 0 0 1 2-2h20a2 2 0 0 1 2 2v24a2 2 0 0 1-2 2H14a2 2 0 0 1-2-2z"/><circle cx="18" cy="26" r="2" fill="#000"/><circle cx="30" cy="26" r="2" fill="#000"/><path stroke="#000" stroke-linecap="round" stroke-linejoin="round" stroke-width="2" d="M12 20h24M21 38h6M18 44h12"/><path stroke="#000" stroke-linecap="round" stroke-width="2" d="m17 32-6 12M31 32l6 12"/><path stroke="#000" stroke-linecap="round" stroke-linejoin="round" stroke-width="2" d="M36 15v10M12 15v10"/></svg>