<svg fill-opacity="1" stroke-opacity="1" xmlns="http://www.w3.org/2000/svg" width="48" height="48" fill="none" viewBox="0 0 48 48"><g stroke="#000" stroke-linecap="round" stroke-linejoin="round" stroke-width="2" clip-path="url(#a)"><circle cx="29.463" cy="16.989" r="11" transform="rotate(40 29.463 16.989)"/><path d="M38.533 23.293s-5.636.493-10.998-4.006S21.68 9.152 21.68 9.152M26.866 27.863c-3.46 1.012-5.068 2.928-6.675 4.843s-1.682 5.115-3.61 7.414-4.746 2.544-7.044.616-2.545-4.746-.617-7.044c1.929-2.298 5.068-2.928 6.675-4.843s3.214-3.83 3.61-7.414M38.832 10.49a3 3 0 0 0-4.596-3.856"/></g><defs><clipPath id="a"><path fill="#000" d="M0 0h48v48H0z"/></clipPath></defs></svg>