<svg fill-opacity="1" stroke-opacity="1" xmlns="http://www.w3.org/2000/svg" width="48" height="48" fill="none" viewBox="0 0 48 48"><g stroke="#000" stroke-linecap="round" stroke-linejoin="round" stroke-width="2" clip-path="url(#a)"><circle cx="30.075" cy="15.562" r="11" transform="rotate(40 30.075 15.562)"/><path d="M21.649 8.491c-4.61.049-6.327-3.35-8.577-.67-2.032 2.423.493 5.636-1.435 7.934M25.302 25.917l-5.785 6.894c-1.607 1.915-1.682 5.116-3.61 7.414s-4.746 2.545-7.044.616-2.545-4.746-.617-7.044c1.929-2.298 5.068-2.928 6.675-4.843s5.163-5.893 5.785-6.894"/><circle cx="11.24" cy="19.339" r="3" transform="rotate(40 11.24 19.34)"/><circle cx="28.462" cy="37.707" r="3" transform="rotate(40 28.462 37.707)"/><path d="M37.216 24.165c.63 3.139 2.853 8.268.863 9.862s-6.525-1.559-7.687 1.382"/></g><defs><clipPath id="a"><path fill="#000" d="M0 0h48v48H0z"/></clipPath></defs></svg>