<svg fill-opacity="1" stroke-opacity="1" xmlns="http://www.w3.org/2000/svg" width="48" height="48" fill="none" viewBox="0 0 48 48"><path stroke="#000" stroke-linecap="round" stroke-linejoin="round" stroke-width="2" d="M16 44q-2.193-6.524-1.415-11 .777-4.477 4.836-5.852-3.02 9.16 2.475 13.385c5.495 4.225 18.738 2.282 19.455-12.01.718-14.292-6.156-24.61-16.32-24.61s-11.685 11-4.526 14.734q-9.5 2.07-12.058 8.5T8.05 44"/><path stroke="#000" stroke-linecap="round" stroke-linejoin="round" stroke-width="2" d="M30.6 15q-4.347 2.591-3.15 4.746 1.196 2.156 5.424 0M33.247 26.24q-5.61-1.143-6.748.828c-1.137 1.97 3.87 4.826 5.686 5.183"/></svg>