<svg fill-opacity="1" stroke-opacity="1" xmlns="http://www.w3.org/2000/svg" width="48" height="48" fill="none" viewBox="0 0 48 48"><path stroke="#000" stroke-linecap="round" stroke-linejoin="round" stroke-width="2" d="M11.272 36.728A17.94 17.94 0 0 0 24 42c9.941 0 18-8.059 18-18S33.941 6 24 6c-4.97 0-9.47 2.015-12.728 5.272C9.614 12.93 6 17 6 17"/><path stroke="#000" stroke-linecap="round" stroke-linejoin="round" stroke-width="2" d="M6 9v8h8M28 18h-7v5.71c.985-.647 1.469-.71 3-.71 3 0 4 1.989 4 5s-2 4-4 4c-1.5 0-3-1-3-2"/></svg>