<svg fill-opacity="1" stroke-opacity="1" xmlns="http://www.w3.org/2000/svg" width="48" height="48" fill="none" viewBox="0 0 48 48"><path stroke="#000" stroke-linejoin="round" stroke-width="2" d="M9.858 31.071a2 2 0 0 1 0-2.829l2.95-2.95a2 2 0 0 1 1.414-.585h2.585a2 2 0 0 0 1.415-.586l5.899-5.9a2 2 0 0 0 .586-1.413v-2.586a2 2 0 0 1 .586-1.415l2.95-2.95a2 2 0 0 1 2.828 0l7.07 7.072a2 2 0 0 1 0 2.828l-2.949 2.95a2 2 0 0 1-1.414.586h-2.586a2 2 0 0 0-1.414.586l-5.9 5.9a2 2 0 0 0-.585 1.413v2.586a2 2 0 0 1-.586 1.414l-2.95 2.95a2 2 0 0 1-2.828 0z"/><path stroke="#000" stroke-linecap="round" stroke-linejoin="round" stroke-width="2" d="m7.03 40.97 6.363-6.364M34.607 13.393l6.364-6.364"/></svg>