<svg fill-opacity="1" stroke-opacity="1" xmlns="http://www.w3.org/2000/svg" width="48" height="48" fill="none" viewBox="0 0 48 48"><path stroke="#000" stroke-linecap="round" stroke-linejoin="round" stroke-width="2" d="M44 42H31l-2.956-13.793a2 2 0 0 1-.044-.419V15l-7.43-5.964a1.962 1.962 0 0 1 2.19-3.24L32 11l3.947 14.803q.053.197.144.38zM36 26l-8 2"/><path stroke="#000" stroke-linecap="round" stroke-linejoin="round" stroke-width="2" d="m19.379 25.52.064.054a2 2 0 0 0 3-.508L24 22.463v-4.693L20.32 15l-6.36.846-4.145 8.096q-.075.145-.125.3L4 42h11.96V29L17 24.087 17.5 22H19l-.304 1.617a2 2 0 0 0 .683 1.904M10 25l6 3"/></svg>