<svg fill-opacity="1" stroke-opacity="1" xmlns="http://www.w3.org/2000/svg" width="48" height="48" fill="none" viewBox="0 0 48 48"><path stroke="#000" stroke-linecap="round" stroke-linejoin="round" stroke-width="2" d="M24 26v12M24 6v20M24 4v2M8 40h26l6-6M15 40v4M32 40v4M24 6C14.059 6 6 14.034 6 23.944V26c0-2.478 2.015-5 4.5-5s4.5 2.522 4.5 5c0-2.478 2.015-5 4.5-5s4.5 2.522 4.5 5c0-2.478 2.015-5 4.5-5s4.5 2.522 4.5 5c0-2.478 2.015-5 4.5-5s4.5 2.522 4.5 5v-2.056C42 14.034 33.941 6 24 6"/><path stroke="#000" stroke-linecap="round" stroke-linejoin="round" stroke-width="2" d="M15 26s-1.5-5.5 1-11 8-9 8-9M33 26s.5-4.5-2-11-7-9-7-9M24 25V6"/><path stroke="#000" stroke-linecap="round" stroke-linejoin="round" stroke-width="2" d="M28.5 21c2.485 0 4.5 2.522 4.5 5 0-2.478 2.015-5 4.5-5M28.5 21c-2.485 0-4.5 2.522-4.5 5 0-2.478-2.015-5-4.5-5M10.5 21c2.485 0 4.5 2.522 4.5 5 0-2.478 2.015-5 4.5-5M15.733 8C18.21 6.722 21.02 6 24 6s5.79.722 8.266 2"/></svg>