<svg fill-opacity="1" stroke-opacity="1" xmlns="http://www.w3.org/2000/svg" width="48" height="48" fill="none" viewBox="0 0 48 48"><path stroke="#000" stroke-linecap="round" stroke-linejoin="round" stroke-width="2" d="M35 14c0-5.523-4.925-10-11-10S13 8.477 13 14M7 16a2 2 0 0 1 2-2h30a2 2 0 0 1 2 2v12a2 2 0 0 1-2 2h-9a2 2 0 0 1-2-2v0a2 2 0 0 0-2-2h-4a2 2 0 0 0-2 2v0a2 2 0 0 1-2 2H9a2 2 0 0 1-2-2zM10 30v14h28V30"/><path stroke="#000" stroke-linecap="round" stroke-linejoin="round" stroke-width="2" d="M20 26h8v6h-8z"/></svg>