<svg fill-opacity="1" stroke-opacity="1" xmlns="http://www.w3.org/2000/svg" width="48" height="48" fill="none" viewBox="0 0 48 48"><path stroke="#000" stroke-linecap="round" stroke-linejoin="round" stroke-width="2" d="M34 6.676C39.978 10.134 44 16.597 44 24M34 6.676V14m0-7.324h7.324m0 27.324C37.866 39.978 31.403 44 24 44m17.324-10H34m7.324 0v7.324m-27.324 0C8.022 37.866 4 31.403 4 24m10 17.324V34m0 7.324H6.676m0-27.324C10.134 8.022 16.597 4 24 4M6.676 14H14m-7.324 0V6.676"/><path stroke="#000" stroke-linecap="round" stroke-linejoin="round" stroke-width="2" d="M41.324 34C37.866 39.978 31.403 44 24 44m17.324-10H34m7.324 0v7.324M14 41.324C8.022 37.866 4 31.403 4 24m10 17.324V34m0 7.324H6.676M6.676 14C10.134 8.022 16.597 4 24 4M6.676 14H14m-7.324 0V6.676M34 6.676C39.978 10.134 44 16.597 44 24M34 6.676V14m0-7.324h7.324"/></svg>