<svg fill-opacity="1" stroke-opacity="1" xmlns="http://www.w3.org/2000/svg" width="48" height="48" fill="none" viewBox="0 0 48 48"><path stroke="#000" stroke-linejoin="round" stroke-width="2" d="m15 12 3-6h12l3 6zM41 12H7c-1.657 0-3 1.254-3 2.8v24.4C4 40.746 5.343 42 7 42h34c1.657 0 3-1.254 3-2.8V14.8c0-1.546-1.343-2.8-3-2.8Z"/><path stroke="#000" stroke-linecap="round" stroke-linejoin="round" stroke-width="2" d="M32 19v8M16 27v8"/><path stroke="#000" stroke-linecap="round" stroke-width="2" d="M16 27a8 8 0 0 0 11 7.419M32 27a8 8 0 0 0-11-7.419"/></svg>