<svg fill-opacity="1" stroke-opacity="1" xmlns="http://www.w3.org/2000/svg" width="48" height="48" fill="none" viewBox="0 0 48 48"><path stroke="#000" stroke-linecap="round" stroke-linejoin="round" stroke-width="2" d="M13 25V10h6l2-3h6l2 3h6v15zM20 35l4 4-4 4"/><path stroke="#000" stroke-linecap="round" stroke-linejoin="round" stroke-width="2" d="M32 38.168C39.064 36.625 45 33.1 45 29c0-2.252-1.488-4.33-4-6.001M24 39C12.954 39 3 34.523 3 29c0-2.252 1.488-4.33 4-6.001"/><path stroke="#000" stroke-miterlimit="10" stroke-width="2" d="M24 20a3 3 0 1 0 0-6 3 3 0 0 0 0 6Z"/></svg>