<svg fill-opacity="1" stroke-opacity="1" xmlns="http://www.w3.org/2000/svg" width="48" height="48" fill="none" viewBox="0 0 48 48"><path stroke="#000" stroke-miterlimit="2" stroke-width="2" d="M33 14a5 5 0 1 0 0-10 5 5 0 0 0 0 10Z"/><path stroke="#000" stroke-linecap="round" stroke-linejoin="round" stroke-miterlimit="2" stroke-width="2" d="M40 23h-7.63c-.56 0-1.1-.24-1.48-.65l-5.34-5.78a2.01 2.01 0 0 0-2.53-.36l-7.45 4.58a1 1 0 0 0 0 1.7l7.46 4.57c.59.36.96 1.01.96 1.71L24 38"/><circle cx="36.5" cy="36.5" r="7.5" stroke="#000" stroke-width="2"/><circle cx="11.5" cy="36.5" r="7.5" stroke="#000" stroke-width="2"/></svg>