<svg fill-opacity="1" stroke-opacity="1" xmlns="http://www.w3.org/2000/svg" width="48" height="48" fill="none" viewBox="0 0 48 48"><path stroke="#000" stroke-linecap="round" stroke-linejoin="round" stroke-width="2" d="M12.58 27.514 4 28.319v-5.638l12.258-5.237V10s5.72 1.403 6.537 2.611 0 4.028 0 4.028c4.086 1.477 7.99 6.042 7.99 9.667S29 34.5 29 34.5c-1.98 0-2.71 4.292-1.484 5.5"/><path stroke="#000" stroke-linecap="round" stroke-width="2" d="M22 26c0 2.761-1.79 4-4 4s-4-1.239-4-4M17.38 30c.439 0 .877 3.2.439 4.8S16.943 37.2 13 40"/><path stroke="#000" stroke-miterlimit="2" stroke-width="2" d="M37 16a2 2 0 1 0 0-4 2 2 0 0 0 0 4Z"/><path stroke="#000" stroke-linecap="round" stroke-linejoin="round" stroke-miterlimit="2" stroke-width="2" d="M27 30c2.435.084 6.11-1.773 8-3.066 2.272-1.56.135-4.011 2.724-4.556L39.55 21s1.45 2.066 2.45 4 1.6 7.9 0 11.5h-8l3 3"/></svg>