<svg fill-opacity="1" stroke-opacity="1" xmlns="http://www.w3.org/2000/svg" width="48" height="48" fill="none" viewBox="0 0 48 48"><path stroke="#000" stroke-linejoin="round" stroke-width="2" d="M24 11.619c2.093 0 3.79-1.706 3.79-3.81S26.093 4 24 4s-3.79 1.706-3.79 3.81 1.697 3.809 3.79 3.809ZM9.79 40.19c2.092 0 3.789-1.705 3.789-3.809s-1.697-3.81-3.79-3.81S6 34.278 6 36.382s1.697 3.81 3.79 3.81ZM38.21 40.19c2.093 0 3.79-1.705 3.79-3.809s-1.697-3.81-3.79-3.81-3.79 1.706-3.79 3.81 1.697 3.81 3.79 3.81Z"/><path stroke="#000" stroke-linecap="round" stroke-linejoin="round" stroke-width="2" d="M33.143 10.314A18.1 18.1 0 0 1 42 25.904q0 .867-.08 1.711v0M31.014 42.575A17.9 17.9 0 0 1 24 44c-2.488 0-4.858-.507-7.014-1.425M6.08 27.615a18 18 0 0 1-.08-1.71 18.1 18.1 0 0 1 8.857-15.59"/></svg>