<svg fill-opacity="1" stroke-opacity="1" xmlns="http://www.w3.org/2000/svg" width="48" height="48" fill="none" viewBox="0 0 48 48"><path stroke="#000" stroke-linejoin="round" stroke-width="2" d="M24 11.273A3.636 3.636 0 1 0 24 4a3.636 3.636 0 0 0 0 7.273ZM24 44a3.636 3.636 0 1 0 0-7.273A3.636 3.636 0 0 0 24 44ZM7.636 27.636a3.636 3.636 0 1 0 0-7.272 3.636 3.636 0 0 0 0 7.272ZM40.364 27.636a3.636 3.636 0 1 0 0-7.273 3.636 3.636 0 0 0 0 7.273Z"/><path stroke="#000" stroke-linecap="round" stroke-linejoin="round" stroke-width="2" d="M32.734 10.16a16.45 16.45 0 0 1 5.107 5.106M37.84 32.734a16.45 16.45 0 0 1-5.106 5.106M15.267 37.84a16.45 16.45 0 0 1-5.107-5.106M10.16 15.266a16.45 16.45 0 0 1 5.107-5.106"/></svg>