<svg fill-opacity="1" stroke-opacity="1" xmlns="http://www.w3.org/2000/svg" width="48" height="48" fill="none" viewBox="0 0 48 48"><path d="M27 6h-6l-1.25 4.5L18.5 15 16 24l-2.5 9-1.25 4.5L11 42h26l-1.5-5.4L32 24l-2.5-9-1.25-4.5z"/><path stroke="#000" stroke-linecap="round" stroke-linejoin="round" stroke-width="2" d="m37 42-1.5-5.4L32 24l-2.5-9-1.25-4.5L27 6h-6l-1.25 4.5L18.5 15 16 24l-2.5 9-1.25 4.5L11 42m26 0H11zm0 0H6h31m0 0h5zM13.5 33h21M32 24H16M29.5 15h-11M28.25 10.5l7.25 26.1M12.25 37.5l7.5-27"/></svg>