<svg fill-opacity="1" stroke-opacity="1" xmlns="http://www.w3.org/2000/svg" width="48" height="48" fill="none" viewBox="0 0 48 48"><path stroke="#000" stroke-linecap="round" stroke-linejoin="round" stroke-width="2" d="M24 25V7.5c0-1.281.5-3.5 3-3.5s3 2.219 3 3.5V30l7-7c1.297-1.297 3.078-1.922 4.5-.5s1.594 2.906 0 4.5L35 33.5S29.094 44 26 44H13s-3 0-5-2-2-4.5-2-4.5V12.781C6 12.062 6.5 10 9 10s3 2 3 2.781V25"/><rect width="6" height="12" x="12" y="19" stroke="#000" stroke-linejoin="round" stroke-width="2" rx="3"/><rect width="6" height="12" x="18" y="19" stroke="#000" stroke-linejoin="round" stroke-width="2" rx="3"/></svg>