<svg fill-opacity="1" stroke-opacity="1" xmlns="http://www.w3.org/2000/svg" width="48" height="48" fill="none" viewBox="0 0 48 48"><path stroke="#000" stroke-linecap="round" stroke-linejoin="round" stroke-miterlimit="2" stroke-width="2" d="M44 4H28v8h16zM44 12v22c0 1.11-.89 2-2 2H8c-2.21 0-4-1.79-4-4v-6c0-4.42 3.58-8 8-8h16v-6zM14 24v-6M21 24v-6M23 18H12M9 44a4 4 0 1 0 0-8 4 4 0 0 0 0 8M19.33 44a4 4 0 1 0 0-8 4 4 0 0 0 0 8M29.67 44a4 4 0 1 0 0-8 4 4 0 0 0 0 8M40 44a4 4 0 1 0 0-8 4 4 0 0 0 0 8"/></svg>