<svg fill-opacity="1" stroke-opacity="1" xmlns="http://www.w3.org/2000/svg" width="48" height="48" fill="none" viewBox="0 0 48 48"><path stroke="#000" stroke-linecap="round" stroke-linejoin="round" stroke-width="2" d="M24 44c11.046 0 20-8.954 20-20S35.046 4 24 4 4 12.954 4 24s8.954 20 20 20"/><path stroke="#000" stroke-linecap="round" stroke-linejoin="round" stroke-width="2" d="M24 28a4 4 0 1 0 0-8 4 4 0 0 0 0 8M44 24a20 20 0 0 1-9.284 16.887l-4.286-6.755A12 12 0 0 0 36 24zM13.423 40.975A20 20 0 0 1 4 24.165l8-.066a12 12 0 0 0 5.654 10.086zM14.442 6.432a20 20 0 0 1 19.27.084l-3.885 6.994a12 12 0 0 0-11.562-.051z"/></svg>