<svg fill-opacity="1" stroke-opacity="1" xmlns="http://www.w3.org/2000/svg" width="48" height="48" fill="none" viewBox="0 0 48 48"><g stroke="#000" stroke-linecap="round" stroke-linejoin="round" stroke-width="2" clip-path="url(#a)"><path d="M17.799 40.142s4.16 4.16 8.652 2.995 15.805-12.478 16.97-16.97c1.165-4.493-2.995-8.652-2.995-8.652M7.9 30.243s-4.16-4.16-2.995-8.652c1.164-4.492 12.478-15.806 16.97-16.97 4.492-1.165 8.652 2.994 8.652 2.994"/><rect width="40" height="14" x="5.071" y="33.071" rx="7" transform="rotate(-45 5.071 33.071)"/><path d="m15.678 33.779.563-1.689a6 6 0 0 1 3.326-3.615l.42-.18a4.98 4.98 0 0 0 2.762-3.002v0a4.98 4.98 0 0 1 2.762-3.002l.95-.407a4.71 4.71 0 0 0 2.614-2.84v0a4.71 4.71 0 0 1 2.98-2.981l2.008-.67"/></g><defs><clipPath id="a"><path fill="#000" d="M0 0h48v48H0z"/></clipPath></defs></svg>