<svg fill-opacity="1" stroke-opacity="1" xmlns="http://www.w3.org/2000/svg" width="48" height="48" fill="none" viewBox="0 0 48 48"><path d="M27 8c-4.686 4.686-3.965 13.035-3.965 13.035S31.314 21.686 36 17s4.006-12.965 4.006-12.965S31.686 3.314 27 8"/><path stroke="#000" stroke-linecap="round" stroke-linejoin="round" stroke-width="2" d="M23.035 21.035 31 13.07m-7.965 7.965S22.314 12.686 27 8s13.006-3.965 13.006-3.965S40.686 12.314 36 17s-12.965 4.035-12.965 4.035"/><path d="M20 21c3.85 3.843 2.971 10.971 2.971 10.971s-7.122.872-10.97-2.971c-3.85-3.843-2.969-10.971-2.969-10.971S16.151 17.157 20 21"/><path stroke="#000" stroke-linecap="round" stroke-linejoin="round" stroke-width="2" d="M22.971 31.971 16.001 25m6.97 6.971s.878-7.128-2.97-10.971c-3.85-3.843-10.969-2.971-10.969-2.971S8.151 25.157 12 29s10.971 2.971 10.971 2.971M23 4v40"/></svg>