<svg fill-opacity="1" stroke-opacity="1" xmlns="http://www.w3.org/2000/svg" width="48" height="48" fill="none" viewBox="0 0 48 48"><path stroke="#000" stroke-linejoin="round" stroke-width="2" d="M6 9a3 3 0 0 1 3-3h25.281L42 13.207V39a3 3 0 0 1-3 3H9a3 3 0 0 1-3-3z"/><path d="M24.008 6 24 13.385c0 .34-.448.615-1 .615h-8c-.552 0-1-.275-1-.615V6" clip-rule="evenodd"/><path stroke="#000" stroke-linejoin="round" stroke-width="2" d="M24.008 6 24 13.385c0 .34-.448.615-1 .615h-8c-.552 0-1-.275-1-.615V6z"/><path stroke="#000" stroke-linecap="round" stroke-linejoin="round" stroke-width="2" d="M9 6h25.281M14 26h20M14 34h10.008"/></svg>