<svg fill-opacity="1" stroke-opacity="1" xmlns="http://www.w3.org/2000/svg" width="48" height="48" fill="none" viewBox="0 0 48 48"><g stroke="#000" stroke-linecap="round" stroke-linejoin="round" stroke-width="2" clip-path="url(#a)"><path d="M20 24s2.5-4.5 3-9-1-8-1-8l5-3s1 6 1 9"/><path d="M6 43C4 41.5 4 36.09 8 33s4.186-2.283 9-6S34 4 34 4l4.5 3.5-12.19 16.24c-2.984 3.977-3.758 9.313-6.26 13.61C18.102 40.7 16 42 14 43s-6 1.5-8 0"/><path d="M23 30s3-2 7-4 13-2 13-2l-3-7s-8 0-11 3"/></g><defs><clipPath id="a"><path fill="#000" d="M0 0h48v48H0z"/></clipPath></defs></svg>