<svg fill-opacity="1" stroke-opacity="1" xmlns="http://www.w3.org/2000/svg" width="48" height="48" fill="none" viewBox="0 0 48 48"><path stroke="#000" stroke-linejoin="round" stroke-width="2" d="M4 33a2 2 0 0 1 2-2h6v-7l12-8 12 8v7h6a2 2 0 0 1 2 2v9a2 2 0 0 1-2 2H4z"/><path stroke="#000" stroke-linecap="round" stroke-width="2" d="M24 6v10"/><path stroke="#000" stroke-linecap="round" stroke-linejoin="round" stroke-width="2" d="M36 12V6s-1.5 3-6 0-6 0-6 0v6s1.5-3 6 0 6 0 6 0M28 44V31h-8v13M18 44h12"/></svg>