<svg fill-opacity="1" stroke-opacity="1" xmlns="http://www.w3.org/2000/svg" width="48" height="48" fill="none" viewBox="0 0 48 48"><path stroke="#000" stroke-linejoin="round" stroke-width="2" d="M10 42a6 6 0 1 0 0-12 6 6 0 0 0 0 12Z"/><path stroke="#000" stroke-linecap="round" stroke-linejoin="round" stroke-width="2" d="M40.062 8C24 28.433 15.805 38.68 14.242 40.243a6 6 0 0 1-8.485 0"/><path stroke="#000" stroke-linejoin="round" stroke-width="2" d="M38 42a6 6 0 1 0 0-12 6 6 0 0 0 0 12Z"/><path stroke="#000" stroke-linecap="round" stroke-linejoin="round" stroke-width="2" d="M42.242 40.243a6 6 0 0 1-8.485 0C32.195 38.68 24 28.446 8 8"/></svg>