<svg fill-opacity="1" stroke-opacity="1" xmlns="http://www.w3.org/2000/svg" width="48" height="48" fill="none" viewBox="0 0 48 48"><path stroke="#000" stroke-linecap="round" stroke-linejoin="round" stroke-width="2" d="M4 24V4h40v20"/><path stroke="#000" stroke-linecap="round" stroke-linejoin="round" stroke-width="2" d="M10 44a6 6 0 1 0 0-12 6 6 0 0 0 0 12" clip-rule="evenodd"/><path stroke="#000" stroke-linecap="round" stroke-linejoin="round" stroke-width="2" d="M36 12C20.39 33.266 15.805 40.68 14.243 42.243a6 6 0 0 1-8.486 0"/><path stroke="#000" stroke-linecap="round" stroke-linejoin="round" stroke-width="2" d="M38 44a6 6 0 1 0 0-12 6 6 0 0 0 0 12" clip-rule="evenodd"/><path stroke="#000" stroke-linecap="round" stroke-linejoin="round" stroke-width="2" d="M42.243 42.243a6 6 0 0 1-8.486 0C32.195 40.68 27.61 33.266 12 12"/></svg>