<svg fill-opacity="1" stroke-opacity="1" xmlns="http://www.w3.org/2000/svg" width="48" height="48" fill="none" viewBox="0 0 48 48"><path stroke="#000" stroke-width="2" d="M5 37a2 2 0 0 1 2-2h34a2 2 0 0 1 2 2v5a2 2 0 0 1-2 2H7a2 2 0 0 1-2-2z"/><path stroke="#000" stroke-width="2" d="M5 31a2 2 0 0 1 2-2h34a2 2 0 0 1 2 2v11a2 2 0 0 1-2 2H7a2 2 0 0 1-2-2z"/><path stroke="#000" stroke-linecap="round" stroke-linejoin="round" stroke-width="2" d="M18.763 15.664a1 1 0 0 1 .942-.664h8.59a1 1 0 0 1 .942.664L34 29H14z"/><rect width="18" height="10.8" x="15" y="4" stroke="#000" stroke-width="2" rx="5.4"/></svg>