<svg fill-opacity="1" stroke-opacity="1" xmlns="http://www.w3.org/2000/svg" width="48" height="48" fill="none" viewBox="0 0 48 48"><path stroke="#000" stroke-linecap="round" stroke-linejoin="round" stroke-width="2" d="M42 26v-4c0-9.941-8.059-18-18-18v0C14.059 4 6 12.059 6 22v4"/><path stroke="#000" stroke-linecap="round" stroke-linejoin="round" stroke-width="2" d="M32 27V12a8 8 0 0 0-8-8v0a8 8 0 0 0-8 8v15"/><path stroke="#000" stroke-linecap="round" stroke-linejoin="round" stroke-width="2" d="M24 24v14a6 6 0 0 0 6 6v0a6 6 0 0 0 6-6v-2.889M12 24h30"/></svg>