<svg fill-opacity="1" stroke-opacity="1" xmlns="http://www.w3.org/2000/svg" width="48" height="48" fill="none" viewBox="0 0 48 48"><path stroke="#000" stroke-linecap="round" stroke-linejoin="round" stroke-width="2" d="M24 42V26M41.942 10.007c-.776 13.024-9.13 17.236-15.946 17.896C24.896 28.009 24 27.104 24 26v-8.372c0-.233.04-.468.125-.684C27.117 9.199 34.283 8.155 40 8.02c1.105-.027 2.006.884 1.94 1.987M7.998 6.072c9.329.685 14.197 6.091 15.836 9.558.115.242.166.508.166.776v7.504c0 1.14-.96 2.055-2.094 1.94C7.337 24.384 6.11 14.786 6.009 8 5.993 6.894 6.897 5.99 8 6.072"/></svg>