<svg fill-opacity="1" stroke-opacity="1" xmlns="http://www.w3.org/2000/svg" width="48" height="48" fill="none" viewBox="0 0 48 48"><path stroke="#000" stroke-miterlimit="2" stroke-width="2" d="M29 14a5 5 0 1 0 0-10 5 5 0 0 0 0 10Z"/><path stroke="#000" stroke-linecap="round" stroke-linejoin="round" stroke-miterlimit="2" stroke-width="2" d="m24 19-4.29 8 7.6 6.02c.31.24.53.57.66.94L31.31 44M19.71 27l-5.2 7.64C12.973 36.888 10.5 39.5 9.5 41"/><path stroke="#000" stroke-linecap="round" stroke-linejoin="round" stroke-miterlimit="2" stroke-width="2" d="m42 24-6.94.1c-.36 0-.72-.09-1.04-.27l-3.27-1.91c-4.01-2.35-8.4-3.96-12.97-4.78l-3.22-.57L12 21"/><path stroke="#000" stroke-linejoin="round" stroke-width="2" d="m8.652 19.103 6.373 3.68-4.5 7.794-6.373-3.68z"/></svg>