<svg fill-opacity="1" stroke-opacity="1" xmlns="http://www.w3.org/2000/svg" width="48" height="48" fill="none" viewBox="0 0 48 48"><path stroke="#000" stroke-linecap="round" stroke-linejoin="round" stroke-width="2" d="M24 6H9a3 3 0 0 0-3 3v22a3 3 0 0 0 3 3h30a3 3 0 0 0 3-3v-5M24 34v8M14 42h20"/><circle cx="37" cy="13" r="3" stroke="#000" stroke-width="2"/><path stroke="#000" stroke-linecap="round" stroke-linejoin="round" stroke-width="2" d="M37 20v-4M37 10V6M30.938 16.5l3.464-2M39.598 11.5l3.464-2M30.938 9.5l3.464 2M39.598 14.5l3.464 2"/></svg>