<svg fill-opacity="1" stroke-opacity="1" xmlns="http://www.w3.org/2000/svg" width="48" height="48" fill="none" viewBox="0 0 48 48"><path stroke="#000" stroke-linejoin="round" stroke-width="2" d="M18.284 43.171a20 20 0 0 1-8.696-5.304 6 6 0 0 0-5.182-9.838A20 20 0 0 1 4 24c0-2.09.32-4.106.916-6H5a6 6 0 0 0 5.385-8.65 20 20 0 0 1 8.267-4.627A6 6 0 0 0 24 8a6 6 0 0 0 5.348-3.277 20 20 0 0 1 8.267 4.627A6 6 0 0 0 43.084 18c.595 1.894.916 3.91.916 6 0 1.38-.14 2.728-.406 4.03a6 6 0 0 0-5.182 9.838 20 20 0 0 1-8.696 5.303 6.003 6.003 0 0 0-11.432 0Z"/><path stroke="#000" stroke-linejoin="round" stroke-width="2" d="M24 31a7 7 0 1 0 0-14 7 7 0 0 0 0 14Z"/></svg>