<svg fill-opacity="1" stroke-opacity="1" xmlns="http://www.w3.org/2000/svg" width="48" height="48" fill="none" viewBox="0 0 48 48"><path stroke="#000" stroke-linecap="round" stroke-linejoin="round" stroke-width="2" d="M24 40H7a3 3 0 0 1-3-3V11a3 3 0 0 1 3-3h34a3 3 0 0 1 3 3v12.059"/><path stroke="#000" stroke-width="2" d="M4 11a3 3 0 0 1 3-3h34a3 3 0 0 1 3 3v9H4z"/><circle r="2" fill="#000" transform="matrix(0 -1 -1 0 10 14)"/><circle r="2" fill="#000" transform="matrix(0 -1 -1 0 16 14)"/><circle cx="37" cy="34" r="3" stroke="#000" stroke-width="2"/><path stroke="#000" stroke-linecap="round" stroke-linejoin="round" stroke-width="2" d="M37 41v-4M37 31v-4M30.938 37.5l3.464-2M39.598 32.5l3.464-2M30.938 30.5l3.464 2M39.598 35.5l3.464 2"/></svg>