<svg fill-opacity="1" stroke-opacity="1" xmlns="http://www.w3.org/2000/svg" width="48" height="48" fill="none" viewBox="0 0 48 48"><path stroke="#000" stroke-linecap="round" stroke-linejoin="round" stroke-width="2" d="M10.365 41.632A19.95 19.95 0 0 1 4 27C4 15.954 12.954 7 24 7s20 8.954 20 20a19.95 19.95 0 0 1-6.365 14.632"/><path stroke="#000" stroke-linecap="round" stroke-linejoin="round" stroke-width="2" d="M15.138 36.51A12.97 12.97 0 0 1 11 27c0-7.18 5.82-13 13-13s13 5.82 13 13c0 3.755-1.592 7.138-4.138 9.51"/><path stroke="#000" stroke-linecap="round" stroke-linejoin="round" stroke-width="2" d="M19.91 31.39a6 6 0 1 1 8.18 0"/></svg>