<svg fill-opacity="1" stroke-opacity="1" xmlns="http://www.w3.org/2000/svg" width="48" height="48" fill="none" viewBox="0 0 48 48"><path stroke="#000" stroke-width="2" d="M20.785 18.73a.72.72 0 0 1 1.016 0l7.469 7.469c.28.28.28.735 0 1.016L17.757 38.728a6 6 0 0 1-8.485-8.486z"/><path stroke="#000" stroke-width="2" d="M42.581 22.389a.894.894 0 0 0 0-1.264L26.874 5.418a.894.894 0 0 0-1.263 0l-.783.783c-4.686 4.686-4.686 12.284 0 16.97 4.687 4.687 12.285 4.687 16.97 0z"/><path stroke="#000" stroke-linecap="round" stroke-linejoin="round" stroke-width="2" d="m19.879 28.121-1.415 1.414M27.657 17.515l2.828 2.828"/></svg>