<svg fill-opacity="1" stroke-opacity="1" xmlns="http://www.w3.org/2000/svg" width="48" height="48" fill="none" viewBox="0 0 48 48"><path stroke="#000" stroke-linecap="round" stroke-linejoin="round" stroke-width="2" d="M5 14c-1.5-2.5-2-8 3-9 2-.15 3.5.5 6 3l11 12-3 4"/><path stroke="#000" stroke-linecap="round" stroke-linejoin="round" stroke-width="2" d="M19 14c-4.071.707-12 4-11 14 .5 3 1.86 5.946 5 9v5M29 17c4.221-.43 13.312.439 15 8 .563 1.861.066 7.157-5 13v4"/><path stroke="#000" stroke-linecap="round" stroke-width="2" d="M33 42c0-3.866-3.4-6-7-6s-7 2.134-7 6"/></svg>