<svg fill-opacity="1" stroke-opacity="1" xmlns="http://www.w3.org/2000/svg" width="48" height="48" fill="none" viewBox="0 0 48 48"><path stroke="#000" stroke-linecap="round" stroke-linejoin="round" stroke-width="2" d="M4 12h40v8l-1.398.84a7 7 0 0 1-7.203 0L34 20l-1.398.84a7 7 0 0 1-7.203 0L24 20l-1.398.84a7 7 0 0 1-7.203 0L14 20l-1.399.84a7 7 0 0 1-7.202 0L4 20z"/><path stroke="#000" stroke-linecap="round" stroke-linejoin="round" stroke-width="2" d="M8 22.489V44h32V22M8 11.822V4h32v8"/><path stroke="#000" stroke-linecap="round" stroke-linejoin="round" stroke-width="2" d="M19 32h10v12H19z"/></svg>