<svg fill-opacity="1" stroke-opacity="1" xmlns="http://www.w3.org/2000/svg" width="48" height="48" fill="none" viewBox="0 0 48 48"><path stroke="#000" stroke-linecap="round" stroke-linejoin="round" stroke-width="2" d="M20.623 11H39s0 5-3 8-6 4-7 4-10.5 1-13 3-3.999 5.5 0 9 11 5 16 3 8-8 8-8l4 10s-8 3-15 4-14 0-20-6-7.001-13.5-2-20c4.166-5.416 10.414-6.666 12.382-6.933A9 9 0 0 1 20.623 11"/><path stroke="#000" stroke-width="2" d="m26 23-6-12"/><path stroke="#000" stroke-linecap="round" stroke-linejoin="round" stroke-width="2" d="M18 4h14a7 7 0 0 1 7 7v0"/><circle cx="30" cy="16" r="2" fill="#000"/></svg>