<svg fill-opacity="1" stroke-opacity="1" xmlns="http://www.w3.org/2000/svg" width="48" height="48" fill="none" viewBox="0 0 48 48"><path stroke="#000" stroke-linecap="round" stroke-linejoin="round" stroke-width="2" d="M38.142 38.142c7.81-7.81 7.81-20.474 0-28.284s-20.474-7.81-28.284 0-7.81 20.474 0 28.284m22.627-5.657c4.687-4.686 4.687-12.284 0-16.97-4.686-4.687-12.284-4.687-16.97 0-4.687 4.686-4.687 12.284 0 16.97"/><path d="M28 24a4 4 0 1 1-8 0 4 4 0 0 1 8 0"/><path stroke="#000" stroke-linecap="round" stroke-linejoin="round" stroke-width="2" d="M24 28a4 4 0 1 0 0-8 4 4 0 0 0 0 8m0 0v16m0 0h4m-4 0h-4"/></svg>