<svg fill-opacity="1" stroke-opacity="1" xmlns="http://www.w3.org/2000/svg" width="48" height="48" fill="none" viewBox="0 0 48 48"><path stroke="#000" stroke-linecap="round" stroke-width="2" d="M38.142 38.142A19.94 19.94 0 0 0 44 24a19.94 19.94 0 0 0-5.858-14.142M9.858 9.858A19.94 19.94 0 0 0 4 24a19.94 19.94 0 0 0 5.858 14.142M15.1 14.1A13.96 13.96 0 0 0 11 24c0 3.866 1.567 7.366 4.1 9.9M32.9 33.9A13.96 13.96 0 0 0 37 24c0-3.866-1.567-7.366-4.1-9.9"/><path stroke="#000" stroke-linecap="round" stroke-linejoin="round" stroke-width="2" d="M24 44V34M24 4v10"/><path fill="#000" d="M24 27a3 3 0 1 0 0-6 3 3 0 0 0 0 6"/></svg>