<svg fill-opacity="1" stroke-opacity="1" xmlns="http://www.w3.org/2000/svg" width="48" height="48" fill="none" viewBox="0 0 48 48"><path stroke="#000" stroke-linecap="round" stroke-linejoin="round" stroke-width="2" d="M37.856 20v8M27.464 38l3.464-2 3.464-2M20.536 38l-3.465-2-3.464-2M10.144 20v8M13.607 14l3.465-2 3.464-2M27.464 10l3.464 2 3.464 2"/><path stroke="#000" stroke-linecap="round" stroke-linejoin="round" stroke-width="2" d="M24 44a4 4 0 1 0 0-8 4 4 0 0 0 0 8M24 12a4 4 0 1 0 0-8 4 4 0 0 0 0 8M24 28a4 4 0 1 0 0-8 4 4 0 0 0 0 8M38 20a4 4 0 1 0 0-8 4 4 0 0 0 0 8M38 36a4 4 0 1 0 0-8 4 4 0 0 0 0 8M10 20a4 4 0 1 0 0-8 4 4 0 0 0 0 8M10 36a4 4 0 1 0 0-8 4 4 0 0 0 0 8"/></svg>