<svg fill-opacity="1" stroke-opacity="1" xmlns="http://www.w3.org/2000/svg" width="48" height="48" fill="none" viewBox="0 0 48 48"><path stroke="#000" stroke-linejoin="round" stroke-width="2" d="m11.263 44 3.364-8.315C10.031 32.593 7 27.293 7 21.273 7 11.733 14.611 4 24 4s17 7.733 17 17.273c0 6.02-3.031 11.32-7.627 14.412L36.737 44z"/><path stroke="#000" stroke-linecap="round" stroke-linejoin="round" stroke-width="2" d="M20 38v6M28 38v6"/><path stroke="#000" stroke-linejoin="round" stroke-width="2" d="M17 23a3 3 0 1 0 0-6 3 3 0 0 0 0 6ZM31 23a3 3 0 1 0 0-6 3 3 0 0 0 0 6Z"/><path stroke="#000" stroke-linecap="round" stroke-linejoin="round" stroke-width="2" d="M32 44h-8M24 44h-8"/></svg>