<svg fill-opacity="1" stroke-opacity="1" xmlns="http://www.w3.org/2000/svg" width="48" height="48" fill="none" viewBox="0 0 48 48"><path stroke="#000" stroke-linecap="round" stroke-linejoin="round" stroke-width="2" d="M38 38v-7.5M10 38V6a2 2 0 0 1 2-2h24a2 2 0 0 1 2 2v1"/><path stroke="#000" stroke-linecap="round" stroke-linejoin="round" stroke-width="2" d="M25 13h-1a6 6 0 0 0-6 6v0a6 6 0 0 0 6 6h1M33 13h1a6 6 0 0 1 6 6v0a6 6 0 0 1-6 6h-1M25 19h8M10 38a6 6 0 0 1 6-6h16a6 6 0 0 1 0 12H16a6 6 0 0 1-6-6"/><circle cx="32" cy="38" r="2" fill="#000"/></svg>