<svg fill-opacity="1" stroke-opacity="1" xmlns="http://www.w3.org/2000/svg" width="48" height="48" fill="none" viewBox="0 0 48 48"><path stroke="#000" stroke-linecap="round" stroke-linejoin="round" stroke-width="2" d="M40 18c-3 0-8 0-10 5s.5 9.5 3 12M18 10h22"/><path stroke="#000" stroke-linecap="round" stroke-linejoin="round" stroke-width="2" d="M20 4h18a2 2 0 0 1 2 2v18.288c0 3.432-1.6 6.667-4.336 8.74C32.022 35.788 27.088 39.508 25 41c-3.5 2.5-10 5-15 0-4.999-5-3.749-11.557.001-15s8-6.848 8-6.848V6a2 2 0 0 1 2-2"/></svg>