<svg fill-opacity="1" stroke-opacity="1" xmlns="http://www.w3.org/2000/svg" width="48" height="48" fill="none" viewBox="0 0 48 48"><path stroke="#000" stroke-linecap="round" stroke-linejoin="round" stroke-width="2" d="M44 38V18h-8v13H12V18H4v20z"/><path stroke="#000" stroke-linecap="round" stroke-linejoin="round" stroke-width="2" d="M36 6H12v25h24z"/><path fill="#000" fill-rule="evenodd" d="M10 44a4 4 0 0 0 4-4c-1.097.004-7.3 0-8 0a4 4 0 0 0 4 4M38 44a4 4 0 0 0 4-4c-1.905-.007-7.137 0-8 0a4 4 0 0 0 4 4" clip-rule="evenodd"/></svg>