<svg fill-opacity="1" stroke-opacity="1" xmlns="http://www.w3.org/2000/svg" width="48" height="48" fill="none" viewBox="0 0 48 48"><path stroke="#000" stroke-linejoin="round" stroke-miterlimit="2" stroke-width="2" d="M24 44c11.05 0 20-8.95 20-20S35.05 4 24 4 4 12.95 4 24s8.95 20 20 20Z"/><path stroke="#000" stroke-linecap="round" stroke-linejoin="round" stroke-miterlimit="2" stroke-width="2" d="M10 38c3.7-3.63 6-8.41 6-14 0-5.52-2.38-10.38-6-14M38 38c-3.7-3.63-6-8.41-6-14 0-5.52 2.38-10.38 6-14M28 24h8M12 24h8M30 34l6-3M36 17l-6-3M18 34l-6-3M12 17l6-3"/></svg>