<svg fill-opacity="1" stroke-opacity="1" xmlns="http://www.w3.org/2000/svg" width="48" height="48" fill="none" viewBox="0 0 48 48"><path stroke="#000" stroke-linejoin="round" stroke-width="2" d="M10 30h6a6 6 0 0 1 0 12h-6z"/><path stroke="#000" stroke-linecap="round" stroke-linejoin="round" stroke-width="2" d="M10 28v16M4 32h6M4 38h6M22 36h8a2 2 0 0 0 2-2V23M32 4v7M22.879 7.879l4.243 4.243M22.879 25.121l4.243-4.242M41.121 7.879l-4.242 4.243M41.121 25.121 36.88 20.88"/><circle cx="32" cy="17" r="6" stroke="#000" stroke-width="2"/><path stroke="#000" stroke-linecap="round" stroke-linejoin="round" stroke-width="2" d="M20 17h6M38 17h6"/></svg>