<svg fill-opacity="1" stroke-opacity="1" xmlns="http://www.w3.org/2000/svg" width="48" height="48" fill="none" viewBox="0 0 48 48"><path stroke="#000" stroke-width="2" d="M9 7a3 3 0 0 1 3-3h24a3 3 0 0 1 3 3v34a3 3 0 0 1-3 3H12a3 3 0 0 1-3-3z"/><path stroke="#000" stroke-linejoin="round" stroke-width="2" d="M24 29a7 7 0 1 0 0-14 7 7 0 0 0 0 14Z"/><rect width="4" height="4" x="30" y="8" fill="#000" rx="2"/><path stroke="#000" stroke-linecap="round" stroke-linejoin="round" stroke-width="2" d="M27 36h2M19 36h2"/></svg>