<svg fill-opacity="1" stroke-opacity="1" xmlns="http://www.w3.org/2000/svg" width="48" height="48" fill="none" viewBox="0 0 48 48"><path stroke="#000" stroke-linejoin="round" stroke-width="2" d="M42 43V6a2 2 0 0 0-2-2h-7a2 2 0 0 0-2 2v18"/><path stroke="#000" stroke-width="2" d="M24 22c-9.941 0-18 8.059-18 18v4h36v-4c0-9.941-8.059-18-18-18Z"/><path stroke="#000" stroke-linecap="round" stroke-width="2" d="M8 31V8M16 24V14"/><path stroke="#000" stroke-linecap="round" stroke-linejoin="round" stroke-width="2" d="M31 14h11"/><path stroke="#000" stroke-width="2" d="M17 42v-3c0-9.389 3.134-17 7-17s7 7.611 7 17v3"/><path stroke="#000" stroke-linecap="round" stroke-linejoin="round" stroke-width="2" d="M4 44h40"/><path stroke="#000" stroke-width="2" d="M7 35s10.35-1 17-1 17 1 17 1"/></svg>