<svg fill-opacity="1" stroke-opacity="1" xmlns="http://www.w3.org/2000/svg" width="48" height="48" fill="none" viewBox="0 0 48 48"><path stroke="#000" stroke-linejoin="round" stroke-width="2" d="M30.442 5c1.964 0 3.823.448 5.479 1.246l-3.204 3.18a4.67 4.67 0 0 0 0 6.64 4.753 4.753 0 0 0 6.687 0l2.853-2.832c.48 1.322.743 2.748.743 4.234 0 6.887-5.623 12.469-12.558 12.469-1.66 0-3.244-.32-4.693-.9L13.07 41.625a4.75 4.75 0 0 1-6.685 0 4.67 4.67 0 0 1 0-6.637L18.952 22.51a12.35 12.35 0 0 1-1.069-5.042C17.883 10.583 23.506 5 30.442 5Z"/></svg>