<svg fill-opacity="1" stroke-opacity="1" xmlns="http://www.w3.org/2000/svg" width="48" height="48" fill="none" viewBox="0 0 48 48"><path stroke="#000" stroke-linejoin="round" stroke-width="2" d="M30.297 18.779s-3.23 9.102-4.764 10.691a4 4 0 0 1-5.754-5.557c1.534-1.59 10.518-5.134 10.518-5.134Z"/><path stroke="#000" stroke-linecap="round" stroke-linejoin="round" stroke-width="2" d="M38.85 38.85C42.65 35.048 45 29.798 45 24c0-11.598-9.402-21-21-21S3 12.402 3 24c0 5.799 2.35 11.049 6.15 14.85M24 4v4M38.845 11.142l-3.108 2.517M42.522 27.233l-3.897-.9M5.477 27.233l3.898-.9M9.155 11.142l3.108 2.517"/></svg>