<svg fill-opacity="1" stroke-opacity="1" xmlns="http://www.w3.org/2000/svg" width="48" height="48" fill="none" viewBox="0 0 48 48"><g stroke="#000" stroke-width="2" clip-path="url(#a)"><path d="M18.237 24.475c1.856 1.299 2.33 2.674 3.609 3.57 1.4.98 2.947 1.5 4.169 1.014 2.307-.916 3.976-3.908 6.011-6.815 3.96-5.655 3.954-14.385.26-16.971-3.692-2.586-11.843.433-15.802 6.088-1.935 2.763-4.47 6.445-4.317 8.002.129 1.311.57 2.042 1.958 3.275s2.132.45 4.112 1.837Z" clip-rule="evenodd"/><path stroke-linecap="round" d="M13.618 22.317q-5.312 5.847-1.403 8.885 3.908 3.038 9.815-2.995"/><path stroke-linecap="round" d="M12.239 31.227q-4.645 5.081-1.71 9.477c2.937 4.396 8.755 4.155 11.595.879s8.184-11.396 14.059-9.727 4.877 8.088.939 8.762"/></g><defs><clipPath id="a"><path fill="#000" d="M0 0h48v48H0z"/></clipPath></defs></svg>