<svg fill-opacity="1" stroke-opacity="1" xmlns="http://www.w3.org/2000/svg" width="48" height="48" fill="none" viewBox="0 0 48 48"><path stroke="#000" stroke-linecap="round" stroke-linejoin="round" stroke-width="2" d="M33 24c3.5 3 4.613 8.446 2.882 12.484-1.73 4.038-5.769 7.5-10.384 8.076s-9.23-2.884-10.384-4.038a10.6 10.6 0 0 1-1.105-1.307 1.514 1.514 0 0 1 .118-1.917c.865-.954 2.368-2.269 3.871-1.968 2.885.577 3.968 1.578 6.346.577C26.5 35 27.23 33.023 27.23 31.292c0-1.73-1.154-3.462-3.462-4.038-2.307-.577-4.615.576-5.192 2.307s0 2.885-1.73 4.038c-.588.392-1.403.763-2.147 1.06-1.03.41-2.15-.199-2.234-1.303-.177-2.324.247-5.664 2.65-8.41 1.246-1.424 2.411-2.392 3.461-3.051"/><path stroke="#000" stroke-linecap="round" stroke-linejoin="round" stroke-width="2" d="M33 24 23.128 4.24c-.23-.46-.776-.677-1.222-.42-1.04.597-2.26 1.722-1.863 3.467.51 2.25 3.537 12.761 4.956 15.713M22.499 17l-6.87-6.52c-.36-.343-.925-.373-1.264-.009-.822.88-1.674 2.333-.764 3.895C14.763 16.36 17.761 20.61 20 23"/></svg>