<svg fill-opacity="1" stroke-opacity="1" xmlns="http://www.w3.org/2000/svg" width="48" height="48" fill="none" viewBox="0 0 48 48"><path stroke="#000" stroke-linecap="round" stroke-width="2" d="M4 14V5a1 1 0 0 1 1-1h14a1 1 0 0 1 1 1v38a1 1 0 0 1-1 1H5a1 1 0 0 1-1-1v-9M44 34v9a1 1 0 0 1-1 1H29a1 1 0 0 1-1-1V5a1 1 0 0 1 1-1h14a1 1 0 0 1 1 1v9M28 24l16 .013M4 24.013 20 24"/><path stroke="#000" stroke-linecap="round" stroke-linejoin="round" stroke-width="2" d="m39.228 28.778 1.59-1.591 3.183-3.182-3.182-3.182-1.592-1.591M8.755 28.786l-1.59-1.59-3.183-3.183 3.182-3.182 1.591-1.59"/></svg>