<svg fill-opacity="1" stroke-opacity="1" xmlns="http://www.w3.org/2000/svg" width="48" height="48" fill="none" viewBox="0 0 48 48"><path stroke="#000" stroke-linecap="round" stroke-linejoin="round" stroke-width="2" d="M38 38V6a2 2 0 0 0-2-2H12a2 2 0 0 0-2 2v32M25 14h-2M25 22h-2"/><path stroke="#000" stroke-linecap="round" stroke-linejoin="round" stroke-width="2" d="M10 38a6 6 0 0 1 6-6h16a6 6 0 0 1 0 12H16a6 6 0 0 1-6-6M17 39v5M22 39v5M27 39v5"/><circle cx="32" cy="38" r="2" fill="#000"/><path stroke="#000" stroke-linecap="round" stroke-linejoin="round" stroke-width="2" d="M29 44H15"/></svg>