<svg fill-opacity="1" stroke-opacity="1" xmlns="http://www.w3.org/2000/svg" width="48" height="48" fill="none" viewBox="0 0 48 48"><path stroke="#000" stroke-linecap="round" stroke-linejoin="round" stroke-width="2" d="M5 8.8 8.8 5l3.8 2.85L16.4 5l3.8 2.85L24 5l3.8 2.85L31.6 5l3.8 2.85L39.2 5 43 8.8l-2.85 3.8L43 16.4l-2.85 3.8L43 24l-2.85 3.8L43 31.6l-2.85 3.8L43 39.2 39.2 43l-3.8-2.85L31.6 43l-3.8-2.85L24 43l-3.8-2.85L16.4 43l-3.8-2.85L8.8 43 5 39.2l2.85-3.8L5 31.6l2.85-3.8L5 24l2.85-3.8L5 16.4l2.85-3.8z"/><circle cx="24" cy="24" r="9" stroke="#000" stroke-linecap="round" stroke-linejoin="round" stroke-width="2"/></svg>