<svg fill-opacity="1" stroke-opacity="1" xmlns="http://www.w3.org/2000/svg" width="48" height="48" fill="none" viewBox="0 0 48 48"><path stroke="#000" stroke-linecap="round" stroke-linejoin="round" stroke-width="2" d="M42 35v8H6v-8h25M38.384 21.807 8.314 10.862l-2.736 7.517 24.175 8.8M8.37 10.778l14.512 5.38a.03.03 0 0 0 .04-.018v0a5.285 5.285 0 0 0-3.119-6.792l-9.502-3.523a.09.09 0 0 0-.115.053zM16.755 22.72l-1.368 3.759a1 1 0 0 1-1.282.597l-6.578-2.394a1 1 0 0 1-.598-1.281l1.368-3.76"/><circle cx="36" cy="30" r="7" stroke="#000" stroke-width="2"/></svg>