<svg fill-opacity="1" stroke-opacity="1" xmlns="http://www.w3.org/2000/svg" width="48" height="48" fill="none" viewBox="0 0 48 48"><path fill="#000" fill-rule="evenodd" d="m16.871 33.044-.873 11.66c-.062.82.667 1.383 1.318 1.018 4.613-2.584 19.062-12.074 26.386-32.932.336-.957-.567-1.82-1.337-1.28-4.326 3.03-13.78 9.29-19.623 10.484 0 0 3.742-2.6 5.981-6.588.22-.392.201-.892-.043-1.245L20.513 2.389c-.484-.697-1.478-.408-1.652.481l-2.543 12.937L4.384 26.223c-.598.522-.476 1.577.215 1.856zM37.975 28.448c-.756 1.055-2.384 3.224-3.887 4.55-.3.265-.26.709.084.925l7.943 4.986c.478.3 1.123-.056 1.043-.576-.37-2.383-1.434-7.351-4.125-9.959-.3-.29-.819-.26-1.059.074" clip-rule="evenodd"/></svg>