<svg fill-opacity="1" stroke-opacity="1" xmlns="http://www.w3.org/2000/svg" width="48" height="48" fill="none" viewBox="0 0 48 48"><path stroke="#000" stroke-linecap="round" stroke-linejoin="round" stroke-width="2" d="M24 44c11.046 0 20-8.954 20-20S35.046 4 24 4 4 12.954 4 24s8.954 20 20 20M24 44V32M4 24h12M44 24H32"/><path d="M32 24a8 8 0 1 1-16 0 8 8 0 0 1 16 0"/><path d="M32 24a8 8 0 1 1-16 0 8 8 0 0 1 16 0" clip-rule="evenodd"/><path stroke="#000" stroke-linecap="round" stroke-linejoin="round" stroke-width="2" d="M32 24a8 8 0 1 1-16 0 8 8 0 0 1 16 0"/></svg>