<svg fill-opacity="1" stroke-opacity="1" xmlns="http://www.w3.org/2000/svg" width="48" height="48" fill="none" viewBox="0 0 48 48"><path stroke="#000" stroke-linecap="round" stroke-linejoin="round" stroke-width="2" d="M41 4H7a3 3 0 0 0-3 3v34a3 3 0 0 0 3 3h34a3 3 0 0 0 3-3V7a3 3 0 0 0-3-3"/><path fill="#000" d="M12 14a2 2 0 1 0 0-4 2 2 0 0 0 0 4M12 38a2 2 0 1 0 0-4 2 2 0 0 0 0 4M36 14a2 2 0 1 0 0-4 2 2 0 0 0 0 4M36 38a2 2 0 1 0 0-4 2 2 0 0 0 0 4"/><path stroke="#000" stroke-linecap="round" stroke-linejoin="round" stroke-width="2" d="M24 33a9 9 0 1 0 0-18 9 9 0 0 0 0 18"/></svg>