<svg fill-opacity="1" stroke-opacity="1" xmlns="http://www.w3.org/2000/svg" width="48" height="48" fill="none" viewBox="0 0 48 48"><path fill="#000" d="M44 22a2 2 0 1 0-4 0zM24 8a2 2 0 1 0 0-4zm15 32H9v4h30zM8 39V9H4v30zm32-17v17h4V22zM9 8h15V4H9zm0 32a1 1 0 0 1-1-1H4a5 5 0 0 0 5 5zm30 4a5 5 0 0 0 5-5h-4a1 1 0 0 1-1 1zM8 9a1 1 0 0 1 1-1V4a5 5 0 0 0-5 5z"/><path stroke="#000" stroke-linecap="round" stroke-linejoin="round" stroke-width="2" d="m6 35 10.693-9.802a2 2 0 0 1 2.653-.044L32 36M28 31l4.773-4.773a2 2 0 0 1 2.615-.186L42 31"/><path fill="#000" d="M31.414 9.586a2 2 0 1 0-2.828 2.828zM34 15l-1.414 1.414a2 2 0 0 0 2.828 0zm9.414-6.586a2 2 0 1 0-2.828-2.828zm-14.828 4 4 4 2.828-2.828-4-4zm6.828 4 8-8-2.828-2.828-8 8z"/></svg>