<svg fill-opacity="1" stroke-opacity="1" xmlns="http://www.w3.org/2000/svg" width="48" height="48" fill="none" viewBox="0 0 48 48"><path stroke="#000" stroke-linecap="round" stroke-linejoin="round" stroke-width="2" d="M30.783 24.565a6.783 6.783 0 1 0-6.683-7.947"/><path fill="#000" d="M33 7a2 2 0 1 0 0-4 2 2 0 0 0 0 4M42 12a2 2 0 1 0 0-4 2 2 0 0 0 0 4M44 21a2 2 0 1 0 0-4 2 2 0 0 0 0 4M22 10a2 2 0 1 0 0-4 2 2 0 0 0 0 4"/><path stroke="#000" stroke-linecap="round" stroke-linejoin="round" stroke-width="2" d="M9.455 39.994A13.95 13.95 0 0 1 4 28.885C4 21.217 10.105 15 17.636 15c6.297 0 11.598 4.346 13.166 10.253a8.9 8.9 0 0 1 4.107-.996c5.02 0 9.091 4.144 9.091 9.256 0 3.796-2.244 7.059-5.455 8.487"/><path stroke="#000" stroke-linecap="round" stroke-linejoin="round" stroke-width="2" d="M22.243 24.757a6 6 0 0 0-8.485 8.485"/></svg>