<svg fill-opacity="1" stroke-opacity="1" xmlns="http://www.w3.org/2000/svg" width="48" height="48" fill="none" viewBox="0 0 48 48"><path stroke="#000" stroke-linejoin="round" stroke-width="2" d="M24 37c7.18 0 13-5.82 13-13s-5.82-13-13-13-13 5.82-13 13 5.82 13 13 13Z"/><path fill="#000" d="M24 6a2.5 2.5 0 1 0 0-5 2.5 2.5 0 0 0 0 5M38.5 12a2.5 2.5 0 1 0 0-5 2.5 2.5 0 0 0 0 5M44.5 26.5a2.5 2.5 0 1 0 0-5 2.5 2.5 0 0 0 0 5M38.5 41a2.5 2.5 0 1 0 0-5 2.5 2.5 0 0 0 0 5M24 47a2.5 2.5 0 1 0 0-5 2.5 2.5 0 0 0 0 5M9.5 41a2.5 2.5 0 1 0 0-5 2.5 2.5 0 0 0 0 5M3.5 26.5a2.5 2.5 0 1 0 0-5 2.5 2.5 0 0 0 0 5M9.5 12a2.5 2.5 0 1 0 0-5 2.5 2.5 0 0 0 0 5"/></svg>