<svg fill-opacity="1" stroke-opacity="1" xmlns="http://www.w3.org/2000/svg" width="48" height="48" fill="none" viewBox="0 0 48 48"><path stroke="#000" stroke-linecap="round" stroke-linejoin="round" stroke-width="2" d="M4 24h3M10 10l2 2M24 4v3M14 24c0-5.522 4.478-10 10-10s10 4.478 10 10a9.99 9.99 0 0 1-4.215 8.158M38 10l-2 2M44 24h-3M37.981 37.982l-1.62-1.62"/><path stroke="#000" stroke-linecap="round" stroke-linejoin="round" stroke-width="2" d="M23.5 28c-3 0-9.5.2-9.5 3s4.606 2.79 7 3c2 .175 5.462 1.688 5 4-1 5-17 4-21 4"/></svg>