<svg fill-opacity="1" stroke-opacity="1" xmlns="http://www.w3.org/2000/svg" width="48" height="48" fill="none" viewBox="0 0 48 48"><path stroke="#000" stroke-linecap="round" stroke-width="2" d="M28 33.168A10.04 10.04 0 0 0 33.168 28M14.832 28A10.04 10.04 0 0 0 20 33.168M20 14.832A10.04 10.04 0 0 0 14.832 20M28 14.832A10.04 10.04 0 0 1 33.168 20M30 40.976A18.05 18.05 0 0 0 40.976 30M7.024 30A18.05 18.05 0 0 0 18 40.976M18 7.024A18.05 18.05 0 0 0 7.024 18M30 7.024A18.05 18.05 0 0 1 40.976 18"/><path stroke="#000" stroke-linejoin="round" stroke-miterlimit="2" stroke-width="2" d="M27 17h-6L18 7l2-3h8l2 3zM17 21v6L7 30l-3-2v-8l3-2zM21 31h6l3 10-2 3h-8l-2-3zM31 27v-6l10-3c1.08.8 1.92 1.2 3 2v8c-1.08.8-1.92 1.2-3 2z"/></svg>