<svg fill-opacity="1" stroke-opacity="1" xmlns="http://www.w3.org/2000/svg" width="48" height="48" fill="none" viewBox="0 0 48 48"><path stroke="#000" stroke-width="2" d="M6 12a8 8 0 0 1 8-8h5a2 2 0 0 1 2 2v34a2 2 0 0 1-2 2h-5a8 8 0 0 1-8-8zM42 14a8 8 0 0 0-8-8h-6a2 2 0 0 0-2 2v34a2 2 0 0 0 2 2h6a8 8 0 0 0 8-8z"/><rect width="5" height="5" x="11" y="30" fill="#000" rx="2.5"/><rect width="5" height="5" x="31.5" y="14" fill="#000" rx="2.5"/><path stroke="#000" stroke-linecap="round" stroke-linejoin="round" stroke-width="2" d="M15 17h-3M34 28v6M31 31h6"/></svg>