<svg fill-opacity="1" stroke-opacity="1" xmlns="http://www.w3.org/2000/svg" width="48" height="48" fill="none" viewBox="0 0 48 48"><path fill="#000" d="M42 5h-4.586c-.89 0-1.337 1.077-.707 1.707l4.586 4.586c.63.63 1.707.184 1.707-.707V6a1 1 0 0 0-1-1M8 43h4.586c.89 0 1.337-1.077.707-1.707l-4.586-4.586c-.63-.63-1.707-.184-1.707.707V42a1 1 0 0 0 1 1"/><path stroke="#000" stroke-linecap="round" stroke-linejoin="round" stroke-width="2" d="M14 4v28a2 2 0 0 0 2 2h28"/><path stroke="#000" stroke-linecap="round" stroke-linejoin="round" stroke-width="2" d="M21 13h14v14"/><path stroke="#000" stroke-linecap="round" stroke-width="2" d="M14 13H6M36 42v-8"/></svg>