<svg fill-opacity="1" stroke-opacity="1" xmlns="http://www.w3.org/2000/svg" width="48" height="48" fill="none" viewBox="0 0 48 48"><path stroke="#000" stroke-linejoin="round" stroke-width="2" d="M16 28H8a2 2 0 0 0-2 2v14M32 28h8a2 2 0 0 1 2 2v14M20 24h8s5.165-5.678 4-9c-.755-2.15-2.439-3.34-4-5-1.563-1.66-4-4-4-4s-2.439 2.34-4 4c-1.563 1.66-3.246 2.85-4 5-1.166 3.322 4 9 4 9Z"/><path stroke="#000" stroke-linecap="round" stroke-linejoin="round" stroke-width="2" d="M4 44h40M16 24h16v20H16z"/><path stroke="#000" stroke-linecap="round" stroke-width="2" d="M24 34v10M24 4v3M10 24v4M38 24v4M20 44h8"/></svg>