<svg fill-opacity="1" stroke-opacity="1" xmlns="http://www.w3.org/2000/svg" width="48" height="48" fill="none" viewBox="0 0 48 48"><path fill="#000" d="M24 0c13.255 0 24 10.745 24 24S37.255 48 24 48 0 37.255 0 24 10.745 0 24 0m0 4.364C13.155 4.364 4.364 13.155 4.364 24S13.155 43.636 24 43.636 43.636 34.845 43.636 24 34.845 4.364 24 4.364m-4.873 7.254 3.636.745q-.15 1.05-.709 2.375a22 22 0 0 1 3.412-.946c2.387-.447 4.242-.701 6.081-.701s3.254.019 5.05 1.435q1.674 1.323 2.06 3.479l.049.312V30.99q0 1.27-.677 2.62-.634 1.267-2.44 1.432l-.247.017h-7.54q-.723-2.113 0-2.495c.724-.382 3.503.642 4.724 0q1.14-.6 1.16-2.233l-.003-.239v-11.96c0-1.853-1.133-3.133-4.625-2.943q-2.843.155-6.639 1.412l.822.25.992.338v.325c0 .552.41 1.01.944 1.082l.125.009 7.298.14v2.01h-5.455v2.498H32.6v1.553h-5.515l.06 4.874a2.9 2.9 0 0 0 1.521-.314 1.86 1.86 0 0 0 .787-.724l-.364-.72-.001-.002c-.252-.5-.083-1.1.373-1.401l.11-.064 1.254-.631a1.09 1.09 0 0 1 1.482.52l.046.118.743 2.294c.148.454-.019.946-.398 1.22l-.109.07-.9.5-.038.02c-.499.254-1.1.086-1.402-.37l-.064-.11-.014-.023q-.828.898-1.568 1.377c-.816.528-1.697.958-2.713 1.027l-.28.009h-5.255c-.426 0-1.198-.277-1.992-1.036q-.728-.696-.884-2.172l-.024-.275v-2.741h4.156q.05 1.779.333 2.741.264.9 1.398.718l.167-.031v-4.874h-6.055v-1.553h6.055v-2.499H22.35l-1.835 2.296-1.999-1.264q1.845-2.078 2.255-2.691.412-.614 0-2.114l.047.182-.041.017q-1.062 1.605-2.812 3.11l-.383.323-2.506-2.476q1.71-1.33 2.506-2.473.794-1.142 1.544-4.046m-7.695 6.17 3.576 3.362a4.36 4.36 0 0 1 1.085 4.745l-.089.214-3.71 8.308-4.087-2.84 5.202-5.51a2.18 2.18 0 0 0-.181-3.166l-.142-.11-3.714-2.638zm2.204-6.879a2.727 2.727 0 1 1 0 5.455 2.727 2.727 0 0 1 0-5.455"/></svg>