<svg fill-opacity="1" stroke-opacity="1" xmlns="http://www.w3.org/2000/svg" width="48" height="48" fill="none" viewBox="0 0 48 48"><path stroke="#000" stroke-linejoin="round" stroke-width="2" d="M4 12a2 2 0 0 1 2-2h36a2 2 0 0 1 2 2v24a2 2 0 0 1-2 2H6a2 2 0 0 1-2-2z"/><path stroke="#000" stroke-linecap="round" stroke-linejoin="round" stroke-width="2" d="M14.27 10c-1.696 0-2.622 1.978-1.536 3.28l1.666 2a2 2 0 0 0 1.537.72h16.126a2 2 0 0 0 1.537-.72l1.666-2c1.086-1.302.16-3.28-1.536-3.28z" clip-rule="evenodd"/><path stroke="#000" stroke-linecap="round" stroke-linejoin="round" stroke-width="2" d="M6 10h36"/><path stroke="#000" stroke-linejoin="round" stroke-width="2" d="M33 31a4 4 0 1 0 0-8 4 4 0 0 0 0 8ZM15 31a4 4 0 1 0 0-8 4 4 0 0 0 0 8Z"/></svg>