<svg fill-opacity="1" stroke-opacity="1" xmlns="http://www.w3.org/2000/svg" width="48" height="48" fill="none" viewBox="0 0 48 48"><path stroke="#000" stroke-linejoin="round" stroke-miterlimit="2" stroke-width="2" d="M23.889 39.889c8.84 0 16-7.16 16-16s-7.16-16-16-16-16 7.16-16 16 7.16 16 16 16Z"/><path stroke="#000" stroke-linejoin="round" stroke-miterlimit="2" stroke-width="2" d="M23.889 31.889c4.42 0 8-3.58 8-8s-3.58-8-8-8-8 3.58-8 8 3.58 8 8 8Z"/><path fill="#000" d="M23.889 25.889c1.1 0 2-.9 2-2s-.9-2-2-2-2 .9-2 2 .9 2 2 2"/><path stroke="#000" stroke-linecap="round" stroke-linejoin="round" stroke-miterlimit="2" stroke-width="2" d="M23.889 7.889v-4M37.889 43.889l-4-7M13.889 36.889l-4 7"/></svg>