<svg fill-opacity="1" stroke-opacity="1" xmlns="http://www.w3.org/2000/svg" width="48" height="48" fill="none" viewBox="0 0 48 48"><path stroke="#000" stroke-linecap="round" stroke-linejoin="round" stroke-width="2" d="M21.417 18.583a6 6 0 1 0 8 8"/><path stroke="#000" stroke-linecap="round" stroke-linejoin="round" stroke-width="2" d="M28.28 11.72C26.94 11.255 25.5 11 24 11c-7.18 0-13 5.82-13 13s5.82 13 13 13 13-5.82 13-13c0-1.5-.254-2.94-.72-4.28"/><path stroke="#000" stroke-linecap="round" stroke-linejoin="round" stroke-width="2" d="M33.568 6.433A19.9 19.9 0 0 0 24 4C12.954 4 4 12.954 4 24s8.954 20 20 20 20-8.954 20-20c0-3.466-.882-6.725-2.432-9.567M44 4 24 24"/></svg>