<svg fill-opacity="1" stroke-opacity="1" xmlns="http://www.w3.org/2000/svg" width="48" height="48" fill="none" viewBox="0 0 48 48"><path stroke="#000" stroke-linejoin="round" stroke-width="2" d="M4 35v-7.29a6 6 0 0 1 3.319-5.368l.682-.34 2.31-7.91A4 4 0 0 1 14.205 11h19.688a4 4 0 0 1 3.904 3.128l2.205 7.874.68.34A6 6 0 0 1 44 27.708V35a3 3 0 0 1-3 3h-1.997v1a4 4 0 0 1-4 4A4 4 0 0 1 31 39v-1H17v1a4 4 0 1 1-8 0v-1H7a3 3 0 0 1-3-3Z"/><path fill="#000" d="M13.5 33a2.5 2.5 0 1 0 0-5 2.5 2.5 0 0 0 0 5M34.5 33a2.5 2.5 0 1 0 0-5 2.5 2.5 0 0 0 0 5"/><path stroke="#000" stroke-linecap="round" stroke-linejoin="round" stroke-width="2" d="M18 11h12l-.991-4.956C28.887 5.434 28.399 5 27.837 5h-7.674c-.563 0-1.05.434-1.172 1.044z" clip-rule="evenodd"/><path stroke="#000" stroke-linecap="round" stroke-linejoin="round" stroke-width="2" d="M15 23h18"/></svg>