<svg fill-opacity="1" stroke-opacity="1" xmlns="http://www.w3.org/2000/svg" width="48" height="48" fill="none" viewBox="0 0 48 48"><path stroke="#000" stroke-linecap="round" stroke-linejoin="round" stroke-width="2" d="M23.001 13c-7.3 0-13.458 5.07-15.379 12H38.38c-1.92-6.93-8.079-12-15.379-12M7.001 29.593c0 4.418 1.665 8.433 4.381 11.407H34.62c2.716-2.974 4.381-6.989 4.381-11.407 0-1.594-.217-3.134-.62-4.593H7.62c-.403 1.459-.62 3-.62 4.593M27 13v-2a4 4 0 0 0-4-4v0a4 4 0 0 0-4 4v2"/><path stroke="#000" stroke-linecap="round" stroke-linejoin="round" stroke-width="2" d="M7 28s-1.985-.131-3-2.5C2.5 22 5 20 6 17c.761-2.282-.793-3.986-1.58-4.67-.252-.22-.42-.53-.42-.865v-.618c0-.489.354-.903.843-.92C5.878 9.887 7.663 9.996 9 11c2 1.5 3 6 3 6M9 41h28M39 25a5 5 0 1 0-4.584-7"/></svg>