<svg fill-opacity="1" stroke-opacity="1" xmlns="http://www.w3.org/2000/svg" width="48" height="48" fill="none" viewBox="0 0 48 48"><path stroke="#000" stroke-width="2" d="M13.117 5h.886c4.666.69 5.931 3.338 9.997 3.338S29.331 5.69 33.998 5h.502a9.5 9.5 0 0 1 9.5 9.5v.626c0 2.903-3.09 6.217-4 9.357-.965 3.334-1.626 6.06-1.82 8.911C37.725 40.075 35.447 43 33 43c-3.654 0-6.898-14.975-8.937-14.975C22.023 28.025 17.978 43 15 43c-1.817 0-4.17-1.075-5.054-9.606C9.594 30 9 27.941 8 24.483c-.88-3.04-3.848-6.672-4-9.932A9.127 9.127 0 0 1 13.117 5Z" clip-rule="evenodd"/><path stroke="#000" stroke-linecap="round" stroke-width="2" d="m15.482 12.463 16.519 5.326M15.482 17.789l16.519-5.326"/></svg>