<svg fill-opacity="1" stroke-opacity="1" xmlns="http://www.w3.org/2000/svg" width="48" height="48" fill="none" viewBox="0 0 48 48"><rect width="12" height="38" x="6" y="5" stroke="#000" stroke-linejoin="round" stroke-width="2" rx="6"/><rect width="12" height="38" x="30" y="5" stroke="#000" stroke-linejoin="round" stroke-width="2" rx="6"/><path stroke="#000" stroke-linejoin="round" stroke-width="2" d="M12 43a6 6 0 1 0 0-12 6 6 0 0 0 0 12ZM36 43a6 6 0 1 0 0-12 6 6 0 0 0 0 12Z"/><path stroke="#000" stroke-linecap="round" stroke-linejoin="round" stroke-width="2" d="M30 21a6 6 0 0 0-12 0M30 31a6 6 0 0 0-12 0"/></svg>