<svg fill-opacity="1" stroke-opacity="1" xmlns="http://www.w3.org/2000/svg" width="48" height="48" fill="none" viewBox="0 0 48 48"><path stroke="#000" stroke-linecap="round" stroke-linejoin="round" stroke-width="2" d="M40 16.398V6a2 2 0 0 0-2-2H10a2 2 0 0 0-2 2v36a2 2 0 0 0 2 2h10"/><path stroke="#000" stroke-linecap="round" stroke-width="2" d="M16 14h13M16 21h5"/><path stroke="#000" stroke-linecap="round" stroke-linejoin="round" stroke-width="2" d="M34 44c-5.523 0-10-4.477-10-10s4.477-10 10-10 10 4.477 10 10-4.477 10-10 10"/><path stroke="#000" stroke-linecap="round" stroke-width="2" d="m27 27 14 14"/><path stroke="#000" stroke-linecap="round" stroke-linejoin="round" stroke-width="2" d="M24 34c0-5.523 4.477-10 10-10M34 44c5.523 0 10-4.477 10-10"/></svg>