<svg fill-opacity="1" stroke-opacity="1" xmlns="http://www.w3.org/2000/svg" width="48" height="48" fill="none" viewBox="0 0 48 48"><path stroke="#000" stroke-linecap="round" stroke-width="2" d="M19.6 34.5h8.8"/><path stroke="#000" stroke-linecap="round" stroke-linejoin="round" stroke-width="2" d="M2.303 27.39 9.958 9.563 14.949 7M45.805 27.633 38.05 9.562 33.059 7"/><path stroke="#000" stroke-width="2" d="M3.4 26.8h15.317a1.294 1.294 0 0 1 1.29 1.396l-.927 11.712a1.294 1.294 0 0 1-1.29 1.192H4.328a1.294 1.294 0 0 1-1.29-1.192l-.927-11.712A1.294 1.294 0 0 1 3.4 26.8ZM29.284 26.8H44.6a1.294 1.294 0 0 1 1.29 1.396l-.928 11.712a1.294 1.294 0 0 1-1.29 1.192H30.212a1.294 1.294 0 0 1-1.29-1.192l-.928-11.712a1.294 1.294 0 0 1 1.29-1.396Z" clip-rule="evenodd"/></svg>