<svg fill-opacity="1" stroke-opacity="1" xmlns="http://www.w3.org/2000/svg" width="48" height="48" fill="none" viewBox="0 0 48 48"><path stroke="#000" stroke-linecap="round" stroke-linejoin="round" stroke-width="2" d="M30 30c3 0 5 1.88 5 4h6V4h-6c0 2-2 4-5 4s-5-2-5-4h-6v14"/><path stroke="#000" stroke-linecap="round" stroke-linejoin="round" stroke-width="2" d="M30 44h-6c0-2.12-2-4-5-4s-5 1.88-5 4H8V14h6c0 2 2 4 5 4s5-2 5-4h6z"/><circle cx="14" cy="24" r="2" fill="#000"/><circle cx="19" cy="24" r="2" fill="#000"/><circle cx="24" cy="24" r="2" fill="#000"/></svg>