<svg fill-opacity="1" stroke-opacity="1" xmlns="http://www.w3.org/2000/svg" width="48" height="48" fill="none" viewBox="0 0 48 48"><path stroke="#000" stroke-linejoin="round" stroke-width="2" d="M21.358 19.14q-8.833-.426-12.28 6.298c-3.446 6.725-.598 17.729 10.9 17.729 11.5 0 11.832-11.112 11.832-12.276V17.875q3.69 2.336 6.22 2.813 2.533.476 3.22.422v-6.476q-2.342-.282-4.05-1.076c-1.709-.794-5.096-2.997-5.096-6.226q.003.024 0-2.499h-7.118q-.031 23.724 0 26.058c.031 2.334-1.78 5.6-5.45 5.6-3.672 0-5.483-3.263-5.483-5.367 0-1.288.443-3.155 2.272-4.538 1.085-.82 2.59-1.148 5.033-1.148z"/></svg>