<svg fill-opacity="1" stroke-opacity="1" xmlns="http://www.w3.org/2000/svg" width="48" height="48" fill="none" viewBox="0 0 48 48"><g stroke="#000" stroke-width="2" clip-path="url(#a)"><path stroke-linejoin="round" d="M13 12a4 4 0 1 0 8 0 4 4 0 0 0-8 0ZM31 24a4 4 0 1 0 8 0 4 4 0 0 0-8 0ZM13 36a4 4 0 1 0 8 0 4 4 0 0 0-8 0Z"/><path stroke-linecap="round" d="M4 36h9M21 36h23M4 12h9M21 12h23"/><path stroke-linecap="round" stroke-linejoin="round" d="M4 4v40"/><path stroke-linecap="round" d="M4 24h27M39 24h5"/></g><defs><clipPath id="a"><path fill="#000" d="M0 0h48v48H0z"/></clipPath></defs></svg>