<svg fill-opacity="1" stroke-opacity="1" xmlns="http://www.w3.org/2000/svg" width="48" height="48" fill="none" viewBox="0 0 48 48"><path stroke="#000" stroke-linecap="round" stroke-linejoin="round" stroke-width="2" d="M8 25v13a3 3 0 0 0 3 3h26a3 3 0 0 0 3-3V25"/><path stroke="#000" stroke-linejoin="round" stroke-width="2" d="M5 15a2 2 0 0 1 2-2h34a2 2 0 0 1 2 2v8a2 2 0 0 1-2 2H7a2 2 0 0 1-2-2z"/><path stroke="#000" stroke-linecap="round" stroke-linejoin="round" stroke-width="2" d="M31 13V9a2 2 0 0 0-2-2H19a2 2 0 0 0-2 2v4M15 23v6M33 23v6"/></svg>