<svg fill-opacity="1" stroke-opacity="1" xmlns="http://www.w3.org/2000/svg" width="48" height="48" fill="none" viewBox="0 0 48 48"><path stroke="#000" stroke-linejoin="round" stroke-width="2" d="m18.905 18.168-8.58-1.824a1.03 1.03 0 0 1-.794-1.224l1.931-9.087a1.03 1.03 0 0 1 1.225-.795l29.28 6.223c.558.119.914.667.796 1.225l-1.932 9.087a1.03 1.03 0 0 1-1.224.795l-8.506-1.808q-.581-.123-.69.385l-3.97 18.676a1.03 1.03 0 0 1-1.223.795l-9.088-1.931a1.03 1.03 0 0 1-.795-1.225l3.971-18.681q.107-.503-.4-.611Z"/></svg>