<svg fill-opacity="1" stroke-opacity="1" xmlns="http://www.w3.org/2000/svg" width="48" height="48" fill="none" viewBox="0 0 48 48"><path stroke="#000" stroke-linejoin="round" stroke-width="2" d="M9 23h30v11a2 2 0 0 1-2 2H11a2 2 0 0 1-2-2zM9 8a2 2 0 0 1 2-2h26a2 2 0 0 1 2 2v15H9z"/><path stroke="#000" stroke-linecap="round" stroke-linejoin="round" stroke-width="2" d="M15 42a3 3 0 0 1-3-3v-3h6v3a3 3 0 0 1-3 3M33 42a3 3 0 0 1-3-3v-3h6v3a3 3 0 0 1-3 3"/><path stroke="#000" stroke-linecap="round" stroke-width="2" d="M6 12v4M42 12v4"/><circle cx="15" cy="30" r="2" fill="#000"/><circle cx="33" cy="30" r="2" fill="#000"/><path stroke="#000" stroke-linecap="round" stroke-width="2" d="m31 6-9 10M38 7l-5 6"/></svg>