<svg fill-opacity="1" stroke-opacity="1" xmlns="http://www.w3.org/2000/svg" width="48" height="48" fill="none" viewBox="0 0 48 48"><path stroke="#000" stroke-linejoin="round" stroke-width="2" d="M24 43h5.955q.124-4.106 1.204-4.515C38.669 35.635 44 28.434 44 20H4c0 8.251 5.103 15.323 12.357 18.294q1.137.466 1.699 4.706z" clip-rule="evenodd"/><path stroke="#000" stroke-linecap="round" stroke-width="2" d="M14.443 27.023q.54 1.78 1.427 2.942a11.3 11.3 0 0 0 2.14 2.104M25.214 20.026a3301 3301 0 0 0 6.622-13.708c1.05-2.21 3.18-2.742 5.145-1.902s2.76 3.242 1.935 4.917q-.765 1.552-5.19 10.671"/></svg>