<svg fill-opacity="1" stroke-opacity="1" xmlns="http://www.w3.org/2000/svg" width="48" height="48" fill="none" viewBox="0 0 48 48"><path stroke="#000" stroke-linejoin="round" stroke-width="2" d="M9 8.84c0-.933.438-1.807 1.271-2.225C12.247 5.625 16.613 4 24 4s11.754 1.625 13.728 2.615C38.563 7.033 39 7.907 39 8.839V36a2 2 0 0 1-2 2H11a2 2 0 0 1-2-2z"/><path stroke="#000" stroke-linecap="round" stroke-linejoin="round" stroke-width="2" d="M34 38v4M14 38v4"/><path fill="#000" stroke="#000" d="M20.5 32a1.5 1.5 0 1 1-3 0 1.5 1.5 0 0 1 3 0ZM30.5 32a1.5 1.5 0 1 1-3 0 1.5 1.5 0 0 1 3 0Z"/><path stroke="#000" stroke-linecap="round" stroke-linejoin="round" stroke-width="2" d="M20 44h8"/><path stroke="#000" stroke-linejoin="round" stroke-width="2" d="M9 12h30v14H9z"/><path stroke="#000" stroke-linecap="round" stroke-linejoin="round" stroke-width="2" d="M24 12v14M20 12h8M20 26h8"/></svg>