<svg fill-opacity="1" stroke-opacity="1" xmlns="http://www.w3.org/2000/svg" width="48" height="48" fill="none" viewBox="0 0 48 48"><path stroke="#000" stroke-linecap="round" stroke-linejoin="round" stroke-width="2" d="M37 28.392v7.015C37 39.048 34.089 42 30.497 42s-6.503-2.952-6.503-6.593l.012-22.264C24.006 9.198 21.095 6 17.503 6S11 9.198 11 13.143v15.25"/><path stroke="#000" stroke-linecap="round" stroke-linejoin="round" stroke-width="2" d="m43 31-6-6-6 6M43 10.727C43 15.182 37 19 37 19s-6-3.818-6-8.273c0-1.519.632-2.975 1.757-4.05A6.15 6.15 0 0 1 37 5c1.591 0 3.117.603 4.243 1.677A5.6 5.6 0 0 1 43 10.727M17 34.727C17 39.182 11 43 11 43s-6-3.818-6-8.273c0-1.519.632-2.975 1.757-4.05A6.15 6.15 0 0 1 11 29c1.591 0 3.117.603 4.243 1.677A5.6 5.6 0 0 1 17 34.728"/><circle cx="37" cy="11" r="2" fill="#000"/><circle cx="11" cy="35" r="2" fill="#000"/></svg>