<svg fill-opacity="1" stroke-opacity="1" xmlns="http://www.w3.org/2000/svg" width="48" height="48" fill="none" viewBox="0 0 48 48"><rect width="28" height="18" x="16" y="12" stroke="#000" stroke-linejoin="round" stroke-width="2" rx="3"/><path stroke="#000" stroke-linecap="round" stroke-width="2" d="M24 18v6M36 18v6"/><path stroke="#000" stroke-linecap="round" stroke-linejoin="round" stroke-width="2" d="M36 12V6H24v6M44 36H12a2 2 0 0 1-2-2V11a2 2 0 0 0-2-2H4M19 42a3 3 0 0 1-3-3v-3h6v3a3 3 0 0 1-3 3M37 42a3 3 0 0 1-3-3v-3h6v3a3 3 0 0 1-3 3"/></svg>