<svg fill-opacity="1" stroke-opacity="1" xmlns="http://www.w3.org/2000/svg" width="48" height="48" fill="none" viewBox="0 0 48 48"><path stroke="#000" stroke-linecap="round" stroke-linejoin="round" stroke-width="2" d="M44 44 4 4v40z"/><path d="M13 35h12L13 23z" clip-rule="evenodd"/><path d="M13 35h12L13 23z" clip-rule="evenodd"/><path d="M13 35h12L13 23z" clip-rule="evenodd"/><path d="M13 35h12L13 23z" clip-rule="evenodd"/><path stroke="#000" stroke-linecap="round" stroke-linejoin="round" stroke-width="2" d="M13 35h12L13 23z" clip-rule="evenodd"/><path stroke="#000" stroke-linecap="round" stroke-linejoin="round" stroke-width="2" d="M13 35h12L13 23z" clip-rule="evenodd"/><path stroke="#000" stroke-linecap="round" stroke-linejoin="round" stroke-width="2" d="M13 35h12L13 23z" clip-rule="evenodd"/><path stroke="#000" stroke-linecap="round" stroke-linejoin="round" stroke-width="2" d="M13 35h12L13 23z" clip-rule="evenodd"/><path stroke="#000" stroke-linecap="round" stroke-linejoin="round" stroke-width="2" d="M30 44v-3M24 44v-3M18 44v-3M12 44v-3M4 36h3M4 30h3M4 24h3M4 18h3"/></svg>