<svg fill-opacity="1" stroke-opacity="1" xmlns="http://www.w3.org/2000/svg" width="48" height="48" fill="none" viewBox="0 0 48 48"><path stroke="#000" stroke-width="2" d="M32 28h6v11a3 3 0 1 1-6 0z"/><path stroke="#000" stroke-linecap="round" stroke-width="2" d="M29 12h10a3 3 0 0 1 3 3v10a3 3 0 0 1-3 3H28"/><path stroke="#000" stroke-linejoin="round" stroke-width="2" d="M14 14h-2a6 6 0 0 0 0 12h2"/><path stroke="#000" stroke-width="2" d="M14.198 33a.2.2 0 0 1-.198-.198V6.198c0-.11.089-.198.198-.198H17.5C24.956 6 31 12.044 31 19.5S24.956 33 17.5 33z"/></svg>