<svg fill-opacity="1" stroke-opacity="1" xmlns="http://www.w3.org/2000/svg" width="48" height="48" fill="none" viewBox="0 0 48 48"><path stroke="#000" stroke-linecap="round" stroke-linejoin="round" stroke-width="2" d="M4 36h40l-5 8H9zM11 30v6h26v-5c0-6-3-8-3-8 2-2.5 3-6 0-8s-5.5 0-7 2c0 0-16-2-16 13"/><path stroke="#000" stroke-linecap="round" stroke-width="2" d="M21 24s-1 .5-2 2-1 3-1 3"/><path stroke="#000" stroke-width="2" d="m39 9-5 6"/><circle cx="38.356" cy="7.483" r="2.5" fill="#000" transform="rotate(35.072 38.356 7.483)"/><circle cx="40.811" cy="9.206" r="2.5" fill="#000" transform="rotate(35.072 40.81 9.206)"/></svg>