<svg fill-opacity="1" stroke-opacity="1" xmlns="http://www.w3.org/2000/svg" width="48" height="48" fill="none" viewBox="0 0 48 48"><path stroke="#000" stroke-linecap="round" stroke-linejoin="round" stroke-width="2" d="M21 43c-4.726-1.767-8.667-7.815-10.64-11.357-.852-1.53-.403-3.408.964-4.502a3.83 3.83 0 0 1 5.1.283L18 29V17.5a2.5 2.5 0 0 1 5 0v6a2.5 2.5 0 0 1 5 0v2a2.5 2.5 0 0 1 5 0v2a2.5 2.5 0 0 1 5 0v7.868c0 1.07-.265 2.128-.882 3.003C36.095 39.82 34.256 42.034 32 43c-3.5 1.5-6.63 1.634-11 0M12 9l3 3M19 4l1 6M27 8l-2 3"/></svg>