<svg fill-opacity="1" stroke-opacity="1" xmlns="http://www.w3.org/2000/svg" width="48" height="48" fill="none" viewBox="0 0 48 48"><path stroke="#000" stroke-linecap="round" stroke-linejoin="round" stroke-width="2" d="m11 40-4.107-8.898a5 5 0 0 1 1.996-6.4l5.541-3.274a3 3 0 0 1 3.116.038l.687.43a1 1 0 0 0 1.524-.965L18.148 7.26a2.62 2.62 0 0 1 .748-2.155 1.744 1.744 0 0 1 2.323-.129l.378.302a3 3 0 0 1 1.087 1.865l2.239 13.88a.568.568 0 0 0 1.127-.036l1.328-13.724a3 3 0 0 1 1.112-2.054l.206-.165a1.865 1.865 0 0 1 2.484.138c.525.524.82 1.236.82 1.978v22.26a1 1 0 0 0 1.624.782L37 27.5c1.653-1.322 3.875-.459 5.255.445.439.287.504.881.192 1.303L34.5 40S31 44 23 44s-11.333-2.667-12-4"/></svg>