<svg fill-opacity="1" stroke-opacity="1" xmlns="http://www.w3.org/2000/svg" width="48" height="48" fill="none" viewBox="0 0 48 48"><path stroke="#000" stroke-linecap="round" stroke-width="2" d="M12.566 27.182Q10 28.941 10 33c0 4.06 4.975 11 9.462 11h11.48C35.332 44 38 40.15 38 37.06V24.01a3 3 0 0 0-3-3h-.01A2.99 2.99 0 0 0 32 24"/><path stroke="#000" stroke-linecap="round" stroke-width="2" d="M13.981 29.445v-18.44a3 3 0 0 1 3.006-2.997 3.014 3.014 0 0 1 3.006 3.015v13.569"/><path stroke="#000" stroke-linecap="round" stroke-linejoin="round" stroke-width="2" d="M19.993 24.008V7.015a3.016 3.016 0 0 1 6.03 0v16.993"/><path stroke="#000" stroke-linecap="round" stroke-linejoin="round" stroke-width="2" d="M26 23.716v-2.713a3 3 0 0 1 6 0v3"/></svg>