<svg fill-opacity="1" stroke-opacity="1" xmlns="http://www.w3.org/2000/svg" width="48" height="48" fill="none" viewBox="0 0 48 48"><path stroke="#000" stroke-linecap="round" stroke-linejoin="round" stroke-width="2" d="M4 12a2 2 0 0 1 2-2h36a2 2 0 0 1 2 2v24a2 2 0 0 1-2 2H6a2 2 0 0 1-2-2z"/><path stroke="#000" stroke-linecap="round" stroke-linejoin="round" stroke-width="2" d="M15.414 32.586A2 2 0 0 1 16.828 32H30.26a2 2 0 0 1 1.302.481L38 38H10zM39 38H9"/><circle cx="15" cy="21" r="4" stroke="#000" stroke-linecap="round" stroke-linejoin="round" stroke-width="2"/><circle cx="33" cy="21" r="4" stroke="#000" stroke-linecap="round" stroke-linejoin="round" stroke-width="2"/><path stroke="#000" stroke-linecap="round" stroke-linejoin="round" stroke-width="2" d="M15 25h18M15 17h18"/></svg>