<svg fill-opacity="1" stroke-opacity="1" xmlns="http://www.w3.org/2000/svg" width="48" height="48" fill="none" viewBox="0 0 48 48"><path stroke="#000" stroke-linejoin="round" stroke-width="2" d="M14 18a7 7 0 1 0 0-14 7 7 0 0 0 0 14ZM34 18a7 7 0 1 0 0-14 7 7 0 0 0 0 14Z"/><path stroke="#000" stroke-linecap="round" stroke-linejoin="round" stroke-width="2" d="M4 44v-9c0-5.523 3.77-10 8.421-10h5.053C21.559 25 24 29.027 24 29.027"/><path stroke="#000" stroke-linecap="round" stroke-linejoin="round" stroke-width="2" d="M44 44v-9c0-5.523-3.815-10-8.521-10h-5.113c-3.961 0-6.374 4.027-6.366 4.027M11 40h27"/><path stroke="#000" stroke-linecap="round" stroke-linejoin="round" stroke-width="2" d="m34.295 36.258 1.24 1.247L38.015 40l-2.48 2.561-1.24 1.281M14.33 36.232l-1.26 1.254-2.518 2.507 2.518 2.548 1.26 1.275"/></svg>