<svg fill-opacity="1" stroke-opacity="1" xmlns="http://www.w3.org/2000/svg" width="48" height="48" fill="none" viewBox="0 0 48 48"><path stroke="#000" stroke-width="2" d="M32 18c-.923 6-3 11.5-7.5 11.5s-6-5-7.5-11.5 0-12 7.5-12 8.423 6 7.5 12Z"/><path stroke="#000" stroke-linecap="round" stroke-width="2" d="M32.5 12.5c1.75-1.632 3.533-2.17 6.34-1.996 4.212.262 5.16 3.144 5.16 7.452m0 0c0 4.309-1.651 8.227-4.941 7.34-3.29-.886-2.83-4.386-1.291-6.027 1.538-1.641 4.23-2.31 6.232-1.313ZM16.5 12c-1.77-1.544-3.86-1.67-6.413-1.495C6.257 10.767 4 13.692 4 18m0 0c0 4.308 2.897 8.182 5.888 7.296s2.574-4.387 1.175-6.028C9.663 17.63 5.82 17.003 4 18.001Z"/><path stroke="#000" stroke-linecap="round" stroke-linejoin="round" stroke-width="2" d="M20 27v16M29 27v16"/></svg>