<svg fill-opacity="1" stroke-opacity="1" xmlns="http://www.w3.org/2000/svg" width="48" height="48" fill="none" viewBox="0 0 48 48"><path stroke="#000" stroke-linecap="round" stroke-linejoin="round" stroke-width="2" d="m11 14.999-6 1c1.63-7.514 6.364-9.993 11-10 2.997-.005 5.952 1.026 8 2 2.048-.974 5-2 8-2 4.611 0 9.37 2.486 11 10l-6-1c.559 2.1 1.788 5.792 0 9-2.98-2.673-9.87-6.709-13-9-3.13 2.291-10.02 6.327-13 9-1.788-3.207-.559-6.9 0-9"/><path stroke="#000" stroke-linecap="round" stroke-linejoin="round" stroke-width="2" d="M24 15c-.755 3.889-1.811 13.533 0 21"/><path stroke="#000" stroke-linecap="round" stroke-linejoin="round" stroke-width="2" d="M12 42h24c-4.787-4.585-7-5.995-12-6s-10.108 3.382-12 6"/></svg>