<svg fill-opacity="1" stroke-opacity="1" xmlns="http://www.w3.org/2000/svg" width="48" height="48" fill="none" viewBox="0 0 48 48"><path stroke="#000" stroke-linecap="round" stroke-linejoin="round" stroke-width="2" d="M10 14H7.378a3 3 0 0 0-2.98 3.354L7.12 40.236A2 2 0 0 0 9.105 42h30.368a2 2 0 0 0 1.991-1.807l2.218-22.904A3 3 0 0 0 40.696 14H38M5 22h38M15 29h18M17 36h14"/><path stroke="#000" stroke-linecap="round" stroke-linejoin="round" stroke-width="2" d="M24 6c-4.418 0-8 6.925-8 15.467q0 .267.005.533h15.99q.005-.266.005-.533C32 12.925 28.418 6 24 6"/></svg>