<svg fill-opacity="1" stroke-opacity="1" xmlns="http://www.w3.org/2000/svg" width="48" height="48" fill="none" viewBox="0 0 48 48"><g stroke="#000" stroke-linejoin="round" stroke-width="2" clip-path="url(#a)"><path d="M4 31c0-6.5 4-8.963 7-9.981S16 20 19 17s3-9 9-11 13.091 1 15 8c1.908 7-3.5 16-6 19s-7.501 8-16 9c-8.5 1-17-4.5-17-11Z"/><path stroke-linecap="round" d="M12 21.044c7 8.956 17 0 10-9.044"/><path stroke-linecap="round" d="M11 21.019C14 20 16 20 19 17s3-9 9-11"/></g><defs><clipPath id="a"><path fill="#000" d="M0 0h48v48H0z"/></clipPath></defs></svg>