<svg fill-opacity="1" stroke-opacity="1" xmlns="http://www.w3.org/2000/svg" width="48" height="48" fill="none" viewBox="0 0 48 48"><path stroke="#000" stroke-linejoin="round" stroke-width="2" d="M4 10a2 2 0 0 1 2-2h36a2 2 0 0 1 2 2v28a2 2 0 0 1-2 2H6a2 2 0 0 1-2-2z"/><path stroke="#000" stroke-linecap="round" stroke-linejoin="round" stroke-width="2" d="M36 8v32M12 8v32M38 18h6M38 30h6M4 18h6M4 16v4M9 8h6M9 40h6M33 8h6M33 40h6M4 30h6M4 28v4M44 28v4M44 16v4"/><path stroke="#000" stroke-linejoin="round" stroke-width="2" d="m21 19 8 5-8 5z"/></svg>