<svg fill-opacity="1" stroke-opacity="1" xmlns="http://www.w3.org/2000/svg" width="48" height="48" fill="none" viewBox="0 0 48 48"><path stroke="#000" stroke-linejoin="round" stroke-width="2" d="M24 44.125c9.527 0 17.25-7.616 17.25-17.01 0-2.306-.315-4.5-.99-6.591-.39-1.207-.704-1.783-1.167-2.894s-1.079-2.05-1.78-2.993c-.7-.943-2.067-2.798-3.012-3.17 0 1.461-2.873 6.568-3.975 6.824-1.103.257.815-5.369-1.628-9.217S22.305 2.7 22.305 4.43s-1.093 4.632-2.194 6.072c-1.1 1.439-2.886 2.675-4.13 3.256s-.793-2.908-1.726-2.292c-.94.621-2.278 2.351-2.98 3.437-2.462 3.801-4.525 7.515-4.525 12.212 0 9.394 7.723 17.01 17.25 17.01Z"/><path fill="#000" stroke="#000" stroke-linejoin="round" stroke-width="2" d="M19.296 23.733v8.737a1.878 1.878 0 0 0 2.863 1.599l8.385-5.169a.94.94 0 0 0 0-1.598l-8.385-5.168a1.878 1.878 0 0 0-2.863 1.599Z"/></svg>