<svg fill-opacity="1" stroke-opacity="1" xmlns="http://www.w3.org/2000/svg" width="48" height="48" fill="none" viewBox="0 0 48 48"><path stroke="#000" stroke-linecap="round" stroke-linejoin="round" stroke-width="2" d="M30 17c4 0 11.088-.112 11.959 6.64C42.417 27.192 39.238 32.674 24 43"/><path fill="#000" d="M16 11a2 2 0 1 0 4 0zM4 11a2 2 0 1 0 4 0zm4 0a4 4 0 0 1 4-4V3a8 8 0 0 0-8 8zm4-4a4 4 0 0 1 4 4h4a8 8 0 0 0-8-8z"/><path fill="#000" d="M28 11a2 2 0 1 0 4 0zm-12 0a2 2 0 1 0 4 0zm4 0a4 4 0 0 1 4-4V3a8 8 0 0 0-8 8zm4-4a4 4 0 0 1 4 4h4a8 8 0 0 0-8-8z"/><path stroke="#000" stroke-linecap="round" stroke-linejoin="round" stroke-width="2" d="M6 11v18M18 11v18"/><path stroke="#000" stroke-linecap="round" stroke-width="2" d="M30 11v18c0 5 2.5 10 12 10"/></svg>