<svg fill-opacity="1" stroke-opacity="1" xmlns="http://www.w3.org/2000/svg" width="48" height="48" fill="none" viewBox="0 0 48 48"><path stroke="#000" stroke-linejoin="round" stroke-width="2" d="M5 16h38a1 1 0 0 1 1 1v22a1 1 0 0 1-1 1H30l-5.992-5.999L18 40H5a1 1 0 0 1-1-1V17a1 1 0 0 1 1-1Z"/><path stroke="#000" stroke-linecap="round" stroke-linejoin="round" stroke-width="2" d="M14 32a4 4 0 1 0 0-8 4 4 0 0 0 0 8M34 32a4 4 0 1 0 0-8 4 4 0 0 0 0 8"/><path d="M6 10h36z" clip-rule="evenodd"/><path stroke="#000" stroke-linecap="round" stroke-linejoin="round" stroke-width="2" d="M6 10h36"/></svg>