<svg fill-opacity="1" stroke-opacity="1" xmlns="http://www.w3.org/2000/svg" width="48" height="48" fill="none" viewBox="0 0 48 48"><path stroke="#000" stroke-linejoin="round" stroke-width="2" d="M24 44c11.046 0 20-8.954 20-20S35.046 4 24 4 4 12.954 4 24s8.954 20 20 20Z"/><path fill="#000" d="M17 25.9a2 2 0 1 0 0-4 2 2 0 0 0 0 4"/><path stroke="#000" stroke-linecap="round" stroke-linejoin="round" stroke-width="2" d="M21.95 28.85A6.98 6.98 0 0 0 24 23.9a6.98 6.98 0 0 0-2.05-4.95M26.9 33.799a13.96 13.96 0 0 0 4.1-9.9c0-3.866-1.567-7.366-4.1-9.899"/></svg>