<svg fill-opacity="1" stroke-opacity="1" xmlns="http://www.w3.org/2000/svg" width="48" height="48" fill="none" viewBox="0 0 48 48"><path stroke="#000" stroke-width="2" d="M24 44c11.046 0 20-8.954 20-20S35.046 4 24 4 4 12.954 4 24s8.954 20 20 20Z"/><path stroke="#000" stroke-linecap="round" stroke-linejoin="round" stroke-width="2" d="m7 14 9 23 6-11h4l6 11 9-23"/><path stroke="#000" stroke-linecap="round" stroke-linejoin="round" stroke-width="2" d="m16 6 6 13h4l6-13"/><path stroke="#000" stroke-linecap="round" stroke-width="2" d="M44 24a19.95 19.95 0 0 0-6.77-15A19.92 19.92 0 0 0 24 4a19.92 19.92 0 0 0-13.23 5A19.95 19.95 0 0 0 4 24"/></svg>