<svg fill-opacity="1" stroke-opacity="1" xmlns="http://www.w3.org/2000/svg" width="48" height="48" fill="none" viewBox="0 0 48 48"><path stroke="#000" stroke-linejoin="round" stroke-miterlimit="2" stroke-width="2" d="M31.81 42.405c10.168-4.318 14.907-16.056 10.598-26.213C38.098 6.035 26.351 1.276 16.193 5.595S1.276 21.65 5.595 31.808 21.652 46.724 31.81 42.405Z"/><path stroke="#000" stroke-linecap="round" stroke-linejoin="round" stroke-miterlimit="2" stroke-width="2" d="M16 6c-1.494 7.01 1.937 14.197 8 18M12 40c6.97-2.26 11.74-8.68 12-16M44 25c-5.45-4.672-14.5-4.597-20-1"/><path stroke="#000" stroke-linejoin="round" stroke-miterlimit="2" stroke-width="2" d="M17 16s11.56-8.49 24-2M20 33S7.59 28.02 7 14M34 22s1.56 14.5-10.28 22.03"/></svg>