<svg fill-opacity="1" stroke-opacity="1" xmlns="http://www.w3.org/2000/svg" width="48" height="48" fill="none" viewBox="0 0 48 48"><path stroke="#000" stroke-linejoin="round" stroke-width="2" d="M24 6v36c-7 0-12.201-9.16-12.201-9.16H6a2 2 0 0 1-2-2V17.01a2 2 0 0 1 2-2h5.799S17 6 24 6Z"/><path stroke="#000" stroke-linecap="round" stroke-linejoin="round" stroke-width="2" d="M32 15a12 12 0 0 1 1.684 1.859A12.07 12.07 0 0 1 36 24c0 2.654-.846 5.107-2.278 7.09-.505.698-1.083 1.34-1.722 1.91"/><path stroke="#000" stroke-linecap="round" stroke-width="2" d="M34.236 41.186C40.084 37.696 44 31.305 44 24c0-7.192-3.796-13.496-9.493-17.02"/></svg>