<svg fill-opacity="1" stroke-opacity="1" xmlns="http://www.w3.org/2000/svg" width="48" height="48" fill="none" viewBox="0 0 48 48"><path stroke="#000" stroke-linecap="round" stroke-linejoin="round" stroke-width="2" d="M34.956 31 31 44H17l-3.956-13M13.044 17 17 4h14l3.956 13"/><path stroke="#000" stroke-linecap="round" stroke-linejoin="round" stroke-width="2" d="M37 24c0 2.577-.75 4.98-2.044 7A12.99 12.99 0 0 1 24 37a12.99 12.99 0 0 1-10.956-6A12.94 12.94 0 0 1 11 24c0-2.577.75-4.98 2.044-7A12.99 12.99 0 0 1 24 11a12.99 12.99 0 0 1 10.956 6A12.94 12.94 0 0 1 37 24"/><path stroke="#000" stroke-linecap="round" stroke-linejoin="round" stroke-width="2" d="M24 17v7l4 4"/></svg>