<svg fill-opacity="1" stroke-opacity="1" xmlns="http://www.w3.org/2000/svg" width="48" height="48" fill="none" viewBox="0 0 48 48"><path stroke="#000" stroke-linecap="round" stroke-linejoin="round" stroke-miterlimit="2" stroke-width="2" d="m4 35 2.5 1.351c1.6.865 3.4.865 5 0 1.6-.864 3.4-.864 5 0 1.6.865 3.4.865 5 0 1.6-.864 3.4-.864 5 0 1.6.865 3.4.865 5 0 1.6-.864 3.4-.864 5 0 1.6.865 3.4.865 5 0L44 35M4 41l2.5 1.351c1.6.865 3.4.865 5 0 1.6-.864 3.4-.864 5 0 1.6.865 3.4.865 5 0 1.6-.864 3.4-.864 5 0 1.6.865 3.4.865 5 0 1.6-.864 3.4-.864 5 0 1.6.865 3.4.865 5 0L44 41"/><path stroke="#000" stroke-miterlimit="2" stroke-width="2" d="M25 18a5 5 0 1 0 0-10 5 5 0 0 0 0 10Z"/><path stroke="#000" stroke-linecap="round" stroke-linejoin="round" stroke-miterlimit="2" stroke-width="2" d="m25 29-1-4M4 11l7 11 13 2.93h18"/><path fill="#000" d="M11 10a3 3 0 1 0 0-6 3 3 0 0 0 0 6"/></svg>