<svg fill-opacity="1" stroke-opacity="1" xmlns="http://www.w3.org/2000/svg" width="48" height="48" fill="none" viewBox="0 0 48 48"><path stroke="#000" stroke-linecap="round" stroke-linejoin="round" stroke-miterlimit="2" stroke-width="2" d="m4 34 2.5 1.351c1.6.865 3.4.865 5 0 1.6-.864 3.4-.864 5 0 1.6.865 3.4.865 5 0 1.6-.864 3.4-.864 5 0 1.6.865 3.4.865 5 0 1.6-.864 3.4-.864 5 0 1.6.865 3.4.865 5 0L44 34M4 40l2.5 1.351c1.6.865 3.4.865 5 0 1.6-.864 3.4-.864 5 0 1.6.865 3.4.865 5 0 1.6-.864 3.4-.864 5 0 1.6.865 3.4.865 5 0 1.6-.864 3.4-.864 5 0 1.6.865 3.4.865 5 0L44 40M43.588 28c.79-3.829.46-7.938-1.19-11.807C38.089 6.026 26.343 1.277 16.186 5.596 7.29 9.375 2.55 18.833 4.39 27.94"/><path stroke="#000" stroke-linecap="round" stroke-linejoin="round" stroke-miterlimit="2" stroke-width="2" d="M16 6c-1.53 7.17 1.79 14.11 8 18M23.39 28c.35-1.29.56-2.63.61-4M44 26c-5.45-4.91-13.53-5.44-20-2"/><path stroke="#000" stroke-linecap="round" stroke-linejoin="round" stroke-miterlimit="2" stroke-width="2" d="M18 16s10.56-8.49 23-2M13 28c-2.99-3.27-5.74-7.71-6-14M34.31 22.09s.22 2.5-.38 5.95"/></svg>