<svg fill-opacity="1" stroke-opacity="1" xmlns="http://www.w3.org/2000/svg" width="48" height="48" fill="none" viewBox="0 0 48 48"><path stroke="#000" stroke-linejoin="round" stroke-width="2" d="M12.562 16.41c-3.344 3.25-10.399 12.736-5.2 19.522 5.2 6.785 19.92 4.168 25.997-.613 6.077-4.78 5.477-7.734 4.16-9.036s-5.163.014-6.24-1.757 1.917-6.195-.634-7.595c-2.55-1.4-6.954 3.65-8.943 2.338-1.99-1.312 2.189-5.596 0-6.83-2.19-1.235-5.796.722-9.14 3.972Z"/><path stroke="#000" stroke-linecap="round" stroke-width="2" d="M43.379 16.516a12.95 12.95 0 0 0-3.642-8.073 12.96 12.96 0 0 0-7.723-3.84M37.292 16.931c-.13-1.64-.867-3.117-2-4.228a7.25 7.25 0 0 0-4.24-2.01"/><path fill="#000" d="M25 30c0 2.21-2.686 4-6 4s-6-1.79-6-4 2.686-4 6-4 6 1.79 6 4"/></svg>