<svg fill-opacity="1" stroke-opacity="1" xmlns="http://www.w3.org/2000/svg" width="48" height="48" fill="none" viewBox="0 0 48 48"><path stroke="#000" stroke-linecap="round" stroke-linejoin="round" stroke-width="2" d="M16.07 13c-9.817.35-11.394 8.006-10.956 11.791-1.753 3.145-1.218 3.93.096 5.24 6.574 6.115 18.843 5.678 24.54 3.495 5.96-2.446 8.999-7.051 9.29-9.526 5.26-3.494 5.366-9.399 4.636-11-.78 1.31-3.029 2.272-4.635 3-1.753.35-4.275-.962-5.005-2.127-.502 2.627 0 4.627 1.314 5.678 2.288 1.747 1.125 3.512.687 3.949-1.896 1.89-5.506.99-7.26-1.766C24.053 14.31 18.991 13 16.07 13"/><path stroke="#000" stroke-linecap="round" stroke-linejoin="round" stroke-width="2" d="M5 28c2.833.532 8.4 1.554 12-1"/><circle cx="12" cy="20" r="2" fill="#000"/></svg>