<svg fill-opacity="1" stroke-opacity="1" xmlns="http://www.w3.org/2000/svg" width="48" height="48" fill="none" viewBox="0 0 48 48"><path stroke="#000" stroke-linecap="round" stroke-linejoin="round" stroke-width="2" d="M34.518 13.846 34 11l-6.87-3.435a7 7 0 0 0-6.26 0L17.38 9.31m18.31 10.996L37 27.5 39.09 39M36 44H8l.956-5.258m1.68-9.242 2.936-16.145"/><path stroke="#000" stroke-linejoin="round" stroke-width="2" d="M39.293 8.707a1 1 0 0 1 1.414 0l2.586 2.586a1 1 0 0 1 0 1.414l-8.586 8.586a1 1 0 0 1-1.414 0l-2.586-2.586a1 1 0 0 1 0-1.414z"/><path stroke="#000" stroke-linecap="round" stroke-linejoin="round" stroke-width="2" d="m27 21 4-4"/><path stroke="#000" stroke-linejoin="round" stroke-width="2" d="M39.293 39.293a1 1 0 0 1 0 1.414l-2.586 2.586a1 1 0 0 1-1.414 0l-8.586-8.586a1 1 0 0 1 0-1.414l2.586-2.586a1 1 0 0 1 1.414 0z"/><path stroke="#000" stroke-linecap="round" stroke-linejoin="round" stroke-width="2" d="m27 27 4 4"/><path stroke="#000" stroke-linejoin="round" stroke-width="2" d="M8.707 39.293a1 1 0 0 1-1.414 0l-2.586-2.586a1 1 0 0 1 0-1.414l8.586-8.586a1 1 0 0 1 1.414 0l2.586 2.586a1 1 0 0 1 0 1.414z"/><path stroke="#000" stroke-linecap="round" stroke-linejoin="round" stroke-width="2" d="m21 27-4 4"/><path stroke="#000" stroke-linejoin="round" stroke-width="2" d="M8.707 8.707a1 1 0 0 1 0-1.414l2.586-2.586a1 1 0 0 1 1.414 0l8.586 8.586a1 1 0 0 1 0 1.414l-2.586 2.586a1 1 0 0 1-1.414 0z"/><path stroke="#000" stroke-linecap="round" stroke-linejoin="round" stroke-width="2" d="m21 21-4-4"/><circle cx="24" cy="24" r="4" stroke="#000" stroke-width="2"/></svg>