<svg fill-opacity="1" stroke-opacity="1" xmlns="http://www.w3.org/2000/svg" width="48" height="48" fill="none" viewBox="0 0 48 48"><path stroke="#000" stroke-linecap="round" stroke-width="2" d="M32.485 24.485A11.96 11.96 0 0 0 36 16c0-6.627-5.373-12-12-12S12 9.373 12 16c0 3.314 1.343 6.314 3.515 8.485"/><path stroke="#000" stroke-linecap="round" stroke-linejoin="round" stroke-width="2" d="m6 44 1-5 11-8 6 6 6-6 11 8 1 5"/><path stroke="#000" stroke-width="2" d="M12.993 21.007Q13.013 14.842 15 12c1.988-2.841 3.387-2.632 4.405-2.19s1.618 3.334 3.319 4.168c1.7.833 6.054.936 7.545 1.939 1.49 1.002 4.9 2.867 4.05 6.051"/></svg>