<svg fill-opacity="1" stroke-opacity="1" xmlns="http://www.w3.org/2000/svg" width="48" height="48" fill="none" viewBox="0 0 48 48"><path stroke="#000" stroke-linejoin="round" stroke-width="2" d="M19.225 6.37c-3.183 0-8.063 1.837-6.366 13.213q.04.258.095.557c.31 1.711.788 4.36-2.254 6.544 2.069 1.698 5.016 3.395 8.597 4.13a28 28 0 0 1-.532 2.414c-.291 1.068-.901 1.825-1.991 2.148-.96.284-1.966.514-2.996.75q-.398.09-.8.184c-1.285.299-2.595.63-3.756 1.098-1.164.47-2.246 1.103-3.028 2.047-.796.963-1.222 2.177-1.193 3.695.01.472.414.85.91.85h36.178c.496 0 .9-.378.91-.85.029-1.518-.396-2.732-1.193-3.695-.781-.944-1.864-1.578-3.027-2.047-1.162-.469-2.472-.8-3.758-1.099l-.798-.183c-1.031-.236-2.037-.466-2.997-.75-1.09-.323-1.7-1.08-1.991-2.148a27 27 0 0 1-.606-2.88c2.738-.824 5.648-2.305 8.671-4.67l-.014-.014c-1.419-1.358-4.079-3.904-4.268-9.948 0-8.322-5.306-15.637-13.793-9.347Z"/></svg>