<svg fill-opacity="1" stroke-opacity="1" xmlns="http://www.w3.org/2000/svg" width="48" height="48" fill="none" viewBox="0 0 48 48"><path stroke="#000" stroke-width="2" d="M24 44c11.046 0 20-8.954 20-20S35.046 4 24 4 4 12.954 4 24s8.954 20 20 20Z"/><path stroke="#000" stroke-width="2" d="M4 20.84q4.523-2.135 6.69-.595c2.167 1.54 2.438 7.819 7.368 4.819s-2.111-4.224-.583-8.57c1.528-4.347 6.533-.97 7.03-5.731q.499-4.761-11.39-3.644"/><path stroke="#000" stroke-linecap="round" stroke-width="2" d="M36 8q-8.571 7.483-5.987 9.037c2.584 1.555 3.68-.634 6.834 0s2.47 4.909.812 4.909-10.249-1.094-9.816 3.919 5.6 5.755 5.6 8.556q0 2.8-3.43 8.573M6.104 32.926a89 89 0 0 1 2.056-.874q5.77-2.33 8.564-1.099c3.292 1.453 2.026 4.387 3.058 5.468 1.03 1.081 3.606.767 3.606 2.823q0 2.057-1.382 4.646"/></svg>