<svg fill-opacity="1" stroke-opacity="1" xmlns="http://www.w3.org/2000/svg" width="48" height="48" fill="none" viewBox="0 0 48 48"><path stroke="#000" stroke-linecap="round" stroke-linejoin="round" stroke-width="2" d="M4.143 21.08c.355-3.786.533-5.68 2.513-7.705s4.16-2.28 8.517-2.788C18.003 10.257 21.131 10 24 10c2.87 0 5.996.257 8.827.587 4.358.508 6.537.763 8.517 2.788s2.158 3.919 2.513 7.706c.09.955.143 1.937.143 2.919s-.054 1.964-.143 2.92c-.355 3.786-.533 5.68-2.513 7.705s-4.16 2.28-8.517 2.788c-2.83.33-5.957.587-8.827.587s-5.996-.257-8.827-.587c-4.358-.508-6.537-.763-8.517-2.788s-2.158-3.919-2.513-7.706A31 31 0 0 1 4 24c0-.982.054-1.964.143-2.92M16 19v10"/><path stroke="#000" stroke-linecap="round" stroke-linejoin="round" stroke-width="2" d="m33 19-5 5 5 5"/></svg>