<svg fill-opacity="1" stroke-opacity="1" xmlns="http://www.w3.org/2000/svg" width="48" height="48" fill="none" viewBox="0 0 48 48"><path stroke="#000" stroke-linejoin="round" stroke-width="2" d="M24 42.333c10.126 0 18.334-8.208 18.334-18.333S34.126 5.667 24 5.667 5.667 13.875 5.667 24c0 2.486 1.14 3.687 2.947 4.745 1.807 1.057 5.206.882 7.519 2.956 2.312 2.075 2.468 5.45 2.947 7.09s2.435 3.542 4.92 3.542Z"/><path stroke="#000" stroke-linejoin="round" stroke-width="2" d="M19.526 18.541q-.807 1.962-.807 4.612 0 2.52.535 4.99a3.056 3.056 0 0 0 3.812 2.294q2.7-.757 4.701-1.983 1.871-1.146 3.489-2.894a3.056 3.056 0 0 0-.278-4.413 33 33 0 0 0-3.977-2.87q-2.17-1.328-4.25-1.602a3.056 3.056 0 0 0-3.225 1.866Z"/></svg>