<svg fill-opacity="1" stroke-opacity="1" xmlns="http://www.w3.org/2000/svg" width="48" height="48" fill="none" viewBox="0 0 48 48"><path stroke="#000" stroke-linejoin="round" stroke-width="2" d="M11.064 10.414Q19.378 10 23.998 10t12.939.415a6 6 0 0 1 5.68 5.492q.381 4.55.381 8.017 0 3.508-.39 8.128a6 6 0 0 1-5.587 5.483Q29.91 38 23.998 38q-5.91 0-13.018-.465a6 6 0 0 1-5.587-5.48q-.395-4.655-.395-8.131 0-3.435.385-8.02a6 6 0 0 1 5.68-5.49Z"/><path stroke="#000" stroke-linejoin="round" stroke-width="2" d="M21 19.61v8.796a.857.857 0 0 0 1.33.715l6.597-4.36a.857.857 0 0 0 .006-1.427l-6.598-4.436a.857.857 0 0 0-1.335.711Z"/></svg>