<svg fill-opacity="1" stroke-opacity="1" xmlns="http://www.w3.org/2000/svg" width="48" height="48" fill="none" viewBox="0 0 48 48"><path stroke="#000" stroke-linejoin="round" stroke-width="2" d="M4.629 12.749 24 5l19.371 7.749a1 1 0 0 1 .629.928V42a1 1 0 0 1-1 1H5a1 1 0 0 1-1-1V13.677a1 1 0 0 1 .629-.928Z" clip-rule="evenodd"/><path stroke="#000" stroke-linecap="round" stroke-width="2" d="M24 22v10"/><path stroke="#000" stroke-width="2" d="M33 27c1.657 0 3-1.12 3-2.5S34.657 22 33 22h-2.7a.3.3 0 0 0-.3.3v2.2c0 1.38 1.343 2.5 3 2.5Z" clip-rule="evenodd"/><path stroke="#000" stroke-linecap="round" stroke-width="2" d="M30 22v10"/><path stroke="#000" stroke-linecap="round" stroke-linejoin="round" stroke-width="2" d="M12 22h6.005L12 32h6.005"/></svg>