<svg fill-opacity="1" stroke-opacity="1" xmlns="http://www.w3.org/2000/svg" width="48" height="48" fill="none" viewBox="0 0 48 48"><path stroke="#000" stroke-linecap="round" stroke-linejoin="round" stroke-width="2" d="M20 43c-4.726-1.767-8.667-7.815-10.64-11.357-.852-1.53-.403-3.408.964-4.502a3.83 3.83 0 0 1 5.1.283L17 29v-8.5a2.5 2.5 0 0 1 5 0v-4a2.5 2.5 0 0 1 5 0v8a2.5 2.5 0 0 1 5 0v3a2.5 2.5 0 0 1 5 0v7.868c0 1.07-.265 2.128-.882 3.003C35.095 39.82 33.256 42.034 31 43c-3.5 1.5-6.63 1.634-11 0M13 8h22M17 12l-4-4 4-4M31 4l4 4-4 4"/></svg>